/* XPM */
static char * collectible_xpm[] = {
"34 34 279 2",
"  	c #C0D470",
". 	c #C0D471",
"+ 	c #B6CE7E",
"@ 	c #A7C687",
"# 	c #9BBF86",
"$ 	c #8AB383",
"% 	c #81AD7A",
"& 	c #8AB070",
"* 	c #91B46A",
"= 	c #A9C36A",
"- 	c #BFD370",
"; 	c #BBD178",
"> 	c #A4C590",
", 	c #99BE94",
"' 	c #93BB8E",
") 	c #8DB787",
"! 	c #84B07E",
"~ 	c #7BAA75",
"{ 	c #72A36C",
"] 	c #679A60",
"^ 	c #5C9155",
"/ 	c #759C53",
"( 	c #B4CA6A",
"_ 	c #B1CC83",
": 	c #9DC095",
"< 	c #97BD92",
"[ 	c #92BA8D",
"} 	c #8EB788",
"| 	c #86B380",
"1 	c #7FAD78",
"2 	c #74A66E",
"3 	c #6B9E64",
"4 	c #609659",
"5 	c #538C4C",
"6 	c #478240",
"7 	c #477E37",
"8 	c #96B059",
"9 	c #ABC884",
"0 	c #95BC90",
"a 	c #90B98B",
"b 	c #8CB686",
"c 	c #85B27F",
"d 	c #7FAE78",
"e 	c #75A76E",
"f 	c #6CA065",
"g 	c #61985A",
"h 	c #568F4E",
"i 	c #498542",
"j 	c #3E7B36",
"k 	c #327229",
"l 	c #26691D",
"m 	c #88A34E",
"n 	c #B1CB79",
"o 	c #8FB889",
"p 	c #8BB585",
"q 	c #82B07B",
"r 	c #7CAC75",
"s 	c #74A66D",
"t 	c #6BA064",
"u 	c #56904E",
"v 	c #4B8743",
"w 	c #3E7D36",
"x 	c #327329",
"y 	c #26691C",
"z 	c #186010",
"A 	c #0F5805",
"B 	c #A0B65C",
"C 	c #8CB57D",
"D 	c #84B17E",
"E 	c #82B07C",
"F 	c #81AF7A",
"G 	c #76A96F",
"H 	c #71A46A",
"I 	c #689E61",
"J 	c #5E9857",
"K 	c #54904C",
"L 	c #498741",
"M 	c #3E7E35",
"N 	c #317428",
"O 	c #256A1B",
"P 	c #175E0E",
"Q 	c #105A07",
"R 	c #125B09",
"S 	c #51782D",
"T 	c #BED26F",
"U 	c #ABC671",
"V 	c #7AAA73",
"W 	c #79AA72",
"X 	c #74A76D",
"Y 	c #70A469",
"Z 	c #69A062",
"` 	c #649B5C",
" .	c #5A9552",
"..	c #518E49",
"+.	c #46873E",
"@.	c #3B7D32",
"#.	c #2F7426",
"$.	c #226919",
"%.	c #165F0C",
"&.	c #125A08",
"*.	c #145D0B",
"=.	c #175E0D",
"-.	c #196010",
";.	c #9FB65C",
">.	c #91B56A",
",.	c #6DA167",
"'.	c #6CA165",
").	c #699F62",
"!.	c #669D5E",
"~.	c #629A5A",
"{.	c #5B9653",
"].	c #54914C",
"^.	c #4B8A43",
"/.	c #428439",
"(.	c #367A2D",
"_.	c #2B7121",
":.	c #1F6816",
"<.	c #135E09",
"[.	c #135C09",
"}.	c #165D0C",
"|.	c #185E0E",
"1.	c #1B6112",
"2.	c #1D6213",
"3.	c #7A9847",
"4.	c #76A35D",
"5.	c #5F9758",
"6.	c #5E9656",
"7.	c #5B9553",
"8.	c #56924E",
"9.	c #518F49",
"0.	c #43853B",
"a.	c #3B7F32",
"b.	c #317627",
"c.	c #266F1C",
"d.	c #196410",
"e.	c #115D07",
"f.	c #135D0A",
"g.	c #196011",
"h.	c #1C6112",
"i.	c #1F6315",
"j.	c #216518",
"k.	c #517C30",
"l.	c #5E924E",
"m.	c #518C49",
"n.	c #4F8B46",
"o.	c #418338",
"p.	c #3A7E31",
"q.	c #337829",
"r.	c #28701E",
"s.	c #1F6915",
"t.	c #14610A",
"u.	c #125E08",
"v.	c #15600B",
"w.	c #195F0F",
"x.	c #1B6213",
"y.	c #1E6314",
"z.	c #206517",
"A.	c #23661A",
"B.	c #26681C",
"C.	c #326E23",
"D.	c #528940",
"E.	c #42813A",
"F.	c #3F7F36",
"G.	c #3A7C31",
"H.	c #35792C",
"I.	c #2F7525",
"J.	c #27701D",
"K.	c #206A16",
"L.	c #16630C",
"M.	c #115F07",
"N.	c #145F0A",
"O.	c #17610D",
"P.	c #1A6111",
"Q.	c #1F6517",
"R.	c #276A1E",
"S.	c #2A6B21",
"T.	c #3E742A",
"U.	c #5E8A3D",
"V.	c #2D7224",
"W.	c #276E1E",
"X.	c #236C1A",
"Y.	c #1B6612",
"Z.	c #15610B",
"`.	c #135F0A",
" +	c #16600C",
".+	c #196210",
"++	c #1C6213",
"@+	c #206416",
"#+	c #216619",
"$+	c #25681B",
"%+	c #2C6D23",
"&+	c #2E6F25",
"*+	c #5B8539",
"=+	c #7B9A48",
"-+	c #216818",
";+	c #1C6413",
">+	c #17610E",
",+	c #105C06",
"'+	c #125D08",
")+	c #135E0A",
"!+	c #19610F",
"~+	c #1B6212",
"{+	c #1F6415",
"]+	c #206518",
"^+	c #24681B",
"/+	c #296B20",
"(+	c #307027",
"_+	c #327129",
":+	c #7E9E4C",
"<+	c #9EB55C",
"[+	c #105906",
"}+	c #115B07",
"|+	c #135D09",
"1+	c #145E0A",
"2+	c #17600D",
"3+	c #19600F",
"4+	c #23671B",
"5+	c #286A1F",
"6+	c #33722A",
"7+	c #34732C",
"8+	c #36742D",
"9+	c #A1B95F",
"0+	c #50772C",
"a+	c #185F0E",
"b+	c #1D6314",
"c+	c #22671A",
"d+	c #2B6C22",
"e+	c #2D6E24",
"f+	c #38752F",
"g+	c #5B883E",
"h+	c #A0B75C",
"i+	c #1F6416",
"j+	c #226619",
"k+	c #2C6D24",
"l+	c #2F6F26",
"m+	c #397630",
"n+	c #3A7732",
"o+	c #3C7934",
"p+	c #A2BB61",
"q+	c #87A24E",
"r+	c #24671B",
"s+	c #317028",
"t+	c #33722B",
"u+	c #3E7A35",
"v+	c #8CAA56",
"w+	c #BFD36F",
"x+	c #90AB54",
"y+	c #326C21",
"z+	c #37752E",
"A+	c #397731",
"B+	c #3B7833",
"C+	c #3D7935",
"D+	c #467E38",
"E+	c #94B15A",
"F+	c #B3C868",
"G+	c #658B3E",
"H+	c #35742D",
"I+	c #74974A",
"J+	c #C1D26F",
"K+	c #D0DE76",
"L+	c #CFDE75",
"M+	c #A2BB5F",
"N+	c #7D9D4B",
"O+	c #688F42",
"P+	c #719548",
"Q+	c #88A552",
"R+	c #B3C667",
"S+	c #D1DF76",
"T+	c #D2E077",
"U+	c #D1DF77",
"V+	c #C4D772",
"W+	c #C2D571",
"X+	c #CBDB74",
"Y+	c #C4D771",
"Z+	c #CADB74",
"`+	c #C1D570",
" @	c #C1D470",
".@	c #C6D872",
"+@	c #CEDD75",
"                                                                    ",
"                                                                    ",
"                                                                    ",
"                                                                    ",
"                                                                    ",
"                                                                    ",
"                                                                    ",
"                        . + @ # $ % & * = -                         ",
"                      ; > , ' ) ! ~ { ] ^ / (                       ",
"                    _ : < [ } | 1 2 3 4 5 6 7 8                     ",
"                  9 0 ' a b c d e f g h i j k l m                   ",
"                n o ) p | q r s t g u v w x y z A B                 ",
"              - C D E F r G H I J K L M N O P Q R S T               ",
"              U V W G X Y Z `  ...+.@.#.$.%.&.*.=.-.;.              ",
"              >.,.'.).!.~.{.].^./.(._.:.<.[.}.|.1.2.3.              ",
"              4.5.6.7.8.9.^.0.a.b.c.d.e.f.=.g.h.i.j.k.              ",
"              l.m.n.^.+.o.p.q.r.s.t.u.v.w.x.y.z.A.B.C.              ",
"              D.E.F.G.H.I.J.K.L.M.N.O.P.y.Q.A.B.R.S.T.              ",
"              U.N V.W.X.Y.Z.M.`. +.+++@+#+$+R.S.%+&+*+              ",
"              =+-+;+>+,+'+)+ +!+~+{+]+^+l /+%+&+(+_+:+              ",
"              <+[+}+|+1+2+3+1.y.z.4+B.5+%+&+(+6+7+8+9+              ",
"              T 0+*.a+-.++b+Q.c+$+R.d+e+(+6+7+8+f+g+T               ",
"                h+-.1.2.i+j+$+R.S.k+l+_+7+8+m+n+o+p+                ",
"                  q+i+j.r+l /+%+&+s+t+8+f+n+o+u+v+                  ",
"                  w+x+y+5+d+e+(+6+7+z+A+B+C+D+E+-                   ",
"                      F+G+e+(+6+H+f+n+o+u+I+J+K+K+K+K+L+            ",
"                        w+M+N+O+f+A+P+Q+R+S+T+T+T+T+T+U+V+W+        ",
"                            V+T+T+T+T+T+T+T+T+T+T+T+T+T+T+X+        ",
"                            V+T+T+T+T+T+T+T+T+T+T+T+T+T+T+X+        ",
"                            Y+U+T+T+T+T+T+T+T+T+T+T+T+T+U+Z+        ",
"                              `+Z+T+T+T+T+T+T+T+T+T+T+S+`+ @        ",
"                                .@X+X+X+X+X+X+X+X+X+X+X+            ",
"                                                                    ",
"            .@+@+@+@+@+@+@W+                                        "};
