/* XPM */
static char * collectible_xpm[] = {
"34 34 901 2",
"  	c #97835E",
". 	c #917D58",
"+ 	c #A58E6E",
"@ 	c #AC9575",
"# 	c #AD9579",
"$ 	c #BCA48A",
"% 	c #B8A088",
"& 	c #A58F78",
"* 	c #A7907E",
"= 	c #A89682",
"- 	c #91806E",
"; 	c #796C59",
"> 	c #79715C",
", 	c #746F59",
"' 	c #69644E",
") 	c #67654E",
"! 	c #817C66",
"~ 	c #847E66",
"{ 	c #89816A",
"] 	c #85795F",
"^ 	c #817056",
"/ 	c #937E61",
"( 	c #A78D72",
"_ 	c #A78C6F",
": 	c #B19476",
"< 	c #BA9D7F",
"[ 	c #BCA184",
"} 	c #C2A98B",
"| 	c #CBB399",
"1 	c #BEAA8F",
"2 	c #AC987F",
"3 	c #A4947B",
"4 	c #9D8C78",
"5 	c #9A8B78",
"6 	c #9C8865",
"7 	c #AA9673",
"8 	c #C4AD8D",
"9 	c #B49D7E",
"0 	c #967E62",
"a 	c #968166",
"b 	c #A69078",
"c 	c #B49E87",
"d 	c #A38E7B",
"e 	c #9B8C79",
"f 	c #897C69",
"g 	c #817964",
"h 	c #7B755F",
"i 	c #75705A",
"j 	c #7A755F",
"k 	c #89846E",
"l 	c #88826A",
"m 	c #7D735A",
"n 	c #85775D",
"o 	c #9C8B6F",
"p 	c #998467",
"q 	c #947B5D",
"r 	c #A98E71",
"s 	c #C6A98B",
"t 	c #C9AE91",
"u 	c #BCA385",
"v 	c #B8A086",
"w 	c #B6A287",
"x 	c #AB9A80",
"y 	c #9E8E75",
"z 	c #978873",
"A 	c #948774",
"B 	c #B7A080",
"C 	c #B59E7E",
"D 	c #B4A07F",
"E 	c #A59071",
"F 	c #9D886B",
"G 	c #A28E73",
"H 	c #A28E75",
"I 	c #A4927A",
"J 	c #9F8E7A",
"K 	c #9A8B76",
"L 	c #8F806D",
"M 	c #807360",
"N 	c #756D58",
"O 	c #756F59",
"P 	c #7C7660",
"Q 	c #857F69",
"R 	c #868068",
"S 	c #8C856B",
"T 	c #8B7F65",
"U 	c #96866C",
"V 	c #A79378",
"W 	c #9F876B",
"X 	c #A38A6C",
"Y 	c #C6AB8D",
"Z 	c #C0A385",
"` 	c #CBAE90",
" .	c #CAAF92",
"..	c #B8A182",
"+.	c #AB967B",
"@.	c #AF9B80",
"#.	c #A9987E",
"$.	c #988871",
"%.	c #968A74",
"&.	c #948975",
"*.	c #B69F80",
"=.	c #B09B7E",
"-.	c #A69375",
";.	c #A89479",
">.	c #A8977D",
",.	c #9C8C73",
"'.	c #9C8C75",
").	c #998A75",
"!.	c #877B65",
"~.	c #7C6F5C",
"{.	c #766B57",
"].	c #746955",
"^.	c #776F5A",
"/.	c #7F7762",
"(.	c #817962",
"_.	c #7F755C",
":.	c #877B61",
"<.	c #97896E",
"[.	c #9A896D",
"}.	c #A28B6C",
"|.	c #BFA687",
"1.	c #CEB395",
"2.	c #D2B597",
"3.	c #BCA183",
"4.	c #B59C7E",
"5.	c #B69E82",
"6.	c #AE997E",
"7.	c #A5947A",
"8.	c #91826B",
"9.	c #887D69",
"0.	c #857D68",
"a.	c #B49C80",
"b.	c #B39B7F",
"c.	c #B29D82",
"d.	c #AA967D",
"e.	c #A6967C",
"f.	c #A19379",
"g.	c #8F836B",
"h.	c #8D816B",
"i.	c #847963",
"j.	c #7D725E",
"k.	c #7E735F",
"l.	c #847965",
"m.	c #857A66",
"n.	c #877A67",
"o.	c #83775F",
"p.	c #8D7F65",
"q.	c #908164",
"r.	c #97866A",
"s.	c #998668",
"t.	c #A18A6B",
"u.	c #BAA182",
"v.	c #CBB092",
"w.	c #C3A88A",
"x.	c #CCB193",
"y.	c #AF9476",
"z.	c #A78E70",
"A.	c #AF9A7D",
"B.	c #AB977E",
"C.	c #9D8B73",
"D.	c #94846B",
"E.	c #887C64",
"F.	c #877F6A",
"G.	c #857E6B",
"H.	c #B9A189",
"I.	c #A8927A",
"J.	c #9C8A72",
"K.	c #9F9177",
"L.	c #9D9179",
"M.	c #897E68",
"N.	c #7A725B",
"O.	c #6D6550",
"P.	c #746E58",
"Q.	c #7C745F",
"R.	c #837864",
"S.	c #867966",
"T.	c #8A7B66",
"U.	c #8E7D69",
"V.	c #92826B",
"W.	c #928165",
"X.	c #A08F71",
"Y.	c #9E8B6D",
"Z.	c #C5AC8D",
"`.	c #CBB293",
" +	c #C1A688",
".+	c #C7AC8E",
"++	c #B99E80",
"@+	c #B09779",
"#+	c #AA957A",
"$+	c #A08E76",
"%+	c #978770",
"&+	c #8F8069",
"*+	c #857963",
"=+	c #776F5C",
"-+	c #746D5A",
";+	c #A7917A",
">+	c #9A846D",
",+	c #9B8971",
"'+	c #95856E",
")+	c #867E67",
"!+	c #817B63",
"~+	c #7D7862",
"{+	c #66614B",
"]+	c #78725A",
"^+	c #796E58",
"/+	c #867762",
"(+	c #8F7E6A",
"_+	c #93816D",
":+	c #9E8A72",
"<+	c #8E795C",
"[+	c #A69172",
"}+	c #B0997A",
"|+	c #B9A081",
"1+	c #C8AF90",
"2+	c #C0A685",
"3+	c #B39A7B",
"4+	c #AB9274",
"5+	c #A19076",
"6+	c #998970",
"7+	c #867A64",
"8+	c #7F7460",
"9+	c #79725F",
"0+	c #76715E",
"a+	c #A58F7A",
"b+	c #8F7A65",
"c+	c #908069",
"d+	c #8C7D68",
"e+	c #7D725C",
"f+	c #7F7961",
"g+	c #6A6851",
"h+	c #7E765F",
"i+	c #817660",
"j+	c #988A75",
"k+	c #A0A184",
"l+	c #9AAD88",
"m+	c #94B186",
"n+	c #89B383",
"o+	c #81AC7A",
"p+	c #8CA877",
"q+	c #97A679",
"r+	c #A9A17A",
"s+	c #B9A280",
"t+	c #B89F80",
"u+	c #AD9677",
"v+	c #A78F73",
"w+	c #A49379",
"x+	c #968770",
"y+	c #887C66",
"z+	c #786D59",
"A+	c #746C59",
"B+	c #7B7462",
"C+	c #797461",
"D+	c #A48F7C",
"E+	c #8A7864",
"F+	c #887B68",
"G+	c #7D7761",
"H+	c #716C56",
"I+	c #74725B",
"J+	c #827D67",
"K+	c #7E7963",
"L+	c #948C75",
"M+	c #89876C",
"N+	c #9CB891",
"O+	c #99BE94",
"P+	c #93BB8E",
"Q+	c #8DB787",
"R+	c #84B07E",
"S+	c #7BAA75",
"T+	c #72A36C",
"U+	c #679A60",
"V+	c #5C9155",
"W+	c #718D58",
"X+	c #A99776",
"Y+	c #A89172",
"Z+	c #9C896B",
"`+	c #98876B",
" @	c #99896F",
".@	c #92846A",
"+@	c #80745E",
"@@	c #706551",
"#@	c #6A624F",
"$@	c #7A7361",
"%@	c #75705D",
"&@	c #988775",
"*@	c #8A7B68",
"=@	c #716954",
"-@	c #7B7660",
";@	c #77725C",
">@	c #837D65",
",@	c #9DAA88",
"'@	c #9ABD95",
")@	c #97BD92",
"!@	c #92BA8D",
"~@	c #8EB788",
"{@	c #86B380",
"]@	c #7FAD78",
"^@	c #74A66E",
"/@	c #6B9E64",
"(@	c #609659",
"_@	c #538C4C",
":@	c #478240",
"<@	c #457A38",
"[@	c #86875F",
"}@	c #968569",
"|@	c #95856B",
"1@	c #94866C",
"2@	c #8A7E66",
"3@	c #796E5A",
"4@	c #726A57",
"5@	c #6E6653",
"6@	c #766F5D",
"7@	c #807362",
"8@	c #7E7160",
"9@	c #857A68",
"0@	c #7C7461",
"a@	c #756E5B",
"b@	c #7C7562",
"c@	c #787059",
"d@	c #90A47F",
"e@	c #95BC90",
"f@	c #90B98B",
"g@	c #8CB686",
"h@	c #85B27F",
"i@	c #7FAE78",
"j@	c #75A76E",
"k@	c #6CA065",
"l@	c #61985A",
"m@	c #568F4E",
"n@	c #498542",
"o@	c #3E7B36",
"p@	c #327229",
"q@	c #26691D",
"r@	c #656F47",
"s@	c #8E8066",
"t@	c #726753",
"u@	c #7A725F",
"v@	c #756D5A",
"w@	c #78715E",
"x@	c #807865",
"y@	c #79715E",
"z@	c #8E866F",
"A@	c #899371",
"B@	c #8FB889",
"C@	c #8BB585",
"D@	c #82B07B",
"E@	c #7CAC75",
"F@	c #74A66D",
"G@	c #6BA064",
"H@	c #56904E",
"I@	c #4B8743",
"J@	c #3E7D36",
"K@	c #327329",
"L@	c #26691C",
"M@	c #186010",
"N@	c #0F5805",
"O@	c #707151",
"P@	c #7F745E",
"Q@	c #706853",
"R@	c #6C6451",
"S@	c #837B68",
"T@	c #7D7562",
"U@	c #7F7764",
"V@	c #827B68",
"W@	c #736C5A",
"X@	c #78715F",
"Y@	c #807766",
"Z@	c #7C715F",
"`@	c #8E836C",
" #	c #85AD7C",
".#	c #84B17E",
"+#	c #82B07C",
"@#	c #81AF7A",
"##	c #76A96F",
"$#	c #71A46A",
"%#	c #689E61",
"&#	c #5E9857",
"*#	c #54904C",
"=#	c #498741",
"-#	c #3E7E35",
";#	c #317428",
">#	c #256A1B",
",#	c #175E0E",
"'#	c #105A07",
")#	c #125B09",
"!#	c #376228",
"~#	c #777058",
"{#	c #6B654F",
"]#	c #6C6552",
"^#	c #857C6B",
"/#	c #877F6C",
"(#	c #89816C",
"_#	c #63604D",
":#	c #736E5B",
"<#	c #7D7865",
"[#	c #857E6C",
"}#	c #897E6C",
"|#	c #8C7F6C",
"1#	c #90816E",
"2#	c #7E8863",
"3#	c #7AAA73",
"4#	c #79AA72",
"5#	c #74A76D",
"6#	c #70A469",
"7#	c #69A062",
"8#	c #649B5C",
"9#	c #5A9552",
"0#	c #518E49",
"a#	c #46873E",
"b#	c #3B7D32",
"c#	c #2F7426",
"d#	c #226919",
"e#	c #165F0C",
"f#	c #125A08",
"g#	c #145D0B",
"h#	c #175E0D",
"i#	c #196010",
"j#	c #636C4C",
"k#	c #726C56",
"l#	c #726B58",
"m#	c #827968",
"n#	c #807563",
"o#	c #757460",
"p#	c #797864",
"q#	c #746F5C",
"r#	c #77705E",
"s#	c #91826F",
"t#	c #A08F7D",
"u#	c #7D9568",
"v#	c #6DA167",
"w#	c #6CA165",
"x#	c #699F62",
"y#	c #669D5E",
"z#	c #629A5A",
"A#	c #5B9653",
"B#	c #54914C",
"C#	c #4B8A43",
"D#	c #428439",
"E#	c #367A2D",
"F#	c #2B7121",
"G#	c #1F6816",
"H#	c #135E09",
"I#	c #135C09",
"J#	c #165D0C",
"K#	c #185E0E",
"L#	c #1B6112",
"M#	c #1D6213",
"N#	c #506A3E",
"O#	c #7D7864",
"P#	c #7A7360",
"Q#	c #7E7564",
"R#	c #7A6F5D",
"S#	c #7A6D5C",
"T#	c #827562",
"U#	c #82816D",
"V#	c #797663",
"W#	c #6D6854",
"X#	c #92836E",
"Y#	c #A3917B",
"Z#	c #6D965D",
"`#	c #5F9758",
" $	c #5E9656",
".$	c #5B9553",
"+$	c #56924E",
"@$	c #518F49",
"#$	c #43853B",
"$$	c #3B7F32",
"%$	c #317627",
"&$	c #266F1C",
"*$	c #196410",
"=$	c #115D07",
"-$	c #135D0A",
";$	c #196011",
">$	c #1C6112",
",$	c #1F6315",
"'$	c #216518",
")$	c #3A692D",
"!$	c #87806D",
"~$	c #817A67",
"{$	c #7E7663",
"]$	c #7D7260",
"^$	c #83745F",
"/$	c #8F806B",
"($	c #8A8571",
"_$	c #766F5C",
":$	c #746C57",
"<$	c #837862",
"[$	c #8B7D63",
"}$	c #938369",
"|$	c #A49173",
"1$	c #5C8E4F",
"2$	c #518C49",
"3$	c #4F8B46",
"4$	c #418338",
"5$	c #3A7E31",
"6$	c #337829",
"7$	c #28701E",
"8$	c #1F6915",
"9$	c #14610A",
"0$	c #125E08",
"a$	c #15600B",
"b$	c #195F0F",
"c$	c #1B6213",
"d$	c #1E6314",
"e$	c #206517",
"f$	c #23661A",
"g$	c #26681C",
"h$	c #2B6A21",
"i$	c #817966",
"j$	c #867B69",
"k$	c #776B55",
"l$	c #88785F",
"m$	c #8C7C62",
"n$	c #89816E",
"o$	c #8A826D",
"p$	c #867B65",
"q$	c #97876D",
"r$	c #9E8D6F",
"s$	c #AA9675",
"t$	c #528443",
"u$	c #42813A",
"v$	c #3F7F36",
"w$	c #3A7C31",
"x$	c #35792C",
"y$	c #2F7525",
"z$	c #27701D",
"A$	c #206A16",
"B$	c #16630C",
"C$	c #115F07",
"D$	c #145F0A",
"E$	c #17610D",
"F$	c #1A6111",
"G$	c #1F6517",
"H$	c #276A1E",
"I$	c #2A6B21",
"J$	c #346D29",
"K$	c #887D6B",
"L$	c #8A7D6A",
"M$	c #84755E",
"N$	c #958468",
"O$	c #817662",
"P$	c #958973",
"Q$	c #90846C",
"R$	c #A09174",
"S$	c #A89877",
"T$	c #B09C7B",
"U$	c #618248",
"V$	c #2D7224",
"W$	c #276E1E",
"X$	c #236C1A",
"Y$	c #1B6612",
"Z$	c #15610B",
"`$	c #135F0A",
" %	c #16600C",
".%	c #196210",
"+%	c #1C6213",
"@%	c #206416",
"#%	c #216619",
"$%	c #25681B",
"%%	c #2C6D23",
"&%	c #2E6F25",
"*%	c #487239",
"=%	c #8B7E6B",
"-%	c #847560",
";%	c #A7967C",
">%	c #A59478",
",%	c #81725B",
"'%	c #90816A",
")%	c #928269",
"!%	c #A9987A",
"~%	c #B4A181",
"{%	c #BBA786",
"]%	c #838B5E",
"^%	c #216818",
"/%	c #1C6413",
"(%	c #17610E",
"_%	c #105C06",
":%	c #125D08",
"<%	c #135E0A",
"[%	c #19610F",
"}%	c #1B6212",
"|%	c #1F6415",
"1%	c #206518",
"2%	c #24681B",
"3%	c #296B20",
"4%	c #307027",
"5%	c #327129",
"6%	c #62794D",
"7%	c #8B7C67",
"8%	c #91826D",
"9%	c #91816A",
"0%	c #897962",
"a%	c #A6957B",
"b%	c #A29175",
"c%	c #8E7E64",
"d%	c #8B7B61",
"e%	c #AA9779",
"f%	c #B7A484",
"g%	c #C0AC8B",
"h%	c #C9B290",
"i%	c #A89D79",
"j%	c #105906",
"k%	c #115B07",
"l%	c #135D09",
"m%	c #145E0A",
"n%	c #17600D",
"o%	c #19600F",
"p%	c #23671B",
"q%	c #286A1F",
"r%	c #33722A",
"s%	c #34732C",
"t%	c #36742D",
"u%	c #848666",
"v%	c #96866F",
"w%	c #9C8B71",
"x%	c #918066",
"y%	c #9E8D73",
"z%	c #A39278",
"A%	c #9D8A6C",
"B%	c #948163",
"C%	c #A38E71",
"D%	c #BAA586",
"E%	c #C2AE8D",
"F%	c #C8B191",
"G%	c #CBB492",
"H%	c #C3AD8A",
"I%	c #4B6831",
"J%	c #185F0E",
"K%	c #1D6314",
"L%	c #22671A",
"M%	c #2B6C22",
"N%	c #2D6E24",
"O%	c #38752F",
"P%	c #4E7A3E",
"Q%	c #9F9079",
"R%	c #9C886D",
"S%	c #AA997F",
"T%	c #9E8768",
"U%	c #A79071",
"V%	c #B39C7D",
"W%	c #C1AA8A",
"X%	c #CAB393",
"Y%	c #9D926F",
"Z%	c #1F6416",
"`%	c #226619",
" &	c #2C6D24",
".&	c #2F6F26",
"+&	c #397630",
"@&	c #3A7732",
"#&	c #3C7934",
"$&	c #7F805D",
"%&	c #A29177",
"&&	c #A49075",
"*&	c #A69277",
"=&	c #AD987B",
"-&	c #A59073",
";&	c #A9957C",
">&	c #997E60",
",&	c #B79E7F",
"'&	c #C0A788",
")&	c #C2A98A",
"!&	c #D0B798",
"~&	c #CDB495",
"{&	c #BFA888",
"]&	c #C1AC8D",
"^&	c #C0AB8C",
"/&	c #70774D",
"(&	c #24671B",
"_&	c #317028",
":&	c #33722B",
"<&	c #3E7A35",
"[&	c #6F7F52",
"}&	c #9A896F",
"|&	c #AE9A7F",
"1&	c #AD997E",
"2&	c #AB9679",
"3&	c #AB9475",
"4&	c #A28D70",
"5&	c #A8947B",
"6&	c #BA9D7D",
"7&	c #D2B897",
"8&	c #C6AC8B",
"9&	c #C8AE8D",
"0&	c #C1AA8B",
"a&	c #B29D80",
"b&	c #B8A386",
"c&	c #AC997D",
"d&	c #767952",
"e&	c #2D6920",
"f&	c #37752E",
"g&	c #397731",
"h&	c #3B7833",
"i&	c #3D7935",
"j&	c #437B38",
"k&	c #7F8860",
"l&	c #9D8D73",
"m&	c #A69579",
"n&	c #A59176",
"o&	c #A89376",
"p&	c #A38F74",
"q&	c #96846C",
"r&	c #D1B492",
"s&	c #D6BC99",
"t&	c #C3A988",
"u&	c #C5AD8B",
"v&	c #B49F82",
"w&	c #AC987D",
"x&	c #A9957A",
"y&	c #8C8265",
"z&	c #52733C",
"A&	c #35742D",
"B&	c #61814C",
"C&	c #9D9477",
"D&	c #A8977B",
"E&	c #B1A084",
"F&	c #AF9C7E",
"G&	c #9B886A",
"H&	c #9A8568",
"I&	c #9B876C",
"J&	c #897960",
"K&	c #8C7D66",
"L&	c #D1B794",
"M&	c #C4AA89",
"N&	c #BAA384",
"O&	c #A99477",
"P&	c #98876D",
"Q&	c #A09077",
"R&	c #9F8F76",
"S&	c #8B7E64",
"T&	c #707550",
"U&	c #627A49",
"V&	c #52773E",
"W&	c #5B7E48",
"X&	c #6B8252",
"Y&	c #898966",
"Z&	c #A7977C",
"`&	c #AE9D83",
" *	c #B8A489",
".*	c #BCA98B",
"+*	c #9F8B70",
"@*	c #948065",
"#*	c #948369",
"$*	c #BFA582",
"%*	c #C3AB89",
"&*	c #BCA482",
"**	c #B49D7D",
"=*	c #A79275",
"-*	c #8B7F67",
";*	c #968B6F",
">*	c #897E62",
",*	c #98886E",
"'*	c #9B8B71",
")*	c #AC997B",
"!*	c #B5A284",
"~*	c #B19E80",
"{*	c #B09D7F",
"]*	c #AA967B",
"^*	c #99886C",
"/*	c #8D7D63",
"(*	c #85755C",
"_*	c #7D6F55",
":*	c #7A6E58",
"<*	c #BAA280",
"[*	c #B79F7D",
"}*	c #AE9576",
"|*	c #968267",
"1*	c #9F8F78",
"2*	c #837761",
"3*	c #8D836A",
"4*	c #92886D",
"5*	c #8B8166",
"6*	c #9A8F73",
"7*	c #93856A",
"8*	c #A49377",
"9*	c #BAA588",
"0*	c #BDA889",
"a*	c #AC977A",
"b*	c #A48F72",
"c*	c #AB987A",
"d*	c #9E8D71",
"e*	c #8C7B61",
"f*	c #918168",
"g*	c #817359",
"h*	c #7A6E56",
"i*	c #736751",
"j*	c #BDA583",
"k*	c #AD9676",
"l*	c #A69174",
"m*	c #9E8A71",
"n*	c #93836A",
"o*	c #918471",
"p*	c #8D806D",
"q*	c #867B67",
"r*	c #8B806C",
"s*	c #928771",
"t*	c #958B72",
"u*	c #877D62",
"v*	c #978C70",
"w*	c #9C8E71",
"x*	c #A59274",
"y*	c #B09B7C",
"z*	c #BCA586",
"A*	c #BAA383",
"B*	c #C0A98A",
"C*	c #BFA889",
"D*	c #A99273",
"E*	c #9F8869",
"F*	c #97866C",
"G*	c #817158",
"H*	c #887962",
"I*	c #796D57",
"J*	c #80755F",
"K*	c #827763",
"L*	c #B39C7C",
"M*	c #A79070",
"N*	c #A58E6F",
"O*	c #A39179",
"P*	c #887966",
"Q*	c #928574",
"R*	c #8C7F6E",
"S*	c #908571",
"T*	c #928773",
"U*	c #8F8770",
"V*	c #988E75",
"W*	c #8E8469",
"X*	c #A7997C",
"Y*	c #AD9879",
"Z*	c #BEA787",
"`*	c #C6AD8E",
" =	c #B9A17F",
".=	c #B69D7E",
"+=	c #B49B7C",
"@=	c #A68D6E",
"#=	c #A68F70",
"$=	c #968164",
"%=	c #8C785D",
"&=	c #88775D",
"*=	c #74644B",
"==	c #81755D",
"-=	c #766B55",
";=	c #807863",
">=	c #827A65",
",=	c #A18E70",
"'=	c #9A866B",
")=	c #928167",
"!=	c #93836C",
"~=	c #8D7E69",
"{=	c #857865",
"]=	c #8E836D",
"^=	c #A2967E",
"/=	c #A2967C",
"(=	c #B1A68A",
"_=	c #B8A98A",
":=	c #C3AF8E",
"<=	c #CBB391",
"[=	c #C3AA8B",
"}=	c #AF9878",
"|=	c #86765D",
"1=	c #75664F",
"2=	c #8C806A",
"3=	c #847C67",
"4=	c #7D7560",
"5=	c #7E7661",
"6=	c #97876E",
"7=	c #96886E",
"8=	c #8A7B64",
"9=	c #90846E",
"0=	c #95866F",
"a=	c #988972",
"b=	c #A7977D",
"c=	c #BDAC90",
"d=	c #C0AD8F",
"e=	c #A89577",
"f=	c #95846A",
"g=	c #908067",
"h=	c #7B6C55",
"i=	c #82735C",
"j=	c #7B6F59",
"k=	c #7E725C",
"l=	c #827761",
"m=	c #91856F",
"n=	c #8B7F69",
"o=	c #847862",
"p=	c #9C8D76",
"q=	c #A29279",
"r=	c #9C8C72",
"s=	c #B29E85",
"t=	c #BCA88D",
"u=	c #C8B396",
"v=	c #C9B495",
"w=	c #C3AA8C",
"x=	c #B19A7A",
"y=	c #A58D71",
"z=	c #A28F71",
"A=	c #99886E",
"B=	c #8F8167",
"C=	c #857661",
"D=	c #6D614B",
"E=	c #7D715B",
"F=	c #7F735D",
"G=	c #7C705A",
"H=	c #908370",
"  . + @ # $ % & * = - ; > , ' ) ! ~ { ] ^ / ( _ : < [ } | 1 2 3 4 5 ",
"6 7 8 9 0 a b c d = e f g h i j k l m n o p q r : s t u v w x y z A ",
"B C D E F G H I J K L M N O P Q R S T U V W X Y Z `  ...+.@.#.$.%.&.",
"*.9 =.-.;.>.,.'.).!.~.{.].^./.(._.:.<.[./ }.|.1.2.3.4.5.6.7.y 8.9.0.",
"a.b.c.d.e.f.g.h.i.j.k.l.m.n.!.o.p.q.r.s.t.u.v.w.x.y.z.A.B.C.D.E.F.G.",
"H.I.H J.K.L.M.N.O.P.Q.R.S.T.U.V.W.X.Y.E Z.`. +.+++@+# #+$+%+&+*+=+-+",
";+>+,+'+E.)+!+~+{+, ]+^+/+(+_+:+<+[+}+|+1+2+3+|.4+b.@.5+6+8.7+8+9+0+",
"a+b+c+d+e+f+~+, g+~+h+i+j+k+l+m+n+o+p+q+r+s+t+u+v+6.w+6+x+y+z+A+B+C+",
"D+E+T.F+g G+H+I+J+K+L+M+N+O+P+Q+R+S+T+U+V+W+X+Y+Z+`+ @.@+@].@@#@$@%@",
"&@*@n.z+=@P j -@;@>@,@'@)@!@~@{@]@^@/@(@_@:@<@[@}@|@1@2@3@].4@5@6@%@",
"7@8@9@0@a@b@P h c@d@e@P+f@g@h@i@j@k@l@m@n@o@p@q@r@s@2@e+t@A+u@v@-+w@",
"x@=+y@u@A+v@g z@A@B@Q+C@{@D@E@F@G@l@H@I@J@K@L@M@N@O@P@Q@R@u@S@T@U@V@",
"6@W@X@Y@0@Z@F+`@ #.#+#@#E@##$#%#&#*#=#-#;#>#,#'#)#!#~#{#]#b@^#T@/#(#",
"_#:#<#[#}#|#1#2#3#4###5#6#7#8#9#0#a#b#c#d#e#f#g#h#i#j#k#l#b@m#y@n#R.",
"o#p#q#r#n#s#t#u#v#w#x#y#z#A#B#C#D#E#F#G#H#I#J#K#L#M#N#O#P#b@Q#R#S#T#",
"U#V#W#0@f X#Y#Z#`# $.$+$@$C##$$$%$&$*$=$-$h#;$>$,$'$)$!$~${$T@]$^$/$",
"($_$:$<$[$}$|$1$2$3$C#a#4$5$6$7$8$9$0$a$b$c$d$e$f$g$h$Q#i$j$Z@k$l$m$",
"n$o$p$E.q$r$s$t$u$v$w$x$y$z$A$B$C$D$E$F$d$G$f$g$H$I$J$K$}#L$M M$}$N$",
"O$P$Q$p.R$S$T$U$;#V$W$X$Y$Z$C$`$ %.%+%@%#%$%H$I$%%&%*%f =%d+-%V.;%>%",
",%'%)%|@!%~%{%]%^%/%(%_%:%<% %[%}%|%1%2%q@3%%%&%4%5%6%7%8%9%0%,+a%b%",
"c%d%}@e%f%g%h%i%j%k%l%m%n%o%L#d$e$p%g$q%%%&%4%r%s%t%u%v%,.w%x%y%z%y%",
"A%B%C%D%E%F%G%H%I%g#J%i#+%K%G$L%$%H$M%N%4%r%s%t%O%P%Q%C.z%V R%G S%w+",
"T%U%V%W%X%X%8 W%Y%i#L#M#Z%`%$%H$I$ &.&5%s%t%+&@&#&$&%&&&*&=&-&C%;&$+",
">&,&'&)&!&~&{&]&^&/&Z%'$(&q@3%%%&%_&:&t%O%@&#&<&[&}&|&1&2&=.3&4&5&C.",
"6&7&8&9&`.'&0&a&b&c&d&e&q%M%N%4%r%s%f&g&h&i&j&k&l&m&n&|$2&=.o&p&q&$.",
"r&s&t&u&)&}+v&w&x&#.%&y&z&N%4%r%A&O%@&#&<&B&C&S%D&E&F&|$A%G&H&I&J&K&",
"L&L&M&Z.N&O&x&P&C.Q&R&.@S&T&U&V&O%g&W&X&Y&Z&`& *w .* *V +*N$@*#*M$*+",
"$*%*&***=**&7.l$$.'%'%-*T :.;*>*,*'*S%#.;.)*|&!*~*{*]*^*}&/*(*_*k$:*",
"<*[*}*}.|*}&1*d+8%2*7+3*4*5*6*7*8*V F&~*9*0*a*b*c*-.d*e*f*g*h*i*<$m.",
"j*k*U%l*m*n*8%o*p*q*r*s*t*u*v*w*x*y*z*A*B*C*D*E*4&R%F*G*H*I*J*O$K*m.",
"L*M*N*V O*9%P*Q*R*S*T*U*V*W*C&X*Y*Z*`* =.=+=@=#=$=%=&=*===-=;=>=0.(#",
"l*,='=)=!=~={=A L$&.T*]=^=/=(=_=:=<=[=k*}=L*Y+=*+*e*|=1=2=i+3=4=5=>=",
"6=7=&+8=y+*+n.9=h.0=a=.@b=E&c=d=F%t+D*o&e=G P&f=g=h=i=I*j=k=l=j.k.8+",
"m=m=n=!.m.K*o=h.x+p=q=r=s=t=u=v=w=x=y=z=H A=)%B=C=D=:*E=F=G=y+9=H=o*"};
