/* XPM */
static char * door_open_xpm[] = {
"34 34 815 2",
"  	c #836549",
". 	c #86674A",
"+ 	c #896646",
"@ 	c #8B6541",
"# 	c #916945",
"$ 	c #936B47",
"% 	c #926A47",
"& 	c #946E4A",
"* 	c #926E4A",
"= 	c #936F4B",
"- 	c #94704C",
"; 	c #946D4C",
"> 	c #906948",
", 	c #8D6645",
"' 	c #916A49",
") 	c #987150",
"! 	c #966F4E",
"~ 	c #906747",
"{ 	c #8F6648",
"] 	c #8C6546",
"^ 	c #8E694C",
"/ 	c #927152",
"( 	c #8B6C4F",
"_ 	c #7E6143",
": 	c #77593D",
"< 	c #836044",
"[ 	c #8E6B4F",
"} 	c #86624A",
"| 	c #896449",
"1 	c #8C6347",
"2 	c #906545",
"3 	c #986B4A",
"4 	c #9C6F4E",
"5 	c #A07354",
"6 	c #A57A5A",
"7 	c #A27452",
"8 	c #A17351",
"9 	c #A07250",
"0 	c #A37553",
"a 	c #A07552",
"b 	c #A37855",
"c 	c #A27754",
"d 	c #A87D5A",
"e 	c #A57A57",
"f 	c #A87B5A",
"g 	c #A67958",
"h 	c #A07553",
"i 	c #9E7555",
"j 	c #A17A59",
"k 	c #9B7757",
"l 	c #906D4D",
"m 	c #886547",
"n 	c #846145",
"o 	c #8F6C50",
"p 	c #8A614B",
"q 	c #8A6048",
"r 	c #8C5E46",
"s 	c #916246",
"t 	c #986749",
"u 	c #956446",
"v 	c #926349",
"w 	c #9C6745",
"x 	c #9B6644",
"y 	c #9E6947",
"z 	c #A06B49",
"A 	c #9F6A48",
"B 	c #9E704E",
"C 	c #A67856",
"D 	c #A57755",
"E 	c #A47654",
"F 	c #A27453",
"G 	c #9A6D4C",
"H 	c #946947",
"I 	c #966B4B",
"J 	c #956C4C",
"K 	c #8F6847",
"L 	c #896241",
"M 	c #805D41",
"N 	c #8A674B",
"O 	c #89634C",
"P 	c #845C43",
"Q 	c #7E543B",
"R 	c #85593E",
"S 	c #8D6043",
"T 	c #8F6147",
"U 	c #93674C",
"V 	c #946A51",
"W 	c #916445",
"X 	c #936647",
"Y 	c #956849",
"Z 	c #976A4B",
"` 	c #996C4D",
" .	c #96694A",
"..	c #9C6F50",
"+.	c #966D4D",
"@.	c #9A7151",
"#.	c #9C7353",
"$.	c #9B7252",
"%.	c #966D4F",
"&.	c #986F51",
"*.	c #976E50",
"=.	c #936C4F",
"-.	c #926B4E",
";.	c #8B6447",
">.	c #825B3E",
",.	c #8B684C",
"'.	c #795940",
").	c #78563B",
"!.	c #745135",
"~.	c #795437",
"{.	c #775333",
"].	c #724D30",
"^.	c #775438",
"/.	c #745539",
"(.	c #75563A",
"_.	c #76573B",
":.	c #795A3E",
"<.	c #77583C",
"[.	c #7B573D",
"}.	c #7E5A40",
"|.	c #7A563C",
"1.	c #7D593F",
"2.	c #856147",
"3.	c #846046",
"4.	c #835F45",
"5.	c #7F5F46",
"6.	c #806047",
"7.	c #7E5E45",
"8.	c #7A583F",
"9.	c #78563D",
"0.	c #735138",
"a.	c #7B583C",
"b.	c #7F5C40",
"c.	c #8E7153",
"d.	c #96795B",
"e.	c #9A7958",
"f.	c #977655",
"g.	c #81603F",
"h.	c #68492A",
"i.	c #65482A",
"j.	c #634628",
"k.	c #654D33",
"l.	c #644C32",
"m.	c #5E462C",
"n.	c #5D452B",
"o.	c #614329",
"p.	c #62442A",
"q.	c #64462C",
"r.	c #5E4026",
"s.	c #5F4127",
"t.	c #604228",
"u.	c #5C3E24",
"v.	c #573D26",
"w.	c #5A4027",
"x.	c #61452D",
"y.	c #664830",
"z.	c #6C4E34",
"A.	c #78583F",
"B.	c #836148",
"C.	c #846249",
"D.	c #A28162",
"E.	c #AF8E6D",
"F.	c #B59370",
"G.	c #B79371",
"H.	c #A88462",
"I.	c #9D7A5A",
"J.	c #A78869",
"K.	c #AC8D70",
"L.	c #A6896B",
"M.	c #AA8D6F",
"N.	c #A48769",
"O.	c #9F8264",
"P.	c #A38668",
"Q.	c #A68566",
"R.	c #A88768",
"S.	c #AA896A",
"T.	c #A07F60",
"U.	c #9C7B5C",
"V.	c #9D7C5D",
"W.	c #977657",
"X.	c #937253",
"Y.	c #92775A",
"Z.	c #987D60",
"`.	c #A28468",
" +	c #A6876A",
".+	c #A18061",
"++	c #9A7759",
"@+	c #946F52",
"#+	c #8D6949",
"$+	c #9E7A5A",
"%+	c #AC8564",
"&+	c #B08865",
"*+	c #B28A67",
"=+	c #A77F5C",
"-+	c #A07958",
";+	c #AD8969",
">+	c #AE8B6D",
",+	c #B7906F",
"'+	c #B58E6D",
")+	c #AB8463",
"!+	c #B18A69",
"~+	c #AD8965",
"{+	c #B18D69",
"]+	c #B38F6B",
"^+	c #A7835F",
"/+	c #A07C58",
"(+	c #A17D59",
"_+	c #9D7955",
":+	c #9A7652",
"<+	c #A48664",
"[+	c #A78967",
"}+	c #AF8E6B",
"|+	c #B08E6B",
"1+	c #A9835F",
"2+	c #A07854",
"3+	c #9B704D",
"4+	c #956A47",
"5+	c #89664A",
"6+	c #A57E5D",
"7+	c #AA8362",
"8+	c #A17D5B",
"9+	c #AA8968",
"0+	c #A58765",
"a+	c #AA8D6B",
"b+	c #A48765",
"c+	c #A78B64",
"d+	c #AE906C",
"e+	c #B49372",
"f+	c #AF8D71",
"g+	c #A9876B",
"h+	c #A18265",
"i+	c #9F8466",
"j+	c #AA8F71",
"k+	c #A98963",
"l+	c #AD8C6B",
"m+	c #AB896D",
"n+	c #A48267",
"o+	c #9B7960",
"p+	c #957357",
"q+	c #9B7A5B",
"r+	c #A78665",
"s+	c #AA8664",
"t+	c #A98C6A",
"u+	c #AD9070",
"v+	c #A16C4A",
"w+	c #977053",
"x+	c #90694C",
"y+	c #AD8967",
"z+	c #A27E5C",
"A+	c #B08D6D",
"B+	c #AE8D6C",
"C+	c #9D7F5D",
"D+	c #A28364",
"E+	c #B79A7A",
"F+	c #AB8E6E",
"G+	c #AF936E",
"H+	c #AC8B6A",
"I+	c #AF8E6F",
"J+	c #B08E72",
"K+	c #A7886B",
"L+	c #9D8062",
"M+	c #A98E70",
"N+	c #BA997A",
"O+	c #AE8C70",
"P+	c #97755A",
"Q+	c #957358",
"R+	c #A58463",
"S+	c #B2926C",
"T+	c #BB9773",
"U+	c #B49370",
"V+	c #B19472",
"W+	c #A78A6A",
"X+	c #9E805E",
"Y+	c #AC8969",
"Z+	c #AA7F5D",
"`+	c #A87A59",
" @	c #9F785B",
".@	c #AE8B6B",
"+@	c #AF9071",
"@@	c #937455",
"#@	c #7A5D3F",
"$@	c #9E8365",
"%@	c #AF9476",
"&@	c #A88B69",
"*@	c #AE906E",
"=@	c #A98869",
"-@	c #B29074",
";@	c #A98C6E",
">@	c #997C5E",
",@	c #AC8A6E",
"'@	c #A38166",
")@	c #977559",
"!@	c #AE8E68",
"~@	c #BB9B74",
"{@	c #BB9872",
"]@	c #AC8C66",
"^@	c #A58964",
"/@	c #AD9372",
"(@	c #A98C6C",
"_@	c #A58667",
":@	c #A37F5F",
"<@	c #9F7A5D",
"[@	c #967154",
"}@	c #B69576",
"|@	c #B08F70",
"1@	c #AA8B6C",
"2@	c #B19273",
"3@	c #987B5D",
"4@	c #7C5F41",
"5@	c #806345",
"6@	c #AC9173",
"7@	c #B09373",
"8@	c #AB8868",
"9@	c #AE8D6E",
"0@	c #AD8E71",
"a@	c #A48568",
"b@	c #9F7D62",
"c@	c #98765B",
"d@	c #9A785C",
"e@	c #A38263",
"f@	c #AF8F69",
"g@	c #B3936A",
"h@	c #B29367",
"i@	c #AE8C66",
"j@	c #A1815B",
"k@	c #B39772",
"l@	c #AC9271",
"m@	c #856B4A",
"n@	c #977A5A",
"o@	c #A68768",
"p@	c #9B7A59",
"q@	c #A17C5F",
"r@	c #977255",
"s@	c #B69876",
"t@	c #A18361",
"u@	c #9C7D5E",
"v@	c #9F8061",
"w@	c #9D7E61",
"x@	c #8D7052",
"y@	c #9F8467",
"z@	c #AC8F71",
"A@	c #A98867",
"B@	c #B18F6C",
"C@	c #AA8865",
"D@	c #A48161",
"E@	c #98745C",
"F@	c #99755B",
"G@	c #A38062",
"H@	c #B18F6A",
"I@	c #B5936D",
"J@	c #B4936A",
"K@	c #A9885F",
"L@	c #AA8A64",
"M@	c #B99B77",
"N@	c #A38664",
"O@	c #7F6242",
"P@	c #795C3E",
"Q@	c #A08363",
"R@	c #AC8F6F",
"S@	c #A37E61",
"T@	c #BB9A77",
"U@	c #A98865",
"V@	c #A88766",
"W@	c #AB8A69",
"X@	c #A68564",
"Y@	c #B39273",
"Z@	c #8F6E4F",
"`@	c #795D45",
" #	c #937559",
".#	c #B2906D",
"+#	c #AB8763",
"@#	c #AC896B",
"##	c #9B775D",
"$#	c #9E7B5F",
"%#	c #B3916C",
"&#	c #B4926C",
"*#	c #B19067",
"=#	c #AF8D67",
"-#	c #B18F69",
";#	c #AF9270",
">#	c #A38666",
",#	c #745538",
"'#	c #7C5D40",
")#	c #9A7B5E",
"!#	c #AB8A67",
"~#	c #A58063",
"{#	c #997457",
"]#	c #BB9974",
"^#	c #A6845F",
"/#	c #B5936E",
"(#	c #AC8A67",
"_#	c #9B7956",
":#	c #B38F6D",
"<#	c #B38F6F",
"[#	c #846852",
"}#	c #72543A",
"|#	c #977957",
"1#	c #AA8863",
"2#	c #AA8761",
"3#	c #A78361",
"4#	c #916C4F",
"5#	c #A68365",
"6#	c #A78464",
"7#	c #AE8C67",
"8#	c #B39269",
"9#	c #AD8B65",
"0#	c #AD8B66",
"a#	c #AF8D6A",
"b#	c #977C5F",
"c#	c #6B5033",
"d#	c #806145",
"e#	c #A7856A",
"f#	c #9D7A5C",
"g#	c #A98660",
"h#	c #AC8961",
"i#	c #A98668",
"j#	c #9B785A",
"k#	c #BC9A74",
"l#	c #A7855F",
"m#	c #AB8862",
"n#	c #B4906C",
"o#	c #A47E5A",
"p#	c #B89170",
"q#	c #B48D6C",
"r#	c #AE927C",
"s#	c #7D5F45",
"t#	c #725432",
"u#	c #9C7A55",
"v#	c #A27F59",
"w#	c #8C6846",
"x#	c #987356",
"y#	c #AE896F",
"z#	c #A88661",
"A#	c #AF8E63",
"B#	c #A8875E",
"C#	c #B08E68",
"D#	c #5E462A",
"E#	c #8A6F54",
"F#	c #A28269",
"G#	c #9E7A60",
"H#	c #9A7558",
"I#	c #A98261",
"J#	c #A68059",
"K#	c #A68157",
"L#	c #987557",
"M#	c #AC8C63",
"N#	c #AA8A63",
"O#	c #9C7959",
"P#	c #9E7B5D",
"Q#	c #AE8D64",
"R#	c #B6946E",
"S#	c #9D7F5B",
"T#	c #7F6544",
"U#	c #785F40",
"V#	c #907759",
"W#	c #AF916F",
"X#	c #A58360",
"Y#	c #AF8B69",
"Z#	c #B5916F",
"`#	c #AF8867",
" $	c #AF8B6B",
".$	c #B28F6F",
"+$	c #7D5F3D",
"@$	c #674A28",
"#$	c #8C6B4A",
"$$	c #A6805C",
"%$	c #A47959",
"&$	c #946F54",
"*$	c #AB886C",
"=$	c #AC8363",
"-$	c #AE825B",
";$	c #A97F59",
">$	c #B49374",
",$	c #A88764",
"'$	c #AC8A65",
")$	c #9C795D",
"!$	c #B39070",
"~$	c #B89670",
"{$	c #9C7B58",
"]$	c #947757",
"^$	c #967B5D",
"/$	c #A18668",
"($	c #B69574",
"_$	c #B69471",
":$	c #B89673",
"<$	c #B08968",
"[$	c #AB8767",
"}$	c #9A7757",
"|$	c #7E603E",
"1$	c #826543",
"2$	c #A1805F",
"3$	c #A87D5D",
"4$	c #967156",
"5$	c #A78468",
"6$	c #A57952",
"7$	c #B79478",
"8$	c #A17E5E",
"9$	c #A3815B",
"0$	c #9A775B",
"a$	c #98745A",
"b$	c #B7936F",
"c$	c #9F7D5A",
"d$	c #9F7E5D",
"e$	c #9D7E5F",
"f$	c #B69373",
"g$	c #A98563",
"h$	c #A98565",
"i$	c #AD8A6A",
"j$	c #A38261",
"k$	c #8C6E4C",
"l$	c #987756",
"m$	c #AA7F5C",
"n$	c #A57C5C",
"o$	c #9B765B",
"p$	c #A88569",
"q$	c #AB7F58",
"r$	c #A87E58",
"s$	c #99775B",
"t$	c #B79278",
"u$	c #957157",
"v$	c #A58264",
"w$	c #A3815C",
"x$	c #A27E5A",
"y$	c #A4825F",
"z$	c #B49171",
"A$	c #B99676",
"B$	c #B08C6C",
"C$	c #AE8A6A",
"D$	c #AC8868",
"E$	c #9F7B5B",
"F$	c #B3916E",
"G$	c #B59471",
"H$	c #9F815D",
"I$	c #A77C59",
"J$	c #A37A5A",
"K$	c #9D7A5E",
"L$	c #A58266",
"M$	c #A88160",
"N$	c #AD815A",
"O$	c #A77D57",
"P$	c #B89076",
"Q$	c #9E7758",
"R$	c #B4906E",
"S$	c #916D53",
"T$	c #A07D5F",
"U$	c #9D7D57",
"V$	c #A5815F",
"W$	c #AC8866",
"X$	c #A78363",
"Y$	c #A58161",
"Z$	c #AC876A",
"`$	c #AD8E6F",
" %	c #A07D5D",
".%	c #AF8D68",
"+%	c #B1916B",
"@%	c #A28462",
"#%	c #99714D",
"$%	c #9F7C60",
"%%	c #A58367",
"&%	c #A67C54",
"*%	c #A67C56",
"=%	c #98765A",
"-%	c #B58C70",
";%	c #A17858",
">%	c #AF8B67",
",%	c #8D6A4E",
"'%	c #A3835C",
")%	c #AE8C69",
"!%	c #AA8662",
"~%	c #B28C68",
"{%	c #AC8662",
"]%	c #8B6C4D",
"^%	c #967556",
"/%	c #AF8C6E",
"(%	c #AD8F6D",
"_%	c #9C7854",
":%	c #9B7453",
"<%	c #977458",
"[%	c #A8866A",
"}%	c #A87E56",
"|%	c #B18568",
"1%	c #A27A56",
"2%	c #A67F56",
"3%	c #AB855E",
"4%	c #987452",
"5%	c #937050",
"6%	c #A5855F",
"7%	c #A8885F",
"8%	c #B38D68",
"9%	c #AE8863",
"0%	c #9C7B5A",
"a%	c #836447",
"b%	c #7A5B3C",
"c%	c #AE8766",
"d%	c #A88460",
"e%	c #A98561",
"f%	c #A47C58",
"g%	c #88664A",
"h%	c #A68468",
"i%	c #A37F5D",
"j%	c #A57B55",
"k%	c #967458",
"l%	c #B08565",
"m%	c #A57E53",
"n%	c #AB865C",
"o%	c #A2805D",
"p%	c #AE8E67",
"q%	c #AA8B5F",
"r%	c #AE916F",
"s%	c #B29470",
"t%	c #A9865E",
"u%	c #A5825C",
"v%	c #9D7B56",
"w%	c #785A38",
"x%	c #6D5032",
"y%	c #88694C",
"z%	c #7B583A",
"A%	c #A17D5D",
"B%	c #A4815B",
"C%	c #AB8963",
"D%	c #AC8E6C",
"E%	c #B38B67",
"F%	c #89674B",
"G%	c #9F754D",
"H%	c #AD825F",
"I%	c #A8805C",
"J%	c #A57D59",
"K%	c #A37D59",
"L%	c #A37F5B",
"M%	c #A5835E",
"N%	c #AB8964",
"O%	c #AE8861",
"P%	c #AA8966",
"Q%	c #977A5C",
"R%	c #6A4D2F",
"S%	c #6C4F2F",
"T%	c #A98A6B",
"U%	c #A7805F",
"V%	c #B59171",
"W%	c #8E6C51",
"X%	c #6D4D34",
"Y%	c #9E7F63",
"Z%	c #A7845C",
"`%	c #A07B4F",
" &	c #A57F5B",
".&	c #AE8864",
"+&	c #B18B67",
"@&	c #A9815E",
"#&	c #AF8764",
"$&	c #A47C59",
"%&	c #A27A57",
"&&	c #A47A54",
"*&	c #947354",
"=&	c #A37B57",
"-&	c #A5815D",
";&	c #A78560",
">&	c #A88663",
",&	c #907152",
"'&	c #6E5131",
")&	c #7E5F40",
"!&	c #A9835E",
"~&	c #A68260",
"{&	c #AA886C",
"]&	c #7B5C40",
"^&	c #715236",
"/&	c #A47E57",
"(&	c #A7815D",
"_&	c #A27C58",
":&	c #9F7754",
"<&	c #99714E",
"[&	c #A27852",
"}&	c #957455",
"|&	c #A8825E",
"1&	c #B38D69",
"2&	c #AC8864",
"3&	c #7D5E3F",
"4&	c #664728",
"5&	c #A48362",
"6&	c #9D7B58",
"7&	c #A37D56",
"8&	c #B18E6E",
"9&	c #7B593D",
"0&	c #755234",
"a&	c #9B7755",
"b&	c #B6906C",
"c&	c #AD8763",
"d&	c #9D7753",
"e&	c #AA8460",
"f&	c #AE8663",
"g&	c #9C7451",
"h&	c #976F4C",
"i&	c #A27653",
"j&	c #926F53",
"k&	c #765738",
"l&	c #6B4C2F",
"m&	c #927356",
"n&	c #B69778",
"o&	c #A68461",
"p&	c #97714D",
"q&	c #B08962",
"r&	c #AC895F",
"s&	c #A8855F",
"t&	c #997656",
"u&	c #805B3E",
"v&	c #6E4A2A",
"w&	c #997555",
"x&	c #AB8561",
"y&	c #9B7350",
"z&	c #9E724F",
"A&	c #916E52",
"B&	c #987555",
"C&	c #A07C5C",
"D&	c #9C7856",
"E&	c #9E7A56",
"F&	c #A07D57",
"G&	c #8B6A4B",
"H&	c #6B4C2D",
"I&	c #856649",
"J&	c #8F6D4A",
"K&	c #99734F",
"L&	c #A07952",
"M&	c #A07D55",
"N&	c #9C7953",
"O&	c #926B4A",
"P&	c #977051",
"Q&	c #926E4E",
"R&	c #795535",
"S&	c #765232",
"T&	c #966E4B",
"U&	c #976B48",
"V&	c #967355",
"W&	c #9A7855",
"X&	c #9F7B59",
"Y&	c #9D7A54",
"Z&	c #9E7D5E",
"`&	c #917253",
" *	c #997553",
".*	c #956F4B",
"+*	c #997752",
"@*	c #967451",
"#*	c #AD8562",
"$*	c #AC815E",
"%*	c #9D7B5F",
"&*	c #A4805E",
"**	c #9A744F",
"=*	c #997251",
"-*	c #9B7858",
";*	c #9A795A",
">*	c #987758",
",*	c #967353",
"'*	c #9E7B5B",
")*	c #9F7656",
"!*	c #9D7250",
"~*	c #A47956",
"{*	c #987450",
"]*	c #A07A56",
"^*	c #A67E5B",
"/*	c #A37B58",
"(*	c #AC8461",
"_*	c #8C6D50",
":*	c #947256",
"<*	c #906F50",
"[*	c #9E7C59",
"}*	c #9E7853",
"|*	c #9B7550",
"1*	c #9A7654",
"2*	c #947153",
"3*	c #916F53",
"4*	c #9B795D",
"5*	c #8A694A",
"6*	c #926F51",
"7*	c #9A7656",
"8*	c #A27755",
"9*	c #9D764F",
"0*	c #96744E",
"a*	c #9A7450",
"b*	c #9F7955",
"c*	c #A57D5A",
"d*	c #A07855",
"e*	c #9D7552",
"f*	c #936D49",
"g*	c #97795D",
"h*	c #86684C",
"i*	c #8E7054",
"j*	c #917255",
"k*	c #98795C",
"l*	c #9F7D61",
"m*	c #9E7C60",
"n*	c #A17E60",
"o*	c #9C7A5E",
"p*	c #927054",
"q*	c #906E53",
"r*	c #9D7B60",
"s*	c #967459",
"t*	c #846247",
"u*	c #997658",
"v*	c #987653",
"w*	c #95714D",
"x*	c #97734F",
"y*	c #9E7854",
"z*	c #917357",
"A*	c #9B7C5F",
"B*	c #A07E62",
"C*	c #A27F61",
"D*	c #A17F63",
"E*	c #A28064",
"F*	c #99775C",
"G*	c #9C7A5F",
"H*	c #916F54",
"I*	c #947155",
"J*	c #987559",
"K*	c #957254",
"L*	c #9C7A57",
"M*	c #9B7551",
"N*	c #98704D",
"  . + @ # $ % & * = - = * * = = ; > > , ' ) ! ! ~ { ] ^ / ( _ : < [ ",
"} | 1 2 3 4 5 6 7 8 9 7 0 7 8 8 a a b c b d e e f g h i j k l m n o ",
"p q r s t u s v w x w y z A y z B 9 C 0 7 D 7 7 E F G H I J K L M N ",
"O P Q R S T U V W X Y Z `  .Z ..J +.@.+.+.#.$.#.%.&.*.=.-.-.;.>.< ,.",
"'.).!.~.{.].^.)./.(./._.:.<.(.:.[.[.}.|.1.2.3.4.5.6.7.8.9.8.9.0.a.b.",
"c.d.e.f.g.h.i.j.k.l.m.n.l.l.m.n.o.p.q.r.s.q.t.u.v.w.x.y.z.A.B.C.n n ",
"D.E.F.G.H.I.J.K.L.M.N.O.P.N.O.O.Q.R.S.T.U.V.W.X.Y.Z.`. +.+++@+#+o ,.",
"$+%+&+*+=+-+;+>+%+,+'+%+)+)+%+!+~+{+]+^+/+(+_+:+<+[+}+|+1+2+3+4+o 5+",
"6+7+8+|+9+0+a+b+c+d+e+f+g+h+i+j+k+l+m+n+o+p+q+r+s+e+t+u+<+-+8 v+w+x+",
"y+z+A+B+C+D+E+F+G+0+H+I+J+K+L+M+B+N+O+P+Q+U.R+S+T+U+V+W+X+Y+Z+`+ @w+",
".@Y+I++@@@#@$@%@&@*@H+=@I+-@;@>@,@f+'@)@U.R+!@~@{@]@^@/@(@_@:@6+<@[@",
"}@|@1@2@3@4@5@i+6@7@l+8@Y+9@0@a@b@c@d@e@9+f@g@h@i@j@k@l@m@n@o@p@q@r@",
"s@t@u@J.v@w@x@#@y@z@A@B@C@D@}@f+E@F@G@.@H@I@J@K@L@M@N@O@P@Q@R@C+S@r@",
"T@U@V@W@X@=@Y@Z@`@ #A@.#+#s+@###$#G@Y+%#&#*#=#-#;#>#,#'#)#_@!#k+~#{#",
"]#^#/#(#_#8+:#<#[#}#|#1#2#3#4###5#6#7#8#*#9#0#a#b#c#d#e#f#8+g#h#i#j#",
"k#l#m#n#:+o#p#q#r#s#t#u#v#w#x#y#6#z#-#A#B#C#|+++D#E#F#G#H#I#J#K#5#L#",
"9@k+M#N#O#P#|+Q#R#S#T#U#V#$@W#C@X#Y#Z#`# $.$+$@$#$$$b %$&$*$=$-$;$d@",
">$,$N#'$++)$!$R#~${$]$^$/$;@($_$:$y+s+<$[$}$|$1$2$o#c 3$4$5$7+6$;$d@",
"7$8$9$(#0$a$>+H@b$c$d$e$J.>$f$<#C@(#g$8+h$i$j$k$l$$$m$n$o$p$)+q$r$s$",
"t$k /+|+$#u$v$w$x$8+y$6#z$A$B$C$W@8@D$E$g$F$G$H$#$:+I$J$K$L$M$N$O$s$",
"P$Q$x$R$$#S$T$U$V$W$W$:#:#X$Y$Z$`$U. %k z+H..%+%@%* #%n$$%%%M$&%*%=%",
"-%;%J#>%r@,%d$'%U@)%!%~%{%g$i$R.]%^%/%D$H.~+0#.%(%_%#%:%<%[%H.}%*%)@",
"|%1%2%3%4%5%6%7%*@G$C#8%9%.%0%a%j.b%j#B$c%d%+#I@t@e%f%! g%h%i%&%j%k%",
"l%j%m%n%(+o%p%q%r%s%i@t%u%v%w%x%L+y%z%A%!+d%B%C%D%H@E%I#F%h%z+G%j%k%",
"H%I%J%8%K%L%M%N%O%!%P%1@Q%R%S%T%U%V%W%X%Y%W@Z%`% &~%.&+&@&#&$&%&&&*&",
"1%=&=&+&(+L%-&;&e%>&l+,&'&)&d$V@!&~&{&]&^&^%]+/&o#(&_&.&#&*+:&<&[&}&",
"K%|&|&1&^+e%+#2&9+V@3&4&]%5&6&e%7&d%8&k%9&0&a&b&c&(&d&e&f&#&g&h&i&j&",
"M$W$H.+#L%-&^+^+e$k&l&m&n&o&p&q&r&s&H.t&f#u&v&w&.&x&K%1+@&=+y&y&z&A&",
"B&C&a&D&:+E&/+F&G&H&I& +U.J&K&L&M&N&/+O&P&Q&R&S&o#e&|&$$%&:&h&T&U&o ",
"V&P#}$W&X&/+F&Y&}$O#Z&`&Z@B& *.*+*x$$$:&#.j 8+@*d&$$(& &@&&+#&#*$*%*",
"%*e@V.I.&*(+N&**K%=*-*;*}&>*,*#+'*D&)*!*~*f%{*w$]*o#_&d&%&=+^*/*(*Y%",
"_*:*<*5%[*E&}*|*[&g&1*2*3*4*>*5*6*7*#.8*a 9*Y&0*a*]*_&b*c*$&d*e*f*g*",
"h*i*j*k*l*m*n*n*%*o*%*p*q*r*s*t*<%)$L#u*O#-*_#v*w*x*K%y*d& &d*g&2*2*",
"z*g*k*A*B*l*C*C*B*D*[%E*F*G*F*H*I*J*2*K*t&-*6&L*w*{*K%M*& a*N*h&L#L#"};
