/* XPM */
static char * exit_down_xpm[] = {
"34 34 626 2",
"  	c #836549",
". 	c #86674A",
"+ 	c #896646",
"@ 	c #8B6541",
"# 	c #916945",
"$ 	c #936B47",
"% 	c #926A47",
"& 	c #946E4A",
"* 	c #926E4A",
"= 	c #936F4B",
"- 	c #94704C",
"; 	c #946D4C",
"> 	c #906948",
", 	c #8D6645",
"' 	c #916A49",
") 	c #987150",
"! 	c #966F4E",
"~ 	c #906747",
"{ 	c #8F6648",
"] 	c #8C6546",
"^ 	c #8E694C",
"/ 	c #927152",
"( 	c #8B6C4F",
"_ 	c #7E6143",
": 	c #77593D",
"< 	c #836044",
"[ 	c #8E6B4F",
"} 	c #86624A",
"| 	c #896449",
"1 	c #8C6347",
"2 	c #906545",
"3 	c #986B4A",
"4 	c #9C6F4E",
"5 	c #A07354",
"6 	c #A57A5A",
"7 	c #A27452",
"8 	c #A17351",
"9 	c #A07250",
"0 	c #A37553",
"a 	c #A07552",
"b 	c #A37855",
"c 	c #A27754",
"d 	c #A87D5A",
"e 	c #A57A57",
"f 	c #A87B5A",
"g 	c #A67958",
"h 	c #A07553",
"i 	c #9E7555",
"j 	c #A17A59",
"k 	c #9B7757",
"l 	c #906D4D",
"m 	c #886547",
"n 	c #846145",
"o 	c #8F6C50",
"p 	c #8A614B",
"q 	c #8A6048",
"r 	c #8C5E46",
"s 	c #916246",
"t 	c #986749",
"u 	c #956446",
"v 	c #926349",
"w 	c #9C6745",
"x 	c #9B6644",
"y 	c #9E6947",
"z 	c #A06B49",
"A 	c #9F6A48",
"B 	c #9E704E",
"C 	c #A67856",
"D 	c #A57755",
"E 	c #A47654",
"F 	c #A27453",
"G 	c #9A6D4C",
"H 	c #946947",
"I 	c #966B4B",
"J 	c #956C4C",
"K 	c #8F6847",
"L 	c #896241",
"M 	c #805D41",
"N 	c #8A674B",
"O 	c #89634C",
"P 	c #845C43",
"Q 	c #7E543B",
"R 	c #85593E",
"S 	c #8D6043",
"T 	c #8F6147",
"U 	c #93674C",
"V 	c #946A51",
"W 	c #916445",
"X 	c #936647",
"Y 	c #956849",
"Z 	c #976A4B",
"` 	c #996C4D",
" .	c #96694A",
"..	c #500000",
"+.	c #885818",
"@.	c #9A7151",
"#.	c #966D4D",
"$.	c #9C7353",
"%.	c #9B7252",
"&.	c #966D4F",
"*.	c #986F51",
"=.	c #976E50",
"-.	c #936C4F",
";.	c #926B4E",
">.	c #8B6447",
",.	c #825B3E",
"'.	c #8B684C",
").	c #795940",
"!.	c #78563B",
"~.	c #745135",
"{.	c #795437",
"].	c #775333",
"^.	c #724D30",
"/.	c #775438",
"(.	c #745539",
"_.	c #75563A",
":.	c #76573B",
"<.	c #F84070",
"[.	c #D8A038",
"}.	c #F8D870",
"|.	c #7D593F",
"1.	c #856147",
"2.	c #846046",
"3.	c #835F45",
"4.	c #7F5F46",
"5.	c #806047",
"6.	c #7E5E45",
"7.	c #7A583F",
"8.	c #78563D",
"9.	c #735138",
"0.	c #7B583C",
"a.	c #7F5C40",
"b.	c #8E7153",
"c.	c #96795B",
"d.	c #9A7958",
"e.	c #977655",
"f.	c #81603F",
"g.	c #68492A",
"h.	c #65482A",
"i.	c #634628",
"j.	c #654D33",
"k.	c #644C32",
"l.	c #5E462C",
"m.	c #B02860",
"n.	c #F8F8F8",
"o.	c #64462C",
"p.	c #604228",
"q.	c #5C3E24",
"r.	c #573D26",
"s.	c #5A4027",
"t.	c #61452D",
"u.	c #664830",
"v.	c #6C4E34",
"w.	c #78583F",
"x.	c #836148",
"y.	c #846249",
"z.	c #A28162",
"A.	c #AF8E6D",
"B.	c #B59370",
"C.	c #B79371",
"D.	c #A88462",
"E.	c #9D7A5A",
"F.	c #A78869",
"G.	c #AC8D70",
"H.	c #A6896B",
"I.	c #AA8D6F",
"J.	c #000000",
"K.	c #977657",
"L.	c #937253",
"M.	c #92775A",
"N.	c #987D60",
"O.	c #A28468",
"P.	c #A6876A",
"Q.	c #A18061",
"R.	c #9A7759",
"S.	c #946F52",
"T.	c #8D6949",
"U.	c #9E7A5A",
"V.	c #AC8564",
"W.	c #B08865",
"X.	c #B28A67",
"Y.	c #A77F5C",
"Z.	c #A07958",
"`.	c #AD8969",
" +	c #AE8B6D",
".+	c #B7906F",
"++	c #9D7955",
"@+	c #9A7652",
"#+	c #A48664",
"$+	c #A78967",
"%+	c #AF8E6B",
"&+	c #B08E6B",
"*+	c #A9835F",
"=+	c #A07854",
"-+	c #9B704D",
";+	c #956A47",
">+	c #89664A",
",+	c #A57E5D",
"'+	c #AA8362",
")+	c #A17D5B",
"!+	c #AA8968",
"~+	c #A58765",
"{+	c #AA8D6B",
"]+	c #A48765",
"^+	c #A78B64",
"/+	c #AE906C",
"(+	c #9B7A5B",
"_+	c #A78665",
":+	c #AA8664",
"<+	c #B49372",
"[+	c #A98C6A",
"}+	c #AD9070",
"|+	c #A16C4A",
"1+	c #977053",
"2+	c #90694C",
"3+	c #AD8967",
"4+	c #A27E5C",
"5+	c #B08D6D",
"6+	c #AE8D6C",
"7+	c #9D7F5D",
"8+	c #A28364",
"9+	c #B79A7A",
"0+	c #AB8E6E",
"a+	c #AF936E",
"b+	c #F87068",
"c+	c #A58463",
"d+	c #B2926C",
"e+	c #BB9773",
"f+	c #B49370",
"g+	c #B19472",
"h+	c #A78A6A",
"i+	c #9E805E",
"j+	c #AC8969",
"k+	c #AA7F5D",
"l+	c #A87A59",
"m+	c #9F785B",
"n+	c #AE8B6B",
"o+	c #AF8E6F",
"p+	c #AF9071",
"q+	c #937455",
"r+	c #7A5D3F",
"s+	c #9E8365",
"t+	c #AF9476",
"u+	c #A88B69",
"v+	c #F8D0C0",
"w+	c #BB9B74",
"x+	c #BB9872",
"y+	c #AC8C66",
"z+	c #A58964",
"A+	c #AD9372",
"B+	c #A98C6C",
"C+	c #A58667",
"D+	c #A37F5F",
"E+	c #9F7A5D",
"F+	c #967154",
"G+	c #B69576",
"H+	c #B08F70",
"I+	c #AA8B6C",
"J+	c #B19273",
"K+	c #987B5D",
"L+	c #7C5F41",
"M+	c #806345",
"N+	c #9F8466",
"O+	c #AE8C66",
"P+	c #A1815B",
"Q+	c #B39772",
"R+	c #AC9271",
"S+	c #856B4A",
"T+	c #977A5A",
"U+	c #A68768",
"V+	c #9B7A59",
"W+	c #A17C5F",
"X+	c #977255",
"Y+	c #B69876",
"Z+	c #A18361",
"`+	c #9C7D5E",
" @	c #9F8061",
".@	c #9D7E61",
"+@	c #8D7052",
"@@	c #AA8A64",
"#@	c #B99B77",
"$@	c #A38664",
"%@	c #7F6242",
"&@	c #795C3E",
"*@	c #A08363",
"=@	c #AC8F6F",
"-@	c #A37E61",
";@	c #BB9A77",
">@	c #A98865",
",@	c #A88766",
"'@	c #AB8A69",
")@	c #A68564",
"!@	c #A98869",
"~@	c #B39273",
"{@	c #8F6E4F",
"]@	c #795D45",
"^@	c #B18F69",
"/@	c #AF9270",
"(@	c #A38666",
"_@	c #745538",
":@	c #7C5D40",
"<@	c #9A7B5E",
"[@	c #AB8A67",
"}@	c #A98963",
"|@	c #A58063",
"1@	c #997457",
"2@	c #BB9974",
"3@	c #A6845F",
"4@	c #B5936E",
"5@	c #AC8A67",
"6@	c #9B7956",
"7@	c #B38F6D",
"8@	c #B38F6F",
"9@	c #846852",
"0@	c #72543A",
"a@	c #AD8B66",
"b@	c #AF8D6A",
"c@	c #977C5F",
"d@	c #6B5033",
"e@	c #806145",
"f@	c #A7856A",
"g@	c #9D7A5C",
"h@	c #A98660",
"i@	c #AC8961",
"j@	c #A98668",
"k@	c #9B785A",
"l@	c #BC9A74",
"m@	c #A7855F",
"n@	c #AB8862",
"o@	c #B4906C",
"p@	c #A47E5A",
"q@	c #B89170",
"r@	c #B48D6C",
"s@	c #AE927C",
"t@	c #7D5F45",
"u@	c #725432",
"v@	c #B08E68",
"w@	c #5E462A",
"x@	c #8A6F54",
"y@	c #A28269",
"z@	c #9E7A60",
"A@	c #9A7558",
"B@	c #A98261",
"C@	c #A68059",
"D@	c #A68157",
"E@	c #A68365",
"F@	c #987557",
"G@	c #AE8D6E",
"H@	c #AC8C63",
"I@	c #AA8A63",
"J@	c #9C7959",
"K@	c #9E7B5D",
"L@	c #AE8D64",
"M@	c #B6946E",
"N@	c #674A28",
"O@	c #8C6B4A",
"P@	c #A6805C",
"Q@	c #A47959",
"R@	c #946F54",
"S@	c #AB886C",
"T@	c #AC8363",
"U@	c #AE825B",
"V@	c #A97F59",
"W@	c #9A785C",
"X@	c #B49374",
"Y@	c #A88764",
"Z@	c #AC8A65",
"`@	c #9C795D",
" #	c #B39070",
".#	c #A1805F",
"+#	c #A87D5D",
"@#	c #967156",
"##	c #A78468",
"$#	c #A57952",
"%#	c #B79478",
"&#	c #A17E5E",
"*#	c #A3815B",
"=#	c #9A775B",
"-#	c #98745A",
";#	c #B18F6A",
">#	c #408098",
",#	c #987756",
"'#	c #AA7F5C",
")#	c #A57C5C",
"!#	c #9B765B",
"~#	c #A88569",
"{#	c #AB8463",
"]#	c #AB7F58",
"^#	c #A87E58",
"/#	c #99775B",
"(#	c #B79278",
"_#	c #A07C58",
":#	c #9E7B5F",
"<#	c #957157",
"[#	c #A58264",
"}#	c #A3815C",
"|#	c #80D8C8",
"1#	c #A77C59",
"2#	c #A37A5A",
"3#	c #9D7A5E",
"4#	c #A58266",
"5#	c #A88160",
"6#	c #AD815A",
"7#	c #A77D57",
"8#	c #B89076",
"9#	c #9E7758",
"0#	c #A27E5A",
"a#	c #B4906E",
"b#	c #916D53",
"c#	c #A07D5F",
"d#	c #9D7D57",
"e#	c #A28462",
"f#	c #99714D",
"g#	c #9F7C60",
"h#	c #A58367",
"i#	c #A67C54",
"j#	c #A67C56",
"k#	c #98765A",
"l#	c #B58C70",
"m#	c #A17858",
"n#	c #AF8B67",
"o#	c #8D6A4E",
"p#	c #9F7E5D",
"q#	c #A3835C",
"r#	c #AF8D68",
"s#	c #AD8F6D",
"t#	c #9C7854",
"u#	c #9B7453",
"v#	c #977458",
"w#	c #A8866A",
"x#	c #A87E56",
"y#	c #977559",
"z#	c #B18568",
"A#	c #A27A56",
"B#	c #A67F56",
"C#	c #AB855E",
"D#	c #987452",
"E#	c #937050",
"F#	c #A5855F",
"G#	c #A8885F",
"H#	c #AE906E",
"I#	c #B59471",
"J#	c #203088",
"K#	c #AB8763",
"L#	c #B5936D",
"M#	c #A98561",
"N#	c #A47C58",
"O#	c #88664A",
"P#	c #A68468",
"Q#	c #A37F5D",
"R#	c #A57B55",
"S#	c #967458",
"T#	c #B08565",
"U#	c #A57E53",
"V#	c #AB865C",
"W#	c #A17D59",
"X#	c #A2805D",
"Y#	c #AE8E67",
"Z#	c #AA8B5F",
"`#	c #AE916F",
" $	c #B29470",
".$	c #A4815B",
"+$	c #AB8963",
"@$	c #AC8E6C",
"#$	c #B38B67",
"$$	c #89674B",
"%$	c #9F754D",
"&$	c #AD825F",
"*$	c #A8805C",
"=$	c #A57D59",
"-$	c #B38D68",
";$	c #A37D59",
">$	c #A37F5B",
",$	c #A5835E",
"'$	c #AB8964",
")$	c #AE8861",
"!$	c #AA8662",
"~$	c #A7845C",
"{$	c #A07B4F",
"]$	c #A57F5B",
"^$	c #B28C68",
"/$	c #AE8864",
"($	c #B18B67",
"_$	c #A9815E",
":$	c #AF8764",
"<$	c #A47C59",
"[$	c #A27A57",
"}$	c #A47A54",
"|$	c #947354",
"1$	c #A37B57",
"2$	c #A5815D",
"3$	c #A78560",
"4$	c #A88663",
"5$	c #AD8C6B",
"6$	c #967556",
"7$	c #B38F6B",
"8$	c #A47E57",
"9$	c #A7815D",
"0$	c #A27C58",
"a$	c #9F7754",
"b$	c #99714E",
"c$	c #A27852",
"d$	c #957455",
"e$	c #A8825E",
"f$	c #B38D69",
"g$	c #A7835F",
"h$	c #AC8864",
"i$	c #7D5E3F",
"j$	c #755234",
"k$	c #9B7755",
"l$	c #B6906C",
"m$	c #AD8763",
"n$	c #9D7753",
"o$	c #AA8460",
"p$	c #AE8663",
"q$	c #9C7451",
"r$	c #976F4C",
"s$	c #A27653",
"t$	c #926F53",
"u$	c #AC8866",
"v$	c #9D7E5F",
"w$	c #765738",
"x$	c #6B4C2F",
"y$	c #927356",
"z$	c #805B3E",
"A$	c #6E4A2A",
"B$	c #997555",
"C$	c #AB8561",
"D$	c #9B7350",
"E$	c #9E724F",
"F$	c #916E52",
"G$	c #987555",
"H$	c #A07C5C",
"I$	c #9C7856",
"J$	c #9E7A56",
"K$	c #A07D57",
"L$	c #8B6A4B",
"M$	c #6B4C2D",
"N$	c #856649",
"O$	c #926E4E",
"P$	c #795535",
"Q$	c #765232",
"R$	c #966E4B",
"S$	c #976B48",
"T$	c #967355",
"U$	c #9A7757",
"V$	c #9A7855",
"W$	c #9F7B59",
"X$	c #9D7A54",
"Y$	c #967451",
"Z$	c #AD8562",
"`$	c #AC815E",
" %	c #9D7B5F",
".%	c #A38263",
"+%	c #9D7C5D",
"@%	c #A4805E",
"#%	c #9C7953",
"$%	c #9A744F",
"%%	c #997251",
"&%	c #9E7B5B",
"*%	c #987450",
"=%	c #A07A56",
"-%	c #A67E5B",
";%	c #A37B58",
">%	c #AC8461",
",%	c #9E7F63",
"'%	c #8C6D50",
")%	c #947256",
"!%	c #906F50",
"~%	c #9E7C59",
"{%	c #9E7853",
"]%	c #9B7550",
"^%	c #9A7654",
"/%	c #947153",
"(%	c #916F53",
"_%	c #9B795D",
":%	c #987758",
"<%	c #8A694A",
"[%	c #926F51",
"}%	c #9A7656",
"|%	c #A27755",
"1%	c #9D764F",
"2%	c #96744E",
"3%	c #9A7450",
"4%	c #9F7955",
"5%	c #A57D5A",
"6%	c #A07855",
"7%	c #9D7552",
"8%	c #936D49",
"9%	c #97795D",
"0%	c #86684C",
"a%	c #8E7054",
"b%	c #917255",
"c%	c #98795C",
"d%	c #9F7D61",
"e%	c #9E7C60",
"f%	c #A17E60",
"g%	c #9C7A5E",
"h%	c #927054",
"i%	c #906E53",
"j%	c #9D7B60",
"k%	c #967459",
"l%	c #846247",
"m%	c #997658",
"n%	c #9B7858",
"o%	c #987653",
"p%	c #95714D",
"q%	c #97734F",
"r%	c #9E7854",
"s%	c #917357",
"t%	c #9B7C5F",
"u%	c #A07E62",
"v%	c #A27F61",
"w%	c #A17F63",
"x%	c #A28064",
"y%	c #99775C",
"z%	c #9C7A5F",
"A%	c #916F54",
"B%	c #947155",
"C%	c #987559",
"D%	c #957254",
"E%	c #997656",
"F%	c #9D7B58",
"G%	c #9C7A57",
"H%	c #9B7551",
"I%	c #98704D",
"  . + @ # $ % & * = - = * * = = ; > > , ' ) ! ! ~ { ] ^ / ( _ : < [ ",
"} | 1 2 3 4 5 6 7 8 9 7 0 7 8 8 a a b c b d e e f g h i j k l m n o ",
"p q r s t u s v w x w y z A y z B 9 C 0 7 D 7 7 E F G H I J K L M N ",
"O P Q R S T U V W X Y Z `  .......+.@.#.#.$.%.$.&.*.=.-.;.;.>.,.< '.",
").!.~.{.].^./.!.(._.(.:.....<.[.}.<.....|.1.2.3.4.5.6.7.8.7.8.9.0.a.",
"b.c.d.e.f.g.h.i.j.k.l...m.<.[.n.n.[.<.m...o.p.q.r.s.t.u.v.w.x.y.n n ",
"z.A.B.C.D.E.F.G.H.I...m.<.J.J.J.J.J.J.<.m...K.L.M.N.O.P.Q.R.S.T.o '.",
"U.V.W.X.Y.Z.`. +V..+..m.J.J.J.J.J.J.J.J.m...++@+#+$+%+&+*+=+-+;+o >+",
",+'+)+&+!+~+{+]+^+/+..J.J.J.J.J.J.J.J.J.J...(+_+:+<+[+}+#+Z.8 |+1+2+",
"3+4+5+6+7+8+9+0+a+~+..J.J.n.n.b+b+n.n.J.J...c+d+e+f+g+h+i+j+k+l+m+1+",
"n+j+o+p+q+r+s+t+u+b+J.b+v+n.J.v+v+J.n.v+b+J.b+w+x+y+z+A+B+C+D+,+E+F+",
"G+H+I+J+K+L+M+N+b++.J.v+v+n.J.v+v+J.n.v+v+J.+.b+O+P+Q+R+S+T+U+V+W+X+",
"Y+Z+`+F. @.@+@r+b++.J.J.v+b+v+v+v+v+b+v+J.J.+.b+@@#@$@%@&@*@=@7+-@X+",
";@>@,@'@)@!@~@{@]@b+J.v+J.J.b+b+b+b+J.J.v+J.b+^@/@(@_@:@<@C+[@}@|@1@",
"2@3@4@5@6@)+7@8@9@0@+.v+J.J.J.J.J.J.J.J.v++.a@b@c@d@e@f@g@)+h@i@j@k@",
"l@m@n@o@@+p@q@r@s@t@u@+.v+J.J.J.J.J.J.v++.v@&+R.w@x@y@z@A@B@C@D@E@F@",
"G@}@H@I@J@K@&+L@M@+.+.+.+.b+b+b+b+b+b++.+.+.+.N@O@P@b Q@R@S@T@U@V@W@",
"X@Y@I@Z@R.`@ #M@+.n.n.+.+.+.+.+.+.+.+.+.+.n.n.+..#p@c +#@###'+$#V@W@",
"%#&#*#5@=#-# +;#+.n.n.+.n.+.>#m.m.>#+.n.+.n.n.+.,#P@'#)#!#~#{#]#^#/#",
"(#k _#&+:#<#[#}#+.n.n.+.n.+.|#....|#+.n.+.n.n.+.O@@+1#2#3#4#5#6#7#/#",
"8#9#0#a#:#b#c#d#+.n.+.n.+.|#|#|#|#|#|#+.n.+.n.+.e#* f#)#g#h#5#i#j#k#",
"l#m#C@n#X+o#p#q#>@+.+.+.n.n.|#|#|#|#n.n.+.+.+.r#s#t#f#u#v#w#D.x#j#y#",
"z#A#B#C#D#E#F#G#H#I#J#J#n.n.|#|#|#|#n.n.J#J#K#L#Z+M#N#! O#P#Q#i#R#S#",
"T#R#U#V#W#X#Y#Z#`# $J#>#|#|#|#|#|#|#|#|#>#J#.$+$@$;##$B@$$P#4+%$R#S#",
"&$*$=$-$;$>$,$'$)$!$J#>#|#|#|#|#|#|#|#|#>#J#~${$]$^$/$($_$:$<$[$}$|$",
"A#1$1$($W#>$2$3$M#4$5$J#>#|#|#>#>#|#|#>#J#6$7$8$p@9$0$/$:$X.a$b$c$d$",
";$e$e$f$g$M#K#h$!+,@i$J#>#>#>#J#J#>#>#>#J#j$k$l$m$9$n$o$p$:$q$r$s$t$",
"5#u$D.K#>$2$g$g$v$w$x$y$J#J#J#J#J#J#J#J#g@z$A$B$/$C$;$*+_$Y.D$D$E$F$",
"G$H$k$I$@+J$_#K$L$M$N$J.+.+.+.J.J.+.+.+.J.O$P$Q$p@o$e$P@[$a$r$R$S$o ",
"T$K@U$V$W$_#K$X$U$J@J.v++.+.+.J.J.+.+.+.v+J.)+Y$n$P@9$]$_$W.:$Z$`$ %",
" %.%+%E.@%W##%$%;$%%J.J.J.J.J.T.&%J.J.J.J.J.*%}#=%p@0$n$[$Y.-%;%>%,%",
"'%)%!%E#~%J${%]%c$q$^%/%(%_%:%<%[%}%$.|%a 1%X$2%3%=%0$4%5%<$6%7%8%9%",
"0%a%b%c%d%e%f%f% %g% %h%i%j%k%l%v#`@F@m%J@n%6@o%p%q%;$r%n$]$6%q$/%/%",
"s%9%c%t%u%d%v%v%u%w%w#x%y%z%y%A%B%C%/%D%E%n%F%G%p%*%;$H%& 3%I%r$F@F@"};
