/* XPM */
static char * exit_close_xpm[] = {
"34 34 702 2",
"  	c #C0D470",
". 	c #BED26F",
"+ 	c #787E70",
"@ 	c #83877D",
"# 	c #85897F",
"$ 	c #84887E",
"% 	c #7D8178",
"& 	c #777C72",
"* 	c #848F63",
"= 	c #707765",
"- 	c #7A7E74",
"; 	c #7B7E73",
"> 	c #7E8278",
", 	c #6B6F67",
"' 	c #6B7068",
") 	c #8E9D5F",
"! 	c #8C9863",
"~ 	c #767B70",
"{ 	c #7A7D71",
"] 	c #7C7F76",
"^ 	c #70746B",
"/ 	c #8D9B5B",
"( 	c #BFD36F",
"_ 	c #9BAA65",
": 	c #ADBF6A",
"< 	c #B0C369",
"[ 	c #9CAB6F",
"} 	c #565A54",
"| 	c #72766C",
"1 	c #71756D",
"2 	c #797C73",
"3 	c #787B72",
"4 	c #6D7068",
"5 	c #6D736C",
"6 	c #848D74",
"7 	c #97A569",
"8 	c #B6C86B",
"9 	c #BDD06F",
"0 	c #98A66B",
"a 	c #BACD6D",
"b 	c #99A66D",
"c 	c #7C8278",
"d 	c #717868",
"e 	c #919F64",
"f 	c #7D847A",
"g 	c #767C73",
"h 	c #6E746B",
"i 	c #595F59",
"j 	c #73766E",
"k 	c #787C73",
"l 	c #7A7E75",
"m 	c #797D73",
"n 	c #696D65",
"o 	c #7A8078",
"p 	c #6E736B",
"q 	c #777D75",
"r 	c #727968",
"s 	c #8B9571",
"t 	c #878B80",
"u 	c #869070",
"v 	c #BBCE6E",
"w 	c #95A367",
"x 	c #777D73",
"y 	c #767A70",
"z 	c #74786F",
"A 	c #6C716A",
"B 	c #737A71",
"C 	c #7A7F76",
"D 	c #767B72",
"E 	c #616760",
"F 	c #676C64",
"G 	c #757970",
"H 	c #747970",
"I 	c #70746C",
"J 	c #5E635C",
"K 	c #7B8178",
"L 	c #71756C",
"M 	c #60645D",
"N 	c #888C80",
"O 	c #86897E",
"P 	c #7F8277",
"Q 	c #7E8765",
"R 	c #9AA964",
"S 	c #6F746B",
"T 	c #767A71",
"U 	c #5F655E",
"V 	c #6D7167",
"W 	c #6E5C4B",
"X 	c #7D4D34",
"Y 	c #8E5439",
"Z 	c #90563C",
"` 	c #A05F41",
" .	c #995B3F",
"..	c #8D5439",
"+.	c #785844",
"@.	c #69665C",
"#.	c #656860",
"$.	c #80847A",
"%.	c #828479",
"&.	c #7E8277",
"*.	c #81857C",
"=.	c #818B62",
"-.	c #B4C76B",
";.	c #646B5B",
">.	c #71766D",
",.	c #73786E",
"'.	c #777B71",
").	c #5B554C",
"!.	c #854D2F",
"~.	c #9F5C37",
"{.	c #A45E39",
"].	c #AB633C",
"^.	c #A5603A",
"/.	c #BD7345",
"(.	c #B86C42",
"_.	c #B56A40",
":.	c #AF653E",
"<.	c #935634",
"[.	c #705040",
"}.	c #787C72",
"|.	c #7B7E75",
"1.	c #7F8279",
"2.	c #686B63",
"3.	c #9EAE64",
"4.	c #87926B",
"5.	c #7F8379",
"6.	c #636861",
"7.	c #6A6F67",
"8.	c #5A5047",
"9.	c #88502E",
"0.	c #9F5F37",
"a.	c #B26A3E",
"b.	c #BB7142",
"c.	c #C27745",
"d.	c #B97141",
"e.	c #D1864D",
"f.	c #D0824B",
"g.	c #CB7D49",
"h.	c #C47846",
"i.	c #A46239",
"j.	c #B46A42",
"k.	c #694635",
"l.	c #5C605A",
"m.	c #656963",
"n.	c #757A68",
"o.	c #AFC168",
"p.	c #A4B565",
"q.	c #787D72",
"r.	c #787C71",
"s.	c #4F443B",
"t.	c #905332",
"u.	c #A86538",
"v.	c #B06B3E",
"w.	c #C77C46",
"x.	c #CB8048",
"y.	c #D0834B",
"z.	c #C47B45",
"A.	c #DD9254",
"B.	c #D88A4E",
"C.	c #D4864C",
"D.	c #D4864D",
"E.	c #B77141",
"F.	c #CA7D4A",
"G.	c #AE683D",
"H.	c #6A4633",
"I.	c #82877D",
"J.	c #7D8176",
"K.	c #899562",
"L.	c #77825E",
"M.	c #676B62",
"N.	c #767A6F",
"O.	c #6D7066",
"P.	c #8B5230",
"Q.	c #B0683D",
"R.	c #BB7540",
"S.	c #BB7841",
"T.	c #D1854B",
"U.	c #D3874C",
"V.	c #D78A4D",
"W.	c #C98046",
"X.	c #DF9554",
"Y.	c #DB8E4F",
"Z.	c #D4884C",
"`.	c #BE7942",
" +	c #D88A50",
".+	c #C37745",
"++	c #AD683D",
"@+	c #6F5D4E",
"#+	c #70746A",
"$+	c #585D55",
"%+	c #B7CA6D",
"&+	c #B6C96E",
"*+	c #7C8171",
"=+	c #757A71",
"-+	c #6D7269",
";+	c #705842",
">+	c #A66239",
",+	c #C77E45",
"'+	c #C27E43",
")+	c #D3864C",
"!+	c #D98D4D",
"~+	c #D98A4E",
"{+	c #CA8147",
"]+	c #DD9552",
"^+	c #D6884D",
"/+	c #D2864B",
"(+	c #D2864C",
"_+	c #BF7A42",
":+	c #D98E4E",
"<+	c #CB7F48",
"[+	c #BC7342",
"}+	c #975C36",
"|+	c #5B5F57",
"1+	c #72756C",
"2+	c #9DAC64",
"3+	c #A8B868",
"4+	c #75796E",
"5+	c #73766B",
"6+	c #6B6F66",
"7+	c #8F592F",
"8+	c #B87040",
"9+	c #CE804A",
"0+	c #CE8249",
"a+	c #CA8A46",
"b+	c #D7894D",
"c+	c #DD8E51",
"d+	c #D5874C",
"e+	c #C67D45",
"f+	c #DC9551",
"g+	c #D3854B",
"h+	c #D1844A",
"i+	c #D2854B",
"j+	c #BF7A41",
"k+	c #D78F4A",
"l+	c #CC8147",
"m+	c #C47A44",
"n+	c #B36D3E",
"o+	c #6E6256",
"p+	c #72766B",
"q+	c #74786D",
"r+	c #8C9865",
"s+	c #93A15E",
"t+	c #6A6D63",
"u+	c #676A61",
"v+	c #5F5A50",
"w+	c #AE693C",
"x+	c #C47A45",
"y+	c #D3864B",
"z+	c #D7894C",
"A+	c #D98B4E",
"B+	c #C57B44",
"C+	c #DC9451",
"D+	c #D5884C",
"E+	c #C07D42",
"F+	c #D8914B",
"G+	c #C87E46",
"H+	c #BA7240",
"I+	c #875F47",
"J+	c #666A61",
"K+	c #696C62",
"L+	c #6D7458",
"M+	c #B1C469",
"N+	c #717862",
"O+	c #868C7F",
"P+	c #878B83",
"Q+	c #898E85",
"R+	c #655446",
"S+	c #CA7C47",
"T+	c #D0824A",
"U+	c #D88B4E",
"V+	c #D78B4E",
"W+	c #D08C4C",
"X+	c #D78A4E",
"Y+	c #D5894C",
"Z+	c #C87F46",
"`+	c #D9914F",
" @	c #D98C4E",
".@	c #DC8F4F",
"+@	c #C27E44",
"@@	c #DF9453",
"#@	c #D5884D",
"$@	c #C97F47",
"%@	c #885735",
"&@	c #797E76",
"*@	c #7F837B",
"=@	c #878C83",
"-@	c #888F79",
";@	c #70795C",
">@	c #AFC268",
",@	c #7A7F77",
"'@	c #73766D",
")@	c #71756B",
"!@	c #6A5341",
"~@	c #CE8148",
"{@	c #D88B4D",
"]@	c #D7884E",
"^@	c #CF8C4B",
"/@	c #D6874D",
"(@	c #D8914D",
"_@	c #DA8B4F",
":@	c #C17D43",
"<@	c #E39755",
"[@	c #9B6339",
"}@	c #757A72",
"|@	c #80837A",
"1@	c #797B70",
"2@	c #5F6456",
"3@	c #787C74",
"4@	c #818479",
"5@	c #787B70",
"6@	c #695240",
"7@	c #CD8048",
"8@	c #D1824A",
"9@	c #D78B4D",
"0@	c #CE8C49",
"a@	c #D5864D",
"b@	c #D1854A",
"c@	c #D0844A",
"d@	c #C77D46",
"e@	c #D7914B",
"f@	c #DB8D4F",
"g@	c #BE7941",
"h@	c #E29854",
"i@	c #D08449",
"j@	c #A9703D",
"k@	c #7E847B",
"l@	c #797C71",
"m@	c #7A7E73",
"n@	c #B0C268",
"o@	c #6C7068",
"p@	c #6D7169",
"q@	c #747870",
"r@	c #CB7D47",
"s@	c #CE8049",
"t@	c #D6864E",
"u@	c #D3844B",
"v@	c #CE8B4A",
"w@	c #D2844C",
"x@	c #CF8249",
"y@	c #D0834A",
"z@	c #C57B45",
"A@	c #D8944B",
"B@	c #DC8B51",
"C@	c #D4854C",
"D@	c #BE7841",
"E@	c #E19654",
"F@	c #CF824A",
"G@	c #AD783F",
"H@	c #7E837A",
"I@	c #72766D",
"J@	c #73776E",
"K@	c #6A6E66",
"L@	c #595F50",
"M@	c #B1C369",
"N@	c #5C6251",
"O@	c #575C51",
"P@	c #575B57",
"Q@	c #585C57",
"R@	c #644B39",
"S@	c #CC7F48",
"T@	c #CF8149",
"U@	c #D4854B",
"V@	c #D1824B",
"W@	c #CC8949",
"X@	c #C07743",
"Y@	c #D8914F",
"Z@	c #D3844C",
"`@	c #D6884C",
" #	c #D2834B",
".#	c #BC7640",
"+#	c #DF9352",
"@#	c #A7763F",
"##	c #555A55",
"$#	c #5A5F5A",
"%#	c #535752",
"&#	c #5B624F",
"*#	c #5D654A",
"=#	c #8F9C62",
"-#	c #8D9189",
";#	c #85897E",
">#	c #6B5442",
",#	c #CD7F48",
"'#	c #CF814A",
")#	c #D2844A",
"!#	c #CF804A",
"~#	c #C58445",
"{#	c #CE8149",
"]#	c #C07643",
"^#	c #D78E4E",
"/#	c #CF8049",
"(#	c #D28449",
"_#	c #D0814A",
":#	c #B4703D",
"<#	c #DB914F",
"[#	c #C97C46",
"}#	c #A5733E",
"|#	c #80847C",
"1#	c #82867D",
"2#	c #64695A",
"3#	c #8C995E",
"4#	c #7E8074",
"5#	c #6C5542",
"6#	c #D1834A",
"7#	c #C88645",
"8#	c #CE8248",
"9#	c #D08249",
"0#	c #C37944",
"a#	c #D58B4D",
"b#	c #CD7E48",
"c#	c #BA743F",
"d#	c #D78E4B",
"e#	c #C47743",
"f#	c #C67744",
"g#	c #C97A46",
"h#	c #A6713D",
"i#	c #7F857C",
"j#	c #656A5C",
"k#	c #8B985D",
"l#	c #75786D",
"m#	c #7B7D71",
"n#	c #6A5340",
"o#	c #C98546",
"p#	c #CE7F49",
"q#	c #C47944",
"r#	c #D3894C",
"s#	c #CD7D48",
"t#	c #CD7F47",
"u#	c #CB7C47",
"v#	c #BA773F",
"w#	c #D98D4E",
"x#	c #A37D6B",
"y#	c #B3A5A1",
"z#	c #B49283",
"A#	c #A9743E",
"B#	c #757971",
"C#	c #666A63",
"D#	c #616557",
"E#	c #6C7066",
"F#	c #666961",
"G#	c #674F3D",
"H#	c #CC7F47",
"I#	c #CE8048",
"J#	c #C28343",
"K#	c #CF8148",
"L#	c #BE7442",
"M#	c #D48B4D",
"N#	c #CC7E48",
"O#	c #D08349",
"P#	c #B7763E",
"Q#	c #D68E4B",
"R#	c #6A5145",
"S#	c #8C8C8B",
"T#	c #80675A",
"U#	c #A2703C",
"V#	c #696D66",
"W#	c #5E6355",
"X#	c #B5C86B",
"Y#	c #859064",
"Z#	c #7E856F",
"`#	c #737872",
" $	c #696F69",
".$	c #67503F",
"+$	c #CD8049",
"@$	c #C68745",
"#$	c #CE8147",
"$$	c #D2844B",
"%$	c #DB9051",
"&$	c #B7733F",
"*$	c #CE8A47",
"=$	c #999594",
"-$	c #6A6A6A",
";$	c #AFADAC",
">$	c #794D2F",
",$	c #646964",
"'$	c #686D65",
")$	c #889367",
"!$	c #83905D",
"~$	c #7B7F74",
"{$	c #7B7E74",
"]$	c #695241",
"^$	c #CB7E47",
"/$	c #C87B46",
"($	c #C48145",
"_$	c #D4834D",
":$	c #CF8248",
"<$	c #BE7542",
"[$	c #B87340",
"}$	c #C68545",
"|$	c #6D6C6B",
"1$	c #575655",
"2$	c #777675",
"3$	c #5B3B25",
"4$	c #797E77",
"5$	c #70736A",
"6$	c #797C72",
"7$	c #808378",
"8$	c #5E6456",
"9$	c #787C75",
"0$	c #7D8177",
"a$	c #7C7F75",
"b$	c #68513F",
"c$	c #C87A46",
"d$	c #C67845",
"e$	c #BC7B41",
"f$	c #D17F4B",
"g$	c #CE7F48",
"h$	c #CF7F49",
"i$	c #BE7641",
"j$	c #CF814B",
"k$	c #C97C45",
"l$	c #CC7E47",
"m$	c #CC7D48",
"n$	c #AD6B3B",
"o$	c #C98346",
"p$	c #68615E",
"q$	c #949493",
"r$	c #6D6866",
"s$	c #5D3A26",
"t$	c #6E7167",
"u$	c #7E8175",
"v$	c #5F6457",
"w$	c #7B8076",
"x$	c #7C7F74",
"y$	c #6E7269",
"z$	c #6A5140",
"A$	c #C67546",
"B$	c #C17244",
"C$	c #BD6E41",
"D$	c #B86B3F",
"E$	c #B77740",
"F$	c #CA7848",
"G$	c #CB7A47",
"H$	c #C87945",
"I$	c #B96F3F",
"J$	c #C27542",
"K$	c #C77944",
"L$	c #C57644",
"M$	c #A56437",
"N$	c #C77F44",
"O$	c #995C32",
"P$	c #975B33",
"Q$	c #A46337",
"R$	c #926336",
"S$	c #81857D",
"T$	c #7E8176",
"U$	c #7F8176",
"V$	c #606657",
"W$	c #6D7168",
"X$	c #73776D",
"Y$	c #646861",
"Z$	c #674E3C",
"`$	c #C06E44",
" %	c #BA6B41",
".%	c #B5663E",
"+%	c #AF633B",
"@%	c #B4733E",
"#%	c #C26E45",
"$%	c #C37442",
"%%	c #C07142",
"&%	c #B0673C",
"*%	c #CA7D48",
"=%	c #B46A3B",
"-%	c #B96C3E",
";%	c #BA6C3E",
">%	c #9D5C33",
",%	c #C07541",
"'%	c #B46A3C",
")%	c #B0673B",
"!%	c #AD663A",
"~%	c #956538",
"{%	c #6A6F68",
"]%	c #535A4C",
"^%	c #B8CC6C",
"/%	c #96A560",
"(%	c #727C55",
"_%	c #6E736D",
":%	c #6C6F68",
"<%	c #5E473E",
"[%	c #AF5F3D",
"}%	c #A65A38",
"|%	c #A85C39",
"1%	c #A35936",
"2%	c #AF6E3B",
"3%	c #B4633F",
"4%	c #B76A3D",
"5%	c #B2653C",
"6%	c #A76137",
"7%	c #C27643",
"8%	c #A75F36",
"9%	c #AB6039",
"0%	c #AD603A",
"a%	c #92522F",
"b%	c #B56A3D",
"c%	c #985531",
"d%	c #915030",
"e%	c #945330",
"f%	c #905E36",
"g%	c #747972",
"h%	c #5C6157",
"i%	c #95A45D",
"j%	c #96A65C",
"k%	c #7A7D73",
"l%	c #624D43",
"m%	c #9B5233",
"n%	c #9C5233",
"o%	c #965030",
"p%	c #A66438",
"q%	c #A95A3A",
"r%	c #A95D38",
"s%	c #A95B39",
"t%	c #9E5933",
"u%	c #BB6E41",
"v%	c #9F5634",
"w%	c #A15735",
"x%	c #894B2C",
"y%	c #AC623A",
"z%	c #85482C",
"A%	c #7D4329",
"B%	c #884A2C",
"C%	c #8C5833",
"D%	c #7F847A",
"E%	c #8D9A60",
"F%	c #5B4C42",
"G%	c #8C482E",
"H%	c #8B482E",
"I%	c #8C492F",
"J%	c #85462B",
"K%	c #945132",
"L%	c #974E34",
"M%	c #954E32",
"N%	c #9C5234",
"O%	c #914D30",
"P%	c #AA5C3D",
"Q%	c #8D4A2E",
"R%	c #8C492E",
"S%	c #8E4A2F",
"T%	c #794026",
"U%	c #955031",
"V%	c #763E25",
"W%	c #7C4127",
"X%	c #79492D",
"Y%	c #686D5F",
"Z%	c #73786F",
"`%	c #6C7067",
" &	c #56463E",
".&	c #7E402A",
"+&	c #7A3F28",
"@&	c #743C25",
"#&	c #87472E",
"$&	c #88442F",
"%&	c #87452E",
"&&	c #8D4A2F",
"*&	c #80422B",
"=&	c #A0533B",
"-&	c #7E412A",
";&	c #793F28",
">&	c #6E3923",
",&	c #85452C",
"'&	c #713B23",
")&	c #753D26",
"!&	c #743D25",
"~&	c #6C402B",
"{&	c #797E73",
"]&	c #6E7265",
"^&	c #89965B",
"/&	c #5D615B",
"(&	c #595D58",
"_&	c #514039",
":&	c #733A26",
"<&	c #6F3924",
"[&	c #6B3921",
"}&	c #7A3F29",
"|&	c #7B3E2B",
"1&	c #773C28",
"2&	c #7D4129",
"3&	c #753C27",
"4&	c #934C35",
"5&	c #723A26",
"6&	c #703925",
"7&	c #743B26",
"8&	c #62321F",
"9&	c #763C27",
"0&	c #673620",
"a&	c #6A3722",
"b&	c #683720",
"c&	c #643B28",
"d&	c #686C65",
"e&	c #62675A",
"f&	c #B4C76A",
"g&	c #ABBD65",
"h&	c #B0C067",
"i&	c #B9C569",
"j&	c #BAC468",
"k&	c #B9C467",
"l&	c #B0BD64",
"m&	c #AEBC63",
"n&	c #AFBC63",
"o&	c #AFBD64",
"p&	c #ADBC63",
"q&	c #ADBC64",
"r&	c #ABBD66",
"s&	c #ACBE67",
"                          . + @ # $ % & *                           ",
"                          . = - ; > , ' )                           ",
"                          . ! ~ { ] ^ , / (                         ",
"                _ :   < [ + } | 1 2 3 4 5 6 7 8 9 0 a               ",
"              b c d e f g h i j k l m n o p q r s t u v             ",
"            w x y z A B C D E F G H I J K G L M N O P Q             ",
"            R S T y x U V W X Y Z `  ...+.@.#.$.%.&.*.=.            ",
"            -.;.>.,.'.).!.~.{.].^./.(._.:.<.[.}.|.1.2.3.            ",
"          ( 4.5.6.7.8.9.0.a.b.c.d.e.f.g.h.i.j.k.l.m.> n.o.          ",
"          p.q.r.G s.t.u.v.w.x.y.z.A.B.C.D.E.F.G.H.3 I.J.K.          ",
"          L.M.N.O.P.Q.R.S.T.U.V.W.X.Y.Z.U.`. +.+++@+; #+$+%+        ",
"        &+*+=+-+;+>+c.,+'+)+!+~+{+]+^+/+(+_+:+<+[+}+|+>.1+2+        ",
"        3+4+5+6+7+8+9+0+a+b+c+d+e+f+g+h+i+j+k+l+m+n+o+p+q+r+        ",
"        s+t+u+v+w+x+y.y+a+z+A+h+B+C+C.y.D+E+F+0+G+H+I+J+K+L+        ",
"    M+N+O+P+Q+R+S+T+U+V+W+X+Y+/+Z+`+ @V..@+@@@#@/+$@%@&@*@=@-@;@    ",
"    >@,@k '@)@!@~@T+{@]@^@/@y+/+$@(@ @!+_@:@<@y+/+T.[@}@] |@1@2@    ",
"    >@3@|.4@5@6@7@8@9@C.0@a@b@c@d@e@_@f@d+g@h@i+i@C.j@k@l@] m@2@    ",
"    n@n o@p@q@6@r@s@t@u@v@w@x@y@z@A@D+B@C@D@E@F@x@i+G@H@I@J@K@L@    ",
"    M@N@O@P@Q@R@S@T@U@V@W@T+7@T+X@Y@Z@`@ #.#+#7@T@h+@###$#%#&#*#    ",
"        =#-#;#>#,#'#)#!#~#T@S@{#]#^#/#(#_#:#<#[#,#T@}#|#1#2#        ",
"        3#1.4#5#7@6#h+F@7#8#{#9#0#a#b#T@,#c#d#e#f#g#h#i#T j#        ",
"        k#l#m#n#S@T@9#{#o#p#T@T+q#r#s#t#u#v#w#x#y#z#A#B#C#D#        ",
"        3#E#F#G#H#,#I#S@J#_#K#8@L#M#N#O#/#P#Q#R#S#T#U#V#6.W#        ",
"    X#Y#Z#`# $.$7@H#S@+$@$C@#$$$z@%$~@h+$$&$*$=$-$;$>$,$5 '$)$!$    ",
"    >@3 ~$5.{$]$^$r@/$^$($_$:$V@<$a#7@9#T@[$}$|$1$2$3$4$5$6$7$8$    ",
"    >@9$0$a$)@b$c$S+d$d$e$f$g$h$i$j$k$l$m$n$o$p$q$r$s$H@t$4@u$v$    ",
"    >@w$x$x$y$z$A$B$C$D$E$F$G$H$I$i+J$K$L$M$N$O$P$Q$R$S$T$U$4+V$    ",
"    n@W$X$, Y$Z$`$ %.%+%@%#%$%%%&%*%=%-%;%>%,%'%)%!%~%{%J@I@V#]%    ",
"    ^%/%(%_%:%<%[%}%|%1%2%3%4%5%6%7%8%9%0%a%b%c%d%e%f%6.g%h%i%j%    ",
"        3#^ k%l%m%n%m%o%p%q%r%s%t%u%v%w%w%x%y%z%A%B%C%D%| 2#        ",
"        E%}.X$F%G%H%I%J%K%L%M%N%O%P%Q%R%S%T%U%V%W%W%X%C H Y%        ",
"        E%Z%`% &.&+&.&@&#&$&%&&&*&=&-&;&*&>&,&'&)&!&~&y${&]&        ",
"        ^&/&(&_&:&<&:&[&}&|&1&2&3&4&5&6&7&8&9&0&a&b&c&J d&e&        ",
"        f&g&h&i&j&j&j&k&j&l&m&n&m&o&m&m&m&p&m&p&p&m&q&g&r&s&        "};
