/* XPM */
static char * exit_open_xpm[] = {
"34 34 500 2",
"  	c #C0D470",
". 	c #BFD370",
"+ 	c #8D996E",
"@ 	c #81867E",
"# 	c #81867D",
"$ 	c #80867D",
"% 	c #7F857C",
"& 	c #7A8078",
"* 	c #9EAC69",
"= 	c #BED26F",
"- 	c #6E746B",
"; 	c #7C7F76",
"> 	c #7E8177",
", 	c #7F8278",
"' 	c #6E726A",
") 	c #6B7068",
"! 	c #7D895D",
"~ 	c #818C63",
"{ 	c #787C73",
"] 	c #7A7D72",
"^ 	c #7D8177",
"/ 	c #6E716A",
"( 	c #686C65",
"_ 	c #9EAF63",
": 	c #BBCE6E",
"< 	c #B9CC6D",
"[ 	c #9BAA67",
"} 	c #737C5A",
"| 	c #75796E",
"1 	c #787B72",
"2 	c #7B7E75",
"3 	c #73776E",
"4 	c #6A7358",
"5 	c #A4B46A",
"6 	c #B9CD6E",
"7 	c #B4C66B",
"8 	c #7A826D",
"9 	c #8A9563",
"0 	c #B7CB6B",
"a 	c #8D996B",
"b 	c #7F8675",
"c 	c #797F76",
"d 	c #575D56",
"e 	c #6F726A",
"f 	c #6E736A",
"g 	c #757970",
"h 	c #797C72",
"i 	c #6A6E66",
"j 	c #7A7F77",
"k 	c #797F73",
"l 	c #92A063",
"m 	c #A9B96C",
"n 	c #7F8577",
"o 	c #A3B36B",
"p 	c #B5C86C",
"q 	c #818874",
"r 	c #787C72",
"s 	c #71766E",
"t 	c #6C7265",
"u 	c #7E847B",
"v 	c #777D74",
"w 	c #747970",
"x 	c #60665F",
"y 	c #7F8279",
"z 	c #797C73",
"A 	c #666A62",
"B 	c #7B8178",
"C 	c #71766D",
"D 	c #70756C",
"E 	c #676B64",
"F 	c #84897D",
"G 	c #86897E",
"H 	c #7D8175",
"I 	c #A1B166",
"J 	c #7F8A62",
"K 	c #767B71",
"L 	c #777B71",
"M 	c #72776E",
"N 	c #676D65",
"O 	c #777D73",
"P 	c #707167",
"Q 	c #665A4E",
"R 	c #775F4F",
"S 	c #8F7C5F",
"T 	c #909C6A",
"U 	c #8C9868",
"V 	c #7B865A",
"W 	c #7E866D",
"X 	c #74796F",
"Y 	c #707469",
"Z 	c #70756D",
"` 	c #84877C",
" .	c #83877C",
"..	c #707566",
"+.	c #B6C86B",
"@.	c #6B715F",
"#.	c #777C72",
"$.	c #74786E",
"%.	c #787D74",
"&.	c #60645D",
"*.	c #6C5747",
"=.	c #A76D43",
"-.	c #B07142",
";.	c #B47243",
">.	c #C59855",
",.	c #BFD36F",
"'.	c #B8CC6C",
").	c #9BAB60",
"!.	c #6C7559",
"~.	c #84877D",
"{.	c #818378",
"].	c #73776F",
"^.	c #A0B064",
"/.	c #A2B267",
"(.	c #737870",
"_.	c #646861",
":.	c #72776D",
"<.	c #696C63",
"[.	c #664330",
"}.	c #8F5933",
"|.	c #C37E4C",
"1.	c #B17242",
"2.	c #BB7948",
"3.	c #C99A57",
"4.	c #ACBD65",
"5.	c #71795D",
"6.	c #70746C",
"7.	c #6D7069",
"8.	c #808A5F",
"9.	c #BDD16E",
"0.	c #B6C96B",
"a.	c #767B70",
"b.	c #787C71",
"c.	c #6B6F68",
"d.	c #565852",
"e.	c #6C462F",
"f.	c #995B34",
"g.	c #9C6138",
"h.	c #C57F4C",
"i.	c #B37343",
"j.	c #BC7A49",
"k.	c #C99B57",
"l.	c #ACBE64",
"m.	c #60694A",
"n.	c #767B73",
"o.	c #81857B",
"p.	c #7A7E73",
"q.	c #9BAB63",
"r.	c #88955B",
"s.	c #767A6F",
"t.	c #777A6F",
"u.	c #795738",
"v.	c #A56A37",
"w.	c #A9653A",
"x.	c #A0653D",
"y.	c #C8814F",
"z.	c #B47443",
"A.	c #B97747",
"B.	c #CD9D5A",
"C.	c #ACBE65",
"D.	c #7B8267",
"E.	c #7F8378",
"F.	c #7C7F74",
"G.	c #6F775C",
"H.	c #BCCF6E",
"I.	c #BCD06E",
"J.	c #80886F",
"K.	c #666B63",
"L.	c #6F7369",
"M.	c #746A5B",
"N.	c #A96739",
"O.	c #B87A3E",
"P.	c #B06A3C",
"Q.	c #9E6239",
"R.	c #C7804E",
"S.	c #B37443",
"T.	c #BA7948",
"U.	c #CA9B58",
"V.	c #A0B163",
"W.	c #6B6F66",
"X.	c #AEC069",
"Y.	c #B0C26D",
"Z.	c #75786D",
"`.	c #70756B",
" +	c #9A6A3D",
".+	c #B66E3E",
"++	c #BE7D41",
"@+	c #B16B3B",
"#+	c #C6804D",
"$+	c #CC9D5A",
"%+	c #B8CB6B",
"&+	c #717A5D",
"*+	c #777A70",
"=+	c #929F65",
"-+	c #9FAF64",
";+	c #76796E",
">+	c #72766C",
",+	c #65685F",
"'+	c #A06636",
")+	c #BB7240",
"!+	c #BB7C3F",
"~+	c #B46C3C",
"{+	c #9C623B",
"]+	c #C98250",
"^+	c #B47445",
"/+	c #C29B65",
"(+	c #859160",
"_+	c #72766B",
":+	c #74776C",
"<+	c #838D63",
"[+	c #BACD6D",
"}+	c #A4B369",
"|+	c #8F9975",
"1+	c #7F837B",
"2+	c #7D827A",
"3+	c #514C44",
"4+	c #A16536",
"5+	c #AA663A",
"6+	c #B4783D",
"7+	c #B46C3D",
"8+	c #A0653C",
"9+	c #C8824E",
"0+	c #A37E6C",
"a+	c #A39772",
"b+	c #9CAC5E",
"c+	c #6F746C",
"d+	c #72756E",
"e+	c #AEBD79",
"f+	c #A4B569",
"g+	c #AFC268",
"h+	c #70736B",
"i+	c #767A72",
"j+	c #6C7068",
"k+	c #757A71",
"l+	c #584C40",
"m+	c #A06436",
"n+	c #AF693C",
"o+	c #B97A3E",
"p+	c #B66E3D",
"q+	c #9C6038",
"r+	c #C57E4C",
"s+	c #B27343",
"t+	c #7F5F4F",
"u+	c #A3A28F",
"v+	c #C3D67A",
"w+	c #A7B864",
"x+	c #7B7F76",
"y+	c #81847B",
"z+	c #76796F",
"A+	c #5F6456",
"B+	c #7A7E75",
"C+	c #81847A",
"D+	c #74766C",
"E+	c #594C40",
"F+	c #BC7D40",
"G+	c #AF693B",
"H+	c #9B6036",
"I+	c #C47F4C",
"J+	c #B37342",
"K+	c #84746C",
"L+	c #C6C1B7",
"M+	c #C5D781",
"N+	c #ABBD66",
"O+	c #7E8178",
"P+	c #7B7E73",
"Q+	c #777B72",
"R+	c #787B71",
"S+	c #584A3E",
"T+	c #A26636",
"U+	c #BE7441",
"V+	c #BC7B3F",
"W+	c #AD683C",
"X+	c #9A6138",
"Y+	c #C7814E",
"Z+	c #B37241",
"`+	c #877A75",
" @	c #979C88",
".@	c #C2D577",
"+@	c #75796F",
"@@	c #5C6254",
"#@	c #B0C268",
"$@	c #5F645E",
"%@	c #60645E",
"&@	c #61655F",
"*@	c #686D65",
"=@	c #55473C",
"-@	c #A06435",
";@	c #BF7541",
">@	c #B8773D",
",@	c #A9653B",
"'@	c #9D643D",
")@	c #C9824F",
"!@	c #B27243",
"~@	c #705C54",
"{@	c #8F7F49",
"]@	c #6E726B",
"^@	c #676B63",
"/@	c #656A62",
"(@	c #5D605B",
"_@	c #545A4C",
":@	c #B9CD6D",
"<@	c #9AAA5F",
"[@	c #747F55",
"}@	c #757A73",
"|@	c #72766E",
"1@	c #53453A",
"2@	c #9F6334",
"3@	c #BE7440",
"4@	c #AF6E39",
"5@	c #AE693C",
"6@	c #A3673F",
"7@	c #C8814E",
"8@	c #B17143",
"9@	c #A86739",
"0@	c #C79958",
"a@	c #686B65",
"b@	c #787D75",
"c@	c #595E53",
"d@	c #9DAD60",
"e@	c #8E9B61",
"f@	c #878B83",
"g@	c #7F8176",
"h@	c #564B40",
"i@	c #9E6234",
"j@	c #BD7340",
"k@	c #B0703A",
"l@	c #B36D3F",
"m@	c #A2653C",
"n@	c #C57E4B",
"o@	c #B67443",
"p@	c #C29653",
"q@	c #82877E",
"r@	c #73786F",
"s@	c #626759",
"t@	c #8B985D",
"u@	c #7F8074",
"v@	c #9E6334",
"w@	c #BD7240",
"x@	c #B2723B",
"y@	c #B87142",
"z@	c #A1663C",
"A@	c #B77544",
"B@	c #C59856",
"C@	c #656A5B",
"D@	c #8C995E",
"E@	c #74766B",
"F@	c #72756A",
"G@	c #55483D",
"H@	c #9F6335",
"I@	c #B7763D",
"J@	c #B7703F",
"K@	c #A2663D",
"L@	c #B77543",
"M@	c #C79957",
"N@	c #616660",
"O@	c #5D6255",
"P@	c #BDD16F",
"Q@	c #AFC168",
"R@	c #7E8A56",
"S@	c #5A5E58",
"T@	c #525652",
"U@	c #4D3F36",
"V@	c #BB723F",
"W@	c #B2733B",
"X@	c #B16B3D",
"Y@	c #9C6238",
"Z@	c #C47E4B",
"`@	c #C29552",
" #	c #5A5E59",
".#	c #595E59",
"+#	c #565B50",
"@#	c #B0C269",
"##	c #B1C36A",
"$#	c #73766E",
"%#	c #848980",
"&#	c #898D84",
"*#	c #574D43",
"=#	c #BA713F",
"-#	c #B6763C",
";#	c #A9663B",
">#	c #9A6136",
",#	c #C37C4B",
"'#	c #B37041",
")#	c #C09351",
"!#	c #7C8179",
"~#	c #7D8279",
"{#	c #797E75",
"]#	c #5D6356",
"^#	c #7A7E72",
"/#	c #7C7F75",
"(#	c #53473D",
"_#	c #B9703E",
":#	c #AC6C38",
"<#	c #9A5934",
"[#	c #965C37",
"}#	c #C07A4A",
"|#	c #B57444",
"1#	c #B17041",
"2#	c #BEB05F",
"3#	c #CEDD75",
"4#	c #D0DE76",
"5#	c #B9C66B",
"6#	c #767A73",
"7#	c #696C64",
"8#	c #808379",
"9#	c #808378",
"0#	c #6E7369",
"a#	c #51483E",
"b#	c #9D6134",
"c#	c #AB6439",
"d#	c #A96D38",
"e#	c #8E4F2F",
"f#	c #935B35",
"g#	c #BF794A",
"h#	c #B8B15E",
"i#	c #C4D771",
"j#	c #C4D671",
"k#	c #D1DF77",
"l#	c #D2E077",
"m#	c #BBC76C",
"n#	c #83887F",
"o#	c #7A7C71",
"p#	c #7E8074",
"q#	c #5F6557",
"r#	c #777A71",
"s#	c #7B7E72",
"t#	c #6C7067",
"u#	c #54463B",
"v#	c #985E31",
"w#	c #995830",
"x#	c #985C32",
"y#	c #773F27",
"z#	c #8E5833",
"A#	c #BB7848",
"B#	c #BDB360",
"C#	c #BBC86C",
"D#	c #7A7E76",
"E#	c #7D8075",
"F#	c #7F8277",
"G#	c #74786F",
"H#	c #5B6254",
"I#	c #B0C369",
"J#	c #5B6056",
"K#	c #5E6259",
"L#	c #565B56",
"M#	c #575B56",
"N#	c #4D4137",
"O#	c #925A2F",
"P#	c #8C4E2B",
"Q#	c #874C2C",
"R#	c #6B3723",
"S#	c #8D5934",
"T#	c #C3B563",
"U#	c #C4D772",
"V#	c #505550",
"W#	c #5B5F5A",
"X#	c #595D58",
"Y#	c #515945",
"Z#	c #7B8078",
"`#	c #544A3F",
" $	c #925B2F",
".$	c #7D4227",
"+$	c #7B4327",
"@$	c #724C2C",
"#$	c #A9B05D",
"$$	c #7C8077",
"%$	c #676C5D",
"&$	c #554B40",
"*$	c #8A562C",
"=$	c #753D25",
"-$	c #784F2D",
";$	c #ADB861",
">$	c #C1D570",
",$	c #CADB74",
"'$	c #767A70",
")$	c #646A5B",
"!$	c #8D9B60",
"~$	c #53493F",
"{$	c #84522B",
"]$	c #7F502F",
"^$	c #AEB45F",
"/$	c #C6D872",
"($	c #CBDB74",
"_$	c #B5C36A",
":$	c #6C7163",
"<$	c #6B6F67",
"[$	c #646761",
"}$	c #51483C",
"|$	c #8C6535",
"1$	c #AEB862",
"2$	c #6E7265",
"3$	c #98A75F",
"4$	c #758156",
"5$	c #778155",
"6$	c #A4B062",
"7$	c #C2D571",
"8$	c #B0C368",
"9$	c #737F53",
"0$	c #768156",
"a$	c #798556",
"                          . + @ # $ % & *                           ",
"                          = - ; > , ' ) !                           ",
"                          . ~ { ] ^ / ( _                           ",
"                : =     < [ } | 1 2 3 ' 4 5 <     6                 ",
"              7 8 9 0 a b c d e f g h i & j k l m n o               ",
"            p q r s t u v w x g > y z A B C D E F G H I             ",
"          . J w K L M N O P Q R S T U V W X Y Z `  . ...            ",
"            +.@.#.$.%.&.*.=.-.;.>.    ,.'.).!.~.{., ].^.            ",
"            /.(._.:.<.[.}.|.1.2.3.          4.5.6.7.3 8.9.          ",
"          0.a.b.c.d.e.f.g.h.i.j.k.            l.m.n.o.p.q.          ",
"          r.s.p.t.u.v.w.x.y.z.A.B.              C.D.E.F.G.H.        ",
"        I.J.K.L.M.N.O.P.Q.R.S.T.U.                V.W.K._.X.        ",
"        Y.Z.s.`. +.+++@+g.#+z.2.$+                %+&+*+Z.=+        ",
"        -+;+>+,+'+)+!+~+{+]+z.^+/+                . (+_+:+<+        ",
"    [+}+|+1+2+3+4+5+6+7+8+9+i.0+a+                  b+c+d+a.e+f+    ",
"    g+h+i+j+k+l+m+n+o+p+q+r+s+t+u+v+                w+C x+y+z+A+    ",
"    g+2+B+C+D+E+4+.+F+G+H+I+J+K+L+M+                N+j r O+P+A+    ",
"    g+h+Q+R+1 S+T+U+V+W+X+Y+Z+`+ @.@                N+# r B++@@@    ",
"    #@$@%@&@*@=@-@;@>@,@'@)@!@~@{@                  N+]@^@/@(@_@    ",
"    :@<@[@}@|@1@2@3@4@5@6@7@8@9@0@                  N+a@b@c@).d@    ",
"        e@f@g@h@i@j@k@l@m@n@1.o@p@                  N+q@r@s@        ",
"        t@t.u@h@v@w@x@y@z@#+i.A@B@                  N+j 6.C@        ",
"        D@E@F@G@H@3@I@J@K@R.s+L@M@                  N+6.N@O@        ",
"    P@Q@R@S@T@U@v@V@W@X@Y@Z@s+o@`@                  N+ #.#+#@###    ",
"    g+$#%#&## *#v@=#-#;#>#,#i.'#)#                  N+!#~#{#z ]#    ",
"    g+i+^#/#;+(#i@_#:#<#[#}#|#1#2#  3#4#4#4#4#4#4#4#5#6#7#8#9#A+    ",
"    g+~#^ F.0#a#b#c#d#e#f#g#s+h#i#j#k#l#l#l#l#l#l#l#m#n#o#p#o#q#    ",
"    g+r#s#h t#u#v#w#x#y#z#A#B#l#l#l#l#l#l#l#l#l#l#l#C#D#E#F#G#H#    ",
"    I#J#K#L#M#N#O#P#Q#R#S#T#U#l#l#l#l#l#l#l#l#l#l#l#C#V#W#X#+#Y#    ",
"        D@Z#O+`# $.$+$@$#$  i#k#l#l#l#l#l#l#l#l#l#l#C#$$# %$        ",
"        D@+@z+&$*$=$-$;$      >$,$l#l#l#l#l#l#l#l#l#m#% '$)$        ",
"        !$Q+>+~${$]$^$          /$($($($($($($($($($_$3 w :$        ",
"        D@<$[$}$|$1$                                N+<$B+2$        ",
"        3$4$5$6$3#3#3#3#3#7$                        8$9$0$a$        "};
