/* XPM */
static char * exit_down_xpm[] = {
"34 34 330 2",
"  	c #C0D470",
". 	c #BFD370",
"+ 	c #8D996E",
"@ 	c #81867E",
"# 	c #81867D",
"$ 	c #80867D",
"% 	c #7F857C",
"& 	c #7A8078",
"* 	c #9EAC69",
"= 	c #BED26F",
"- 	c #6E746B",
"; 	c #7C7F76",
"> 	c #7E8177",
", 	c #7F8278",
"' 	c #6E726A",
") 	c #6B7068",
"! 	c #7D895D",
"~ 	c #818C63",
"{ 	c #787C73",
"] 	c #7A7D72",
"^ 	c #7D8177",
"/ 	c #6E716A",
"( 	c #686C65",
"_ 	c #9EAF63",
": 	c #BBCE6E",
"< 	c #B9CC6D",
"[ 	c #9BAA67",
"} 	c #500000",
"| 	c #885818",
"1 	c #73776E",
"2 	c #6A7358",
"3 	c #A4B46A",
"4 	c #B9CD6E",
"5 	c #B4C66B",
"6 	c #7A826D",
"7 	c #8A9563",
"8 	c #B7CB6B",
"9 	c #8D996B",
"0 	c #F84070",
"a 	c #D8A038",
"b 	c #F8D870",
"c 	c #7A7F77",
"d 	c #797F73",
"e 	c #92A063",
"f 	c #A9B96C",
"g 	c #7F8577",
"h 	c #A3B36B",
"i 	c #B5C86C",
"j 	c #818874",
"k 	c #787C72",
"l 	c #71766E",
"m 	c #6C7265",
"n 	c #B02860",
"o 	c #F8F8F8",
"p 	c #71766D",
"q 	c #70756C",
"r 	c #676B64",
"s 	c #84897D",
"t 	c #86897E",
"u 	c #7D8175",
"v 	c #A1B166",
"w 	c #7F8A62",
"x 	c #747970",
"y 	c #767B71",
"z 	c #777B71",
"A 	c #000000",
"B 	c #707469",
"C 	c #70756D",
"D 	c #84877C",
"E 	c #83877C",
"F 	c #707566",
"G 	c #B6C86B",
"H 	c #6B715F",
"I 	c #777C72",
"J 	c #74786E",
"K 	c #6C7559",
"L 	c #84877D",
"M 	c #818378",
"N 	c #73776F",
"O 	c #A0B064",
"P 	c #A2B267",
"Q 	c #737870",
"R 	c #646861",
"S 	c #72776D",
"T 	c #ACBD65",
"U 	c #71795D",
"V 	c #70746C",
"W 	c #6D7069",
"X 	c #808A5F",
"Y 	c #BDD16E",
"Z 	c #B6C96B",
"` 	c #767B70",
" .	c #787C71",
"..	c #6B6F68",
"+.	c #565852",
"@.	c #F87068",
"#.	c #ACBE64",
"$.	c #60694A",
"%.	c #767B73",
"&.	c #81857B",
"*.	c #7A7E73",
"=.	c #9BAB63",
"-.	c #88955B",
";.	c #767A6F",
">.	c #777A6F",
",.	c #F8D0C0",
"'.	c #ACBE65",
").	c #7B8267",
"!.	c #7F8378",
"~.	c #7C7F74",
"{.	c #6F775C",
"].	c #BCCF6E",
"^.	c #BCD06E",
"/.	c #80886F",
"(.	c #666B63",
"_.	c #6F7369",
":.	c #A0B163",
"<.	c #6B6F66",
"[.	c #AEC069",
"}.	c #B0C26D",
"|.	c #75786D",
"1.	c #70756B",
"2.	c #B8CB6B",
"3.	c #717A5D",
"4.	c #777A70",
"5.	c #929F65",
"6.	c #9FAF64",
"7.	c #76796E",
"8.	c #72766C",
"9.	c #65685F",
"0.	c #A06636",
"a.	c #859160",
"b.	c #72766B",
"c.	c #74776C",
"d.	c #838D63",
"e.	c #BACD6D",
"f.	c #A4B369",
"g.	c #8F9975",
"h.	c #7F837B",
"i.	c #7D827A",
"j.	c #514C44",
"k.	c #A16536",
"l.	c #AA663A",
"m.	c #9CAC5E",
"n.	c #6F746C",
"o.	c #72756E",
"p.	c #AEBD79",
"q.	c #A4B569",
"r.	c #AFC268",
"s.	c #70736B",
"t.	c #767A72",
"u.	c #6C7068",
"v.	c #757A71",
"w.	c #584C40",
"x.	c #A06436",
"y.	c #AF693C",
"z.	c #B97A3E",
"A.	c #A7B864",
"B.	c #7B7F76",
"C.	c #81847B",
"D.	c #76796F",
"E.	c #5F6456",
"F.	c #7A7E75",
"G.	c #81847A",
"H.	c #74766C",
"I.	c #594C40",
"J.	c #ABBD66",
"K.	c #7E8178",
"L.	c #7B7E73",
"M.	c #777B72",
"N.	c #787B71",
"O.	c #787B72",
"P.	c #584A3E",
"Q.	c #75796F",
"R.	c #5C6254",
"S.	c #B0C268",
"T.	c #5F645E",
"U.	c #60645E",
"V.	c #61655F",
"W.	c #686D65",
"X.	c #55473C",
"Y.	c #408098",
"Z.	c #6E726B",
"`.	c #676B63",
" +	c #656A62",
".+	c #5D605B",
"++	c #545A4C",
"@+	c #B9CD6D",
"#+	c #9AAA5F",
"$+	c #747F55",
"%+	c #757A73",
"&+	c #72766E",
"*+	c #53453A",
"=+	c #80D8C8",
"-+	c #686B65",
";+	c #787D75",
">+	c #595E53",
",+	c #9BAB60",
"'+	c #9DAD60",
")+	c #8E9B61",
"!+	c #878B83",
"~+	c #7F8176",
"{+	c #564B40",
"]+	c #82877E",
"^+	c #73786F",
"/+	c #626759",
"(+	c #8B985D",
"_+	c #7F8074",
":+	c #9E6334",
"<+	c #656A5B",
"[+	c #8C995E",
"}+	c #74766B",
"|+	c #72756A",
"1+	c #55483D",
"2+	c #9F6335",
"3+	c #BE7440",
"4+	c #203088",
"5+	c #616660",
"6+	c #5D6255",
"7+	c #BDD16F",
"8+	c #AFC168",
"9+	c #7E8A56",
"0+	c #5A5E58",
"a+	c #525652",
"b+	c #4D3F36",
"c+	c #BB723F",
"d+	c #5A5E59",
"e+	c #595E59",
"f+	c #565B50",
"g+	c #B0C269",
"h+	c #B1C36A",
"i+	c #73766E",
"j+	c #848980",
"k+	c #898D84",
"l+	c #574D43",
"m+	c #BA713F",
"n+	c #7C8179",
"o+	c #7D8279",
"p+	c #797E75",
"q+	c #797C73",
"r+	c #5D6356",
"s+	c #7A7E72",
"t+	c #7C7F75",
"u+	c #53473D",
"v+	c #9E6234",
"w+	c #B9703E",
"x+	c #AC6C38",
"y+	c #D0DE76",
"z+	c #B9C66B",
"A+	c #767A73",
"B+	c #696C64",
"C+	c #808379",
"D+	c #808378",
"E+	c #6E7369",
"F+	c #51483E",
"G+	c #9D6134",
"H+	c #AB6439",
"I+	c #A96D38",
"J+	c #D2E077",
"K+	c #BBC76C",
"L+	c #83887F",
"M+	c #7A7C71",
"N+	c #7E8074",
"O+	c #5F6557",
"P+	c #777A71",
"Q+	c #7B7E72",
"R+	c #797C72",
"S+	c #6C7067",
"T+	c #54463B",
"U+	c #985E31",
"V+	c #995830",
"W+	c #985C32",
"X+	c #773F27",
"Y+	c #BBC86C",
"Z+	c #7A7E76",
"`+	c #7D8075",
" @	c #7F8277",
".@	c #74786F",
"+@	c #5B6254",
"@@	c #B0C369",
"#@	c #5B6056",
"$@	c #5E6259",
"%@	c #565B56",
"&@	c #575B56",
"*@	c #4D4137",
"=@	c #925A2F",
"-@	c #8C4E2B",
";@	c #874C2C",
">@	c #505550",
",@	c #5B5F5A",
"'@	c #595D58",
")@	c #515945",
"!@	c #7B8078",
"~@	c #544A3F",
"{@	c #925B2F",
"]@	c #7D4227",
"^@	c #7C8077",
"/@	c #676C5D",
"(@	c #554B40",
"_@	c #8A562C",
":@	c #753D25",
"<@	c #C1D570",
"[@	c #CADB74",
"}@	c #767A70",
"|@	c #646A5B",
"1@	c #8D9B60",
"2@	c #53493F",
"3@	c #84522B",
"4@	c #7F502F",
"5@	c #AEB45F",
"6@	c #C6D872",
"7@	c #CBDB74",
"8@	c #B5C36A",
"9@	c #6C7163",
"0@	c #6B6F67",
"a@	c #646761",
"b@	c #51483C",
"c@	c #8C6535",
"d@	c #AEB862",
"e@	c #6E7265",
"f@	c #98A75F",
"g@	c #758156",
"h@	c #778155",
"i@	c #A4B062",
"j@	c #CEDD75",
"k@	c #C2D571",
"l@	c #B0C368",
"m@	c #737F53",
"n@	c #768156",
"o@	c #798556",
"                          . + @ # $ % & *                           ",
"                          = - ; > , ' ) !                           ",
"                          . ~ { ] ^ / ( _                           ",
"                : =     < [ } } } | 1 ' 2 3 <     4                 ",
"              5 6 7 8 9 } } 0 a b 0 } } & c d e f g h               ",
"            i j k l m } n 0 a o o a 0 n } p q r s t u v             ",
"          . w x y z } n 0 A A A A A A 0 n } B C D E E F             ",
"            G H I J } n A A A A A A A A n } K L M , N O             ",
"            P Q R S } A A A A A A A A A A } T U V W 1 X Y           ",
"          Z `  ...+.} A A o o @.@.o o A A }   #.$.%.&.*.=.          ",
"          -.;.*.>.@.A @.,.o A ,.,.A o ,.@.A @.  '.).!.~.{.].        ",
"        ^./.(._.@.| A ,.,.o A ,.,.A o ,.,.A | @.  :.<.(.R [.        ",
"        }.|.;.1.@.| A A ,.@.,.,.,.,.@.,.A A | @.  2.3.4.|.5.        ",
"        6.7.8.9.0.@.A ,.A A @.@.@.@.A A ,.A @.    . a.b.c.d.        ",
"    e.f.g.h.i.j.k.l.| ,.A A A A A A A A ,.|         m.n.o.` p.q.    ",
"    r.s.t.u.v.w.x.y.z.| ,.A A A A A A ,.|           A.p B.C.D.E.    ",
"    r.i.F.G.H.I.k.| | | | @.@.@.@.@.@.| | | |       J.c k K.L.E.    ",
"    r.s.M.N.O.P.| o o | | | | | | | | | | o o |     J.# k F.Q.R.    ",
"    S.T.U.V.W.X.| o o | o | Y.n n Y.| o | o o |     J.Z.`. +.+++    ",
"    @+#+$+%+&+*+| o o | o | =+} } =+| o | o o |     J.-+;+>+,+'+    ",
"        )+!+~+{+| o | o | =+=+=+=+=+=+| o | o |     J.]+^+/+        ",
"        (+>._+{+:+| | | o o =+=+=+=+o o | | |       J.c V <+        ",
"        [+}+|+1+2+3+4+4+o o =+=+=+=+o o 4+4+        J.V 5+6+        ",
"    7+8+9+0+a+b+:+c+4+Y.=+=+=+=+=+=+=+=+Y.4+        J.d+e+f+g+h+    ",
"    r.i+j+k+# l+:+m+4+Y.=+=+=+=+=+=+=+=+Y.4+        J.n+o+p+q+r+    ",
"    r.t.s+t+7.u+v+w+x+4+Y.=+=+Y.Y.=+=+Y.4+y+y+y+y+y+z+A+B+C+D+E.    ",
"    r.o+^ ~.E+F+G+H+I+4+Y.Y.Y.4+4+Y.Y.Y.4+J+J+J+J+J+K+L+M+N+M+O+    ",
"    r.P+Q+R+S+T+U+V+W+X+4+4+4+4+4+4+4+4+J+J+J+J+J+J+Y+Z+`+ @.@+@    ",
"    @@#@$@%@&@*@=@-@;@A | | | A A | | | A J+J+J+J+J+Y+>@,@'@f+)@    ",
"        [+!@K.~@{@]@A ,.| | | A A | | | ,.A J+J+J+J+Y+^@# /@        ",
"        [+Q.D.(@_@:@A A A A A <@[@A A A A A J+J+J+J+K+% }@|@        ",
"        1@M.8.2@3@4@5@          6@7@7@7@7@7@7@7@7@7@8@1 x 9@        ",
"        [+0@a@b@c@d@                                J.0@F.e@        ",
"        f@g@h@i@j@j@j@j@j@k@                        l@m@n@o@        "};
