/* XPM */
static char * door_close_xpm[] = {
"34 34 851 2",
"  	c #B53729",
". 	c #B23324",
"+ 	c #B63223",
"@ 	c #B7321F",
"# 	c #BA331F",
"$ 	c #BF3623",
"% 	c #BF3824",
"& 	c #BD3622",
"* 	c #BC3522",
"= 	c #BD3623",
"- 	c #BF3825",
"; 	c #BE3724",
"> 	c #C03926",
", 	c #C13A27",
"' 	c #BE3A25",
") 	c #BA3822",
"! 	c #BB3923",
"~ 	c #B83620",
"{ 	c #B93721",
"] 	c #BE3D27",
"^ 	c #BC3B25",
"/ 	c #BD3C26",
"( 	c #BA361D",
"_ 	c #B8361E",
": 	c #BB3A24",
"< 	c #BD3F28",
"[ 	c #B63923",
"} 	c #AB2E18",
"| 	c #A52B16",
"1 	c #B3301E",
"2 	c #B73E29",
"3 	c #B32F20",
"4 	c #B22D1C",
"5 	c #B82F1C",
"6 	c #BD301C",
"7 	c #BE321B",
"8 	c #C3351F",
"9 	c #C73B24",
"0 	c #CA3E27",
"a 	c #C73B20",
"b 	c #C63A1F",
"c 	c #C5391E",
"d 	c #C83C21",
"e 	c #C43A1E",
"f 	c #C23B1E",
"g 	c #C63F22",
"h 	c #C53E21",
"i 	c #C84124",
"j 	c #CC4528",
"k 	c #C84225",
"l 	c #C74124",
"m 	c #CE442A",
"n 	c #CA4026",
"o 	c #C23A20",
"p 	c #C13921",
"q 	c #C33D24",
"r 	c #BE3A23",
"s 	c #B7331C",
"t 	c #B4321A",
"u 	c #AF2A19",
"v 	c #B43A25",
"w 	c #B42B19",
"x 	c #B42916",
"y 	c #B92B15",
"z 	c #C03018",
"A 	c #C02E15",
"B 	c #BE2C13",
"C 	c #BD2D15",
"D 	c #BC2C14",
"E 	c #C13212",
"F 	c #C03111",
"G 	c #C23313",
"H 	c #C33414",
"I 	c #C43817",
"J 	c #C53918",
"K 	c #C93D1C",
"L 	c #C73B1A",
"M 	c #CD4120",
"N 	c #C83B20",
"O 	c #C6391E",
"P 	c #C2351A",
"Q 	c #C0341B",
"R 	c #C2361D",
"S 	c #C1351C",
"T 	c #BA2F18",
"U 	c #B52A13",
"V 	c #B02717",
"W 	c #B43522",
"X 	c #BA3222",
"Y 	c #B12816",
"Z 	c #AE210D",
"` 	c #B52711",
" .	c #B72913",
"..	c #BE311D",
"+.	c #BB2F16",
"@.	c #BC3017",
"#.	c #BE3219",
"$.	c #C4381F",
"%.	c #C1371B",
"&.	c #C1351A",
"*.	c #C2361B",
"=.	c #C1361F",
"-.	c #C13621",
";.	c #BF341F",
">.	c #BD321D",
",.	c #BE331E",
"'.	c #B82B17",
").	c #B12410",
"!.	c #B5291A",
"~.	c #B73623",
"{.	c #AD2B1B",
"].	c #A72412",
"^.	c #A21D0A",
"/.	c #A9220E",
"(.	c #A7200C",
"_.	c #A41D0A",
":.	c #A92413",
"<.	c #A31F10",
"[.	c #A42011",
"}.	c #A52112",
"|.	c #A82415",
"1.	c #A62213",
"2.	c #A62311",
"3.	c #A82513",
"4.	c #AA2715",
"5.	c #A62110",
"6.	c #A72211",
"7.	c #B02818",
"8.	c #AE2B19",
"9.	c #AD2A18",
"0.	c #A82312",
"a.	c #AD2515",
"b.	c #AC2512",
"c.	c #A9200E",
"d.	c #AE2211",
"e.	c #AD2C17",
"f.	c #B93C28",
"g.	c #BD402C",
"h.	c #C03F2A",
"i.	c #BF3E28",
"j.	c #AE2D17",
"k.	c #991B05",
"l.	c #981B07",
"m.	c #941705",
"n.	c #9B1D0F",
"o.	c #9A1C0E",
"p.	c #941608",
"q.	c #951709",
"r.	c #931506",
"s.	c #951708",
"t.	c #981A0B",
"u.	c #921304",
"v.	c #931103",
"w.	c #981608",
"x.	c #961205",
"y.	c #941003",
"z.	c #8D1200",
"A.	c #911402",
"B.	c #951806",
"C.	c #9B1C09",
"D.	c #A21F0D",
"E.	c #AE2916",
"F.	c #AF2815",
"G.	c #B72B1A",
"H.	c #B2311C",
"I.	c #C64A2E",
"J.	c #D15438",
"K.	c #D65639",
"L.	c #D85738",
"M.	c #CA4B2B",
"N.	c #C04325",
"O.	c #CC5036",
"P.	c #CD5439",
"Q.	c #CA4E36",
"R.	c #CE523A",
"S.	c #C84C34",
"T.	c #C3472F",
"U.	c #C44830",
"V.	c #C84C32",
"W.	c #CB4F35",
"X.	c #CD4F36",
"Y.	c #C6462D",
"Z.	c #C14128",
"`.	c #C5432B",
" +	c #C13D26",
".+	c #BD3922",
"++	c #BB4129",
"@+	c #BE422A",
"#+	c #C64831",
"$+	c #CA4A31",
"%+	c #C6442C",
"&+	c #C23C23",
"*+	c #BF371F",
"=+	c #BB331B",
"-+	c #BB3220",
";+	c #B3351F",
">+	c #C54623",
",+	c #D1512E",
"'+	c #D4522E",
")+	c #D6552E",
"!+	c #CC4A26",
"~+	c #C54522",
"{+	c #D25332",
"]+	c #D25535",
"^+	c #CC502C",
"/+	c #D75B37",
"(+	c #D55935",
"_+	c #CB4F2B",
":+	c #D05430",
"<+	c #CF532D",
"[+	c #D3552F",
"}+	c #D45630",
"|+	c #CA4A25",
"1+	c #C64420",
"2+	c #CA4522",
"3+	c #C7411E",
"4+	c #C33D1A",
"5+	c #C94E2F",
"6+	c #CB4E30",
"7+	c #D45535",
"8+	c #D85537",
"9+	c #D04B2C",
"0+	c #C73D20",
"a+	c #C23718",
"b+	c #BE3113",
"c+	c #B2351F",
"d+	c #C64B29",
"e+	c #C54927",
"f+	c #C74828",
"g+	c #D35434",
"h+	c #D05131",
"i+	c #CA4D2F",
"j+	c #D05738",
"k+	c #C75030",
"l+	c #CA542C",
"m+	c #CE5832",
"n+	c #D25B39",
"o+	c #CF5637",
"p+	c #CB5233",
"q+	c #C64D2E",
"r+	c #C74C2D",
"s+	c #D35839",
"t+	c #C6552D",
"u+	c #CE5936",
"v+	c #CE5236",
"w+	c #CA4830",
"x+	c #C5412C",
"y+	c #BE3A21",
"z+	c #C14023",
"A+	c #CF502F",
"B+	c #CA4D31",
"C+	c #D55A3B",
"D+	c #CC5431",
"E+	c #CD5530",
"F+	c #C84E29",
"G+	c #C64525",
"H+	c #C43D20",
"I+	c #BE381D",
"J+	c #BC3424",
"K+	c #CE5332",
"L+	c #CA4F2E",
"M+	c #CD5030",
"N+	c #D35336",
"O+	c #C64629",
"P+	c #C84B2D",
"Q+	c #D75E3F",
"R+	c #CB5235",
"S+	c #C6502C",
"T+	c #CD5533",
"U+	c #CB5031",
"V+	c #C14627",
"W+	c #CC5132",
"X+	c #CD5634",
"Y+	c #D85F40",
"Z+	c #D25539",
"`+	c #C13F27",
" @	c #BB3921",
".@	c #C34225",
"+@	c #C94D2B",
"@@	c #D25632",
"#@	c #DA5F3D",
"$@	c #D75F3C",
"%@	c #D25A38",
"&@	c #CC5432",
"*@	c #C24726",
"=@	c #CD4E2E",
"-@	c #CE482B",
";@	c #CA4326",
">@	c #C34024",
",@	c #BF3A29",
"'@	c #D35A3B",
")@	c #CD5233",
"!@	c #D35638",
"~@	c #D9593C",
"{@	c #BC3C21",
"]@	c #AB2E12",
"^@	c #D75E41",
"/@	c #CA5230",
"(@	c #D35B39",
"_@	c #CF5735",
":@	c #C9512F",
"<@	c #CE5334",
"[@	c #D4593A",
"}@	c #CF5435",
"|@	c #BF4425",
"1@	c #CF5236",
"2@	c #D05337",
"3@	c #C94930",
"4@	c #BF3F24",
"5@	c #C14124",
"6@	c #C84C2A",
"7@	c #D15732",
"8@	c #D86139",
"9@	c #D96238",
"0@	c #C85129",
"a@	c #CB5432",
"b@	c #D1583B",
"c@	c #C94D33",
"d@	c #CE5135",
"e@	c #C8472A",
"f@	c #C64424",
"g@	c #C44123",
"h@	c #C03B28",
"i@	c #D65D3E",
"j@	c #CC4F31",
"k@	c #D7573C",
"l@	c #C24227",
"m@	c #A3260A",
"n@	c #AE3218",
"o@	c #C74B31",
"p@	c #D15839",
"q@	c #D45B3C",
"r@	c #D15635",
"s@	c #CC5130",
"t@	c #D25537",
"u@	c #D5583A",
"v@	c #CD5034",
"w@	c #C7452D",
"x@	c #C34129",
"y@	c #C24026",
"z@	c #C7472A",
"A@	c #CF5331",
"B@	c #D25833",
"C@	c #D15C31",
"D@	c #D35E32",
"E@	c #C95524",
"F@	c #C24D22",
"G@	c #D2593A",
"H@	c #D0563E",
"I@	c #B43721",
"J@	c #BF412A",
"K@	c #CB4B2E",
"L@	c #C24121",
"M@	c #C64526",
"N@	c #C03D29",
"O@	c #D96242",
"P@	c #C95031",
"Q@	c #C24728",
"R@	c #CD4D30",
"S@	c #CD4D32",
"T@	c #C5452A",
"U@	c #B83B1F",
"V@	c #A72B11",
"W@	c #C64A30",
"X@	c #CF5337",
"Y@	c #D45836",
"Z@	c #CE5230",
"`@	c #C64929",
" #	c #DA5A3F",
".#	c #D4543B",
"+#	c #C23B27",
"@#	c #C33F28",
"##	c #C9482B",
"$#	c #D45A35",
"%#	c #D55E36",
"&#	c #D05B30",
"*#	c #C95429",
"=#	c #CD5729",
"-#	c #D65F37",
";#	c #C64B2C",
">#	c #B0321C",
",#	c #A82A14",
"'#	c #C3452E",
")#	c #D15436",
"!#	c #C54925",
"~#	c #C74627",
"{#	c #DA6542",
"]#	c #C8512F",
"^#	c #C54528",
"/#	c #D05033",
"(#	c #D45437",
"_#	c #B6391B",
":#	c #A92B15",
"<#	c #BC3E25",
"[#	c #D35735",
"}#	c #CE4F2E",
"|#	c #D05035",
"1#	c #C64027",
"2#	c #C74428",
"3#	c #D05130",
"4#	c #D65C37",
"5#	c #D15A32",
"6#	c #CF582E",
"7#	c #CE572F",
"8#	c #CF552E",
"9#	c #D45C37",
"0#	c #C74C2B",
"a#	c #A7270C",
"b#	c #AC2A14",
"c#	c #BF3D27",
"d#	c #BF3E29",
"e#	c #D9653E",
"f#	c #C6502A",
"g#	c #D45937",
"h#	c #BC3D1C",
"i#	c #C44525",
"j#	c #DC5D3D",
"k#	c #D45737",
"l#	c #B53623",
"m#	c #A1230C",
"n#	c #C14426",
"o#	c #CC4D2C",
"p#	c #CA4B28",
"q#	c #CC4D2D",
"r#	c #B9371D",
"s#	c #C2402A",
"t#	c #CC492D",
"u#	c #CA4929",
"v#	c #D35C32",
"w#	c #CE572D",
"x#	c #CB542C",
"y#	c #BB3D26",
"z#	c #A7270E",
"A#	c #AE2C14",
"B#	c #CC462D",
"C#	c #C74126",
"D#	c #C74426",
"E#	c #CB4F2D",
"F#	c #C3422C",
"G#	c #D9653C",
"H#	c #C34D27",
"I#	c #CC522D",
"J#	c #D15531",
"K#	c #C1421F",
"L#	c #C54625",
"M#	c #D65736",
"N#	c #D35433",
"O#	c #D35443",
"P#	c #AA2C16",
"Q#	c #A22205",
"R#	c #C24322",
"S#	c #B43313",
"T#	c #BF3D23",
"U#	c #CD4B35",
"V#	c #CE4B2D",
"W#	c #D0512E",
"X#	c #D25831",
"Y#	c #CB5429",
"Z#	c #C85127",
"`#	c #961706",
" $	c #B3301C",
".$	c #CB442E",
"+$	c #C23B1D",
"@$	c #D04B2A",
"#$	c #C94828",
"$$	c #C34725",
"%$	c #D15539",
"&$	c #D0522C",
"*$	c #CF4F2C",
"=$	c #C44326",
"-$	c #C44429",
";$	c #CF5232",
">$	c #D0562F",
",$	c #D9583B",
"'$	c #A72913",
")$	c #B83A23",
"!$	c #D05536",
"~$	c #CD5532",
"{$	c #C14924",
"]$	c #CF5530",
"^$	c #B02E16",
"/$	c #9B1804",
"($	c #BD3618",
"_$	c #CC4527",
":$	c #C84227",
"<$	c #C53F24",
"[$	c #BF391E",
"}$	c #D04D31",
"|$	c #CA4828",
"1$	c #CF4D2D",
"2$	c #CC4728",
"3$	c #C0442A",
"4$	c #D65A3E",
"5$	c #CA4D2D",
"6$	c #CF502D",
"7$	c #D15030",
"8$	c #C34127",
"9$	c #C4442B",
"0$	c #DB5C3C",
"a$	c #C44427",
"b$	c #BD3D22",
"c$	c #C3452C",
"d$	c #C84A31",
"e$	c #CD5135",
"f$	c #D65B3A",
"g$	c #D75C3A",
"h$	c #D75D38",
"i$	c #CE542F",
"j$	c #CD532E",
"k$	c #D45834",
"l$	c #D15231",
"m$	c #BF3F22",
"n$	c #A92910",
"o$	c #B12F19",
"p$	c #C64122",
"q$	c #C64025",
"r$	c #C94328",
"s$	c #C33D22",
"t$	c #CF4C30",
"u$	c #CB4929",
"v$	c #D95B42",
"w$	c #C44729",
"x$	c #CA4A27",
"y$	c #D15031",
"z$	c #C24028",
"A$	c #DA5B3A",
"B$	c #C94A29",
"C$	c #C24225",
"D$	c #C6492B",
"E$	c #D25736",
"F$	c #D25735",
"G$	c #C44824",
"H$	c #CA4B2A",
"I$	c #CE4E31",
"J$	c #B6361D",
"K$	c #C23D1E",
"L$	c #CA4526",
"M$	c #CE482D",
"N$	c #C44125",
"O$	c #CE4B2F",
"P$	c #CC4A2A",
"Q$	c #C94727",
"R$	c #C04229",
"S$	c #DA5C45",
"T$	c #C04023",
"U$	c #C54424",
"V$	c #D24F31",
"W$	c #C44029",
"X$	c #C9492E",
"Y$	c #C74B29",
"Z$	c #C44826",
"`$	c #D85C3A",
" %	c #DA5E3C",
".%	c #D05432",
"+%	c #CF5234",
"@%	c #CE4F2F",
"#%	c #C34423",
"$%	c #D65737",
"%%	c #DA5A3D",
"&%	c #CA4A2F",
"*%	c #B83616",
"=%	c #C44222",
"-%	c #C64327",
";%	c #CB482C",
">%	c #CE492A",
",%	c #CB4426",
"'%	c #DA5C43",
")%	c #C84727",
"!%	c #D55234",
"~%	c #C84C28",
"{%	c #CE522E",
"]%	c #C44727",
"^%	c #D55339",
"/%	c #C34326",
"(%	c #C14222",
"_%	c #C14221",
":%	c #D55636",
"<%	c #CB4A2A",
"[%	c #B83717",
"}%	c #BC3B1E",
"|%	c #CC462B",
"1%	c #CA4325",
"2%	c #BF4128",
"3%	c #C34424",
"4%	c #CB4925",
"5%	c #D35131",
"6%	c #BF3B22",
"7%	c #B8341D",
"8%	c #C94A27",
"9%	c #C94F2A",
"0%	c #CB512A",
"a%	c #CE4E33",
"b%	c #B5331B",
"c%	c #C13F25",
"d%	c #CF4E31",
"e%	c #CF4E2E",
"f%	c #CC4D2A",
"g%	c #CB4C29",
"h%	c #C04120",
"i%	c #BA3A1D",
"j%	c #BD3C1F",
"k%	c #C13E22",
"l%	c #CD4829",
"m%	c #C84324",
"n%	c #BE4027",
"o%	c #D15134",
"p%	c #C34320",
"q%	c #C84720",
"r%	c #D04B28",
"s%	c #C23C1F",
"t%	c #BD3A1E",
"u%	c #CE502A",
"v%	c #D35836",
"w%	c #D1552F",
"x%	c #D25333",
"y%	c #C3432A",
"z%	c #AF2E18",
"A%	c #951100",
"B%	c #AD2912",
"C%	c #D45333",
"D%	c #CD4E2B",
"E%	c #D25330",
"F%	c #D85C38",
"G%	c #C8482B",
"H%	c #BE3D20",
"I%	c #B9361A",
"J%	c #CB4627",
"K%	c #CB4124",
"L%	c #BF3F26",
"M%	c #C4441F",
"N%	c #C6451D",
"O%	c #CF4B25",
"P%	c #CA4729",
"Q%	c #D2522F",
"R%	c #D2542C",
"S%	c #D65B39",
"T%	c #CD512F",
"U%	c #A92812",
"V%	c #A11E0A",
"W%	c #CA4330",
"X%	c #B6321B",
"Y%	c #A9260A",
"Z%	c #D0502D",
"`%	c #CB4A2D",
" &	c #B53216",
".&	c #CB452A",
"+&	c #C53E20",
"@&	c #CD4B2B",
"#&	c #D45431",
"$&	c #C44522",
"%&	c #C74825",
"&&	c #CD512B",
"*&	c #CC4F2F",
"=&	c #9C1C03",
"-&	c #9F1F04",
";&	c #B5351A",
">&	c #9C1A04",
",&	c #D35235",
"'&	c #C5441C",
")&	c #D35232",
"!&	c #D25131",
"~&	c #CE4C2C",
"{&	c #C94425",
"]&	c #C94224",
"^&	c #C84123",
"/&	c #B93B25",
"(&	c #C84626",
"_&	c #C74525",
":&	c #C64724",
"<&	c #C84926",
"[&	c #C94D29",
"}&	c #D05333",
"|&	c #B5381C",
"1&	c #AE2E13",
"2&	c #CF4F32",
"3&	c #D14F35",
"4&	c #AE2C16",
"5&	c #A6240E",
"6&	c #BB371E",
"7&	c #D75535",
"8&	c #CD4B27",
"9&	c #D25030",
"0&	c #C54021",
"a&	c #C0391B",
"b&	c #C1402B",
"c&	c #CC492B",
"d&	c #D55434",
"e&	c #CD4E2D",
"f&	c #CE4F2C",
"g&	c #C74A2C",
"h&	c #AA2A0F",
"i&	c #9A1A00",
"j&	c #B6361B",
"k&	c #C44324",
"l&	c #CD4C2C",
"m&	c #C84823",
"n&	c #D8563C",
"o&	c #BC3A24",
"p&	c #A8240F",
"q&	c #AA2611",
"r&	c #C44027",
"s&	c #D55236",
"t&	c #D14F2F",
"u&	c #C14020",
"v&	c #D04E2E",
"w&	c #C33E1F",
"x&	c #BF381A",
"y&	c #C63B1E",
"z&	c #BE3B27",
"A&	c #D04D2F",
"B&	c #CB482A",
"C&	c #CE4D2E",
"D&	c #A5250A",
"E&	c #9D1D04",
"F&	c #BC3C23",
"G&	c #D9573D",
"H&	c #BE3D1D",
"I&	c #CE4C28",
"J&	c #CE4E29",
"K&	c #CC4B2B",
"L&	c #CD4A2E",
"M&	c #C23E29",
"N&	c #AE2713",
"O&	c #A21B07",
"P&	c #C03923",
"Q&	c #D34E2F",
"R&	c #C74626",
"S&	c #C33C1E",
"T&	c #C53B1E",
"U&	c #BA3723",
"V&	c #C74629",
"W&	c #C23F23",
"X&	c #C13E20",
"Y&	c #C64325",
"Z&	c #C54323",
"`&	c #AF2F14",
" *	c #A01E04",
".*	c #C23E25",
"+*	c #BA3719",
"@*	c #BD3B1B",
"#*	c #C2401C",
"$*	c #C64422",
"%*	c #C34121",
"&*	c #C34022",
"**	c #BA341B",
"=*	c #C53E28",
"-*	c #BB3420",
";*	c #A51C09",
">*	c #AB220F",
",*	c #C13C1D",
"'*	c #BE3719",
")*	c #BF3518",
"!*	c #C13619",
"~*	c #B93622",
"{*	c #BE3C22",
"]*	c #C54329",
"^*	c #C03F22",
"/*	c #C54226",
"(*	c #C94326",
"_*	c #C53F22",
":*	c #BF3E21",
"<*	c #C03C23",
"[*	c #BE3B1F",
"}*	c #C13B1E",
"|*	c #BF3A1B",
"1*	c #C74223",
"2*	c #CC4629",
"3*	c #C73F25",
"4*	c #CD452D",
"5*	c #C73F27",
"6*	c #C43C24",
"7*	c #C03B1C",
"8*	c #D24D2E",
"9*	c #D54E30",
"0*	c #D54B2E",
"a*	c #D04629",
"b*	c #C74631",
"c*	c #C44228",
"d*	c #C9472D",
"e*	c #C33F26",
"f*	c #CA4429",
"g*	c #C1391F",
"h*	c #BE3B1D",
"i*	c #C13B22",
"j*	c #C53F26",
"k*	c #C03A1F",
"l*	c #B73116",
"m*	c #C64023",
"n*	c #C63F21",
"o*	c #C43D1F",
"p*	c #CC4226",
"q*	c #BF3D1D",
"r*	c #CE4427",
"s*	c #C54832",
"t*	c #BA3820",
"u*	c #C9432A",
"v*	c #C63E24",
"w*	c #C4421E",
"x*	c #C24020",
"y*	c #BC361D",
"z*	c #BD3620",
"A*	c #C03A21",
"B*	c #B83018",
"C*	c #C23C21",
"D*	c #C33D20",
"E*	c #C53E1E",
"F*	c #C73E1C",
"G*	c #C53C1C",
"H*	c #C13A1C",
"I*	c #C93F22",
"J*	c #BB3919",
"K*	c #BD432C",
"L*	c #B0361E",
"M*	c #B53921",
"N*	c #C2412B",
"O*	c #C5452C",
"P*	c #C4462D",
"Q*	c #C5412A",
"R*	c #BC3821",
"S*	c #BA3621",
"T*	c #C6422D",
"U*	c #C03C27",
"V*	c #AF2B16",
"W*	c #C33B21",
"X*	c #C33C1F",
"Y*	c #C74023",
"Z*	c #C33C1C",
"`*	c #C63C1F",
" =	c #C73C1F",
".=	c #C53A1D",
"+=	c #BF371D",
"@=	c #BD3C29",
"#=	c #BD432B",
"$=	c #C0442C",
"%=	c #C0422B",
"&=	c #C74630",
"*=	c #C8482F",
"==	c #C6482F",
"-=	c #C5492F",
";=	c #C2462E",
">=	c #BF432B",
",=	c #B93D25",
"'=	c #B93C2A",
")=	c #BE412D",
"!=	c #BA3D27",
"~=	c #BF422C",
"{=	c #C2462C",
"]=	c #C94832",
"^=	c #C1402A",
"/=	c #BE3C26",
"(=	c #BC4831",
"  . + @ # $ % & * = - - ; ; > , ' ) ! ~ { ] ^ / ( ( _ : < [ } | 1 2 ",
"3 4 5 6 7 8 9 0 a b c a d d a b e f g h i j k l m n o p q r s t u v ",
"w x y z A B C D E F F G H E F G I J K L K M K L N O P Q R S T U V W ",
"X Y Z `  .y ....+.@.#.Q S #.#.$.%.%.e &.*.a c c =.-.;.>.,...'.).!.~.",
"{.].^./.(._.:.].<.[.<.}.|.1.[.|.2.3.4.5.6.7.7.7.8.9.4.0.0.a.b.c.d.e.",
"f.g.h.i.j.k.l.m.n.o.p.p.n.n.q.p.r.s.t.u.v.w.x.y.z.A.B.C.D.:.E.F.G.H.",
"I.J.K.L.M.N.O.P.Q.R.S.T.S.S.U.U.V.W.X.Y.Z.`. +.+++@+#+$+%+&+*+=+-+;+",
">+,+'+)+!+~+{+]+^+/+(+^+_+_+_+:+<+[+}+|+1+2+3+4+5+6+7+8+9+0+a+b+* c+",
"d+e+f+g+h+i+j+k+l+m+n+o+p+q+r+s+t+u+v+w+x+y+z+A+B+C+D+E+F+G+H+R I+J+",
"K+L+M+N+O+P+Q+R+m+S+T+o+j+U+V+W+X+Y+Z+`+ @.@+@@@#@$@%@&@*@=@-@;@>@,@",
"'@)@!@~@{@]@I.^@/@(@_@:@<@[@}@|@1@2@3@4@5@6@7@8@9@0@a@b@c@d@e@f@g@h@",
"i@W+j@k@l@m@n@o@p@q@r@s@s@t@u@v@w@x@y@z@A@B@C@D@E@F@G@H@I@J@K@L@M@N@",
"O@P@Q@R@S@T@U@V@W@X@5+Y@Z@`@ #.#+#@###Z@$#%#&#*#=#-#;#>#,#'#)#!#~#N@",
"{#]#s@M+^#/#(#_#:#<#6+[#}#=@|#Z.1#2#3#4#5#6#7#8#9#0#a#b#c#S@h+_+f+d#",
"e#f#g#Y@h#i#j#k#l#m#n#o#p#q#r#s#t#u#:+v#w#x#:+3#y#z#A#B#C#D#o#E#o#F#",
"G#H#I#J#K#L#M#N#O#P#Q#R#>+S#T#U#V#W#X#Y#Z#X#N#.@`# $.$i +$@$#$$$6@J@",
"%$E#&$*$=$-$;$>$,$-$j.'$)$c@!$~${$7@]$^+A@(#^$/$($_$:$<$[$}$|$1$2$3$",
"4$5$6$7$8$9$t@4#0$a$b$c$d$e$f$g$h$i$j$k$l$m$n$o$2$p$q$r$s$t$u$f@2$3$",
"v$w$x$y$z$s#1@[#A$B$C$D$6+E$g$F$E#E#^+G$H$I$-$J$K$L$M$C#N$O$P$Q$_$R$",
"S$T$U$V$W$c#X$Y$!#!#Z$E#`$ %[#.%+%@%A+#%o#$%%%&%*%=%t#>@-%;%>%9+,%R$",
"'%5@)%!%W$! T@$$~%_+{%(+(++@]%;$^%/%(%_%H$H$:%N+<%[%}%N$2#|%>%L$1%2%",
"k@3%4%5%6%7%/%8%j$9%0%<+^+o#I$a%b%c%d%e%f%g%N#}#{+h%i%j%k%M$l%m%1%n%",
"o%p%q%r%s%t%#$u%g#v%B@w%J#x%y%z%A%B%N$C%D%8%E%F%6@A@G%H%I%M$J%1%K%L%",
"x%M%N%O%J%P%Q%R%(@S%i$_+T%T$U%V%W%X%Y%G+Z%g%G$^+T%.%o%`% &.&L$+&K%L%",
"@&|$f@#&$&%&~%&&>$6@*&Z+2%=&-&a%8%7+;&>&w+,&!+'&Q$)&!&3#B$~&{&]&^&/&",
"(&Q$_&C%:&%&<&[&e+}&t@|&-&1&^#2&<&}#3&4&5&6&7&8&(&|$G+}#7$9&0&a&0+b&",
"D#c&P%d&<%e&f&6$+%g&h&i&j&##k&l&m&u#n&o&p&q&r&s&t&|$u&<%7$v&w&x&y&z&",
";%A&B&C&G+#$<%<%-$D&E&F&G&C&H&I&J&K&L&r M&N&O&P&Q&~&R&u#<%(&S&T&y&U&",
"z+V&z+W&X&g@Y&Z&`& *t w+.*+*@*#*$*%*&***=*-*;*>*m%u$P$G+Z&,*'*)*!*~*",
"{*]*^*k%/*(*k _*=$:*8$<*( [*}*|*1*1*2*_*3*4*5*6*7*{&u$f@@&8*9*0*a*b*",
"c*d*8$e*|%f*<$g*f@h*W&.*i*j*k*l*_*m*0&n*+&o*0+p*+&{&(&q*f@{&r*K%>%s*",
"t*T#r#6&u*:$v*o w*x*X&y*z*=*A*B*C*D*x&E*3+F*G*G*H*0&(&x*Q$1*I*y&J*K*",
"L*M*)$N*O*y%P*P*Q*@#W$R*S*T*U*V*p v*W*X*Y*n*n*Z*x&H*K%`*0+r* =.=+=@=",
"#=$=%=&=*=O*====-=-=O.V.$=;=>=,='=)=f.!=~=$=T.{=y#J@]=i.: ^=/=c#C$(="};
