/* XPM */
static char * exit_left_xpm[] = {
"34 34 650 2",
"  	c #836549",
". 	c #86674A",
"+ 	c #896646",
"@ 	c #8B6541",
"# 	c #916945",
"$ 	c #936B47",
"% 	c #926A47",
"& 	c #946E4A",
"* 	c #926E4A",
"= 	c #936F4B",
"- 	c #94704C",
"; 	c #946D4C",
"> 	c #906948",
", 	c #8D6645",
"' 	c #916A49",
") 	c #987150",
"! 	c #966F4E",
"~ 	c #906747",
"{ 	c #8F6648",
"] 	c #8C6546",
"^ 	c #8E694C",
"/ 	c #927152",
"( 	c #8B6C4F",
"_ 	c #7E6143",
": 	c #77593D",
"< 	c #836044",
"[ 	c #8E6B4F",
"} 	c #86624A",
"| 	c #896449",
"1 	c #8C6347",
"2 	c #906545",
"3 	c #986B4A",
"4 	c #9C6F4E",
"5 	c #A07354",
"6 	c #A57A5A",
"7 	c #A27452",
"8 	c #A17351",
"9 	c #A07250",
"0 	c #A37553",
"a 	c #A07552",
"b 	c #A37855",
"c 	c #A27754",
"d 	c #A87D5A",
"e 	c #A57A57",
"f 	c #A87B5A",
"g 	c #A67958",
"h 	c #A07553",
"i 	c #9E7555",
"j 	c #A17A59",
"k 	c #9B7757",
"l 	c #906D4D",
"m 	c #886547",
"n 	c #846145",
"o 	c #8F6C50",
"p 	c #8A614B",
"q 	c #8A6048",
"r 	c #8C5E46",
"s 	c #916246",
"t 	c #986749",
"u 	c #956446",
"v 	c #926349",
"w 	c #9C6745",
"x 	c #9B6644",
"y 	c #9E6947",
"z 	c #A06B49",
"A 	c #9F6A48",
"B 	c #9E704E",
"C 	c #A67856",
"D 	c #A57755",
"E 	c #A47654",
"F 	c #A27453",
"G 	c #9A6D4C",
"H 	c #946947",
"I 	c #966B4B",
"J 	c #956C4C",
"K 	c #8F6847",
"L 	c #896241",
"M 	c #805D41",
"N 	c #8A674B",
"O 	c #89634C",
"P 	c #845C43",
"Q 	c #7E543B",
"R 	c #85593E",
"S 	c #8D6043",
"T 	c #8F6147",
"U 	c #93674C",
"V 	c #946A51",
"W 	c #916445",
"X 	c #936647",
"Y 	c #956849",
"Z 	c #976A4B",
"` 	c #996C4D",
" .	c #96694A",
"..	c #9C6F50",
"+.	c #966D4D",
"@.	c #9A7151",
"#.	c #9C7353",
"$.	c #9B7252",
"%.	c #966D4F",
"&.	c #986F51",
"*.	c #976E50",
"=.	c #936C4F",
"-.	c #926B4E",
";.	c #8B6447",
">.	c #825B3E",
",.	c #8B684C",
"'.	c #795940",
").	c #78563B",
"!.	c #745135",
"~.	c #795437",
"{.	c #775333",
"].	c #724D30",
"^.	c #775438",
"/.	c #745539",
"(.	c #75563A",
"_.	c #76573B",
":.	c #795A3E",
"<.	c #500000",
"[.	c #7E5A40",
"}.	c #7A563C",
"|.	c #7D593F",
"1.	c #856147",
"2.	c #846046",
"3.	c #835F45",
"4.	c #7F5F46",
"5.	c #806047",
"6.	c #7E5E45",
"7.	c #7A583F",
"8.	c #78563D",
"9.	c #735138",
"0.	c #7B583C",
"a.	c #7F5C40",
"b.	c #8E7153",
"c.	c #96795B",
"d.	c #9A7958",
"e.	c #977655",
"f.	c #81603F",
"g.	c #68492A",
"h.	c #65482A",
"i.	c #634628",
"j.	c #654D33",
"k.	c #644C32",
"l.	c #5E462C",
"m.	c #5D452B",
"n.	c #F84070",
"o.	c #F8D870",
"p.	c #5F4127",
"q.	c #64462C",
"r.	c #604228",
"s.	c #5C3E24",
"t.	c #573D26",
"u.	c #5A4027",
"v.	c #61452D",
"w.	c #664830",
"x.	c #6C4E34",
"y.	c #78583F",
"z.	c #836148",
"A.	c #846249",
"B.	c #A28162",
"C.	c #AF8E6D",
"D.	c #B59370",
"E.	c #B79371",
"F.	c #A88462",
"G.	c #9D7A5A",
"H.	c #A78869",
"I.	c #AC8D70",
"J.	c #A6896B",
"K.	c #AA8D6F",
"L.	c #A48769",
"M.	c #9F8264",
"N.	c #B02860",
"O.	c #F8F8F8",
"P.	c #D8A038",
"Q.	c #9D7C5D",
"R.	c #977657",
"S.	c #937253",
"T.	c #92775A",
"U.	c #987D60",
"V.	c #A28468",
"W.	c #A6876A",
"X.	c #A18061",
"Y.	c #9A7759",
"Z.	c #946F52",
"`.	c #8D6949",
" +	c #9E7A5A",
".+	c #AC8564",
"++	c #B08865",
"@+	c #B28A67",
"#+	c #A77F5C",
"$+	c #A07958",
"%+	c #AD8969",
"&+	c #AE8B6D",
"*+	c #B7906F",
"=+	c #B58E6D",
"-+	c #000000",
";+	c #9D7955",
">+	c #9A7652",
",+	c #A48664",
"'+	c #A78967",
")+	c #AF8E6B",
"!+	c #B08E6B",
"~+	c #A9835F",
"{+	c #A07854",
"]+	c #9B704D",
"^+	c #956A47",
"/+	c #89664A",
"(+	c #A57E5D",
"_+	c #AA8362",
":+	c #A17D5B",
"<+	c #AA8968",
"[+	c #A58765",
"}+	c #AA8D6B",
"|+	c #A48765",
"1+	c #A78B64",
"2+	c #AE906C",
"3+	c #A78665",
"4+	c #AA8664",
"5+	c #B49372",
"6+	c #A98C6A",
"7+	c #AD9070",
"8+	c #A16C4A",
"9+	c #977053",
"0+	c #90694C",
"a+	c #AD8967",
"b+	c #A27E5C",
"c+	c #B08D6D",
"d+	c #AE8D6C",
"e+	c #9D7F5D",
"f+	c #A28364",
"g+	c #B79A7A",
"h+	c #AB8E6E",
"i+	c #AF936E",
"j+	c #BB9773",
"k+	c #B49370",
"l+	c #B19472",
"m+	c #A78A6A",
"n+	c #9E805E",
"o+	c #AC8969",
"p+	c #AA7F5D",
"q+	c #A87A59",
"r+	c #9F785B",
"s+	c #AE8B6B",
"t+	c #AF8E6F",
"u+	c #AF9071",
"v+	c #937455",
"w+	c #7A5D3F",
"x+	c #9E8365",
"y+	c #AF9476",
"z+	c #A88B69",
"A+	c #AE906E",
"B+	c #AC8B6A",
"C+	c #F87068",
"D+	c #BB9872",
"E+	c #AC8C66",
"F+	c #A58964",
"G+	c #AD9372",
"H+	c #A98C6C",
"I+	c #A58667",
"J+	c #A37F5F",
"K+	c #9F7A5D",
"L+	c #967154",
"M+	c #B69576",
"N+	c #B08F70",
"O+	c #AA8B6C",
"P+	c #B19273",
"Q+	c #987B5D",
"R+	c #7C5F41",
"S+	c #806345",
"T+	c #9F8466",
"U+	c #AC9173",
"V+	c #B09373",
"W+	c #AD8C6B",
"X+	c #AB8868",
"Y+	c #F8D0C0",
"Z+	c #AE8C66",
"`+	c #A1815B",
" @	c #B39772",
".@	c #AC9271",
"+@	c #856B4A",
"@@	c #977A5A",
"#@	c #A68768",
"$@	c #9B7A59",
"%@	c #A17C5F",
"&@	c #977255",
"*@	c #B69876",
"=@	c #A18361",
"-@	c #9C7D5E",
";@	c #9F8061",
">@	c #9D7E61",
",@	c #8D7052",
"'@	c #9F8467",
")@	c #AC8F71",
"!@	c #A98867",
"~@	c #885818",
"{@	c #B99B77",
"]@	c #A38664",
"^@	c #7F6242",
"/@	c #795C3E",
"(@	c #A08363",
"_@	c #AC8F6F",
":@	c #A37E61",
"<@	c #BB9A77",
"[@	c #A98865",
"}@	c #A88766",
"|@	c #AB8A69",
"1@	c #A68564",
"2@	c #A98869",
"3@	c #B39273",
"4@	c #8F6E4F",
"5@	c #795D45",
"6@	c #937559",
"7@	c #A38666",
"8@	c #745538",
"9@	c #7C5D40",
"0@	c #9A7B5E",
"a@	c #AB8A67",
"b@	c #A98963",
"c@	c #A58063",
"d@	c #997457",
"e@	c #BB9974",
"f@	c #A6845F",
"g@	c #B5936E",
"h@	c #AC8A67",
"i@	c #9B7956",
"j@	c #B38F6D",
"k@	c #B38F6F",
"l@	c #846852",
"m@	c #72543A",
"n@	c #977957",
"o@	c #977C5F",
"p@	c #6B5033",
"q@	c #806145",
"r@	c #A7856A",
"s@	c #9D7A5C",
"t@	c #A98660",
"u@	c #AC8961",
"v@	c #A98668",
"w@	c #9B785A",
"x@	c #BC9A74",
"y@	c #A7855F",
"z@	c #AB8862",
"A@	c #B4906C",
"B@	c #A47E5A",
"C@	c #B89170",
"D@	c #B48D6C",
"E@	c #AE927C",
"F@	c #7D5F45",
"G@	c #5E462A",
"H@	c #8A6F54",
"I@	c #A28269",
"J@	c #9E7A60",
"K@	c #9A7558",
"L@	c #A98261",
"M@	c #A68059",
"N@	c #A68157",
"O@	c #A68365",
"P@	c #987557",
"Q@	c #AE8D6E",
"R@	c #AC8C63",
"S@	c #AA8A63",
"T@	c #9C7959",
"U@	c #9E7B5D",
"V@	c #AE8D64",
"W@	c #B6946E",
"X@	c #9D7F5B",
"Y@	c #7F6544",
"Z@	c #674A28",
"`@	c #8C6B4A",
" #	c #A6805C",
".#	c #A47959",
"+#	c #946F54",
"@#	c #AB886C",
"##	c #AC8363",
"$#	c #AE825B",
"%#	c #A97F59",
"&#	c #9A785C",
"*#	c #B49374",
"=#	c #A88764",
"-#	c #AC8A65",
";#	c #9C795D",
">#	c #B39070",
",#	c #B89670",
"'#	c #9C7B58",
")#	c #947757",
"!#	c #967B5D",
"~#	c #7E603E",
"{#	c #826543",
"]#	c #A1805F",
"^#	c #A87D5D",
"/#	c #967156",
"(#	c #A78468",
"_#	c #A57952",
":#	c #B79478",
"<#	c #A17E5E",
"[#	c #A3815B",
"}#	c #9A775B",
"|#	c #98745A",
"1#	c #B18F6A",
"2#	c #B7936F",
"3#	c #9F7D5A",
"4#	c #9F7E5D",
"5#	c #9D7E5F",
"6#	c #AD8A6A",
"7#	c #A38261",
"8#	c #8C6E4C",
"9#	c #987756",
"0#	c #AA7F5C",
"a#	c #A57C5C",
"b#	c #9B765B",
"c#	c #A88569",
"d#	c #AB8463",
"e#	c #AB7F58",
"f#	c #A87E58",
"g#	c #99775B",
"h#	c #B79278",
"i#	c #A07C58",
"j#	c #9E7B5F",
"k#	c #957157",
"l#	c #A58264",
"m#	c #A3815C",
"n#	c #A27E5A",
"o#	c #A4825F",
"p#	c #A78464",
"q#	c #B59471",
"r#	c #9F815D",
"s#	c #A77C59",
"t#	c #A37A5A",
"u#	c #9D7A5E",
"v#	c #A58266",
"w#	c #A88160",
"x#	c #AD815A",
"y#	c #A77D57",
"z#	c #B89076",
"A#	c #9E7758",
"B#	c #B4906E",
"C#	c #916D53",
"D#	c #A07D5F",
"E#	c #9D7D57",
"F#	c #A5815F",
"G#	c #AC8866",
"H#	c #B1916B",
"I#	c #A28462",
"J#	c #99714D",
"K#	c #9F7C60",
"L#	c #A58367",
"M#	c #A67C54",
"N#	c #A67C56",
"O#	c #98765A",
"P#	c #B58C70",
"Q#	c #A17858",
"R#	c #AF8B67",
"S#	c #8D6A4E",
"T#	c #A3835C",
"U#	c #AE8C69",
"V#	c #AA8662",
"W#	c #AF8D68",
"X#	c #AD8F6D",
"Y#	c #9C7854",
"Z#	c #9B7453",
"`#	c #977458",
" $	c #A8866A",
".$	c #A87E56",
"+$	c #977559",
"@$	c #B18568",
"#$	c #A27A56",
"$$	c #A67F56",
"%$	c #AB855E",
"&$	c #987452",
"*$	c #937050",
"=$	c #A5855F",
"-$	c #A8885F",
";$	c #B08E68",
">$	c #B38D68",
",$	c #203088",
"'$	c #B5936D",
")$	c #A98561",
"!$	c #A47C58",
"~$	c #88664A",
"{$	c #A68468",
"]$	c #A37F5D",
"^$	c #A57B55",
"/$	c #967458",
"($	c #B08565",
"_$	c #A57E53",
":$	c #AB865C",
"<$	c #A17D59",
"[$	c #A2805D",
"}$	c #AE8E67",
"|$	c #AA8B5F",
"1$	c #AE916F",
"2$	c #B29470",
"3$	c #A9865E",
"4$	c #AB8963",
"5$	c #AC8E6C",
"6$	c #B38B67",
"7$	c #89674B",
"8$	c #9F754D",
"9$	c #AD825F",
"0$	c #A8805C",
"a$	c #A57D59",
"b$	c #A37D59",
"c$	c #A37F5B",
"d$	c #A5835E",
"e$	c #AB8964",
"f$	c #AE8861",
"g$	c #AA8966",
"h$	c #408098",
"i$	c #80D8C8",
"j$	c #A07B4F",
"k$	c #A57F5B",
"l$	c #B28C68",
"m$	c #AE8864",
"n$	c #B18B67",
"o$	c #A9815E",
"p$	c #AF8764",
"q$	c #A47C59",
"r$	c #A27A57",
"s$	c #A47A54",
"t$	c #947354",
"u$	c #A37B57",
"v$	c #A5815D",
"w$	c #A78560",
"x$	c #A88663",
"y$	c #907152",
"z$	c #A47E57",
"A$	c #A7815D",
"B$	c #A27C58",
"C$	c #9F7754",
"D$	c #99714E",
"E$	c #A27852",
"F$	c #957455",
"G$	c #A8825E",
"H$	c #B38D69",
"I$	c #A7835F",
"J$	c #AB8763",
"K$	c #AC8864",
"L$	c #7D5E3F",
"M$	c #664728",
"N$	c #8B6C4D",
"O$	c #9B7755",
"P$	c #B6906C",
"Q$	c #AD8763",
"R$	c #9D7753",
"S$	c #AA8460",
"T$	c #AE8663",
"U$	c #9C7451",
"V$	c #976F4C",
"W$	c #A27653",
"X$	c #926F53",
"Y$	c #765738",
"Z$	c #6B4C2F",
"`$	c #927356",
" %	c #B69778",
".%	c #6E4A2A",
"+%	c #997555",
"@%	c #AB8561",
"#%	c #9B7350",
"$%	c #9E724F",
"%%	c #916E52",
"&%	c #987555",
"*%	c #A07C5C",
"=%	c #9C7856",
"-%	c #9E7A56",
";%	c #A07D57",
">%	c #8B6A4B",
",%	c #6B4C2D",
"'%	c #856649",
")%	c #9C7B5C",
"!%	c #8F6D4A",
"~%	c #926E4E",
"{%	c #795535",
"]%	c #765232",
"^%	c #966E4B",
"/%	c #976B48",
"(%	c #967355",
"_%	c #9A7757",
":%	c #9A7855",
"<%	c #9F7B59",
"[%	c #9D7A54",
"}%	c #9E7D5E",
"|%	c #917253",
"1%	c #967451",
"2%	c #AD8562",
"3%	c #AC815E",
"4%	c #9D7B5F",
"5%	c #A38263",
"6%	c #A4805E",
"7%	c #9C7953",
"8%	c #9A744F",
"9%	c #997251",
"0%	c #9B7858",
"a%	c #9A795A",
"b%	c #987450",
"c%	c #A07A56",
"d%	c #A67E5B",
"e%	c #A37B58",
"f%	c #AC8461",
"g%	c #9E7F63",
"h%	c #8C6D50",
"i%	c #947256",
"j%	c #906F50",
"k%	c #9E7C59",
"l%	c #9E7853",
"m%	c #9B7550",
"n%	c #9A7654",
"o%	c #947153",
"p%	c #9D764F",
"q%	c #96744E",
"r%	c #9A7450",
"s%	c #9F7955",
"t%	c #A57D5A",
"u%	c #A07855",
"v%	c #9D7552",
"w%	c #936D49",
"x%	c #97795D",
"y%	c #86684C",
"z%	c #8E7054",
"A%	c #917255",
"B%	c #98795C",
"C%	c #9F7D61",
"D%	c #9E7C60",
"E%	c #A17E60",
"F%	c #9C7A5E",
"G%	c #927054",
"H%	c #906E53",
"I%	c #9D7B60",
"J%	c #967459",
"K%	c #846247",
"L%	c #997658",
"M%	c #987653",
"N%	c #95714D",
"O%	c #97734F",
"P%	c #9E7854",
"Q%	c #917357",
"R%	c #9B7C5F",
"S%	c #A07E62",
"T%	c #A27F61",
"U%	c #A17F63",
"V%	c #A28064",
"W%	c #99775C",
"X%	c #9C7A5F",
"Y%	c #916F54",
"Z%	c #947155",
"`%	c #987559",
" &	c #957254",
".&	c #997656",
"+&	c #9D7B58",
"@&	c #9C7A57",
"#&	c #9B7551",
"$&	c #98704D",
"  . + @ # $ % & * = - = * * = = ; > > , ' ) ! ! ~ { ] ^ / ( _ : < [ ",
"} | 1 2 3 4 5 6 7 8 9 7 0 7 8 8 a a b c b d e e f g h i j k l m n o ",
"p q r s t u s v w x w y z A y z B 9 C 0 7 D 7 7 E F G H I J K L M N ",
"O P Q R S T U V W X Y Z `  .Z ..J +.@.+.+.#.$.#.%.&.*.=.-.-.;.>.< ,.",
"'.).!.~.{.].^.)./.(./._.:.<.<.<.<.<.[.}.|.1.2.3.4.5.6.7.8.7.8.9.0.a.",
"b.c.d.e.f.g.h.i.j.k.l.m.<.n.n.o.n.n.<.<.p.q.r.s.t.u.v.w.x.y.z.A.n n ",
"B.C.D.E.F.G.H.I.J.K.L.M.<.N.O.o.P.N.n.n.<.Q.R.S.T.U.V.W.X.Y.Z.`.o ,.",
" +.+++@+#+$+%+&+.+*+=+-+-+-+-+-+-+-+N.N.n.<.;+>+,+'+)+!+~+{+]+^+o /+",
"(+_+:+!+<+[+}+|+1+2+-+-+-+-+-+-+-+-+-+-+N.n.<.3+4+5+6+7+,+$+8 8+9+0+",
"a+b+c+d+e+f+g+h+i+[+-+-+-+-+-+-+-+-+-+-+-+N.N.<.j+k+l+m+n+o+p+q+r+9+",
"s+o+t+u+v+w+x+y+z+A+B+-+-+O.O.C+O.O.C+-+-+N.N.<.D+E+F+G+H+I+J+(+K+L+",
"M+N+O+P+Q+R+S+T+U+V+W+X+o+O.-+Y+-+O.C+C+-+-+Y+C+Z+`+ @.@+@@@#@$@%@&@",
"*@=@-@H.;@>@,@w+'@)@!@~@Y+O.-+Y+-+O.Y+C+-+-+Y+~@C+{@]@^@/@(@_@e+:@&@",
"<@[@}@|@1@2@3@4@5@6@!@~@Y+Y+Y+C+C+Y+Y+-+-+-+C+~@C+7@8@9@0@I+a@b@c@d@",
"e@f@g@h@i@:+j@k@l@m@n@~@C+C+C+C+~@-+Y+Y+-+C+C+C+o@p@q@r@s@:+t@u@v@w@",
"x@y@z@A@>+B@C@D@E@F@-+-+-+-+-+-+-+-+-+C+C+C+-+-+G@H@I@J@K@L@M@N@O@P@",
"Q@b@R@S@T@U@!+V@W@X@Y@-+-+-+-+-+-+Y+Y+C+C+-+-+Z@`@ #b .#+#@###$#%#&#",
"*#=#S@-#Y.;#>#W@,#'#)#!#~@C+C+C+C+C+C+C+~@-+~#{#]#B@c ^#/#(#_+_#%#&#",
":#<#[#h@}#|#&+1#2#3#4#5#H.~@~@~@<.<.N.N.<.6#7#8#9# #0#a#b#c#d#e#f#g#",
"h#k i#!+j#k#l#m#n#:+o#p#~@O.O.O.~@N.<.n.n.<.q#r#`@>+s#t#u#v#w#x#y#g#",
"z#A#n#B#j#C#D#E#F#G#G#~@O.O.O.O.O.~@n.n.n.N.<.H#I#* J#a#K#L#w#M#N#O#",
"P#Q#M@R#&@S#4#T#[@U#V#~@O.O.O.O.O.~@n.n.N.N.<.W#X#Y#J#Z#`# $F..$N#+$",
"@$#$$$%$&$*$=$-$A+q#;$>$~@O.O.O.~@N.n.N.N.<.,$'$=@)$!$! ~${$]$M#^$/$",
"($^$_$:$<$[$}$|$1$2$Z+3$O.~@~@~@<.<.N.N.<.,$,$4$5$1#6$L@7${$b+8$^$/$",
"9$0$a$>$b$c$d$e$f$V#g$O+,$h$i$i$i$<.<.<.,$h$,$j$k$l$m$n$o$p$q$r$s$t$",
"#$u$u$n$<$c$v$w$)$x$W+y$,$h$i$i$i$i$i$h$h$h$,$z$B@A$B$m$p$@+C$D$E$F$",
"b$G$G$H$I$)$J$K$<+}@L$M$N$,$h$,$i$i$h$h$h$,$O$P$Q$A$R$S$T$p$U$V$W$X$",
"w#G#F.J$c$v$I$I$5#Y$Z$`$ %,$h$,$h$h$h$h$h$,$.%+%m$@%b$~+o$#+#%#%$%%%",
"&%*%O$=%>+-%i#;%>%,%'%W.)%!%,$,$,$,$,$,$,$~%{%]%B@S$G$ #r$C$V$^%/%o ",
"(%U@_%:%<%i#;%[%_%T@}%|%4@-+~@-+~@~@~@~@~@j :+1%R$ #A$k$o$++p$2%3%4%",
"4%5%Q.G.6%<$7%8%b$9%0%a%-+o.-+o.~@~@~@~@-+!$b%m#c%B@B$R$r$#+d%e%f%g%",
"h%i%j%*$k%-%l%m%E$U$n%o%-+-+-+-+-+-+-+-+-+p%[%q%r%c%B$s%t%q$u%v%w%x%",
"y%z%A%B%C%D%E%E%4%F%4%G%H%I%J%K%`#;#P@L%T@0%i@M%N%O%b$P%R$k$u%U$o%o%",
"Q%x%B%R%S%C%T%T%S%U% $V%W%X%W%Y%Z%`%o% &.&0%+&@&N%b%b$#&& r%$&V$P@P@"};
