/* XPM */
static char * exit_left_xpm[] = {
"34 34 383 2",
"  	c #C0D470",
". 	c #BFD370",
"+ 	c #8D996E",
"@ 	c #81867E",
"# 	c #81867D",
"$ 	c #80867D",
"% 	c #7F857C",
"& 	c #7A8078",
"* 	c #9EAC69",
"= 	c #BED26F",
"- 	c #6E746B",
"; 	c #7C7F76",
"> 	c #7E8177",
", 	c #7F8278",
"' 	c #6E726A",
") 	c #6B7068",
"! 	c #7D895D",
"~ 	c #818C63",
"{ 	c #787C73",
"] 	c #7A7D72",
"^ 	c #7D8177",
"/ 	c #6E716A",
"( 	c #686C65",
"_ 	c #9EAF63",
": 	c #BBCE6E",
"< 	c #B9CC6D",
"[ 	c #9BAA67",
"} 	c #737C5A",
"| 	c #75796E",
"1 	c #787B72",
"2 	c #7B7E75",
"3 	c #73776E",
"4 	c #6A7358",
"5 	c #A4B46A",
"6 	c #B9CD6E",
"7 	c #B4C66B",
"8 	c #7A826D",
"9 	c #8A9563",
"0 	c #B7CB6B",
"a 	c #8D996B",
"b 	c #7F8675",
"c 	c #500000",
"d 	c #797C72",
"e 	c #6A6E66",
"f 	c #7A7F77",
"g 	c #797F73",
"h 	c #92A063",
"i 	c #A9B96C",
"j 	c #7F8577",
"k 	c #A3B36B",
"l 	c #B5C86C",
"m 	c #818874",
"n 	c #787C72",
"o 	c #71766E",
"p 	c #6C7265",
"q 	c #7E847B",
"r 	c #F84070",
"s 	c #F8D870",
"t 	c #7B8178",
"u 	c #71766D",
"v 	c #70756C",
"w 	c #676B64",
"x 	c #84897D",
"y 	c #86897E",
"z 	c #7D8175",
"A 	c #A1B166",
"B 	c #7F8A62",
"C 	c #747970",
"D 	c #767B71",
"E 	c #777B71",
"F 	c #72776E",
"G 	c #676D65",
"H 	c #B02860",
"I 	c #F8F8F8",
"J 	c #D8A038",
"K 	c #74796F",
"L 	c #707469",
"M 	c #70756D",
"N 	c #84877C",
"O 	c #83877C",
"P 	c #707566",
"Q 	c #B6C86B",
"R 	c #6B715F",
"S 	c #777C72",
"T 	c #74786E",
"U 	c #787D74",
"V 	c #000000",
"W 	c #6C7559",
"X 	c #84877D",
"Y 	c #818378",
"Z 	c #73776F",
"` 	c #A0B064",
" .	c #A2B267",
"..	c #737870",
"+.	c #646861",
"@.	c #72776D",
"#.	c #71795D",
"$.	c #70746C",
"%.	c #6D7069",
"&.	c #808A5F",
"*.	c #BDD16E",
"=.	c #B6C96B",
"-.	c #767B70",
";.	c #787C71",
">.	c #6B6F68",
",.	c #565852",
"'.	c #60694A",
").	c #767B73",
"!.	c #81857B",
"~.	c #7A7E73",
"{.	c #9BAB63",
"].	c #88955B",
"^.	c #767A6F",
"/.	c #777A6F",
"(.	c #795738",
"_.	c #A56A37",
":.	c #F87068",
"<.	c #ACBE65",
"[.	c #7B8267",
"}.	c #7F8378",
"|.	c #7C7F74",
"1.	c #6F775C",
"2.	c #BCCF6E",
"3.	c #BCD06E",
"4.	c #80886F",
"5.	c #666B63",
"6.	c #6F7369",
"7.	c #746A5B",
"8.	c #A96739",
"9.	c #B87A3E",
"0.	c #B06A3C",
"a.	c #9E6239",
"b.	c #F8D0C0",
"c.	c #A0B163",
"d.	c #6B6F66",
"e.	c #AEC069",
"f.	c #B0C26D",
"g.	c #75786D",
"h.	c #70756B",
"i.	c #9A6A3D",
"j.	c #B66E3E",
"k.	c #BE7D41",
"l.	c #885818",
"m.	c #B8CB6B",
"n.	c #717A5D",
"o.	c #777A70",
"p.	c #929F65",
"q.	c #9FAF64",
"r.	c #76796E",
"s.	c #72766C",
"t.	c #65685F",
"u.	c #A06636",
"v.	c #BB7240",
"w.	c #BB7C3F",
"x.	c #859160",
"y.	c #72766B",
"z.	c #74776C",
"A.	c #838D63",
"B.	c #BACD6D",
"C.	c #A4B369",
"D.	c #8F9975",
"E.	c #7F837B",
"F.	c #7D827A",
"G.	c #514C44",
"H.	c #A16536",
"I.	c #AA663A",
"J.	c #B4783D",
"K.	c #9CAC5E",
"L.	c #6F746C",
"M.	c #72756E",
"N.	c #AEBD79",
"O.	c #A4B569",
"P.	c #AFC268",
"Q.	c #70736B",
"R.	c #767A72",
"S.	c #6C7068",
"T.	c #757A71",
"U.	c #584C40",
"V.	c #A06436",
"W.	c #AF693C",
"X.	c #A7B864",
"Y.	c #7B7F76",
"Z.	c #81847B",
"`.	c #76796F",
" +	c #5F6456",
".+	c #7A7E75",
"++	c #81847A",
"@+	c #74766C",
"#+	c #594C40",
"$+	c #BC7D40",
"%+	c #ABBD66",
"&+	c #7E8178",
"*+	c #7B7E73",
"=+	c #777B72",
"-+	c #787B71",
";+	c #584A3E",
">+	c #A26636",
",+	c #BE7441",
"'+	c #BC7B3F",
")+	c #AD683C",
"!+	c #75796F",
"~+	c #5C6254",
"{+	c #B0C268",
"]+	c #5F645E",
"^+	c #60645E",
"/+	c #61655F",
"(+	c #686D65",
"_+	c #55473C",
":+	c #A06435",
"<+	c #BF7541",
"[+	c #B8773D",
"}+	c #A9653B",
"|+	c #9D643D",
"1+	c #6E726B",
"2+	c #676B63",
"3+	c #656A62",
"4+	c #5D605B",
"5+	c #545A4C",
"6+	c #B9CD6D",
"7+	c #9AAA5F",
"8+	c #747F55",
"9+	c #757A73",
"0+	c #72766E",
"a+	c #53453A",
"b+	c #9F6334",
"c+	c #BE7440",
"d+	c #AF6E39",
"e+	c #AE693C",
"f+	c #686B65",
"g+	c #787D75",
"h+	c #595E53",
"i+	c #9BAB60",
"j+	c #9DAD60",
"k+	c #8E9B61",
"l+	c #878B83",
"m+	c #7F8176",
"n+	c #564B40",
"o+	c #9E6234",
"p+	c #BD7340",
"q+	c #B0703A",
"r+	c #82877E",
"s+	c #73786F",
"t+	c #626759",
"u+	c #8B985D",
"v+	c #7F8074",
"w+	c #9E6334",
"x+	c #BD7240",
"y+	c #B2723B",
"z+	c #656A5B",
"A+	c #8C995E",
"B+	c #74766B",
"C+	c #72756A",
"D+	c #55483D",
"E+	c #9F6335",
"F+	c #B7763D",
"G+	c #B7703F",
"H+	c #203088",
"I+	c #616660",
"J+	c #5D6255",
"K+	c #BDD16F",
"L+	c #AFC168",
"M+	c #7E8A56",
"N+	c #5A5E58",
"O+	c #525652",
"P+	c #4D3F36",
"Q+	c #BB723F",
"R+	c #B2733B",
"S+	c #B16B3D",
"T+	c #5A5E59",
"U+	c #595E59",
"V+	c #565B50",
"W+	c #B0C269",
"X+	c #B1C36A",
"Y+	c #73766E",
"Z+	c #848980",
"`+	c #898D84",
" @	c #574D43",
".@	c #BA713F",
"+@	c #B6763C",
"@@	c #A9663B",
"#@	c #408098",
"$@	c #80D8C8",
"%@	c #7C8179",
"&@	c #7D8279",
"*@	c #797E75",
"=@	c #797C73",
"-@	c #5D6356",
";@	c #7A7E72",
">@	c #7C7F75",
",@	c #53473D",
"'@	c #B9703E",
")@	c #AC6C38",
"!@	c #9A5934",
"~@	c #D0DE76",
"{@	c #B9C66B",
"]@	c #767A73",
"^@	c #696C64",
"/@	c #808379",
"(@	c #808378",
"_@	c #6E7369",
":@	c #51483E",
"<@	c #9D6134",
"[@	c #AB6439",
"}@	c #A96D38",
"|@	c #8E4F2F",
"1@	c #935B35",
"2@	c #D2E077",
"3@	c #BBC76C",
"4@	c #83887F",
"5@	c #7A7C71",
"6@	c #7E8074",
"7@	c #5F6557",
"8@	c #777A71",
"9@	c #7B7E72",
"0@	c #6C7067",
"a@	c #54463B",
"b@	c #985E31",
"c@	c #995830",
"d@	c #985C32",
"e@	c #773F27",
"f@	c #8E5833",
"g@	c #BBC86C",
"h@	c #7A7E76",
"i@	c #7D8075",
"j@	c #7F8277",
"k@	c #74786F",
"l@	c #5B6254",
"m@	c #B0C369",
"n@	c #5B6056",
"o@	c #5E6259",
"p@	c #565B56",
"q@	c #575B56",
"r@	c #4D4137",
"s@	c #925A2F",
"t@	c #8C4E2B",
"u@	c #874C2C",
"v@	c #6B3723",
"w@	c #8D5934",
"x@	c #C3B563",
"y@	c #505550",
"z@	c #5B5F5A",
"A@	c #595D58",
"B@	c #515945",
"C@	c #7B8078",
"D@	c #544A3F",
"E@	c #925B2F",
"F@	c #7D4227",
"G@	c #7B4327",
"H@	c #724C2C",
"I@	c #A9B05D",
"J@	c #7C8077",
"K@	c #676C5D",
"L@	c #554B40",
"M@	c #8A562C",
"N@	c #753D25",
"O@	c #784F2D",
"P@	c #ADB861",
"Q@	c #767A70",
"R@	c #646A5B",
"S@	c #8D9B60",
"T@	c #53493F",
"U@	c #84522B",
"V@	c #7F502F",
"W@	c #AEB45F",
"X@	c #CBDB74",
"Y@	c #B5C36A",
"Z@	c #6C7163",
"`@	c #6B6F67",
" #	c #646761",
".#	c #51483C",
"+#	c #8C6535",
"@#	c #AEB862",
"##	c #6E7265",
"$#	c #98A75F",
"%#	c #758156",
"&#	c #778155",
"*#	c #A4B062",
"=#	c #CEDD75",
"-#	c #C2D571",
";#	c #B0C368",
">#	c #737F53",
",#	c #768156",
"'#	c #798556",
"                          . + @ # $ % & *                           ",
"                          = - ; > , ' ) !                           ",
"                          . ~ { ] ^ / ( _                           ",
"                : =     < [ } | 1 2 3 ' 4 5 <     6                 ",
"              7 8 9 0 a b c c c c c d e & f g h i j k               ",
"            l m n o p q c r r s r r c c t u v w x y z A             ",
"          . B C D E F G c H I s J H r r c K L M N O O P             ",
"            Q R S T U V V V V V V V H H r c W X Y , Z `             ",
"             ...+.@.V V V V V V V V V V H r c #.$.%.3 &.*.          ",
"          =.-.;.>.,.V V V V V V V V V V V H H c '.).!.~.{.          ",
"          ].^.~./.(._.V V I I :.I I :.V V H H c <.[.}.|.1.2.        ",
"        3.4.5.6.7.8.9.0.a.I V b.V I :.:.V V b.:.  c.d.5.+.e.        ",
"        f.g.^.h.i.j.k.l.b.I V b.V I b.:.V V b.l.:.m.n.o.g.p.        ",
"        q.r.s.t.u.v.w.l.b.b.b.:.:.b.b.V V V :.l.:.. x.y.z.A.        ",
"    B.C.D.E.F.G.H.I.J.l.:.:.:.:.l.V b.b.V :.:.:.    K.L.M.-.N.O.    ",
"    P.Q.R.S.T.U.V.W.V V V V V V V V V :.:.:.V V     X.u Y.Z.`. +    ",
"    P.F..+++@+#+H.j.$+V V V V V V b.b.:.:.V V       %+f n &+*+ +    ",
"    P.Q.=+-+1 ;+>+,+'+)+l.:.:.:.:.:.:.:.l.V         %+# n .+!+~+    ",
"    {+]+^+/+(+_+:+<+[+}+|+l.l.l.c c H H c           %+1+2+3+4+5+    ",
"    6+7+8+9+0+a+b+c+d+e+l.I I I l.H c r r c         %+f+g+h+i+j+    ",
"        k+l+m+n+o+p+q+l.I I I I I l.r r r H c       %+r+s+t+        ",
"        u+/.v+n+w+x+y+l.I I I I I l.r r H H c       %+f $.z+        ",
"        A+B+C+D+E+c+F+G+l.I I I l.H r H H c H+      %+$.I+J+        ",
"    K+L+M+N+O+P+w+Q+R+S+I l.l.l.c c H H c H+H+      %+T+U+V+W+X+    ",
"    P.Y+Z+`+#  @w+.@+@@@H+#@$@$@$@c c c H+#@H+      %+%@&@*@=@-@    ",
"    P.R.;@>@r.,@o+'@)@!@H+#@$@$@$@$@$@#@#@#@H+~@~@~@{@]@^@/@(@ +    ",
"    P.&@^ |._@:@<@[@}@|@1@H+#@H+$@$@#@#@#@H+2@2@2@2@3@4@5@6@5@7@    ",
"    P.8@9@d 0@a@b@c@d@e@f@H+#@H+#@#@#@#@#@H+2@2@2@2@g@h@i@j@k@l@    ",
"    m@n@o@p@q@r@s@t@u@v@w@x@H+H+H+H+H+H+H+2@2@2@2@2@g@y@z@A@V+B@    ",
"        A+C@&+D@E@F@G@H@I@V l.V l.l.l.l.l.2@2@2@2@2@g@J@# K@        ",
"        A+!+`.L@M@N@O@P@V s V s l.l.l.l.V 2@2@2@2@2@3@% Q@R@        ",
"        S@=+s.T@U@V@W@  V V V V V V V V V X@X@X@X@X@Y@3 C Z@        ",
"        A+`@ #.#+#@#                                %+`@.+##        ",
"        $#%#&#*#=#=#=#=#=#-#                        ;#>#,#'#        "};
