/* XPM */
static char * exit_right_xpm[] = {
"34 34 649 2",
"  	c #836549",
". 	c #86674A",
"+ 	c #896646",
"@ 	c #8B6541",
"# 	c #916945",
"$ 	c #936B47",
"% 	c #926A47",
"& 	c #946E4A",
"* 	c #926E4A",
"= 	c #936F4B",
"- 	c #94704C",
"; 	c #946D4C",
"> 	c #906948",
", 	c #8D6645",
"' 	c #916A49",
") 	c #987150",
"! 	c #966F4E",
"~ 	c #906747",
"{ 	c #8F6648",
"] 	c #8C6546",
"^ 	c #8E694C",
"/ 	c #927152",
"( 	c #8B6C4F",
"_ 	c #7E6143",
": 	c #77593D",
"< 	c #836044",
"[ 	c #8E6B4F",
"} 	c #86624A",
"| 	c #896449",
"1 	c #8C6347",
"2 	c #906545",
"3 	c #986B4A",
"4 	c #9C6F4E",
"5 	c #A07354",
"6 	c #A57A5A",
"7 	c #A27452",
"8 	c #A17351",
"9 	c #A07250",
"0 	c #A37553",
"a 	c #A07552",
"b 	c #A37855",
"c 	c #A27754",
"d 	c #A87D5A",
"e 	c #A57A57",
"f 	c #A87B5A",
"g 	c #A67958",
"h 	c #A07553",
"i 	c #9E7555",
"j 	c #A17A59",
"k 	c #9B7757",
"l 	c #906D4D",
"m 	c #886547",
"n 	c #846145",
"o 	c #8F6C50",
"p 	c #8A614B",
"q 	c #8A6048",
"r 	c #8C5E46",
"s 	c #916246",
"t 	c #986749",
"u 	c #956446",
"v 	c #926349",
"w 	c #9C6745",
"x 	c #9B6644",
"y 	c #9E6947",
"z 	c #A06B49",
"A 	c #9F6A48",
"B 	c #9E704E",
"C 	c #A67856",
"D 	c #A57755",
"E 	c #A47654",
"F 	c #A27453",
"G 	c #9A6D4C",
"H 	c #946947",
"I 	c #966B4B",
"J 	c #956C4C",
"K 	c #8F6847",
"L 	c #896241",
"M 	c #805D41",
"N 	c #8A674B",
"O 	c #89634C",
"P 	c #845C43",
"Q 	c #7E543B",
"R 	c #85593E",
"S 	c #8D6043",
"T 	c #8F6147",
"U 	c #93674C",
"V 	c #946A51",
"W 	c #916445",
"X 	c #936647",
"Y 	c #956849",
"Z 	c #976A4B",
"` 	c #996C4D",
" .	c #96694A",
"..	c #9C6F50",
"+.	c #966D4D",
"@.	c #9A7151",
"#.	c #9C7353",
"$.	c #9B7252",
"%.	c #966D4F",
"&.	c #986F51",
"*.	c #976E50",
"=.	c #936C4F",
"-.	c #926B4E",
";.	c #8B6447",
">.	c #825B3E",
",.	c #8B684C",
"'.	c #795940",
").	c #78563B",
"!.	c #745135",
"~.	c #795437",
"{.	c #775333",
"].	c #724D30",
"^.	c #775438",
"/.	c #745539",
"(.	c #75563A",
"_.	c #76573B",
":.	c #795A3E",
"<.	c #77583C",
"[.	c #500000",
"}.	c #856147",
"|.	c #846046",
"1.	c #835F45",
"2.	c #7F5F46",
"3.	c #806047",
"4.	c #7E5E45",
"5.	c #7A583F",
"6.	c #78563D",
"7.	c #735138",
"8.	c #7B583C",
"9.	c #7F5C40",
"0.	c #8E7153",
"a.	c #96795B",
"b.	c #9A7958",
"c.	c #977655",
"d.	c #81603F",
"e.	c #68492A",
"f.	c #65482A",
"g.	c #634628",
"h.	c #654D33",
"i.	c #644C32",
"j.	c #5E462C",
"k.	c #5D452B",
"l.	c #F84070",
"m.	c #F8D870",
"n.	c #604228",
"o.	c #5C3E24",
"p.	c #573D26",
"q.	c #5A4027",
"r.	c #61452D",
"s.	c #664830",
"t.	c #6C4E34",
"u.	c #78583F",
"v.	c #836148",
"w.	c #846249",
"x.	c #A28162",
"y.	c #AF8E6D",
"z.	c #B59370",
"A.	c #B79371",
"B.	c #A88462",
"C.	c #9D7A5A",
"D.	c #A78869",
"E.	c #AC8D70",
"F.	c #A6896B",
"G.	c #AA8D6F",
"H.	c #A48769",
"I.	c #9F8264",
"J.	c #A38668",
"K.	c #B02860",
"L.	c #D8A038",
"M.	c #F8F8F8",
"N.	c #977657",
"O.	c #937253",
"P.	c #92775A",
"Q.	c #987D60",
"R.	c #A28468",
"S.	c #A6876A",
"T.	c #A18061",
"U.	c #9A7759",
"V.	c #946F52",
"W.	c #8D6949",
"X.	c #9E7A5A",
"Y.	c #AC8564",
"Z.	c #B08865",
"`.	c #B28A67",
" +	c #A77F5C",
".+	c #A07958",
"++	c #AD8969",
"@+	c #AE8B6D",
"#+	c #B7906F",
"$+	c #B58E6D",
"%+	c #000000",
"&+	c #9A7652",
"*+	c #A48664",
"=+	c #A78967",
"-+	c #AF8E6B",
";+	c #B08E6B",
">+	c #A9835F",
",+	c #A07854",
"'+	c #9B704D",
")+	c #956A47",
"!+	c #89664A",
"~+	c #A57E5D",
"{+	c #AA8362",
"]+	c #A17D5B",
"^+	c #AA8968",
"/+	c #A58765",
"(+	c #AA8D6B",
"_+	c #A48765",
":+	c #A78B64",
"<+	c #AE906C",
"[+	c #B49372",
"}+	c #AA8664",
"|+	c #A98C6A",
"1+	c #AD9070",
"2+	c #A16C4A",
"3+	c #977053",
"4+	c #90694C",
"5+	c #AD8967",
"6+	c #A27E5C",
"7+	c #B08D6D",
"8+	c #AE8D6C",
"9+	c #9D7F5D",
"0+	c #A28364",
"a+	c #B79A7A",
"b+	c #AB8E6E",
"c+	c #AF936E",
"d+	c #BB9773",
"e+	c #B49370",
"f+	c #B19472",
"g+	c #A78A6A",
"h+	c #9E805E",
"i+	c #AC8969",
"j+	c #AA7F5D",
"k+	c #A87A59",
"l+	c #9F785B",
"m+	c #AE8B6B",
"n+	c #AF8E6F",
"o+	c #AF9071",
"p+	c #937455",
"q+	c #7A5D3F",
"r+	c #9E8365",
"s+	c #AF9476",
"t+	c #A88B69",
"u+	c #AE906E",
"v+	c #F87068",
"w+	c #BB9B74",
"x+	c #BB9872",
"y+	c #AC8C66",
"z+	c #A58964",
"A+	c #AD9372",
"B+	c #A98C6C",
"C+	c #A58667",
"D+	c #A37F5F",
"E+	c #9F7A5D",
"F+	c #967154",
"G+	c #B69576",
"H+	c #B08F70",
"I+	c #AA8B6C",
"J+	c #B19273",
"K+	c #987B5D",
"L+	c #7C5F41",
"M+	c #806345",
"N+	c #9F8466",
"O+	c #AC9173",
"P+	c #B09373",
"Q+	c #F8D0C0",
"R+	c #AF8F69",
"S+	c #B3936A",
"T+	c #B29367",
"U+	c #AE8C66",
"V+	c #A1815B",
"W+	c #B39772",
"X+	c #AC9271",
"Y+	c #856B4A",
"Z+	c #977A5A",
"`+	c #A68768",
" @	c #9B7A59",
".@	c #A17C5F",
"+@	c #977255",
"@@	c #B69876",
"#@	c #A18361",
"$@	c #9C7D5E",
"%@	c #9F8061",
"&@	c #9D7E61",
"*@	c #8D7052",
"=@	c #9F8467",
"-@	c #885818",
";@	c #A9885F",
">@	c #AA8A64",
",@	c #B99B77",
"'@	c #A38664",
")@	c #7F6242",
"!@	c #795C3E",
"~@	c #A08363",
"{@	c #AC8F6F",
"]@	c #A37E61",
"^@	c #BB9A77",
"/@	c #A98865",
"(@	c #A88766",
"_@	c #AB8A69",
":@	c #A68564",
"<@	c #A98869",
"[@	c #B39273",
"}@	c #8F6E4F",
"|@	c #795D45",
"1@	c #B18F69",
"2@	c #AF9270",
"3@	c #A38666",
"4@	c #745538",
"5@	c #7C5D40",
"6@	c #9A7B5E",
"7@	c #AB8A67",
"8@	c #A98963",
"9@	c #A58063",
"0@	c #997457",
"a@	c #BB9974",
"b@	c #A6845F",
"c@	c #B5936E",
"d@	c #AC8A67",
"e@	c #9B7956",
"f@	c #B38F6D",
"g@	c #B38F6F",
"h@	c #846852",
"i@	c #72543A",
"j@	c #AF8D6A",
"k@	c #977C5F",
"l@	c #6B5033",
"m@	c #806145",
"n@	c #A7856A",
"o@	c #9D7A5C",
"p@	c #A98660",
"q@	c #AC8961",
"r@	c #A98668",
"s@	c #9B785A",
"t@	c #BC9A74",
"u@	c #A7855F",
"v@	c #AB8862",
"w@	c #B4906C",
"x@	c #A47E5A",
"y@	c #B89170",
"z@	c #B48D6C",
"A@	c #AE927C",
"B@	c #7D5F45",
"C@	c #5E462A",
"D@	c #8A6F54",
"E@	c #A28269",
"F@	c #9E7A60",
"G@	c #9A7558",
"H@	c #A98261",
"I@	c #A68059",
"J@	c #A68157",
"K@	c #A68365",
"L@	c #987557",
"M@	c #AE8D6E",
"N@	c #AC8C63",
"O@	c #AA8A63",
"P@	c #9C7959",
"Q@	c #9E7B5D",
"R@	c #AE8D64",
"S@	c #B6946E",
"T@	c #9D7F5B",
"U@	c #7F6544",
"V@	c #674A28",
"W@	c #8C6B4A",
"X@	c #A6805C",
"Y@	c #A47959",
"Z@	c #946F54",
"`@	c #AB886C",
" #	c #AC8363",
".#	c #AE825B",
"+#	c #A97F59",
"@#	c #9A785C",
"##	c #B49374",
"$#	c #A88764",
"%#	c #AC8A65",
"&#	c #9C795D",
"*#	c #B39070",
"=#	c #B89670",
"-#	c #9C7B58",
";#	c #947757",
">#	c #967B5D",
",#	c #7E603E",
"'#	c #826543",
")#	c #A1805F",
"!#	c #A87D5D",
"~#	c #967156",
"{#	c #A78468",
"]#	c #A57952",
"^#	c #B79478",
"/#	c #A17E5E",
"(#	c #A3815B",
"_#	c #9A775B",
":#	c #98745A",
"<#	c #B18F6A",
"[#	c #B7936F",
"}#	c #9F7D5A",
"|#	c #9F7E5D",
"1#	c #9D7E5F",
"2#	c #AD8A6A",
"3#	c #A38261",
"4#	c #8C6E4C",
"5#	c #987756",
"6#	c #AA7F5C",
"7#	c #A57C5C",
"8#	c #9B765B",
"9#	c #A88569",
"0#	c #AB8463",
"a#	c #AB7F58",
"b#	c #A87E58",
"c#	c #99775B",
"d#	c #B79278",
"e#	c #A07C58",
"f#	c #9E7B5F",
"g#	c #957157",
"h#	c #A58264",
"i#	c #A3815C",
"j#	c #A27E5A",
"k#	c #A4825F",
"l#	c #A78464",
"m#	c #B59471",
"n#	c #9F815D",
"o#	c #A77C59",
"p#	c #A37A5A",
"q#	c #9D7A5E",
"r#	c #A58266",
"s#	c #A88160",
"t#	c #AD815A",
"u#	c #A77D57",
"v#	c #B89076",
"w#	c #9E7758",
"x#	c #B4906E",
"y#	c #916D53",
"z#	c #A07D5F",
"A#	c #9D7D57",
"B#	c #A5815F",
"C#	c #AC8866",
"D#	c #B1916B",
"E#	c #A28462",
"F#	c #99714D",
"G#	c #9F7C60",
"H#	c #A58367",
"I#	c #A67C54",
"J#	c #A67C56",
"K#	c #98765A",
"L#	c #B58C70",
"M#	c #A17858",
"N#	c #AF8B67",
"O#	c #8D6A4E",
"P#	c #A3835C",
"Q#	c #AE8C69",
"R#	c #AA8662",
"S#	c #AF8D68",
"T#	c #AD8F6D",
"U#	c #9C7854",
"V#	c #9B7453",
"W#	c #977458",
"X#	c #A8866A",
"Y#	c #A87E56",
"Z#	c #977559",
"`#	c #B18568",
" $	c #A27A56",
".$	c #A67F56",
"+$	c #AB855E",
"@$	c #987452",
"#$	c #937050",
"$$	c #A5855F",
"%$	c #A8885F",
"&$	c #B08E68",
"*$	c #203088",
"=$	c #AB8763",
"-$	c #B5936D",
";$	c #A98561",
">$	c #A47C58",
",$	c #88664A",
"'$	c #A68468",
")$	c #A37F5D",
"!$	c #A57B55",
"~$	c #967458",
"{$	c #B08565",
"]$	c #A57E53",
"^$	c #AB865C",
"/$	c #A17D59",
"($	c #A2805D",
"_$	c #AE8E67",
":$	c #AA8B5F",
"<$	c #AE916F",
"[$	c #B29470",
"}$	c #A4815B",
"|$	c #AB8963",
"1$	c #AC8E6C",
"2$	c #B38B67",
"3$	c #89674B",
"4$	c #9F754D",
"5$	c #AD825F",
"6$	c #A8805C",
"7$	c #A57D59",
"8$	c #B38D68",
"9$	c #A37D59",
"0$	c #A37F5B",
"a$	c #A5835E",
"b$	c #AB8964",
"c$	c #AE8861",
"d$	c #AA8966",
"e$	c #408098",
"f$	c #80D8C8",
"g$	c #A7845C",
"h$	c #A07B4F",
"i$	c #A57F5B",
"j$	c #B28C68",
"k$	c #AE8864",
"l$	c #B18B67",
"m$	c #A9815E",
"n$	c #AF8764",
"o$	c #A47C59",
"p$	c #A27A57",
"q$	c #A47A54",
"r$	c #947354",
"s$	c #A37B57",
"t$	c #A5815D",
"u$	c #A78560",
"v$	c #A88663",
"w$	c #AD8C6B",
"x$	c #B38F6B",
"y$	c #A47E57",
"z$	c #A7815D",
"A$	c #A27C58",
"B$	c #9F7754",
"C$	c #99714E",
"D$	c #A27852",
"E$	c #957455",
"F$	c #A8825E",
"G$	c #B38D69",
"H$	c #A7835F",
"I$	c #AC8864",
"J$	c #7D5E3F",
"K$	c #664728",
"L$	c #755234",
"M$	c #9B7755",
"N$	c #B6906C",
"O$	c #AD8763",
"P$	c #9D7753",
"Q$	c #AA8460",
"R$	c #AE8663",
"S$	c #9C7451",
"T$	c #976F4C",
"U$	c #A27653",
"V$	c #926F53",
"W$	c #765738",
"X$	c #6B4C2F",
"Y$	c #927356",
"Z$	c #805B3E",
"`$	c #6E4A2A",
" %	c #997555",
".%	c #AB8561",
"+%	c #9B7350",
"@%	c #9E724F",
"#%	c #916E52",
"$%	c #987555",
"%%	c #A07C5C",
"&%	c #9C7856",
"*%	c #9E7A56",
"=%	c #A07D57",
"-%	c #8B6A4B",
";%	c #6B4C2D",
">%	c #856649",
",%	c #9C7B5C",
"'%	c #977051",
")%	c #926E4E",
"!%	c #795535",
"~%	c #765232",
"{%	c #966E4B",
"]%	c #976B48",
"^%	c #967355",
"/%	c #9A7757",
"(%	c #9A7855",
"_%	c #9F7B59",
":%	c #9D7A54",
"<%	c #9E7D5E",
"[%	c #917253",
"}%	c #967451",
"|%	c #AD8562",
"1%	c #AC815E",
"2%	c #9D7B5F",
"3%	c #A38263",
"4%	c #9D7C5D",
"5%	c #A4805E",
"6%	c #9C7953",
"7%	c #9A744F",
"8%	c #997251",
"9%	c #9B7858",
"0%	c #9A795A",
"a%	c #987450",
"b%	c #A07A56",
"c%	c #A67E5B",
"d%	c #A37B58",
"e%	c #AC8461",
"f%	c #9E7F63",
"g%	c #8C6D50",
"h%	c #947256",
"i%	c #906F50",
"j%	c #9E7C59",
"k%	c #9E7853",
"l%	c #9B7550",
"m%	c #9A7654",
"n%	c #947153",
"o%	c #916F53",
"p%	c #96744E",
"q%	c #9A7450",
"r%	c #9F7955",
"s%	c #A57D5A",
"t%	c #A07855",
"u%	c #9D7552",
"v%	c #936D49",
"w%	c #97795D",
"x%	c #86684C",
"y%	c #8E7054",
"z%	c #917255",
"A%	c #98795C",
"B%	c #9F7D61",
"C%	c #9E7C60",
"D%	c #A17E60",
"E%	c #9C7A5E",
"F%	c #927054",
"G%	c #906E53",
"H%	c #9D7B60",
"I%	c #967459",
"J%	c #846247",
"K%	c #997658",
"L%	c #987653",
"M%	c #95714D",
"N%	c #97734F",
"O%	c #9E7854",
"P%	c #917357",
"Q%	c #9B7C5F",
"R%	c #A07E62",
"S%	c #A27F61",
"T%	c #A17F63",
"U%	c #A28064",
"V%	c #99775C",
"W%	c #9C7A5F",
"X%	c #916F54",
"Y%	c #947155",
"Z%	c #987559",
"`%	c #957254",
" &	c #997656",
".&	c #9D7B58",
"+&	c #9C7A57",
"@&	c #9B7551",
"#&	c #98704D",
"  . + @ # $ % & * = - = * * = = ; > > , ' ) ! ! ~ { ] ^ / ( _ : < [ ",
"} | 1 2 3 4 5 6 7 8 9 7 0 7 8 8 a a b c b d e e f g h i j k l m n o ",
"p q r s t u s v w x w y z A y z B 9 C 0 7 D 7 7 E F G H I J K L M N ",
"O P Q R S T U V W X Y Z `  .Z ..J +.@.+.+.#.$.#.%.&.*.=.-.-.;.>.< ,.",
"'.).!.~.{.].^.)./.(./._.:.<.(.:.[.[.[.[.[.}.|.1.2.3.4.5.6.5.6.7.8.9.",
"0.a.b.c.d.e.f.g.h.i.j.k.i.i.[.[.l.l.m.l.l.[.n.o.p.q.r.s.t.u.v.w.n n ",
"x.y.z.A.B.C.D.E.F.G.H.I.J.[.l.l.K.L.m.M.K.[.N.O.P.Q.R.S.T.U.V.W.o ,.",
"X.Y.Z.`. +.+++@+Y.#+$+Y.[.l.K.K.%+%+%+%+%+%+%+&+*+=+-+;+>+,+'+)+o !+",
"~+{+]+;+^+/+(+_+:+<+[+[.l.K.%+%+%+%+%+%+%+%+%+%+}+[+|+1+*+.+8 2+3+4+",
"5+6+7+8+9+0+a+b+c+/+[.K.K.%+%+%+%+%+%+%+%+%+%+%+d+e+f+g+h+i+j+k+l+3+",
"m+i+n+o+p+q+r+s+t+u+[.K.K.%+%+v+M.M.v+M.M.%+%+w+x+y+z+A+B+C+D+~+E+F+",
"G+H+I+J+K+L+M+N+O+P+v+Q+%+%+v+v+M.%+Q+%+M.R+S+T+U+V+W+X+Y+Z+`+ @.@+@",
"@@#@$@D.%@&@*@q+=@v+-@Q+%+%+v+Q+M.%+Q+%+M.Q+-@;@>@,@'@)@!@~@{@9+]@+@",
"^@/@(@_@:@<@[@}@|@v+-@v+%+%+%+Q+Q+v+v+Q+Q+Q+-@1@2@3@4@5@6@C+7@8@9@0@",
"a@b@c@d@e@]+f@g@h@i@v+v+v+%+Q+Q+%+-@v+v+v+v+-@j@k@l@m@n@o@]+p@q@r@s@",
"t@u@v@w@&+x@y@z@A@B@%+%+v+v+v+%+%+%+%+%+%+%+%+%+C@D@E@F@G@H@I@J@K@L@",
"M@8@N@O@P@Q@;+R@S@T@U@%+%+v+v+Q+Q+%+%+%+%+%+%+V@W@X@b Y@Z@`@ #.#+#@#",
"##$#O@%#U.&#*#S@=#-#;#>#%+-@v+v+v+v+v+v+v+-@,#'#)#x@c !#~#{#{+]#+#@#",
"^#/#(#d@_#:#@+<#[#}#|#1#D.[.K.K.[.[.-@-@-@2#3#4#5#X@6#7#8#9#0#a#b#c#",
"d#k e#;+f#g#h#i#j#]+k#l#[.l.l.[.K.-@M.M.M.-@m#n#W@&+o#p#q#r#s#t#u#c#",
"v#w#j#x#f#y#z#A#B#C#C#[.K.l.l.l.-@M.M.M.M.M.-@D#E#* F#7#G#H#s#I#J#K#",
"L#M#I@N#+@O#|#P#/@Q#R#[.K.K.l.l.-@M.M.M.M.M.-@S#T#U#F#V#W#X#B.Y#J#Z#",
"`# $.$+$@$#$$$%$u+m#&$*$[.K.K.l.K.-@M.M.M.-@=$-$#@;$>$! ,$'$)$I#!$~$",
"{$!$]$^$/$($_$:$<$[$U+*$*$[.K.K.[.[.-@-@-@M.}$|$1$<#2$H@3$'$6+4$!$~$",
"5$6$7$8$9$0$a$b$c$R#d$*$e$*$[.[.[.f$f$f$e$*$g$h$i$j$k$l$m$n$o$p$q$r$",
" $s$s$l$/$0$t$u$;$v$w$*$e$e$e$f$f$f$f$f$e$*$x$y$x@z$A$k$n$`.B$C$D$E$",
"9$F$F$G$H$;$=$I$^+(@J$K$*$e$e$e$f$f$*$e$*$L$M$N$O$z$P$Q$R$n$S$T$U$V$",
"s#C#B.=$0$t$H$H$1#W$X$Y$*$e$e$e$e$e$*$e$*$Z$`$ %k$.%9$>+m$ ++%+%@%#%",
"$%%%M$&%&+*%e#=%-%;%>%S.,%*$*$*$*$*$*$*$'%)%!%~%x@Q$F$X@p$B$T${%]%o ",
"^%Q@/%(%_%e#=%:%/%P@<%[%}@-@-@-@-@-@%+-@%+j ]+}%P$X@z$i$m$Z.n$|%1%2%",
"2%3%4%C.5%/$6%7%9$8%9%0%E$%+-@-@-@-@m.%+m.%+a%i#b%x@A$P$p$ +c%d%e%f%",
"g%h%i%#$j%*%k%l%D$S$m%n%o%%+%+%+%+%+%+%+%+%+:%p%q%b%A$r%s%o$t%u%v%w%",
"x%y%z%A%B%C%D%D%2%E%2%F%G%H%I%J%W#&#L@K%P@9%e@L%M%N%9$O%P$i$t%S$n%n%",
"P%w%A%Q%R%B%S%S%R%T%X#U%V%W%V%X%Y%Z%n%`% &9%.&+&M%a%9$@&& q%#&T$L@L@"};
