/* XPM */
static char * exit_up_xpm[] = {
"34 34 343 2",
"  	c #C0D470",
". 	c #BFD370",
"+ 	c #8D996E",
"@ 	c #81867E",
"# 	c #81867D",
"$ 	c #80867D",
"% 	c #7F857C",
"& 	c #7A8078",
"* 	c #9EAC69",
"= 	c #BED26F",
"- 	c #6E746B",
"; 	c #7C7F76",
"> 	c #7E8177",
", 	c #7F8278",
"' 	c #6E726A",
") 	c #6B7068",
"! 	c #7D895D",
"~ 	c #818C63",
"{ 	c #885818",
"] 	c #500000",
"^ 	c #686C65",
"/ 	c #9EAF63",
"( 	c #BBCE6E",
"_ 	c #B9CC6D",
": 	c #B02860",
"< 	c #A4B46A",
"[ 	c #B9CD6E",
"} 	c #B4C66B",
"| 	c #7A826D",
"1 	c #8A9563",
"2 	c #B7CB6B",
"3 	c #8D996B",
"4 	c #F84070",
"5 	c #797F73",
"6 	c #92A063",
"7 	c #A9B96C",
"8 	c #7F8577",
"9 	c #A3B36B",
"0 	c #B5C86C",
"a 	c #818874",
"b 	c #787C72",
"c 	c #71766E",
"d 	c #6C7265",
"e 	c #676B64",
"f 	c #84897D",
"g 	c #86897E",
"h 	c #7D8175",
"i 	c #A1B166",
"j 	c #7F8A62",
"k 	c #747970",
"l 	c #767B71",
"m 	c #777B71",
"n 	c #72776E",
"o 	c #70756D",
"p 	c #84877C",
"q 	c #83877C",
"r 	c #707566",
"s 	c #B6C86B",
"t 	c #6B715F",
"u 	c #777C72",
"v 	c #74786E",
"w 	c #787D74",
"x 	c #84877D",
"y 	c #818378",
"z 	c #73776F",
"A 	c #A0B064",
"B 	c #A2B267",
"C 	c #737870",
"D 	c #646861",
"E 	c #72776D",
"F 	c #696C63",
"G 	c #71795D",
"H 	c #70746C",
"I 	c #6D7069",
"J 	c #73776E",
"K 	c #808A5F",
"L 	c #BDD16E",
"M 	c #B6C96B",
"N 	c #767B70",
"O 	c #787C71",
"P 	c #6B6F68",
"Q 	c #565852",
"R 	c #000000",
"S 	c #60694A",
"T 	c #767B73",
"U 	c #81857B",
"V 	c #7A7E73",
"W 	c #9BAB63",
"X 	c #88955B",
"Y 	c #767A6F",
"Z 	c #777A6F",
"` 	c #F8D0C0",
" .	c #7B8267",
"..	c #7F8378",
"+.	c #7C7F74",
"@.	c #6F775C",
"#.	c #BCCF6E",
"$.	c #BCD06E",
"%.	c #80886F",
"&.	c #666B63",
"*.	c #6F7369",
"=.	c #746A5B",
"-.	c #F87068",
";.	c #A0B163",
">.	c #6B6F66",
",.	c #AEC069",
"'.	c #B0C26D",
").	c #75786D",
"!.	c #70756B",
"~.	c #9A6A3D",
"{.	c #B66E3E",
"].	c #B8CB6B",
"^.	c #717A5D",
"/.	c #777A70",
"(.	c #929F65",
"_.	c #9FAF64",
":.	c #76796E",
"<.	c #72766C",
"[.	c #65685F",
"}.	c #A06636",
"|.	c #BB7240",
"1.	c #BB7C3F",
"2.	c #859160",
"3.	c #72766B",
"4.	c #74776C",
"5.	c #838D63",
"6.	c #BACD6D",
"7.	c #A4B369",
"8.	c #8F9975",
"9.	c #7F837B",
"0.	c #7D827A",
"a.	c #514C44",
"b.	c #A16536",
"c.	c #AA663A",
"d.	c #B4783D",
"e.	c #B46C3D",
"f.	c #9CAC5E",
"g.	c #6F746C",
"h.	c #72756E",
"i.	c #AEBD79",
"j.	c #A4B569",
"k.	c #AFC268",
"l.	c #70736B",
"m.	c #767A72",
"n.	c #6C7068",
"o.	c #757A71",
"p.	c #584C40",
"q.	c #A06436",
"r.	c #AF693C",
"s.	c #B97A3E",
"t.	c #A7B864",
"u.	c #71766D",
"v.	c #7B7F76",
"w.	c #81847B",
"x.	c #76796F",
"y.	c #5F6456",
"z.	c #7A7E75",
"A.	c #81847A",
"B.	c #74766C",
"C.	c #594C40",
"D.	c #203088",
"E.	c #ABBD66",
"F.	c #7A7F77",
"G.	c #7E8178",
"H.	c #7B7E73",
"I.	c #777B72",
"J.	c #787B71",
"K.	c #787B72",
"L.	c #584A3E",
"M.	c #A26636",
"N.	c #408098",
"O.	c #75796F",
"P.	c #5C6254",
"Q.	c #B0C268",
"R.	c #5F645E",
"S.	c #60645E",
"T.	c #61655F",
"U.	c #686D65",
"V.	c #55473C",
"W.	c #A06435",
"X.	c #80D8C8",
"Y.	c #6E726B",
"Z.	c #676B63",
"`.	c #656A62",
" +	c #5D605B",
".+	c #545A4C",
"++	c #B9CD6D",
"@+	c #9AAA5F",
"#+	c #747F55",
"$+	c #757A73",
"%+	c #72766E",
"&+	c #53453A",
"*+	c #9F6334",
"=+	c #BE7440",
"-+	c #686B65",
";+	c #787D75",
">+	c #595E53",
",+	c #9BAB60",
"'+	c #9DAD60",
")+	c #8E9B61",
"!+	c #878B83",
"~+	c #7F8176",
"{+	c #564B40",
"]+	c #9E6234",
"^+	c #BD7340",
"/+	c #B0703A",
"(+	c #82877E",
"_+	c #73786F",
":+	c #626759",
"<+	c #8B985D",
"[+	c #7F8074",
"}+	c #9E6334",
"|+	c #BD7240",
"1+	c #B2723B",
"2+	c #656A5B",
"3+	c #8C995E",
"4+	c #74766B",
"5+	c #72756A",
"6+	c #55483D",
"7+	c #9F6335",
"8+	c #B7763D",
"9+	c #616660",
"0+	c #5D6255",
"a+	c #BDD16F",
"b+	c #AFC168",
"c+	c #7E8A56",
"d+	c #5A5E58",
"e+	c #525652",
"f+	c #4D3F36",
"g+	c #BB723F",
"h+	c #B2733B",
"i+	c #5A5E59",
"j+	c #595E59",
"k+	c #565B50",
"l+	c #B0C269",
"m+	c #B1C36A",
"n+	c #73766E",
"o+	c #848980",
"p+	c #898D84",
"q+	c #574D43",
"r+	c #BA713F",
"s+	c #B6763C",
"t+	c #A9663B",
"u+	c #7C8179",
"v+	c #7D8279",
"w+	c #797E75",
"x+	c #797C73",
"y+	c #5D6356",
"z+	c #7A7E72",
"A+	c #7C7F75",
"B+	c #53473D",
"C+	c #B9703E",
"D+	c #AC6C38",
"E+	c #9A5934",
"F+	c #D0DE76",
"G+	c #B9C66B",
"H+	c #767A73",
"I+	c #696C64",
"J+	c #808379",
"K+	c #808378",
"L+	c #7D8177",
"M+	c #6E7369",
"N+	c #51483E",
"O+	c #9D6134",
"P+	c #AB6439",
"Q+	c #A96D38",
"R+	c #8E4F2F",
"S+	c #935B35",
"T+	c #D2E077",
"U+	c #BBC76C",
"V+	c #83887F",
"W+	c #7A7C71",
"X+	c #7E8074",
"Y+	c #5F6557",
"Z+	c #777A71",
"`+	c #7B7E72",
" @	c #797C72",
".@	c #6C7067",
"+@	c #54463B",
"@@	c #985E31",
"#@	c #995830",
"$@	c #985C32",
"%@	c #773F27",
"&@	c #BBC86C",
"*@	c #7A7E76",
"=@	c #7D8075",
"-@	c #7F8277",
";@	c #74786F",
">@	c #5B6254",
",@	c #B0C369",
"'@	c #5B6056",
")@	c #5E6259",
"!@	c #565B56",
"~@	c #575B56",
"{@	c #4D4137",
"]@	c #925A2F",
"^@	c #8C4E2B",
"/@	c #874C2C",
"(@	c #505550",
"_@	c #5B5F5A",
":@	c #595D58",
"<@	c #515945",
"[@	c #7B8078",
"}@	c #544A3F",
"|@	c #925B2F",
"1@	c #7D4227",
"2@	c #7B4327",
"3@	c #7C8077",
"4@	c #676C5D",
"5@	c #554B40",
"6@	c #8A562C",
"7@	c #753D25",
"8@	c #784F2D",
"9@	c #ADB861",
"0@	c #C1D570",
"a@	c #CADB74",
"b@	c #767A70",
"c@	c #646A5B",
"d@	c #8D9B60",
"e@	c #53493F",
"f@	c #84522B",
"g@	c #7F502F",
"h@	c #AEB45F",
"i@	c #C6D872",
"j@	c #CBDB74",
"k@	c #B5C36A",
"l@	c #6C7163",
"m@	c #6B6F67",
"n@	c #646761",
"o@	c #51483C",
"p@	c #8C6535",
"q@	c #AEB862",
"r@	c #6E7265",
"s@	c #98A75F",
"t@	c #758156",
"u@	c #778155",
"v@	c #A4B062",
"w@	c #CEDD75",
"x@	c #C2D571",
"y@	c #B0C368",
"z@	c #737F53",
"A@	c #768156",
"B@	c #798556",
"                          . + @ # $ % & *                           ",
"                          = - ; > , ' ) !                           ",
"                          . ~ { ] ] ] ^ /                           ",
"                ( =     _ ] ] : : : : ] ] < _     [                 ",
"              } | 1 2 3 ] : 4 4 4 4 4 4 : ] 5 6 7 8 9               ",
"            0 a b c d ] : 4 4 4 4 4 4 4 4 : ] e f g h i             ",
"          . j k l m n ] : 4 4 4 4 4 4 4 4 : ] o p q q r             ",
"            s t u v w ] : 4 4 4 4 4 4 4 4 : ] x y , z A             ",
"            B C D E F ] : 4 4 4 4 4 4 4 4 : ] G H I J K L           ",
"          M N O P Q { R ] : 4 4 4 4 4 4 : ] R { S T U V W           ",
"          X Y V Z { ` R ] ] : : : : : : ] ] R ` {  ...+.@.#.        ",
"        $.%.&.*.=.{ -.R R R ] ] ] ] ] ] R R R -.{ ;.>.&.D ,.        ",
"        '.).Y !.~.{.{ R R R R R R R R R R R R {   ].^./.).(.        ",
"        _.:.<.[.}.|.1.{ ` R R R R R R R R ` {     . 2.3.4.5.        ",
"    6.7.8.9.0.a.b.c.d.e.{ ` R R R R R R ` {         f.g.h.N i.j.    ",
"    k.l.m.n.o.p.q.r.s.{ { { -.R R R R -.{ { {       t.u.v.w.x.y.    ",
"    k.0.z.A.B.C.b.{.{ ] 4 4 D.D.4 4 D.D.4 4 ] {     E.F.b G.H.y.    ",
"    k.l.I.J.K.L.M.{ ] 4 4 : N.N.N.N.N.N.4 4 4 ] {   E.# b z.O.P.    ",
"    Q.R.S.T.U.V.W.{ ] 4 : : N.X.X.X.X.N.: : 4 ] {   E.Y.Z.`. +.+    ",
"    ++@+#+$+%+&+*+=+] : : N.X.X.D.D.X.X.N.: : {     E.-+;+>+,+'+    ",
"        )+!+~+{+]+^+/+D.N.X.X.X.X.X.X.X.X.N.D.      E.(+_+:+        ",
"        <+Z [+{+}+|+1+D.N.N.N.N.X.X.N.N.N.N.D.      E.F.H 2+        ",
"        3+4+5+6+7+=+8+D.N.X.X.N.X.X.N.X.X.N.D.      E.H 9+0+        ",
"    a+b+c+d+e+f+}+g+h+D.N.X.X.N.X.X.N.X.X.N.D.      E.i+j+k+l+m+    ",
"    k.n+o+p+# q+}+r+s+t+D.N.N.N.N.X.N.N.N.D.        E.u+v+w+x+y+    ",
"    k.m.z+A+:.B+]+C+D+E+D.N.N.N.D.D.N.N.N.D.F+F+F+F+G+H+I+J+K+y.    ",
"    k.v+L++.M+N+O+P+Q+R+S+D.D.D.D.D.D.D.D.T+T+T+T+T+U+V+W+X+W+Y+    ",
"    k.Z+`+ @.@+@@@#@$@%@R { { { R R { { { R T+T+T+T+&@*@=@-@;@>@    ",
"    ,@'@)@!@~@{@]@^@/@R { { { { R R { { { { R T+T+T+&@(@_@:@k+<@    ",
"        3+[@G.}@|@1@2@R R R R R T+T+R R R R R T+T+T+&@3@# 4@        ",
"        3+O.x.5@6@7@8@9@      0@a@T+T+T+T+T+T+T+T+T+U+% b@c@        ",
"        d@I.<.e@f@g@h@          i@j@j@j@j@j@j@j@j@j@k@J k l@        ",
"        3+m@n@o@p@q@                                E.m@z.r@        ",
"        s@t@u@v@w@w@w@w@w@x@                        y@z@A@B@        "};
