/* XPM */
static char * exit_up_xpm[] = {
"34 34 625 2",
"  	c #836549",
". 	c #86674A",
"+ 	c #896646",
"@ 	c #8B6541",
"# 	c #916945",
"$ 	c #936B47",
"% 	c #926A47",
"& 	c #946E4A",
"* 	c #926E4A",
"= 	c #936F4B",
"- 	c #94704C",
"; 	c #946D4C",
"> 	c #906948",
", 	c #8D6645",
"' 	c #916A49",
") 	c #987150",
"! 	c #966F4E",
"~ 	c #906747",
"{ 	c #8F6648",
"] 	c #8C6546",
"^ 	c #8E694C",
"/ 	c #927152",
"( 	c #8B6C4F",
"_ 	c #7E6143",
": 	c #77593D",
"< 	c #836044",
"[ 	c #8E6B4F",
"} 	c #86624A",
"| 	c #896449",
"1 	c #8C6347",
"2 	c #906545",
"3 	c #986B4A",
"4 	c #9C6F4E",
"5 	c #A07354",
"6 	c #A57A5A",
"7 	c #A27452",
"8 	c #A17351",
"9 	c #A07250",
"0 	c #A37553",
"a 	c #A07552",
"b 	c #A37855",
"c 	c #A27754",
"d 	c #A87D5A",
"e 	c #A57A57",
"f 	c #A87B5A",
"g 	c #A67958",
"h 	c #A07553",
"i 	c #9E7555",
"j 	c #A17A59",
"k 	c #9B7757",
"l 	c #906D4D",
"m 	c #886547",
"n 	c #846145",
"o 	c #8F6C50",
"p 	c #8A614B",
"q 	c #8A6048",
"r 	c #8C5E46",
"s 	c #916246",
"t 	c #986749",
"u 	c #956446",
"v 	c #926349",
"w 	c #9C6745",
"x 	c #9B6644",
"y 	c #9E6947",
"z 	c #A06B49",
"A 	c #9F6A48",
"B 	c #885818",
"C 	c #500000",
"D 	c #A57755",
"E 	c #A47654",
"F 	c #A27453",
"G 	c #9A6D4C",
"H 	c #946947",
"I 	c #966B4B",
"J 	c #956C4C",
"K 	c #8F6847",
"L 	c #896241",
"M 	c #805D41",
"N 	c #8A674B",
"O 	c #89634C",
"P 	c #845C43",
"Q 	c #7E543B",
"R 	c #85593E",
"S 	c #8D6043",
"T 	c #8F6147",
"U 	c #93674C",
"V 	c #946A51",
"W 	c #916445",
"X 	c #936647",
"Y 	c #956849",
"Z 	c #976A4B",
"` 	c #996C4D",
" .	c #B02860",
"..	c #9C7353",
"+.	c #9B7252",
"@.	c #966D4F",
"#.	c #986F51",
"$.	c #976E50",
"%.	c #936C4F",
"&.	c #926B4E",
"*.	c #8B6447",
"=.	c #825B3E",
"-.	c #8B684C",
";.	c #795940",
">.	c #78563B",
",.	c #745135",
"'.	c #795437",
").	c #775333",
"!.	c #724D30",
"~.	c #775438",
"{.	c #745539",
"].	c #75563A",
"^.	c #76573B",
"/.	c #F84070",
"(.	c #846046",
"_.	c #835F45",
":.	c #7F5F46",
"<.	c #806047",
"[.	c #7E5E45",
"}.	c #7A583F",
"|.	c #78563D",
"1.	c #735138",
"2.	c #7B583C",
"3.	c #7F5C40",
"4.	c #8E7153",
"5.	c #96795B",
"6.	c #9A7958",
"7.	c #977655",
"8.	c #81603F",
"9.	c #68492A",
"0.	c #65482A",
"a.	c #634628",
"b.	c #654D33",
"c.	c #644C32",
"d.	c #5E462C",
"e.	c #5C3E24",
"f.	c #573D26",
"g.	c #5A4027",
"h.	c #61452D",
"i.	c #664830",
"j.	c #6C4E34",
"k.	c #78583F",
"l.	c #836148",
"m.	c #846249",
"n.	c #A28162",
"o.	c #AF8E6D",
"p.	c #B59370",
"q.	c #B79371",
"r.	c #A88462",
"s.	c #9D7A5A",
"t.	c #A78869",
"u.	c #AC8D70",
"v.	c #A6896B",
"w.	c #AA8D6F",
"x.	c #A48769",
"y.	c #937253",
"z.	c #92775A",
"A.	c #987D60",
"B.	c #A28468",
"C.	c #A6876A",
"D.	c #A18061",
"E.	c #9A7759",
"F.	c #946F52",
"G.	c #8D6949",
"H.	c #9E7A5A",
"I.	c #AC8564",
"J.	c #B08865",
"K.	c #B28A67",
"L.	c #A77F5C",
"M.	c #A07958",
"N.	c #AD8969",
"O.	c #AE8B6D",
"P.	c #B7906F",
"Q.	c #B58E6D",
"R.	c #9A7652",
"S.	c #A48664",
"T.	c #A78967",
"U.	c #AF8E6B",
"V.	c #B08E6B",
"W.	c #A9835F",
"X.	c #A07854",
"Y.	c #9B704D",
"Z.	c #956A47",
"`.	c #89664A",
" +	c #A57E5D",
".+	c #AA8362",
"++	c #A17D5B",
"@+	c #AA8968",
"#+	c #A58765",
"$+	c #AA8D6B",
"%+	c #A48765",
"&+	c #A78B64",
"*+	c #AE906C",
"=+	c #B49372",
"-+	c #A78665",
";+	c #AA8664",
">+	c #A98C6A",
",+	c #AD9070",
"'+	c #A16C4A",
")+	c #977053",
"!+	c #90694C",
"~+	c #AD8967",
"{+	c #A27E5C",
"]+	c #B08D6D",
"^+	c #AE8D6C",
"/+	c #9D7F5D",
"(+	c #A28364",
"_+	c #B79A7A",
":+	c #AB8E6E",
"<+	c #AF936E",
"[+	c #000000",
"}+	c #BB9773",
"|+	c #B49370",
"1+	c #B19472",
"2+	c #A78A6A",
"3+	c #9E805E",
"4+	c #AC8969",
"5+	c #AA7F5D",
"6+	c #A87A59",
"7+	c #9F785B",
"8+	c #AE8B6B",
"9+	c #AF8E6F",
"0+	c #AF9071",
"a+	c #937455",
"b+	c #7A5D3F",
"c+	c #9E8365",
"d+	c #AF9476",
"e+	c #A88B69",
"f+	c #F8D0C0",
"g+	c #AC8C66",
"h+	c #A58964",
"i+	c #AD9372",
"j+	c #A98C6C",
"k+	c #A58667",
"l+	c #A37F5F",
"m+	c #9F7A5D",
"n+	c #967154",
"o+	c #B69576",
"p+	c #B08F70",
"q+	c #AA8B6C",
"r+	c #B19273",
"s+	c #987B5D",
"t+	c #7C5F41",
"u+	c #806345",
"v+	c #9F8466",
"w+	c #AC9173",
"x+	c #F87068",
"y+	c #A1815B",
"z+	c #B39772",
"A+	c #AC9271",
"B+	c #856B4A",
"C+	c #977A5A",
"D+	c #A68768",
"E+	c #9B7A59",
"F+	c #A17C5F",
"G+	c #977255",
"H+	c #B69876",
"I+	c #A18361",
"J+	c #9C7D5E",
"K+	c #9F8061",
"L+	c #9D7E61",
"M+	c #8D7052",
"N+	c #9F8467",
"O+	c #AC8F71",
"P+	c #AA8A64",
"Q+	c #B99B77",
"R+	c #A38664",
"S+	c #7F6242",
"T+	c #795C3E",
"U+	c #A08363",
"V+	c #AC8F6F",
"W+	c #A37E61",
"X+	c #BB9A77",
"Y+	c #A98865",
"Z+	c #A88766",
"`+	c #AB8A69",
" @	c #A68564",
".@	c #A98869",
"+@	c #B39273",
"@@	c #8F6E4F",
"#@	c #795D45",
"$@	c #937559",
"%@	c #A98867",
"&@	c #B18F69",
"*@	c #AF9270",
"=@	c #A38666",
"-@	c #745538",
";@	c #7C5D40",
">@	c #9A7B5E",
",@	c #AB8A67",
"'@	c #A98963",
")@	c #A58063",
"!@	c #997457",
"~@	c #BB9974",
"{@	c #A6845F",
"]@	c #B5936E",
"^@	c #AC8A67",
"/@	c #9B7956",
"(@	c #B38F6D",
"_@	c #B38F6F",
":@	c #846852",
"<@	c #72543A",
"[@	c #977957",
"}@	c #AA8863",
"|@	c #AD8B66",
"1@	c #AF8D6A",
"2@	c #977C5F",
"3@	c #6B5033",
"4@	c #806145",
"5@	c #A7856A",
"6@	c #9D7A5C",
"7@	c #A98660",
"8@	c #AC8961",
"9@	c #A98668",
"0@	c #9B785A",
"a@	c #BC9A74",
"b@	c #A7855F",
"c@	c #AB8862",
"d@	c #B4906C",
"e@	c #A47E5A",
"f@	c #B89170",
"g@	c #B48D6C",
"h@	c #AE927C",
"i@	c #7D5F45",
"j@	c #725432",
"k@	c #5E462A",
"l@	c #8A6F54",
"m@	c #A28269",
"n@	c #9E7A60",
"o@	c #9A7558",
"p@	c #A98261",
"q@	c #A68059",
"r@	c #A68157",
"s@	c #A68365",
"t@	c #987557",
"u@	c #AE8D6E",
"v@	c #AC8C63",
"w@	c #AA8A63",
"x@	c #9C7959",
"y@	c #9E7B5D",
"z@	c #AE8D64",
"A@	c #B6946E",
"B@	c #9D7F5B",
"C@	c #203088",
"D@	c #8C6B4A",
"E@	c #A6805C",
"F@	c #A47959",
"G@	c #946F54",
"H@	c #AB886C",
"I@	c #AC8363",
"J@	c #AE825B",
"K@	c #A97F59",
"L@	c #9A785C",
"M@	c #B49374",
"N@	c #A88764",
"O@	c #AC8A65",
"P@	c #9C795D",
"Q@	c #B39070",
"R@	c #B89670",
"S@	c #408098",
"T@	c #A87D5D",
"U@	c #967156",
"V@	c #A78468",
"W@	c #A57952",
"X@	c #B79478",
"Y@	c #A17E5E",
"Z@	c #A3815B",
"`@	c #9A775B",
" #	c #98745A",
".#	c #B18F6A",
"+#	c #B7936F",
"@#	c #80D8C8",
"##	c #AA7F5C",
"$#	c #A57C5C",
"%#	c #9B765B",
"&#	c #A88569",
"*#	c #AB8463",
"=#	c #AB7F58",
"-#	c #A87E58",
";#	c #99775B",
">#	c #B79278",
",#	c #A07C58",
"'#	c #9E7B5F",
")#	c #957157",
"!#	c #A58264",
"~#	c #A3815C",
"{#	c #A27E5A",
"]#	c #A77C59",
"^#	c #A37A5A",
"/#	c #9D7A5E",
"(#	c #A58266",
"_#	c #A88160",
":#	c #AD815A",
"<#	c #A77D57",
"[#	c #B89076",
"}#	c #9E7758",
"|#	c #B4906E",
"1#	c #916D53",
"2#	c #A07D5F",
"3#	c #9D7D57",
"4#	c #A5815F",
"5#	c #AC8866",
"6#	c #B1916B",
"7#	c #A28462",
"8#	c #99714D",
"9#	c #9F7C60",
"0#	c #A58367",
"a#	c #A67C54",
"b#	c #A67C56",
"c#	c #98765A",
"d#	c #B58C70",
"e#	c #A17858",
"f#	c #AF8B67",
"g#	c #8D6A4E",
"h#	c #9F7E5D",
"i#	c #A3835C",
"j#	c #AE8C69",
"k#	c #AA8662",
"l#	c #AF8D68",
"m#	c #AD8F6D",
"n#	c #9C7854",
"o#	c #9B7453",
"p#	c #977458",
"q#	c #A8866A",
"r#	c #A87E56",
"s#	c #977559",
"t#	c #B18568",
"u#	c #A27A56",
"v#	c #A67F56",
"w#	c #AB855E",
"x#	c #987452",
"y#	c #937050",
"z#	c #A5855F",
"A#	c #A8885F",
"B#	c #AE906E",
"C#	c #B59471",
"D#	c #B08E68",
"E#	c #B5936D",
"F#	c #A98561",
"G#	c #A47C58",
"H#	c #88664A",
"I#	c #A68468",
"J#	c #A37F5D",
"K#	c #A57B55",
"L#	c #967458",
"M#	c #B08565",
"N#	c #A57E53",
"O#	c #AB865C",
"P#	c #A17D59",
"Q#	c #A2805D",
"R#	c #AE8E67",
"S#	c #AA8B5F",
"T#	c #AE916F",
"U#	c #B29470",
"V#	c #AE8C66",
"W#	c #AB8963",
"X#	c #AC8E6C",
"Y#	c #B38B67",
"Z#	c #89674B",
"`#	c #9F754D",
" $	c #AD825F",
".$	c #A8805C",
"+$	c #A57D59",
"@$	c #B38D68",
"#$	c #A37D59",
"$$	c #A37F5B",
"%$	c #A5835E",
"&$	c #AB8964",
"*$	c #AE8861",
"=$	c #AA8966",
"-$	c #A7845C",
";$	c #A07B4F",
">$	c #A57F5B",
",$	c #B28C68",
"'$	c #AE8864",
")$	c #B18B67",
"!$	c #A9815E",
"~$	c #AF8764",
"{$	c #A47C59",
"]$	c #A27A57",
"^$	c #A47A54",
"/$	c #947354",
"($	c #A37B57",
"_$	c #A5815D",
":$	c #A78560",
"<$	c #A88663",
"[$	c #AD8C6B",
"}$	c #907152",
"|$	c #B38F6B",
"1$	c #A47E57",
"2$	c #A7815D",
"3$	c #A27C58",
"4$	c #9F7754",
"5$	c #99714E",
"6$	c #A27852",
"7$	c #957455",
"8$	c #A8825E",
"9$	c #B38D69",
"0$	c #A7835F",
"a$	c #AB8763",
"b$	c #AC8864",
"c$	c #7D5E3F",
"d$	c #664728",
"e$	c #8B6C4D",
"f$	c #755234",
"g$	c #9B7755",
"h$	c #B6906C",
"i$	c #AD8763",
"j$	c #9D7753",
"k$	c #AA8460",
"l$	c #AE8663",
"m$	c #9C7451",
"n$	c #976F4C",
"o$	c #A27653",
"p$	c #926F53",
"q$	c #9D7E5F",
"r$	c #765738",
"s$	c #6B4C2F",
"t$	c #927356",
"u$	c #6E4A2A",
"v$	c #997555",
"w$	c #AB8561",
"x$	c #9B7350",
"y$	c #9E724F",
"z$	c #916E52",
"A$	c #987555",
"B$	c #A07C5C",
"C$	c #9C7856",
"D$	c #9E7A56",
"E$	c #A07D57",
"F$	c #8B6A4B",
"G$	c #6B4C2D",
"H$	c #856649",
"I$	c #765232",
"J$	c #966E4B",
"K$	c #976B48",
"L$	c #967355",
"M$	c #9A7757",
"N$	c #9A7855",
"O$	c #9F7B59",
"P$	c #9D7A54",
"Q$	c #9E7D5E",
"R$	c #997752",
"S$	c #967451",
"T$	c #AD8562",
"U$	c #AC815E",
"V$	c #9D7B5F",
"W$	c #A38263",
"X$	c #9D7C5D",
"Y$	c #A4805E",
"Z$	c #9C7953",
"`$	c #9A744F",
" %	c #997251",
".%	c #9B7858",
"+%	c #9A795A",
"@%	c #987758",
"#%	c #967353",
"$%	c #9E7B5B",
"%%	c #9F7656",
"&%	c #9D7250",
"*%	c #A47956",
"=%	c #987450",
"-%	c #A07A56",
";%	c #A67E5B",
">%	c #A37B58",
",%	c #AC8461",
"'%	c #9E7F63",
")%	c #8C6D50",
"!%	c #947256",
"~%	c #906F50",
"{%	c #9E7C59",
"]%	c #9E7853",
"^%	c #9B7550",
"/%	c #9A7654",
"(%	c #947153",
"_%	c #916F53",
":%	c #9B795D",
"<%	c #8A694A",
"[%	c #926F51",
"}%	c #9A7656",
"|%	c #A27755",
"1%	c #9D764F",
"2%	c #96744E",
"3%	c #9A7450",
"4%	c #9F7955",
"5%	c #A57D5A",
"6%	c #A07855",
"7%	c #9D7552",
"8%	c #936D49",
"9%	c #97795D",
"0%	c #86684C",
"a%	c #8E7054",
"b%	c #917255",
"c%	c #98795C",
"d%	c #9F7D61",
"e%	c #9E7C60",
"f%	c #A17E60",
"g%	c #9C7A5E",
"h%	c #927054",
"i%	c #906E53",
"j%	c #9D7B60",
"k%	c #967459",
"l%	c #846247",
"m%	c #997658",
"n%	c #987653",
"o%	c #95714D",
"p%	c #97734F",
"q%	c #9E7854",
"r%	c #917357",
"s%	c #9B7C5F",
"t%	c #A07E62",
"u%	c #A27F61",
"v%	c #A17F63",
"w%	c #A28064",
"x%	c #99775C",
"y%	c #9C7A5F",
"z%	c #916F54",
"A%	c #947155",
"B%	c #987559",
"C%	c #957254",
"D%	c #997656",
"E%	c #9D7B58",
"F%	c #9C7A57",
"G%	c #9B7551",
"H%	c #98704D",
"  . + @ # $ % & * = - = * * = = ; > > , ' ) ! ! ~ { ] ^ / ( _ : < [ ",
"} | 1 2 3 4 5 6 7 8 9 7 0 7 8 8 a a b c b d e e f g h i j k l m n o ",
"p q r s t u s v w x w y z A y B C C C 0 7 D 7 7 E F G H I J K L M N ",
"O P Q R S T U V W X Y Z ` C C  . . . .C C ..+...@.#.$.%.&.&.*.=.< -.",
";.>.,.'.).!.~.>.{.].{.^.C  ././././././. .C (._.:.<.[.}.|.}.|.1.2.3.",
"4.5.6.7.8.9.0.a.b.c.d.C  ././././././././. .C e.f.g.h.i.j.k.l.m.n n ",
"n.o.p.q.r.s.t.u.v.w.x.C  ././././././././. .C y.z.A.B.C.D.E.F.G.o -.",
"H.I.J.K.L.M.N.O.I.P.Q.C  ././././././././. .C R.S.T.U.V.W.X.Y.Z.o `.",
" +.+++V.@+#+$+%+&+*+=+C  ././././././././. .C -+;+=+>+,+S.M.8 '+)+!+",
"~+{+]+^+/+(+_+:+<+#+B [+C  ././././././. .C [+B }+|+1+2+3+4+5+6+7+)+",
"8+4+9+0+a+b+c+d+e+B f+[+C C  . . . . . .C C [+f+B g+h+i+j+k+l+ +m+n+",
"o+p+q+r+s+t+u+v+w+B x+[+[+[+C C C C C C [+[+[+x+B y+z+A+B+C+D+E+F+G+",
"H+I+J+t.K+L+M+b+N+O+B [+[+[+[+[+[+[+[+[+[+[+[+B P+Q+R+S+T+U+V+/+W+G+",
"X+Y+Z+`+ @.@+@@@#@$@%@B f+[+[+[+[+[+[+[+[+f+B &@*@=@-@;@>@k+,@'@)@!@",
"~@{@]@^@/@++(@_@:@<@[@}@B f+[+[+[+[+[+[+f+B |@1@2@3@4@5@6@++7@8@9@0@",
"a@b@c@d@R.e@f@g@h@i@j@B B B x+[+[+[+[+x+B B B E.k@l@m@n@o@p@q@r@s@t@",
"u@'@v@w@x@y@V.z@A@B@B C /./.C@C@/./.C@C@/./.C B D@E@b F@G@H@I@J@K@L@",
"M@N@w@O@E.P@Q@A@R@B C /./. .S@S@S@S@S@S@/././.C B e@c T@U@V@.+W@K@L@",
"X@Y@Z@^@`@ #O..#+#B C /. . .S@@#@#@#@#S@ . ./.C B E@##$#%#&#*#=#-#;#",
">#k ,#V.'#)#!#~#{#++C  . .S@@#@#C@C@@#@#S@ . .B D@R.]#^#/#(#_#:#<#;#",
"[#}#{#|#'#1#2#3#4#5#5#C@S@@#@#@#@#@#@#@#@#S@C@6#7#* 8#$#9#0#_#a#b#c#",
"d#e#q@f#G+g#h#i#Y+j#k#C@S@S@S@S@@#@#S@S@S@S@C@l#m#n#8#o#p#q#r.r#b#s#",
"t#u#v#w#x#y#z#A#B#C#D#C@S@@#@#S@@#@#S@@#@#S@C@E#I+F#G#! H#I#J#a#K#L#",
"M#K#N#O#P#Q#R#S#T#U#V#C@S@@#@#S@@#@#S@@#@#S@C@W#X#.#Y#p@Z#I#{+`#K#L#",
" $.$+$@$#$$$%$&$*$k#=$q+C@S@S@S@S@@#S@S@S@C@-$;$>$,$'$)$!$~${$]$^$/$",
"u#($($)$P#$$_$:$F#<$[$}$C@S@S@S@C@C@S@S@S@C@|$1$e@2$3$'$~$K.4$5$6$7$",
"#$8$8$9$0$F#a$b$@+Z+c$d$e$C@C@C@C@C@C@C@C@f$g$h$i$2$j$k$l$~$m$n$o$p$",
"_#5#r.a$$$_$0$0$q$r$s$t$[+B B B [+[+B B B [+u$v$'$w$#$W.!$L.x$x$y$z$",
"A$B$g$C$R.D$,#E$F$G$H$[+B B B B [+[+B B B B [+I$e@k$8$E@]$4$n$J$K$o ",
"L$y@M$N$O$,#E$P$M$x@Q$[+[+[+[+[+R${#[+[+[+[+[+S$j$E@2$>$!$J.~$T$U$V$",
"V$W$X$s.Y$P#Z$`$#$ %.%+%7$@%#%G.$%C$%%&%*%G#=%~#-%e@3$j$]$L.;%>%,%'%",
")%!%~%y#{%D$]%^%6$m$/%(%_%:%@%<%[%}%..|%a 1%P$2%3%-%3$4%5%{$6%7%8%9%",
"0%a%b%c%d%e%f%f%V$g%V$h%i%j%k%l%p#P@t@m%x@.%/@n%o%p%#$q%j$>$6%m$(%(%",
"r%9%c%s%t%d%u%u%t%v%q#w%x%y%x%z%A%B%(%C%D%.%E%F%o%=%#$G%& 3%H%n$t@t@"};
