/* XPM */
static char * exit_right_xpm[] = {
"34 34 370 2",
"  	c #C0D470",
". 	c #BFD370",
"+ 	c #8D996E",
"@ 	c #81867E",
"# 	c #81867D",
"$ 	c #80867D",
"% 	c #7F857C",
"& 	c #7A8078",
"* 	c #9EAC69",
"= 	c #BED26F",
"- 	c #6E746B",
"; 	c #7C7F76",
"> 	c #7E8177",
", 	c #7F8278",
"' 	c #6E726A",
") 	c #6B7068",
"! 	c #7D895D",
"~ 	c #818C63",
"{ 	c #787C73",
"] 	c #7A7D72",
"^ 	c #7D8177",
"/ 	c #6E716A",
"( 	c #686C65",
"_ 	c #9EAF63",
": 	c #BBCE6E",
"< 	c #B9CC6D",
"[ 	c #9BAA67",
"} 	c #737C5A",
"| 	c #75796E",
"1 	c #787B72",
"2 	c #7B7E75",
"3 	c #73776E",
"4 	c #6A7358",
"5 	c #A4B46A",
"6 	c #B9CD6E",
"7 	c #B4C66B",
"8 	c #7A826D",
"9 	c #8A9563",
"0 	c #B7CB6B",
"a 	c #8D996B",
"b 	c #7F8675",
"c 	c #797F76",
"d 	c #575D56",
"e 	c #6F726A",
"f 	c #500000",
"g 	c #7A7F77",
"h 	c #797F73",
"i 	c #92A063",
"j 	c #A9B96C",
"k 	c #7F8577",
"l 	c #A3B36B",
"m 	c #B5C86C",
"n 	c #818874",
"o 	c #787C72",
"p 	c #71766E",
"q 	c #6C7265",
"r 	c #7E847B",
"s 	c #777D74",
"t 	c #747970",
"u 	c #F84070",
"v 	c #F8D870",
"w 	c #70756C",
"x 	c #676B64",
"y 	c #84897D",
"z 	c #86897E",
"A 	c #7D8175",
"B 	c #A1B166",
"C 	c #7F8A62",
"D 	c #767B71",
"E 	c #777B71",
"F 	c #72776E",
"G 	c #676D65",
"H 	c #777D73",
"I 	c #B02860",
"J 	c #D8A038",
"K 	c #F8F8F8",
"L 	c #707469",
"M 	c #70756D",
"N 	c #84877C",
"O 	c #83877C",
"P 	c #707566",
"Q 	c #B6C86B",
"R 	c #6B715F",
"S 	c #777C72",
"T 	c #74786E",
"U 	c #787D74",
"V 	c #60645D",
"W 	c #000000",
"X 	c #84877D",
"Y 	c #818378",
"Z 	c #73776F",
"` 	c #A0B064",
" .	c #A2B267",
"..	c #737870",
"+.	c #646861",
"@.	c #72776D",
"#.	c #696C63",
"$.	c #70746C",
"%.	c #6D7069",
"&.	c #808A5F",
"*.	c #BDD16E",
"=.	c #B6C96B",
"-.	c #767B70",
";.	c #787C71",
">.	c #6B6F68",
",.	c #565852",
"'.	c #60694A",
").	c #767B73",
"!.	c #81857B",
"~.	c #7A7E73",
"{.	c #9BAB63",
"].	c #88955B",
"^.	c #767A6F",
"/.	c #777A6F",
"(.	c #795738",
"_.	c #F87068",
":.	c #ACBE65",
"<.	c #7B8267",
"[.	c #7F8378",
"}.	c #7C7F74",
"|.	c #6F775C",
"1.	c #BCCF6E",
"2.	c #BCD06E",
"3.	c #80886F",
"4.	c #666B63",
"5.	c #6F7369",
"6.	c #746A5B",
"7.	c #A96739",
"8.	c #F8D0C0",
"9.	c #A0B163",
"0.	c #6B6F66",
"a.	c #AEC069",
"b.	c #B0C26D",
"c.	c #75786D",
"d.	c #70756B",
"e.	c #9A6A3D",
"f.	c #885818",
"g.	c #B8CB6B",
"h.	c #717A5D",
"i.	c #777A70",
"j.	c #929F65",
"k.	c #9FAF64",
"l.	c #76796E",
"m.	c #72766C",
"n.	c #65685F",
"o.	c #A06636",
"p.	c #859160",
"q.	c #72766B",
"r.	c #74776C",
"s.	c #838D63",
"t.	c #BACD6D",
"u.	c #A4B369",
"v.	c #8F9975",
"w.	c #7F837B",
"x.	c #7D827A",
"y.	c #514C44",
"z.	c #A16536",
"A.	c #AA663A",
"B.	c #9CAC5E",
"C.	c #6F746C",
"D.	c #72756E",
"E.	c #AEBD79",
"F.	c #A4B569",
"G.	c #AFC268",
"H.	c #70736B",
"I.	c #767A72",
"J.	c #6C7068",
"K.	c #757A71",
"L.	c #584C40",
"M.	c #A06436",
"N.	c #AF693C",
"O.	c #A7B864",
"P.	c #71766D",
"Q.	c #7B7F76",
"R.	c #81847B",
"S.	c #76796F",
"T.	c #5F6456",
"U.	c #7A7E75",
"V.	c #81847A",
"W.	c #74766C",
"X.	c #594C40",
"Y.	c #B66E3E",
"Z.	c #BC7D40",
"`.	c #ABBD66",
" +	c #7E8178",
".+	c #7B7E73",
"++	c #777B72",
"@+	c #787B71",
"#+	c #584A3E",
"$+	c #A26636",
"%+	c #BE7441",
"&+	c #BC7B3F",
"*+	c #AD683C",
"=+	c #75796F",
"-+	c #5C6254",
";+	c #B0C268",
">+	c #5F645E",
",+	c #60645E",
"'+	c #61655F",
")+	c #686D65",
"!+	c #55473C",
"~+	c #A06435",
"{+	c #BF7541",
"]+	c #B8773D",
"^+	c #A9653B",
"/+	c #9D643D",
"(+	c #6E726B",
"_+	c #676B63",
":+	c #656A62",
"<+	c #5D605B",
"[+	c #545A4C",
"}+	c #B9CD6D",
"|+	c #9AAA5F",
"1+	c #747F55",
"2+	c #757A73",
"3+	c #72766E",
"4+	c #53453A",
"5+	c #9F6334",
"6+	c #BE7440",
"7+	c #AF6E39",
"8+	c #AE693C",
"9+	c #686B65",
"0+	c #787D75",
"a+	c #595E53",
"b+	c #9BAB60",
"c+	c #9DAD60",
"d+	c #8E9B61",
"e+	c #878B83",
"f+	c #7F8176",
"g+	c #564B40",
"h+	c #9E6234",
"i+	c #BD7340",
"j+	c #B0703A",
"k+	c #82877E",
"l+	c #73786F",
"m+	c #626759",
"n+	c #8B985D",
"o+	c #7F8074",
"p+	c #9E6334",
"q+	c #BD7240",
"r+	c #B2723B",
"s+	c #656A5B",
"t+	c #8C995E",
"u+	c #74766B",
"v+	c #72756A",
"w+	c #55483D",
"x+	c #9F6335",
"y+	c #B7763D",
"z+	c #203088",
"A+	c #616660",
"B+	c #5D6255",
"C+	c #BDD16F",
"D+	c #AFC168",
"E+	c #7E8A56",
"F+	c #5A5E58",
"G+	c #525652",
"H+	c #4D3F36",
"I+	c #BB723F",
"J+	c #B2733B",
"K+	c #5A5E59",
"L+	c #595E59",
"M+	c #565B50",
"N+	c #B0C269",
"O+	c #B1C36A",
"P+	c #73766E",
"Q+	c #848980",
"R+	c #898D84",
"S+	c #574D43",
"T+	c #BA713F",
"U+	c #B6763C",
"V+	c #408098",
"W+	c #80D8C8",
"X+	c #7C8179",
"Y+	c #7D8279",
"Z+	c #797E75",
"`+	c #797C73",
" @	c #5D6356",
".@	c #7A7E72",
"+@	c #7C7F75",
"@@	c #53473D",
"#@	c #B9703E",
"$@	c #AC6C38",
"%@	c #D0DE76",
"&@	c #B9C66B",
"*@	c #767A73",
"=@	c #696C64",
"-@	c #808379",
";@	c #808378",
">@	c #6E7369",
",@	c #51483E",
"'@	c #9D6134",
")@	c #AB6439",
"!@	c #A96D38",
"~@	c #8E4F2F",
"{@	c #D2E077",
"]@	c #BBC76C",
"^@	c #83887F",
"/@	c #7A7C71",
"(@	c #7E8074",
"_@	c #5F6557",
":@	c #777A71",
"<@	c #7B7E72",
"[@	c #797C72",
"}@	c #6C7067",
"|@	c #54463B",
"1@	c #985E31",
"2@	c #995830",
"3@	c #985C32",
"4@	c #773F27",
"5@	c #BBC86C",
"6@	c #7A7E76",
"7@	c #7D8075",
"8@	c #7F8277",
"9@	c #74786F",
"0@	c #5B6254",
"a@	c #B0C369",
"b@	c #5B6056",
"c@	c #5E6259",
"d@	c #565B56",
"e@	c #575B56",
"f@	c #4D4137",
"g@	c #925A2F",
"h@	c #8C4E2B",
"i@	c #874C2C",
"j@	c #6B3723",
"k@	c #8D5934",
"l@	c #505550",
"m@	c #5B5F5A",
"n@	c #595D58",
"o@	c #515945",
"p@	c #7B8078",
"q@	c #544A3F",
"r@	c #925B2F",
"s@	c #7D4227",
"t@	c #7B4327",
"u@	c #724C2C",
"v@	c #A9B05D",
"w@	c #7C8077",
"x@	c #676C5D",
"y@	c #554B40",
"z@	c #8A562C",
"A@	c #753D25",
"B@	c #784F2D",
"C@	c #ADB861",
"D@	c #767A70",
"E@	c #646A5B",
"F@	c #8D9B60",
"G@	c #53493F",
"H@	c #84522B",
"I@	c #7F502F",
"J@	c #AEB45F",
"K@	c #CBDB74",
"L@	c #B5C36A",
"M@	c #6C7163",
"N@	c #6B6F67",
"O@	c #646761",
"P@	c #51483C",
"Q@	c #8C6535",
"R@	c #AEB862",
"S@	c #6E7265",
"T@	c #98A75F",
"U@	c #758156",
"V@	c #778155",
"W@	c #A4B062",
"X@	c #CEDD75",
"Y@	c #C2D571",
"Z@	c #B0C368",
"`@	c #737F53",
" #	c #768156",
".#	c #798556",
"                          . + @ # $ % & *                           ",
"                          = - ; > , ' ) !                           ",
"                          . ~ { ] ^ / ( _                           ",
"                : =     < [ } | 1 2 3 ' 4 5 <     6                 ",
"              7 8 9 0 a b c d e f f f f f g h i j k l               ",
"            m n o p q r s t f f u u v u u f w x y z A B             ",
"          . C t D E F G H f u u I J v K I f L M N O O P             ",
"            Q R S T U V f u I I W W W W W W W X Y , Z `             ",
"             ...+.@.#.f u I W W W W W W W W W W $.%.3 &.*.          ",
"          =.-.;.>.,.f I I W W W W W W W W W W W '.).!.~.{.          ",
"          ].^.~./.(.f I I W W _.K K _.K K W W   :.<.[.}.|.1.        ",
"        2.3.4.5.6.7._.8.W W _._.K W 8.W K         9.0.4.+.a.        ",
"        b.c.^.d.e._.f.8.W W _.8.K W 8.W K 8.f.    g.h.i.c.j.        ",
"        k.l.m.n.o._.f._.W W W 8.8._._.8.8.8.f.    . p.q.r.s.        ",
"    t.u.v.w.x.y.z.A._._._.W 8.8.W f._._._._.f.      B.C.D.-.E.F.    ",
"    G.H.I.J.K.L.M.N.W W _._._.W W W W W W W W W     O.P.Q.R.S.T.    ",
"    G.x.U.V.W.X.z.Y.Z.W W _._.8.8.W W W W W W       `.g o  +.+T.    ",
"    G.H.++@+1 #+$+%+&+*+W f._._._._._._._.f.        `.# o U.=+-+    ",
"    ;+>+,+'+)+!+~+{+]+^+/+f I I f f f.f.f.          `.(+_+:+<+[+    ",
"    }+|+1+2+3+4+5+6+7+8+f u u f I f.K K K f.        `.9+0+a+b+c+    ",
"        d+e+f+g+h+i+j+f I u u u f.K K K K K f.      `.k+l+m+        ",
"        n+/.o+g+p+q+r+f I I u u f.K K K K K f.      `.g $.s+        ",
"        t+u+v+w+x+6+y+z+f I I u I f.K K K f.        `.$.A+B+        ",
"    C+D+E+F+G+H+p+I+J+z+z+f I I f f f.f.f.K         `.K+L+M+N+O+    ",
"    G.P+Q+R+# S+p+T+U+z+V+z+f f f W+W+W+V+z+        `.X+Y+Z+`+ @    ",
"    G.I..@+@l.@@h+#@$@z+V+V+V+W+W+W+W+W+V+z+%@%@%@%@&@*@=@-@;@T.    ",
"    G.Y+^ }.>@,@'@)@!@~@z+V+V+V+W+W+z+V+z+{@{@{@{@{@]@^@/@(@/@_@    ",
"    G.:@<@[@}@|@1@2@3@4@z+V+V+V+V+V+z+V+z+{@{@{@{@{@5@6@7@8@9@0@    ",
"    a@b@c@d@e@f@g@h@i@j@k@z+z+z+z+z+z+z+{@{@{@{@{@{@5@l@m@n@M+o@    ",
"        t+p@ +q@r@s@t@u@v@f.f.f.f.f.W f.W {@{@{@{@{@5@w@# x@        ",
"        t+=+S.y@z@A@B@C@  W f.f.f.f.v W v W {@{@{@{@]@% D@E@        ",
"        F@++m.G@H@I@J@    W W W W W W W W W K@K@K@K@L@3 t M@        ",
"        t+N@O@P@Q@R@                                `.N@U.S@        ",
"        T@U@V@W@X@X@X@X@X@Y@                        Z@`@ #.#        "};
