/* XPM */
static char * floor_xpm[] = {
"34 34 835 2",
"  	c #97835E",
". 	c #917D58",
"+ 	c #A58E6E",
"@ 	c #AC9575",
"# 	c #AD9579",
"$ 	c #BCA48A",
"% 	c #B8A088",
"& 	c #A58F78",
"* 	c #A7907E",
"= 	c #A89682",
"- 	c #91806E",
"; 	c #796C59",
"> 	c #79715C",
", 	c #746F59",
"' 	c #69644E",
") 	c #67654E",
"! 	c #817C66",
"~ 	c #847E66",
"{ 	c #89816A",
"] 	c #85795F",
"^ 	c #817056",
"/ 	c #937E61",
"( 	c #A78D72",
"_ 	c #A78C6F",
": 	c #B19476",
"< 	c #BA9D7F",
"[ 	c #BCA184",
"} 	c #C2A98B",
"| 	c #CBB399",
"1 	c #BEAA8F",
"2 	c #AC987F",
"3 	c #A4947B",
"4 	c #9D8C78",
"5 	c #9A8B78",
"6 	c #9C8865",
"7 	c #AA9673",
"8 	c #C4AD8D",
"9 	c #B49D7E",
"0 	c #967E62",
"a 	c #968166",
"b 	c #A69078",
"c 	c #B49E87",
"d 	c #A38E7B",
"e 	c #9B8C79",
"f 	c #897C69",
"g 	c #817964",
"h 	c #7B755F",
"i 	c #75705A",
"j 	c #7A755F",
"k 	c #89846E",
"l 	c #88826A",
"m 	c #7D735A",
"n 	c #85775D",
"o 	c #9C8B6F",
"p 	c #998467",
"q 	c #947B5D",
"r 	c #A98E71",
"s 	c #C6A98B",
"t 	c #C9AE91",
"u 	c #BCA385",
"v 	c #B8A086",
"w 	c #B6A287",
"x 	c #AB9A80",
"y 	c #9E8E75",
"z 	c #978873",
"A 	c #948774",
"B 	c #B7A080",
"C 	c #B59E7E",
"D 	c #B4A07F",
"E 	c #A59071",
"F 	c #9D886B",
"G 	c #A28E73",
"H 	c #A28E75",
"I 	c #A4927A",
"J 	c #9F8E7A",
"K 	c #9A8B76",
"L 	c #8F806D",
"M 	c #807360",
"N 	c #756D58",
"O 	c #756F59",
"P 	c #7C7660",
"Q 	c #857F69",
"R 	c #868068",
"S 	c #8C856B",
"T 	c #8B7F65",
"U 	c #96866C",
"V 	c #A79378",
"W 	c #9F876B",
"X 	c #A38A6C",
"Y 	c #C6AB8D",
"Z 	c #C0A385",
"` 	c #CBAE90",
" .	c #CAAF92",
"..	c #B8A182",
"+.	c #AB967B",
"@.	c #AF9B80",
"#.	c #A9987E",
"$.	c #988871",
"%.	c #968A74",
"&.	c #948975",
"*.	c #B69F80",
"=.	c #B09B7E",
"-.	c #A69375",
";.	c #A89479",
">.	c #A8977D",
",.	c #9C8C73",
"'.	c #9C8C75",
").	c #998A75",
"!.	c #877B65",
"~.	c #7C6F5C",
"{.	c #766B57",
"].	c #746955",
"^.	c #776F5A",
"/.	c #7F7762",
"(.	c #817962",
"_.	c #7F755C",
":.	c #877B61",
"<.	c #97896E",
"[.	c #9A896D",
"}.	c #A28B6C",
"|.	c #BFA687",
"1.	c #CEB395",
"2.	c #D2B597",
"3.	c #BCA183",
"4.	c #B59C7E",
"5.	c #B69E82",
"6.	c #AE997E",
"7.	c #A5947A",
"8.	c #91826B",
"9.	c #887D69",
"0.	c #857D68",
"a.	c #B49C80",
"b.	c #B39B7F",
"c.	c #B29D82",
"d.	c #AA967D",
"e.	c #A6967C",
"f.	c #A19379",
"g.	c #8F836B",
"h.	c #8D816B",
"i.	c #847963",
"j.	c #7D725E",
"k.	c #7E735F",
"l.	c #847965",
"m.	c #857A66",
"n.	c #877A67",
"o.	c #83775F",
"p.	c #8D7F65",
"q.	c #908164",
"r.	c #97866A",
"s.	c #998668",
"t.	c #A18A6B",
"u.	c #BAA182",
"v.	c #CBB092",
"w.	c #C3A88A",
"x.	c #CCB193",
"y.	c #AF9476",
"z.	c #A78E70",
"A.	c #AF9A7D",
"B.	c #AB977E",
"C.	c #9D8B73",
"D.	c #94846B",
"E.	c #887C64",
"F.	c #877F6A",
"G.	c #857E6B",
"H.	c #B9A189",
"I.	c #A8927A",
"J.	c #9C8A72",
"K.	c #9F9177",
"L.	c #9D9179",
"M.	c #897E68",
"N.	c #7A725B",
"O.	c #6D6550",
"P.	c #746E58",
"Q.	c #7C745F",
"R.	c #837864",
"S.	c #867966",
"T.	c #8A7B66",
"U.	c #8E7D69",
"V.	c #92826B",
"W.	c #928165",
"X.	c #A08F71",
"Y.	c #9E8B6D",
"Z.	c #C5AC8D",
"`.	c #CBB293",
" +	c #C1A688",
".+	c #C7AC8E",
"++	c #B99E80",
"@+	c #B09779",
"#+	c #AA957A",
"$+	c #A08E76",
"%+	c #978770",
"&+	c #8F8069",
"*+	c #857963",
"=+	c #776F5C",
"-+	c #746D5A",
";+	c #A7917A",
">+	c #9A846D",
",+	c #9B8971",
"'+	c #95856E",
")+	c #867E67",
"!+	c #817B63",
"~+	c #7D7862",
"{+	c #66614B",
"]+	c #78725A",
"^+	c #796E58",
"/+	c #867762",
"(+	c #8F7E6A",
"_+	c #93816D",
":+	c #9E8A72",
"<+	c #8E795C",
"[+	c #A69172",
"}+	c #B0997A",
"|+	c #B9A081",
"1+	c #C8AF90",
"2+	c #C0A685",
"3+	c #B39A7B",
"4+	c #AB9274",
"5+	c #A19076",
"6+	c #998970",
"7+	c #867A64",
"8+	c #7F7460",
"9+	c #79725F",
"0+	c #76715E",
"a+	c #A58F7A",
"b+	c #8F7A65",
"c+	c #908069",
"d+	c #8C7D68",
"e+	c #7D725C",
"f+	c #7F7961",
"g+	c #6A6851",
"h+	c #7E765F",
"i+	c #817660",
"j+	c #988974",
"k+	c #A2907A",
"l+	c #9E8873",
"m+	c #A18971",
"n+	c #B09778",
"o+	c #C7AE8F",
"p+	c #CCB394",
"q+	c #BAA280",
"r+	c #B89F80",
"s+	c #AD9677",
"t+	c #A78F73",
"u+	c #A49379",
"v+	c #968770",
"w+	c #887C66",
"x+	c #786D59",
"y+	c #746C59",
"z+	c #7B7462",
"A+	c #797461",
"B+	c #A48F7C",
"C+	c #8A7864",
"D+	c #887B68",
"E+	c #7D7761",
"F+	c #716C56",
"G+	c #74725B",
"H+	c #827D67",
"I+	c #7E7963",
"J+	c #948C75",
"K+	c #847860",
"L+	c #9E8E77",
"M+	c #907C64",
"N+	c #A78E78",
"O+	c #A2886F",
"P+	c #BBA083",
"Q+	c #D8BE9D",
"R+	c #D3B998",
"S+	c #C2A887",
"T+	c #BCA384",
"U+	c #B49B7D",
"V+	c #A89172",
"W+	c #9C896B",
"X+	c #98876B",
"Y+	c #99896F",
"Z+	c #92846A",
"`+	c #80745E",
" @	c #706551",
".@	c #6A624F",
"+@	c #7A7361",
"@@	c #75705D",
"#@	c #988775",
"$@	c #8A7B68",
"%@	c #716954",
"&@	c #7B7660",
"*@	c #77725C",
"=@	c #837D65",
"-@	c #9D937A",
";@	c #8B7D63",
">@	c #94826A",
",@	c #8D775F",
"'@	c #AC927B",
")@	c #B4997E",
"!@	c #D3B698",
"~@	c #C9AC8C",
"{@	c #B39978",
"]@	c #B69C7B",
"^@	c #BBA283",
"/@	c #B29B7C",
"(@	c #AB9679",
"_@	c #968569",
":@	c #95856B",
"<@	c #94866C",
"[@	c #8A7E66",
"}@	c #796E5A",
"|@	c #726A57",
"1@	c #6E6653",
"2@	c #766F5D",
"3@	c #807362",
"4@	c #7E7160",
"5@	c #857A68",
"6@	c #7C7461",
"7@	c #756E5B",
"8@	c #7C7562",
"9@	c #787059",
"0@	c #877D64",
"a@	c #998B71",
"b@	c #8F7F65",
"c@	c #9B876C",
"d@	c #A68E72",
"e@	c #BEA489",
"f@	c #C4A98C",
"g@	c #DFC2A4",
"h@	c #C1A484",
"i@	c #A88D6F",
"j@	c #B59A7C",
"k@	c #BBA284",
"l@	c #B39C7D",
"m@	c #B29F81",
"n@	c #AE9D81",
"o@	c #8E8066",
"p@	c #726753",
"q@	c #7A725F",
"r@	c #756D5A",
"s@	c #78715E",
"t@	c #807865",
"u@	c #79715E",
"v@	c #8E866F",
"w@	c #867A62",
"x@	c #9D896E",
"y@	c #AC977A",
"z@	c #C4AB8D",
"A@	c #CCB395",
"B@	c #CAAD8F",
"C@	c #BDA082",
"D@	c #B3987A",
"E@	c #B79E80",
"F@	c #AC9B7F",
"G@	c #9D8D73",
"H@	c #8C7E64",
"I@	c #877B63",
"J@	c #7F745E",
"K@	c #706853",
"L@	c #6C6451",
"M@	c #837B68",
"N@	c #7D7562",
"O@	c #7F7764",
"P@	c #827B68",
"Q@	c #736C5A",
"R@	c #78715F",
"S@	c #807766",
"T@	c #7C715F",
"U@	c #8E826C",
"V@	c #9F8D75",
"W@	c #BBA485",
"X@	c #CDB495",
"Y@	c #CBB391",
"Z@	c #C1A786",
"`@	c #BFA185",
" #	c #BFA487",
".#	c #A49075",
"+#	c #A19177",
"@#	c #8A8067",
"##	c #827A63",
"$#	c #6B654F",
"%#	c #6C6552",
"&#	c #857C6B",
"*#	c #877F6C",
"=#	c #89816C",
"-#	c #63604D",
";#	c #736E5B",
">#	c #7D7865",
",#	c #857E6C",
"'#	c #897E6C",
")#	c #8C7F6C",
"!#	c #90816E",
"~#	c #807059",
"{#	c #A18D74",
"]#	c #B9A283",
"^#	c #D4BC9A",
"/#	c #C9B18D",
"(#	c #B8A07E",
"_#	c #B89D7F",
":#	c #BA9F82",
"<#	c #B79D82",
"[#	c #B9A187",
"}#	c #AC987D",
"|#	c #99886E",
"1#	c #918369",
"2#	c #81775E",
"3#	c #857D66",
"4#	c #7E7860",
"5#	c #78725C",
"6#	c #726C56",
"7#	c #726B58",
"8#	c #827968",
"9#	c #807563",
"0#	c #757460",
"a#	c #797864",
"b#	c #746F5C",
"c#	c #77705E",
"d#	c #91826F",
"e#	c #A08F7D",
"f#	c #947F6A",
"g#	c #A68E74",
"h#	c #BFA688",
"i#	c #CDB593",
"j#	c #CEB692",
"k#	c #C6AE8A",
"l#	c #B8A07C",
"m#	c #B19679",
"n#	c #AA9077",
"o#	c #A79277",
"p#	c #9E8D73",
"q#	c #8B7B62",
"r#	c #7F735B",
"s#	c #776F58",
"t#	c #77715B",
"u#	c #7D7864",
"v#	c #7A7360",
"w#	c #7E7564",
"x#	c #7A6F5D",
"y#	c #7A6D5C",
"z#	c #827562",
"A#	c #82816D",
"B#	c #797663",
"C#	c #6D6854",
"D#	c #92836E",
"E#	c #A3917B",
"F#	c #9F8971",
"G#	c #9E866C",
"H#	c #CEB597",
"I#	c #C6AE8C",
"J#	c #B79F7B",
"K#	c #BCA480",
"L#	c #BFA785",
"M#	c #AE9577",
"N#	c #BFA58C",
"O#	c #B49C82",
"P#	c #A69279",
"Q#	c #9E8C74",
"R#	c #8E7F68",
"S#	c #817662",
"T#	c #68604B",
"U#	c #6E6754",
"V#	c #7F7865",
"W#	c #87806D",
"X#	c #817A67",
"Y#	c #7E7663",
"Z#	c #7D7260",
"`#	c #83745F",
" $	c #8F806B",
".$	c #8A8571",
"+$	c #766F5C",
"@$	c #746C57",
"#$	c #837862",
"$$	c #938369",
"%$	c #A49173",
"&$	c #AE997A",
"*$	c #CFB795",
"=$	c #C6AC8B",
"-$	c #C4AA89",
";$	c #C2A789",
">$	c #BA9F81",
",$	c #AF977D",
"'$	c #B49E86",
")$	c #A59178",
"!$	c #99876F",
"~$	c #9D8D76",
"{$	c #7B6E5B",
"]$	c #716857",
"^$	c #79705F",
"/$	c #817966",
"($	c #867B69",
"_$	c #776B55",
":$	c #88785F",
"<$	c #8C7C62",
"[$	c #89816E",
"}$	c #8A826D",
"|$	c #867B65",
"1$	c #97876D",
"2$	c #9E8D6F",
"3$	c #AA9675",
"4$	c #BDA684",
"5$	c #D1B995",
"6$	c #D0B693",
"7$	c #C9AF8E",
"8$	c #CAAF91",
"9$	c #C3A88B",
"0$	c #B69B80",
"a$	c #B1977E",
"b$	c #A38D75",
"c$	c #A7967C",
"d$	c #A29078",
"e$	c #958671",
"f$	c #756A58",
"g$	c #7B705E",
"h$	c #877E6D",
"i$	c #887D6B",
"j$	c #8A7D6A",
"k$	c #84755E",
"l$	c #958468",
"m$	c #958973",
"n$	c #90846C",
"o$	c #A09174",
"p$	c #A89877",
"q$	c #B09C7B",
"r$	c #C9B290",
"s$	c #D2BA96",
"t$	c #CDB591",
"u$	c #C2A98A",
"v$	c #B9A082",
"w$	c #AD9378",
"x$	c #A99177",
"y$	c #A08C73",
"z$	c #9F8F78",
"A$	c #8D7E67",
"B$	c #8B7C67",
"C$	c #847764",
"D$	c #736856",
"E$	c #8D8270",
"F$	c #8B7E6B",
"G$	c #847560",
"H$	c #A59478",
"I$	c #81725B",
"J$	c #90816A",
"K$	c #928269",
"L$	c #A9987A",
"M$	c #B4A181",
"N$	c #BBA786",
"O$	c #CDB694",
"P$	c #D7BF9B",
"Q$	c #CCB490",
"R$	c #BAA183",
"S$	c #B69D7F",
"T$	c #B1977C",
"U$	c #988972",
"V$	c #978871",
"W$	c #847862",
"X$	c #837663",
"Y$	c #857865",
"Z$	c #766B59",
"`$	c #847967",
" %	c #918471",
".%	c #91826D",
"+%	c #91816A",
"@%	c #897962",
"#%	c #A6957B",
"$%	c #A29175",
"%%	c #8E7E64",
"&%	c #8B7B61",
"*%	c #AA9779",
"=%	c #B7A484",
"-%	c #C0AC8B",
";%	c #CCB593",
">%	c #C5AD8B",
",%	c #C0A886",
"'%	c #B19A7A",
")%	c #AF977B",
"!%	c #B1997F",
"~%	c #807561",
"{%	c #877C68",
"]%	c #7D705D",
"^%	c #978B75",
"/%	c #9D8E79",
"(%	c #96866F",
"_%	c #9C8B71",
":%	c #918066",
"<%	c #A39278",
"[%	c #9D8A6C",
"}%	c #948163",
"|%	c #A38E71",
"1%	c #BAA586",
"2%	c #C2AE8D",
"3%	c #C8B191",
"4%	c #CBB492",
"5%	c #C5AE8C",
"6%	c #B49D7B",
"7%	c #B09979",
"8%	c #AC9778",
"9%	c #A89074",
"0%	c #A89376",
"a%	c #A99479",
"b%	c #9F8E74",
"c%	c #90816C",
"d%	c #897E6A",
"e%	c #8B7F69",
"f%	c #A1917A",
"g%	c #9C886D",
"h%	c #AA997F",
"i%	c #9E8768",
"j%	c #A79071",
"k%	c #C1AA8A",
"l%	c #CAB393",
"m%	c #BDA686",
"n%	c #AB9677",
"o%	c #A89374",
"p%	c #AC997B",
"q%	c #9B8B72",
"r%	c #8A826F",
"s%	c #8B806C",
"t%	c #897A65",
"u%	c #8A7B64",
"v%	c #A29177",
"w%	c #A69277",
"x%	c #AD987B",
"y%	c #A59073",
"z%	c #A9957C",
"A%	c #997E60",
"B%	c #B79E7F",
"C%	c #C0A788",
"D%	c #D0B798",
"E%	c #BFA888",
"F%	c #C1AC8D",
"G%	c #C0AB8C",
"H%	c #9F8C6E",
"I%	c #958264",
"J%	c #9F8B70",
"K%	c #A08C71",
"L%	c #97866C",
"M%	c #8F8470",
"N%	c #938B78",
"O%	c #928773",
"P%	c #7B6F59",
"Q%	c #94856E",
"R%	c #93836A",
"S%	c #9A896F",
"T%	c #AE9A7F",
"U%	c #AD997E",
"V%	c #AB9475",
"W%	c #A28D70",
"X%	c #A8947B",
"Y%	c #BA9D7D",
"Z%	c #D2B897",
"`%	c #C8AE8D",
" &	c #C1AA8B",
".&	c #B29D80",
"+&	c #B8A386",
"@&	c #95846A",
"#&	c #A08F75",
"$&	c #89795F",
"%&	c #887A60",
"&&	c #8F846E",
"*&	c #9A8B74",
"=&	c #A29279",
"-&	c #A69579",
";&	c #A59176",
">&	c #A38F74",
",&	c #96846C",
"'&	c #D1B492",
")&	c #D6BC99",
"!&	c #C3A988",
"~&	c #B49F82",
"{&	c #A9957A",
"]&	c #887A5F",
"^&	c #928469",
"/&	c #92866C",
"(&	c #968A72",
"_&	c #8C806A",
":&	c #92866E",
"<&	c #A5957C",
"[&	c #A8987F",
"}&	c #A8977B",
"|&	c #B1A084",
"1&	c #AF9C7E",
"2&	c #9B886A",
"3&	c #9A8568",
"4&	c #897960",
"5&	c #8C7D66",
"6&	c #D1B794",
"7&	c #BAA384",
"8&	c #A99477",
"9&	c #98876D",
"0&	c #A09077",
"a&	c #9F8F76",
"b&	c #83775D",
"c&	c #94896D",
"d&	c #8F8468",
"e&	c #93876D",
"f&	c #9D8E77",
"g&	c #9F8F75",
"h&	c #AE9D83",
"i&	c #B8A489",
"j&	c #BCA98B",
"k&	c #948065",
"l&	c #948369",
"m&	c #BFA582",
"n&	c #C3AB89",
"o&	c #BCA482",
"p&	c #B49D7D",
"q&	c #A79275",
"r&	c #8B7F67",
"s&	c #968B6F",
"t&	c #897E62",
"u&	c #98886E",
"v&	c #9B8B71",
"w&	c #B5A284",
"x&	c #B19E80",
"y&	c #B09D7F",
"z&	c #AA967B",
"A&	c #99886C",
"B&	c #8D7D63",
"C&	c #85755C",
"D&	c #7D6F55",
"E&	c #7A6E58",
"F&	c #B79F7D",
"G&	c #AE9576",
"H&	c #968267",
"I&	c #837761",
"J&	c #8D836A",
"K&	c #92886D",
"L&	c #8B8166",
"M&	c #9A8F73",
"N&	c #93856A",
"O&	c #A49377",
"P&	c #BAA588",
"Q&	c #BDA889",
"R&	c #A48F72",
"S&	c #AB987A",
"T&	c #9E8D71",
"U&	c #8C7B61",
"V&	c #918168",
"W&	c #817359",
"X&	c #7A6E56",
"Y&	c #736751",
"Z&	c #BDA583",
"`&	c #AD9676",
" *	c #A69174",
".*	c #9E8A71",
"+*	c #8D806D",
"@*	c #867B67",
"#*	c #928771",
"$*	c #958B72",
"%*	c #877D62",
"&*	c #978C70",
"**	c #9C8E71",
"=*	c #A59274",
"-*	c #B09B7C",
";*	c #BCA586",
">*	c #BAA383",
",*	c #C0A98A",
"'*	c #BFA889",
")*	c #A99273",
"!*	c #9F8869",
"~*	c #817158",
"{*	c #887962",
"]*	c #796D57",
"^*	c #80755F",
"/*	c #827763",
"(*	c #B39C7C",
"_*	c #A79070",
":*	c #A58E6F",
"<*	c #A39179",
"[*	c #887966",
"}*	c #928574",
"|*	c #8C7F6E",
"1*	c #908571",
"2*	c #8F8770",
"3*	c #988E75",
"4*	c #8E8469",
"5*	c #9D9477",
"6*	c #A7997C",
"7*	c #AD9879",
"8*	c #BEA787",
"9*	c #C6AD8E",
"0*	c #B9A17F",
"a*	c #B69D7E",
"b*	c #B49B7C",
"c*	c #A68D6E",
"d*	c #A68F70",
"e*	c #968164",
"f*	c #8C785D",
"g*	c #88775D",
"h*	c #74644B",
"i*	c #81755D",
"j*	c #766B55",
"k*	c #807863",
"l*	c #827A65",
"m*	c #A18E70",
"n*	c #9A866B",
"o*	c #928167",
"p*	c #93836C",
"q*	c #8D7E69",
"r*	c #8E836D",
"s*	c #A2967E",
"t*	c #A2967C",
"u*	c #B1A68A",
"v*	c #B8A98A",
"w*	c #C3AF8E",
"x*	c #C3AA8B",
"y*	c #AF9878",
"z*	c #86765D",
"A*	c #75664F",
"B*	c #847C67",
"C*	c #7D7560",
"D*	c #7E7661",
"E*	c #97876E",
"F*	c #96886E",
"G*	c #90846E",
"H*	c #95866F",
"I*	c #A7977D",
"J*	c #BDAC90",
"K*	c #C0AD8F",
"L*	c #A89577",
"M*	c #908067",
"N*	c #7B6C55",
"O*	c #82735C",
"P*	c #7E725C",
"Q*	c #827761",
"R*	c #91856F",
"S*	c #9C8D76",
"T*	c #9C8C72",
"U*	c #B29E85",
"V*	c #BCA88D",
"W*	c #C8B396",
"X*	c #C9B495",
"Y*	c #C3AA8C",
"Z*	c #A58D71",
"`*	c #A28F71",
" =	c #8F8167",
".=	c #857661",
"+=	c #6D614B",
"@=	c #7D715B",
"#=	c #7F735D",
"$=	c #7C705A",
"%=	c #908370",
"  . + @ # $ % & * = - ; > , ' ) ! ~ { ] ^ / ( _ : < [ } | 1 2 3 4 5 ",
"6 7 8 9 0 a b c d = e f g h i j k l m n o p q r : s t u v w x y z A ",
"B C D E F G H I J K L M N O P Q R S T U V W X Y Z `  ...+.@.#.$.%.&.",
"*.9 =.-.;.>.,.'.).!.~.{.].^./.(._.:.<.[./ }.|.1.2.3.4.5.6.7.y 8.9.0.",
"a.b.c.d.e.f.g.h.i.j.k.l.m.n.!.o.p.q.r.s.t.u.v.w.x.y.z.A.B.C.D.E.F.G.",
"H.I.H J.K.L.M.N.O.P.Q.R.S.T.U.V.W.X.Y.E Z.`. +.+++@+# #+$+%+&+*+=+-+",
";+>+,+'+E.)+!+~+{+, ]+^+/+(+_+:+<+[+}+|+1+2+3+|.4+b.@.5+6+8.7+8+9+0+",
"a+b+c+d+e+f+~+, g+~+h+i+j+k+l+m+}.n+o+p+2+q+r+s+t+6.u+6+v+w+x+y+z+A+",
"B+C+T.D+g E+F+G+H+I+J+K+L+M+N+O+P+Q+R+S+T+r+U+V+W+X+Y+Z+`+]. @.@+@@@",
"#@$@n.x+%@P j &@*@=@-@;@>@,@'@)@!@~@{@]@^@/@}+(@_@:@<@[@}@].|@1@2@@@",
"3@4@5@6@7@8@P h 9@0@a@b@c@d@e@f@g@h@i@j@k@l@m@n@b@o@[@e+p@y+q@r@-+s@",
"t@=+u@q@y+r@g v@w@Z+Y+x@y@z@A@.+B@C@D@E@}+(@F@G@H@I@J@K@L@q@M@N@O@P@",
"2@Q@R@S@6@T@D+U@c+V@;.=.W@X@Y@Z@< `@ #e@y@.#+#T @###9@$#%#8@&#N@*#=#",
"-#;#>#,#'#)#!#~#>@{#+.]#1+^#/#(#_#:#<#[#}#|#1#2#3#4#5#6#7#8@8#u@9#R.",
"0#a#b#c#9#d#e#f#>+g#a.h#i#j#k#l#m#)@n#o#p#q#r#^+s#t#8@u#v#8@w#x#y#z#",
"A#B#C#6@f D#E#F#G#b.H#p+I#J#K#L#M#N#O#P#Q#R#7+S#T#U#V#W#X#Y#N@Z#`# $",
".$+$@$#$;@$$%$&$C *$R+=$-$;$>$4.,$'$)$!$~$ ${$x#q@]$^$w#/$($T@_$:$<$",
"[$}$|$E.1$2$3$4$k#5$6$7$8$9$0$a$b$c$d$'+e$D+f$g$8#S@h$i$'#j$M k$$$l$",
"S#m$n$p.o$p$q$r$s$t$-$Z@u$v$w$x$y$y z$A$B$C$D$9#Z#($E$f F$d+G$V.c$H$",
"I$J$K$:@L$M$N$O$P$Q$L#u.R$S$T$6.I U$V$W$X$Y$Z$`$g$F$ %B$.%+%@%,+#%$%",
"%%&%_@*%=%-%r$;%>%,%|+'%s+)%!%B.z$h.w+~%l.{%]%z#f ^%/%(%,._%:%p#<%p#",
"[%}%|%1%2%3%4%5%6%7%7%8%9%0%a%b%c%l.k.l.d%{%C$`+e%U$f%C.<%V g%G h%u+",
"i%j%l@k%l%l%8 k%m%n%o%p%(@;.P#q%j$*#N@r%s%S#U@t%u%D.v%.#w%x%y%|%z%$+",
"A%B%C%u$D%X@E%F%G%H%I%J%K%[.L%o@M%N%M@O%d%P%z Q%R%S%T%U%(@=.V%W%X%C.",
"Y%Z%=$`%`.C% &.&+&U%g%@&#&&%$&%&&&~%{%M.7+8.*&=&p#-&;&%$(@=.0%>&,&$.",
"'&)&!&>%u$}+~&}#{&#.v%U 1$]&^&/&(&7+_&:&U$<&[&h%}&|&1&%$[%2&3&c@4&5&",
"6&6&-$Z.7&8&{&9&C.0&a&Z+H@b&c&d&e&J$f&0&g&>.h&i&w j&i&V J%l$k&l&k$*+",
"m&n&o&p&q&w%7.:$$.J$J$r&T :.s&t&u&v&h%#.;.p%T%w&x&y&z&A&S%B&C&D&_$E&",
"q+F&G&}.H&S%z$d+.%I&7+J&K&L&M&N&O&V 1&x&P&Q&y@R&S&-.T&U&V&W&X&Y&#$m.",
"Z&`&j% *.*R%.% %+*@*s%#*$*%*&***=*-*;*>*,*'*)*!*W%g%L%~*{*]*^*S#/*m.",
"(*_*:*V <*+%[*}*|*1*O%2*3*4*5*6*7*8*9*0*a*b*c*d*e*f*g*h*i*j*k*l*0.=#",
" *m*n*o*p*q*Y$A j$&.O%r*s*t*u*v*w*Y@x*`&y*(*V+q&J%U&z*A*_&i+B*C*D*l*",
"E*F*&+u%w+*+n.G*h.H*U$Z+I*|&J*K*3%r+)*0%L*G 9&@&M*N*O*]*P%P*Q*j.k.8+",
"R*R*e%!.m./*W$h.v+S*=&T*U*V*W*X*Y*'%Z*`*H |#K$ =.=+=E&@=#=$=w+G*%= %"};
