/* XPM */
static char * floor_xpm[] = {
"34 34 16 1",
" 	c #C0D470",
".	c #CEDD75",
"+	c #D0DE76",
"@	c #CFDE75",
"#	c #C1D570",
"$	c #C4D771",
"%	c #C4D671",
"&	c #D1DF77",
"*	c #D2E077",
"=	c #C4D772",
"-	c #C2D571",
";	c #CBDB74",
">	c #CADB74",
",	c #D1DF76",
"'	c #C1D470",
")	c #C6D872",
"                                  ",
"                                  ",
"                                  ",
"                                  ",
"                                  ",
"                                  ",
"                                  ",
"                                  ",
"                                  ",
"                                  ",
"                                  ",
"                                  ",
"                                  ",
"                                  ",
"                                  ",
"                                  ",
"                                  ",
"                                  ",
"                                  ",
"                                  ",
"                                  ",
"                                  ",
"                                  ",
"                                  ",
"                                  ",
"                  .++++++++@      ",
"              #$$%&********&=-    ",
"              =**************;    ",
"              =**************;    ",
"              $&************&>    ",
"               #>**********,#'    ",
"                );;;;;;;;;;;      ",
"                                  ",
"      )......-                    "};
