/* XPM */
static char * mario_w_xpm[] = {
"34 34 24 1",
" 	c #C0D470",
".	c #885818",
"+	c #500000",
"@	c #B02860",
"#	c #F84070",
"$	c #000000",
"%	c #F8D0C0",
"&	c #F87068",
"*	c #203088",
"=	c #408098",
"-	c #80D8C8",
";	c #D0DE76",
">	c #CFDE75",
",	c #D2E077",
"'	c #D1DF77",
")	c #C4D772",
"!	c #C2D571",
"~	c #CBDB74",
"{	c #CADB74",
"]	c #C1D570",
"^	c #D1DF76",
"/	c #C1D470",
"(	c #C6D872",
"_	c #CEDD75",
"                                  ",
"                                  ",
"               .+++               ",
"             ++@@@@++             ",
"            +@######@+            ",
"           +@########@+           ",
"           +@########@+           ",
"           +@########@+           ",
"           +@########@+           ",
"          .$+@######@+$.          ",
"         .%$++@@@@@@++$%.         ",
"         .&$$$++++++$$$&.         ",
"          .$$$$$$$$$$$$.          ",
"           .%$$$$$$$$%.           ",
"            .%$$$$$$%.            ",
"           ...&$$$$&...           ",
"          .+##**##**##+.          ",
"         .+##@======###+.         ",
"         .+#@@=----=@@#+.         ",
"          +@@=--**--=@@.          ",
"           *=--------=*           ",
"           *====--====*           ",
"           *=--=--=--=*           ",
"           *=--=--=--=*           ",
"            *====-===*            ",
"            *===**===*;;;;;>      ",
"             ********,,,,,,')!    ",
"            $...$$...$,,,,,,,~    ",
"           $....$$....$,,,,,,~    ",
"           $$$$$,,$$$$$,,,,,'{    ",
"               ]{,,,,,,,,,,^]/    ",
"                (~~~~~~~~~~~      ",
"                                  ",
"      (______!                    "};
