/* XPM */
static char * mario_a_xpm[] = {
"34 34 661 2",
"  	c #97835E",
". 	c #917D58",
"+ 	c #A58E6E",
"@ 	c #AC9575",
"# 	c #AD9579",
"$ 	c #BCA48A",
"% 	c #B8A088",
"& 	c #A58F78",
"* 	c #A7907E",
"= 	c #A89682",
"- 	c #91806E",
"; 	c #796C59",
"> 	c #79715C",
", 	c #746F59",
"' 	c #69644E",
") 	c #67654E",
"! 	c #817C66",
"~ 	c #847E66",
"{ 	c #89816A",
"] 	c #85795F",
"^ 	c #817056",
"/ 	c #937E61",
"( 	c #A78D72",
"_ 	c #A78C6F",
": 	c #B19476",
"< 	c #BA9D7F",
"[ 	c #BCA184",
"} 	c #C2A98B",
"| 	c #CBB399",
"1 	c #BEAA8F",
"2 	c #AC987F",
"3 	c #A4947B",
"4 	c #9D8C78",
"5 	c #9A8B78",
"6 	c #9C8865",
"7 	c #AA9673",
"8 	c #C4AD8D",
"9 	c #B49D7E",
"0 	c #967E62",
"a 	c #968166",
"b 	c #A69078",
"c 	c #B49E87",
"d 	c #A38E7B",
"e 	c #9B8C79",
"f 	c #897C69",
"g 	c #817964",
"h 	c #7B755F",
"i 	c #75705A",
"j 	c #7A755F",
"k 	c #89846E",
"l 	c #88826A",
"m 	c #7D735A",
"n 	c #85775D",
"o 	c #9C8B6F",
"p 	c #998467",
"q 	c #947B5D",
"r 	c #A98E71",
"s 	c #C6A98B",
"t 	c #C9AE91",
"u 	c #BCA385",
"v 	c #B8A086",
"w 	c #B6A287",
"x 	c #AB9A80",
"y 	c #9E8E75",
"z 	c #978873",
"A 	c #948774",
"B 	c #B7A080",
"C 	c #B59E7E",
"D 	c #B4A07F",
"E 	c #A59071",
"F 	c #9D886B",
"G 	c #A28E73",
"H 	c #A28E75",
"I 	c #A4927A",
"J 	c #9F8E7A",
"K 	c #9A8B76",
"L 	c #8F806D",
"M 	c #807360",
"N 	c #756D58",
"O 	c #756F59",
"P 	c #7C7660",
"Q 	c #857F69",
"R 	c #868068",
"S 	c #8C856B",
"T 	c #8B7F65",
"U 	c #96866C",
"V 	c #A79378",
"W 	c #9F876B",
"X 	c #A38A6C",
"Y 	c #C6AB8D",
"Z 	c #C0A385",
"` 	c #CBAE90",
" .	c #CAAF92",
"..	c #B8A182",
"+.	c #AB967B",
"@.	c #AF9B80",
"#.	c #A9987E",
"$.	c #988871",
"%.	c #968A74",
"&.	c #948975",
"*.	c #B69F80",
"=.	c #B09B7E",
"-.	c #A69375",
";.	c #A89479",
">.	c #A8977D",
",.	c #9C8C73",
"'.	c #9C8C75",
").	c #998A75",
"!.	c #877B65",
"~.	c #7C6F5C",
"{.	c #766B57",
"].	c #746955",
"^.	c #776F5A",
"/.	c #7F7762",
"(.	c #817962",
"_.	c #7F755C",
":.	c #877B61",
"<.	c #97896E",
"[.	c #9A896D",
"}.	c #A28B6C",
"|.	c #BFA687",
"1.	c #CEB395",
"2.	c #D2B597",
"3.	c #BCA183",
"4.	c #B59C7E",
"5.	c #B69E82",
"6.	c #AE997E",
"7.	c #A5947A",
"8.	c #91826B",
"9.	c #887D69",
"0.	c #857D68",
"a.	c #B49C80",
"b.	c #B39B7F",
"c.	c #B29D82",
"d.	c #AA967D",
"e.	c #A6967C",
"f.	c #A19379",
"g.	c #8F836B",
"h.	c #8D816B",
"i.	c #847963",
"j.	c #7D725E",
"k.	c #7E735F",
"l.	c #847965",
"m.	c #857A66",
"n.	c #500000",
"o.	c #97866A",
"p.	c #998668",
"q.	c #A18A6B",
"r.	c #BAA182",
"s.	c #CBB092",
"t.	c #C3A88A",
"u.	c #CCB193",
"v.	c #AF9476",
"w.	c #A78E70",
"x.	c #AF9A7D",
"y.	c #AB977E",
"z.	c #9D8B73",
"A.	c #94846B",
"B.	c #887C64",
"C.	c #877F6A",
"D.	c #857E6B",
"E.	c #B9A189",
"F.	c #A8927A",
"G.	c #9C8A72",
"H.	c #9F9177",
"I.	c #9D9179",
"J.	c #897E68",
"K.	c #7A725B",
"L.	c #6D6550",
"M.	c #746E58",
"N.	c #7C745F",
"O.	c #837864",
"P.	c #F84070",
"Q.	c #F8D870",
"R.	c #C5AC8D",
"S.	c #CBB293",
"T.	c #C1A688",
"U.	c #C7AC8E",
"V.	c #B99E80",
"W.	c #B09779",
"X.	c #AA957A",
"Y.	c #A08E76",
"Z.	c #978770",
"`.	c #8F8069",
" +	c #857963",
".+	c #776F5C",
"++	c #746D5A",
"@+	c #A7917A",
"#+	c #9A846D",
"$+	c #9B8971",
"%+	c #95856E",
"&+	c #867E67",
"*+	c #817B63",
"=+	c #7D7862",
"-+	c #66614B",
";+	c #78725A",
">+	c #796E58",
",+	c #B02860",
"'+	c #F8F8F8",
")+	c #D8A038",
"!+	c #C0A685",
"~+	c #B39A7B",
"{+	c #AB9274",
"]+	c #A19076",
"^+	c #998970",
"/+	c #867A64",
"(+	c #7F7460",
"_+	c #79725F",
":+	c #76715E",
"<+	c #A58F7A",
"[+	c #8F7A65",
"}+	c #908069",
"|+	c #8C7D68",
"1+	c #7D725C",
"2+	c #7F7961",
"3+	c #6A6851",
"4+	c #7E765F",
"5+	c #000000",
"6+	c #B89F80",
"7+	c #AD9677",
"8+	c #A78F73",
"9+	c #A49379",
"0+	c #968770",
"a+	c #887C66",
"b+	c #786D59",
"c+	c #746C59",
"d+	c #7B7462",
"e+	c #797461",
"f+	c #A48F7C",
"g+	c #8A7864",
"h+	c #8A7B66",
"i+	c #887B68",
"j+	c #7D7761",
"k+	c #716C56",
"l+	c #74725B",
"m+	c #827D67",
"n+	c #7E7963",
"o+	c #A89172",
"p+	c #9C896B",
"q+	c #98876B",
"r+	c #99896F",
"s+	c #92846A",
"t+	c #80745E",
"u+	c #706551",
"v+	c #6A624F",
"w+	c #7A7361",
"x+	c #75705D",
"y+	c #988775",
"z+	c #8A7B68",
"A+	c #877A67",
"B+	c #716954",
"C+	c #7B7660",
"D+	c #77725C",
"E+	c #837D65",
"F+	c #968569",
"G+	c #95856B",
"H+	c #94866C",
"I+	c #8A7E66",
"J+	c #796E5A",
"K+	c #726A57",
"L+	c #6E6653",
"M+	c #766F5D",
"N+	c #807362",
"O+	c #7E7160",
"P+	c #857A68",
"Q+	c #7C7461",
"R+	c #756E5B",
"S+	c #7C7562",
"T+	c #787059",
"U+	c #877D64",
"V+	c #998B71",
"W+	c #F87068",
"X+	c #8F7F65",
"Y+	c #8E8066",
"Z+	c #726753",
"`+	c #7A725F",
" @	c #756D5A",
".@	c #78715E",
"+@	c #807865",
"@@	c #79715E",
"#@	c #8E866F",
"$@	c #867A62",
"%@	c #9D896E",
"&@	c #AC977A",
"*@	c #F8D0C0",
"=@	c #8C7E64",
"-@	c #877B63",
";@	c #7F745E",
">@	c #706853",
",@	c #6C6451",
"'@	c #837B68",
")@	c #7D7562",
"!@	c #7F7764",
"~@	c #827B68",
"{@	c #736C5A",
"]@	c #78715F",
"^@	c #807766",
"/@	c #7C715F",
"(@	c #8E826C",
"_@	c #9F8D75",
":@	c #885818",
"<@	c #827A63",
"[@	c #6B654F",
"}@	c #6C6552",
"|@	c #857C6B",
"1@	c #877F6C",
"2@	c #89816C",
"3@	c #63604D",
"4@	c #736E5B",
"5@	c #7D7865",
"6@	c #857E6C",
"7@	c #897E6C",
"8@	c #8C7F6C",
"9@	c #90816E",
"0@	c #807059",
"a@	c #94826A",
"b@	c #A18D74",
"c@	c #7E7860",
"d@	c #78725C",
"e@	c #726C56",
"f@	c #726B58",
"g@	c #827968",
"h@	c #807563",
"i@	c #757460",
"j@	c #797864",
"k@	c #746F5C",
"l@	c #77705E",
"m@	c #91826F",
"n@	c #A08F7D",
"o@	c #947F6A",
"p@	c #A68E74",
"q@	c #776F58",
"r@	c #77715B",
"s@	c #7D7864",
"t@	c #7A7360",
"u@	c #7E7564",
"v@	c #7A6F5D",
"w@	c #7A6D5C",
"x@	c #827562",
"y@	c #82816D",
"z@	c #797663",
"A@	c #6D6854",
"B@	c #92836E",
"C@	c #A3917B",
"D@	c #9F8971",
"E@	c #9E866C",
"F@	c #68604B",
"G@	c #6E6754",
"H@	c #7F7865",
"I@	c #87806D",
"J@	c #817A67",
"K@	c #7E7663",
"L@	c #7D7260",
"M@	c #83745F",
"N@	c #8F806B",
"O@	c #8A8571",
"P@	c #766F5C",
"Q@	c #746C57",
"R@	c #837862",
"S@	c #8B7D63",
"T@	c #938369",
"U@	c #A49173",
"V@	c #AE997A",
"W@	c #CFB795",
"X@	c #D3B998",
"Y@	c #716857",
"Z@	c #79705F",
"`@	c #817966",
" #	c #867B69",
".#	c #776B55",
"+#	c #88785F",
"@#	c #8C7C62",
"##	c #89816E",
"$#	c #8A826D",
"%#	c #867B65",
"&#	c #97876D",
"*#	c #9E8D6F",
"=#	c #AA9675",
"-#	c #BDA684",
";#	c #C6AE8A",
">#	c #D1B995",
",#	c #D0B693",
"'#	c #C9AF8E",
")#	c #756A58",
"!#	c #7B705E",
"~#	c #877E6D",
"{#	c #887D6B",
"]#	c #8A7D6A",
"^#	c #84755E",
"/#	c #958468",
"(#	c #817662",
"_#	c #958973",
":#	c #90846C",
"<#	c #8D7F65",
"[#	c #A09174",
"}#	c #A89877",
"|#	c #B09C7B",
"1#	c #C9B290",
"2#	c #D2BA96",
"3#	c #CDB591",
"4#	c #C4AA89",
"5#	c #C1A786",
"6#	c #C2A98A",
"7#	c #847764",
"8#	c #736856",
"9#	c #8D8270",
"0#	c #8B7E6B",
"a#	c #847560",
"b#	c #92826B",
"c#	c #A7967C",
"d#	c #A59478",
"e#	c #81725B",
"f#	c #90816A",
"g#	c #928269",
"h#	c #A9987A",
"i#	c #B4A181",
"j#	c #BBA786",
"k#	c #CDB694",
"l#	c #D7BF9B",
"m#	c #CCB490",
"n#	c #BFA785",
"o#	c #766B59",
"p#	c #847967",
"q#	c #918471",
"r#	c #8B7C67",
"s#	c #91826D",
"t#	c #91816A",
"u#	c #897962",
"v#	c #A6957B",
"w#	c #A29175",
"x#	c #8E7E64",
"y#	c #8B7B61",
"z#	c #AA9779",
"A#	c #B7A484",
"B#	c #C0AC8B",
"C#	c #CCB593",
"D#	c #C5AD8B",
"E#	c #C0A886",
"F#	c #B9A081",
"G#	c #978B75",
"H#	c #9D8E79",
"I#	c #96866F",
"J#	c #9C8B71",
"K#	c #918066",
"L#	c #9E8D73",
"M#	c #A39278",
"N#	c #9D8A6C",
"O#	c #948163",
"P#	c #A38E71",
"Q#	c #BAA586",
"R#	c #C2AE8D",
"S#	c #C8B191",
"T#	c #CBB492",
"U#	c #C5AE8C",
"V#	c #B49D7B",
"W#	c #B09979",
"X#	c #8B7F69",
"Y#	c #988972",
"Z#	c #A1917A",
"`#	c #9C886D",
" $	c #AA997F",
".$	c #9E8768",
"+$	c #A79071",
"@$	c #B39C7D",
"#$	c #C1AA8A",
"$$	c #CAB393",
"%$	c #BDA686",
"&$	c #AB9677",
"*$	c #A89374",
"=$	c #AC997B",
"-$	c #203088",
";$	c #897A65",
">$	c #8A7B64",
",$	c #A29177",
"'$	c #A49075",
")$	c #A69277",
"!$	c #AD987B",
"~$	c #A59073",
"{$	c #A9957C",
"]$	c #997E60",
"^$	c #B79E7F",
"/$	c #C0A788",
"($	c #D0B798",
"_$	c #CDB495",
":$	c #BFA888",
"<$	c #C1AC8D",
"[$	c #C0AB8C",
"}$	c #9F8C6E",
"|$	c #958264",
"1$	c #9F8B70",
"2$	c #94856E",
"3$	c #93836A",
"4$	c #9A896F",
"5$	c #AE9A7F",
"6$	c #AD997E",
"7$	c #AB9679",
"8$	c #AB9475",
"9$	c #A28D70",
"0$	c #A8947B",
"a$	c #BA9D7D",
"b$	c #D2B897",
"c$	c #C6AC8B",
"d$	c #C8AE8D",
"e$	c #C1AA8B",
"f$	c #B29D80",
"g$	c #B8A386",
"h$	c #95846A",
"i$	c #408098",
"j$	c #80D8C8",
"k$	c #A29279",
"l$	c #A69579",
"m$	c #A59176",
"n$	c #A89376",
"o$	c #A38F74",
"p$	c #96846C",
"q$	c #D1B492",
"r$	c #D6BC99",
"s$	c #C3A988",
"t$	c #B0997A",
"u$	c #B49F82",
"v$	c #AC987D",
"w$	c #A9957A",
"x$	c #A8977B",
"y$	c #B1A084",
"z$	c #AF9C7E",
"A$	c #9B886A",
"B$	c #9A8568",
"C$	c #9B876C",
"D$	c #897960",
"E$	c #8C7D66",
"F$	c #D1B794",
"G$	c #BAA384",
"H$	c #A99477",
"I$	c #98876D",
"J$	c #A09077",
"K$	c #9F8F76",
"L$	c #AE9D83",
"M$	c #B8A489",
"N$	c #BCA98B",
"O$	c #948065",
"P$	c #948369",
"Q$	c #BFA582",
"R$	c #C3AB89",
"S$	c #BCA482",
"T$	c #B49D7D",
"U$	c #A79275",
"V$	c #8B7F67",
"W$	c #B5A284",
"X$	c #B19E80",
"Y$	c #B09D7F",
"Z$	c #AA967B",
"`$	c #99886C",
" %	c #8D7D63",
".%	c #85755C",
"+%	c #7D6F55",
"@%	c #7A6E58",
"#%	c #BAA280",
"$%	c #B79F7D",
"%%	c #AE9576",
"&%	c #968267",
"*%	c #9F8F78",
"=%	c #837761",
"-%	c #8D836A",
";%	c #92886D",
">%	c #8B8166",
",%	c #BDA889",
"'%	c #A48F72",
")%	c #AB987A",
"!%	c #9E8D71",
"~%	c #8C7B61",
"{%	c #918168",
"]%	c #817359",
"^%	c #7A6E56",
"/%	c #736751",
"(%	c #BDA583",
"_%	c #AD9676",
":%	c #A69174",
"<%	c #9E8A71",
"[%	c #8D806D",
"}%	c #867B67",
"|%	c #8B806C",
"1%	c #928771",
"2%	c #958B72",
"3%	c #BFA889",
"4%	c #A99273",
"5%	c #9F8869",
"6%	c #97866C",
"7%	c #817158",
"8%	c #887962",
"9%	c #796D57",
"0%	c #80755F",
"a%	c #827763",
"b%	c #B39C7C",
"c%	c #A79070",
"d%	c #A58E6F",
"e%	c #A39179",
"f%	c #887966",
"g%	c #928574",
"h%	c #8C7F6E",
"i%	c #908571",
"j%	c #928773",
"k%	c #8F8770",
"l%	c #B49B7C",
"m%	c #A68D6E",
"n%	c #A68F70",
"o%	c #968164",
"p%	c #8C785D",
"q%	c #88775D",
"r%	c #74644B",
"s%	c #81755D",
"t%	c #766B55",
"u%	c #807863",
"v%	c #827A65",
"w%	c #A18E70",
"x%	c #9A866B",
"y%	c #928167",
"z%	c #93836C",
"A%	c #8D7E69",
"B%	c #857865",
"C%	c #8E836D",
"D%	c #86765D",
"E%	c #75664F",
"F%	c #8C806A",
"G%	c #817660",
"H%	c #847C67",
"I%	c #7D7560",
"J%	c #7E7661",
"K%	c #97876E",
"L%	c #96886E",
"M%	c #90846E",
"N%	c #95866F",
"O%	c #A7977D",
"P%	c #BDAC90",
"Q%	c #C0AD8F",
"R%	c #A89577",
"S%	c #908067",
"T%	c #7B6C55",
"U%	c #82735C",
"V%	c #7B6F59",
"W%	c #7E725C",
"X%	c #827761",
"Y%	c #91856F",
"Z%	c #847862",
"`%	c #9C8D76",
" &	c #9C8C72",
".&	c #B29E85",
"+&	c #BCA88D",
"@&	c #C8B396",
"#&	c #C9B495",
"$&	c #C3AA8C",
"%&	c #B19A7A",
"&&	c #A58D71",
"*&	c #A28F71",
"=&	c #99886E",
"-&	c #8F8167",
";&	c #857661",
">&	c #6D614B",
",&	c #7D715B",
"'&	c #7F735D",
")&	c #7C705A",
"!&	c #908370",
"  . + @ # $ % & * = - ; > , ' ) ! ~ { ] ^ / ( _ : < [ } | 1 2 3 4 5 ",
"6 7 8 9 0 a b c d = e f g h i j k l m n o p q r : s t u v w x y z A ",
"B C D E F G H I J K L M N O P Q R S T U V W X Y Z `  ...+.@.#.$.%.&.",
"*.9 =.-.;.>.,.'.).!.~.{.].^./.(._.:.<.[./ }.|.1.2.3.4.5.6.7.y 8.9.0.",
"a.b.c.d.e.f.g.h.i.j.k.l.m.n.n.n.n.n.o.p.q.r.s.t.u.v.w.x.y.z.A.B.C.D.",
"E.F.H G.H.I.J.K.L.M.N.O.n.P.P.Q.P.P.n.n.R.S.T.U.V.W.# X.Y.Z.`. +.+++",
"@+#+$+%+B.&+*+=+-+, ;+>+n.,+'+Q.)+,+P.P.n.!+~+|.{+b.@.]+^+8./+(+_+:+",
"<+[+}+|+1+2+=+, 3+=+4+5+5+5+5+5+5+5+,+,+P.n.6+7+8+6.9+^+0+a+b+c+d+e+",
"f+g+h+i+g j+k+l+m+n+5+5+5+5+5+5+5+5+5+5+,+P.n.o+p+q+r+s+t+].u+v+w+x+",
"y+z+A+b+B+P j C+D+E+5+5+5+5+5+5+5+5+5+5+5+,+,+n.F+G+H+I+J+].K+L+M+x+",
"N+O+P+Q+R+S+P h T+U+V+5+5+'+'+W+'+'+W+5+5+,+,+n.X+Y+I+1+Z+c+`+ @++.@",
"+@.+@@`+c+ @g #@$@s+r+%@&@'+5+*@5+'+W+W+5+5+*@W+=@-@;@>@,@`+'@)@!@~@",
"M+{@]@^@Q+/@i+(@}+_@;.:@*@'+5+*@5+'+*@W+5+5+*@:@W+<@T+[@}@S+|@)@1@2@",
"3@4@5@6@7@8@9@0@a@b@+.:@*@*@*@W+W+*@*@5+5+5+W+:@W+c@d@e@f@S+g@@@h@O.",
"i@j@k@l@h@m@n@o@#+p@a.:@W+W+W+W+:@5+*@*@5+W+W+W+q@r@S+s@t@S+u@v@w@x@",
"y@z@A@Q+f B@C@D@E@b.5+5+5+5+5+5+5+5+5+W+W+W+5+5+F@G@H@I@J@K@)@L@M@N@",
"O@P@Q@R@S@T@U@V@C W@X@5+5+5+5+5+5+*@*@W+W+5+5+v@`+Y@Z@u@`@ #/@.#+#@#",
"##$#%#B.&#*#=#-#;#>#,#'#:@W+W+W+W+W+W+W+:@5+)#!#g@^@~#{#7@]#M ^#T@/#",
"(#_#:#<#[#}#|#1#2#3#4#5#6#:@:@:@n.n.,+,+n.7#8#h@L@ #9#f 0#|+a#b#c#d#",
"e#f#g#G+h#i#j#k#l#m#n#r.:@'+'+'+:@,+n.P.P.n.o#p#!#0#q#r#s#t#u#$+v#w#",
"x#y#F+z#A#B#1#C#D#E#F#:@'+'+'+'+'+:@P.P.P.,+n.x@f G#H#I#,.J#K#L#M#L#",
"N#O#P#Q#R#S#T#U#V#W#W#:@'+'+'+'+'+:@P.P.,+,+n.t+X#Y#Z#z.M#V `#G  $9+",
".$+$@$#$$$$$8 #$%$&$*$=$:@'+'+'+:@,+P.,+,+n.-$;$>$A.,$'$)$!$~$P#{$Y.",
"]$^$/$6#($_$:$<$[$}$|$1$'+:@:@:@n.n.,+,+n.-$-$2$3$4$5$6$7$=.8$9$0$z.",
"a$b$c$d$S./$e$f$g$6$`#h$-$i$j$j$j$n.n.n.-$i$-$k$L#l$m$U@7$=.n$o$p$$.",
"q$r$s$D#6#t$u$v$w$#.,$U -$i$j$j$j$j$j$i$i$i$-$ $x$y$z$U@N#A$B$C$D$E$",
"F$F$4#R.G$H$w$I$z.J$K$s+=@-$i$-$j$j$i$i$i$-$L$M$w N$M$V 1$/#O$P$^# +",
"Q$R$S$T$U$)$7.+#$.f#f#V$T -$i$-$i$i$i$i$i$-$5$W$X$Y$Z$`$4$ %.%+%.#@%",
"#%$%%%}.&%4$*%|+s#=%/+-%;%>%-$-$-$-$-$-$-$,%&@'%)%-.!%~%{%]%^%/%R@m.",
"(%_%+$:%<%3$s#q#[%}%|%1%2%5+:@5+:@:@:@:@:@3%4%5%9$`#6%7%8%9%0%(#a%m.",
"b%c%d%V e%t#f%g%h%i%j%k%5+Q.5+Q.:@:@:@:@5+l%m%n%o%p%q%r%s%t%u%v%0.2@",
":%w%x%y%z%A%B%A ]#&.j%C%5+5+5+5+5+5+5+5+5+b%o+U$1$~%D%E%F%G%H%I%J%v%",
"K%L%`.>$a+ +A+M%h.N%Y#s+O%y$P%Q%S#6+4%n$R%G I$h$S%T%U%9%V%W%X%j.k.(+",
"Y%Y%X#!.m.a%Z%h.0+`%k$ &.&+&@&#&$&%&&&*&H =&g#-&;&>&@%,&'&)&a+M%!&q#"};
