/* XPM */
static char * mario_s_xpm[] = {
"34 34 636 2",
"  	c #97835E",
". 	c #917D58",
"+ 	c #A58E6E",
"@ 	c #AC9575",
"# 	c #AD9579",
"$ 	c #BCA48A",
"% 	c #B8A088",
"& 	c #A58F78",
"* 	c #A7907E",
"= 	c #A89682",
"- 	c #91806E",
"; 	c #796C59",
"> 	c #79715C",
", 	c #746F59",
"' 	c #69644E",
") 	c #67654E",
"! 	c #817C66",
"~ 	c #847E66",
"{ 	c #89816A",
"] 	c #85795F",
"^ 	c #817056",
"/ 	c #937E61",
"( 	c #A78D72",
"_ 	c #A78C6F",
": 	c #B19476",
"< 	c #BA9D7F",
"[ 	c #BCA184",
"} 	c #C2A98B",
"| 	c #CBB399",
"1 	c #BEAA8F",
"2 	c #AC987F",
"3 	c #A4947B",
"4 	c #9D8C78",
"5 	c #9A8B78",
"6 	c #9C8865",
"7 	c #AA9673",
"8 	c #C4AD8D",
"9 	c #B49D7E",
"0 	c #967E62",
"a 	c #968166",
"b 	c #A69078",
"c 	c #B49E87",
"d 	c #A38E7B",
"e 	c #9B8C79",
"f 	c #897C69",
"g 	c #817964",
"h 	c #7B755F",
"i 	c #75705A",
"j 	c #7A755F",
"k 	c #89846E",
"l 	c #88826A",
"m 	c #7D735A",
"n 	c #85775D",
"o 	c #9C8B6F",
"p 	c #998467",
"q 	c #947B5D",
"r 	c #A98E71",
"s 	c #C6A98B",
"t 	c #C9AE91",
"u 	c #BCA385",
"v 	c #B8A086",
"w 	c #B6A287",
"x 	c #AB9A80",
"y 	c #9E8E75",
"z 	c #978873",
"A 	c #948774",
"B 	c #B7A080",
"C 	c #B59E7E",
"D 	c #B4A07F",
"E 	c #A59071",
"F 	c #9D886B",
"G 	c #A28E73",
"H 	c #A28E75",
"I 	c #A4927A",
"J 	c #9F8E7A",
"K 	c #9A8B76",
"L 	c #8F806D",
"M 	c #807360",
"N 	c #756D58",
"O 	c #756F59",
"P 	c #7C7660",
"Q 	c #857F69",
"R 	c #868068",
"S 	c #8C856B",
"T 	c #8B7F65",
"U 	c #96866C",
"V 	c #A79378",
"W 	c #9F876B",
"X 	c #A38A6C",
"Y 	c #C6AB8D",
"Z 	c #C0A385",
"` 	c #CBAE90",
" .	c #CAAF92",
"..	c #B8A182",
"+.	c #AB967B",
"@.	c #AF9B80",
"#.	c #A9987E",
"$.	c #988871",
"%.	c #968A74",
"&.	c #948975",
"*.	c #B69F80",
"=.	c #B09B7E",
"-.	c #A69375",
";.	c #A89479",
">.	c #A8977D",
",.	c #9C8C73",
"'.	c #9C8C75",
").	c #998A75",
"!.	c #877B65",
"~.	c #7C6F5C",
"{.	c #766B57",
"].	c #746955",
"^.	c #776F5A",
"/.	c #500000",
"(.	c #885818",
"_.	c #97896E",
":.	c #9A896D",
"<.	c #A28B6C",
"[.	c #BFA687",
"}.	c #CEB395",
"|.	c #D2B597",
"1.	c #BCA183",
"2.	c #B59C7E",
"3.	c #B69E82",
"4.	c #AE997E",
"5.	c #A5947A",
"6.	c #91826B",
"7.	c #887D69",
"8.	c #857D68",
"9.	c #B49C80",
"0.	c #B39B7F",
"a.	c #B29D82",
"b.	c #AA967D",
"c.	c #A6967C",
"d.	c #A19379",
"e.	c #8F836B",
"f.	c #8D816B",
"g.	c #847963",
"h.	c #7D725E",
"i.	c #7E735F",
"j.	c #847965",
"k.	c #F84070",
"l.	c #D8A038",
"m.	c #F8D870",
"n.	c #A18A6B",
"o.	c #BAA182",
"p.	c #CBB092",
"q.	c #C3A88A",
"r.	c #CCB193",
"s.	c #AF9476",
"t.	c #A78E70",
"u.	c #AF9A7D",
"v.	c #AB977E",
"w.	c #9D8B73",
"x.	c #94846B",
"y.	c #887C64",
"z.	c #877F6A",
"A.	c #857E6B",
"B.	c #B9A189",
"C.	c #A8927A",
"D.	c #9C8A72",
"E.	c #9F9177",
"F.	c #9D9179",
"G.	c #897E68",
"H.	c #7A725B",
"I.	c #6D6550",
"J.	c #746E58",
"K.	c #7C745F",
"L.	c #B02860",
"M.	c #F8F8F8",
"N.	c #CBB293",
"O.	c #C1A688",
"P.	c #C7AC8E",
"Q.	c #B99E80",
"R.	c #B09779",
"S.	c #AA957A",
"T.	c #A08E76",
"U.	c #978770",
"V.	c #8F8069",
"W.	c #857963",
"X.	c #776F5C",
"Y.	c #746D5A",
"Z.	c #A7917A",
"`.	c #9A846D",
" +	c #9B8971",
".+	c #95856E",
"++	c #867E67",
"@+	c #817B63",
"#+	c #7D7862",
"$+	c #66614B",
"%+	c #000000",
"&+	c #B39A7B",
"*+	c #AB9274",
"=+	c #A19076",
"-+	c #998970",
";+	c #867A64",
">+	c #7F7460",
",+	c #79725F",
"'+	c #76715E",
")+	c #A58F7A",
"!+	c #8F7A65",
"~+	c #908069",
"{+	c #8C7D68",
"]+	c #7D725C",
"^+	c #7F7961",
"/+	c #6A6851",
"(+	c #B89F80",
"_+	c #AD9677",
":+	c #A78F73",
"<+	c #A49379",
"[+	c #968770",
"}+	c #887C66",
"|+	c #786D59",
"1+	c #746C59",
"2+	c #7B7462",
"3+	c #797461",
"4+	c #A48F7C",
"5+	c #8A7864",
"6+	c #8A7B66",
"7+	c #887B68",
"8+	c #7D7761",
"9+	c #716C56",
"0+	c #74725B",
"a+	c #827D67",
"b+	c #7E7963",
"c+	c #B49B7D",
"d+	c #A89172",
"e+	c #9C896B",
"f+	c #98876B",
"g+	c #99896F",
"h+	c #92846A",
"i+	c #80745E",
"j+	c #706551",
"k+	c #6A624F",
"l+	c #7A7361",
"m+	c #75705D",
"n+	c #988775",
"o+	c #8A7B68",
"p+	c #877A67",
"q+	c #716954",
"r+	c #7B7660",
"s+	c #77725C",
"t+	c #837D65",
"u+	c #F87068",
"v+	c #B0997A",
"w+	c #AB9679",
"x+	c #968569",
"y+	c #95856B",
"z+	c #94866C",
"A+	c #8A7E66",
"B+	c #796E5A",
"C+	c #726A57",
"D+	c #6E6653",
"E+	c #766F5D",
"F+	c #807362",
"G+	c #7E7160",
"H+	c #857A68",
"I+	c #7C7461",
"J+	c #756E5B",
"K+	c #7C7562",
"L+	c #787059",
"M+	c #F8D0C0",
"N+	c #AE9D81",
"O+	c #8F7F65",
"P+	c #8E8066",
"Q+	c #726753",
"R+	c #7A725F",
"S+	c #756D5A",
"T+	c #78715E",
"U+	c #807865",
"V+	c #79715E",
"W+	c #8E866F",
"X+	c #8C7E64",
"Y+	c #877B63",
"Z+	c #7F745E",
"`+	c #706853",
" @	c #6C6451",
".@	c #837B68",
"+@	c #7D7562",
"@@	c #7F7764",
"#@	c #827B68",
"$@	c #736C5A",
"%@	c #78715F",
"&@	c #807766",
"*@	c #7C715F",
"=@	c #8E826C",
"-@	c #8A8067",
";@	c #827A63",
">@	c #6B654F",
",@	c #6C6552",
"'@	c #857C6B",
")@	c #877F6C",
"!@	c #89816C",
"~@	c #63604D",
"{@	c #736E5B",
"]@	c #7D7865",
"^@	c #857E6C",
"/@	c #897E6C",
"(@	c #8C7F6C",
"_@	c #90816E",
":@	c #807059",
"<@	c #94826A",
"[@	c #81775E",
"}@	c #857D66",
"|@	c #7E7860",
"1@	c #78725C",
"2@	c #726C56",
"3@	c #726B58",
"4@	c #827968",
"5@	c #807563",
"6@	c #837864",
"7@	c #757460",
"8@	c #797864",
"9@	c #746F5C",
"0@	c #77705E",
"a@	c #91826F",
"b@	c #A08F7D",
"c@	c #947F6A",
"d@	c #A68E74",
"e@	c #7F735B",
"f@	c #796E58",
"g@	c #776F58",
"h@	c #77715B",
"i@	c #7D7864",
"j@	c #7A7360",
"k@	c #7E7564",
"l@	c #7A6F5D",
"m@	c #7A6D5C",
"n@	c #827562",
"o@	c #82816D",
"p@	c #797663",
"q@	c #6D6854",
"r@	c #92836E",
"s@	c #A3917B",
"t@	c #9F8971",
"u@	c #9E866C",
"v@	c #CEB597",
"w@	c #8E7F68",
"x@	c #817662",
"y@	c #68604B",
"z@	c #6E6754",
"A@	c #7F7865",
"B@	c #87806D",
"C@	c #817A67",
"D@	c #7E7663",
"E@	c #7D7260",
"F@	c #83745F",
"G@	c #8F806B",
"H@	c #8A8571",
"I@	c #766F5C",
"J@	c #746C57",
"K@	c #837862",
"L@	c #8B7D63",
"M@	c #938369",
"N@	c #A49173",
"O@	c #AE997A",
"P@	c #716857",
"Q@	c #79705F",
"R@	c #817966",
"S@	c #867B69",
"T@	c #776B55",
"U@	c #88785F",
"V@	c #8C7C62",
"W@	c #89816E",
"X@	c #8A826D",
"Y@	c #867B65",
"Z@	c #97876D",
"`@	c #9E8D6F",
" #	c #AA9675",
".#	c #BDA684",
"+#	c #877E6D",
"@#	c #887D6B",
"##	c #8A7D6A",
"$#	c #84755E",
"%#	c #958468",
"&#	c #958973",
"*#	c #90846C",
"=#	c #8D7F65",
"-#	c #A09174",
";#	c #A89877",
">#	c #B09C7B",
",#	c #C9B290",
"'#	c #408098",
")#	c #8D8270",
"!#	c #8B7E6B",
"~#	c #847560",
"{#	c #92826B",
"]#	c #A7967C",
"^#	c #A59478",
"/#	c #81725B",
"(#	c #90816A",
"_#	c #928269",
":#	c #A9987A",
"<#	c #B4A181",
"[#	c #BBA786",
"}#	c #CDB694",
"|#	c #80D8C8",
"1#	c #7B705E",
"2#	c #918471",
"3#	c #8B7C67",
"4#	c #91826D",
"5#	c #91816A",
"6#	c #897962",
"7#	c #A6957B",
"8#	c #A29175",
"9#	c #8E7E64",
"0#	c #8B7B61",
"a#	c #AA9779",
"b#	c #B7A484",
"c#	c #C0AC8B",
"d#	c #CCB593",
"e#	c #978B75",
"f#	c #9D8E79",
"g#	c #96866F",
"h#	c #9C8B71",
"i#	c #918066",
"j#	c #9E8D73",
"k#	c #A39278",
"l#	c #9D8A6C",
"m#	c #948163",
"n#	c #A38E71",
"o#	c #BAA586",
"p#	c #C2AE8D",
"q#	c #C8B191",
"r#	c #CBB492",
"s#	c #C5AE8C",
"t#	c #B49D7B",
"u#	c #8B7F69",
"v#	c #988972",
"w#	c #A1917A",
"x#	c #9C886D",
"y#	c #AA997F",
"z#	c #9E8768",
"A#	c #A79071",
"B#	c #B39C7D",
"C#	c #C1AA8A",
"D#	c #CAB393",
"E#	c #BDA686",
"F#	c #AB9677",
"G#	c #203088",
"H#	c #897A65",
"I#	c #8A7B64",
"J#	c #A29177",
"K#	c #A49075",
"L#	c #A69277",
"M#	c #AD987B",
"N#	c #A59073",
"O#	c #A9957C",
"P#	c #997E60",
"Q#	c #B79E7F",
"R#	c #C0A788",
"S#	c #C2A98A",
"T#	c #D0B798",
"U#	c #CDB495",
"V#	c #BFA888",
"W#	c #C1AC8D",
"X#	c #C0AB8C",
"Y#	c #9F8C6E",
"Z#	c #94856E",
"`#	c #93836A",
" $	c #9A896F",
".$	c #AE9A7F",
"+$	c #AD997E",
"@$	c #AB9475",
"#$	c #A28D70",
"$$	c #A8947B",
"%$	c #BA9D7D",
"&$	c #D2B897",
"*$	c #C6AC8B",
"=$	c #C8AE8D",
"-$	c #C1AA8B",
";$	c #B29D80",
">$	c #B8A386",
",$	c #9A8B74",
"'$	c #A29279",
")$	c #A69579",
"!$	c #A59176",
"~$	c #A89376",
"{$	c #A38F74",
"]$	c #96846C",
"^$	c #D1B492",
"/$	c #D6BC99",
"($	c #C3A988",
"_$	c #C5AD8B",
":$	c #B49F82",
"<$	c #AC987D",
"[$	c #A9957A",
"}$	c #A5957C",
"|$	c #A8987F",
"1$	c #A8977B",
"2$	c #B1A084",
"3$	c #AF9C7E",
"4$	c #9B886A",
"5$	c #9A8568",
"6$	c #9B876C",
"7$	c #897960",
"8$	c #8C7D66",
"9$	c #D1B794",
"0$	c #C4AA89",
"a$	c #C5AC8D",
"b$	c #BAA384",
"c$	c #A99477",
"d$	c #98876D",
"e$	c #A09077",
"f$	c #9F8F76",
"g$	c #AE9D83",
"h$	c #B8A489",
"i$	c #BCA98B",
"j$	c #9F8B70",
"k$	c #948065",
"l$	c #948369",
"m$	c #BFA582",
"n$	c #C3AB89",
"o$	c #BCA482",
"p$	c #B49D7D",
"q$	c #A79275",
"r$	c #8B7F67",
"s$	c #AC997B",
"t$	c #B5A284",
"u$	c #B19E80",
"v$	c #B09D7F",
"w$	c #AA967B",
"x$	c #99886C",
"y$	c #8D7D63",
"z$	c #85755C",
"A$	c #7D6F55",
"B$	c #7A6E58",
"C$	c #BAA280",
"D$	c #B79F7D",
"E$	c #AE9576",
"F$	c #968267",
"G$	c #9F8F78",
"H$	c #837761",
"I$	c #BDA889",
"J$	c #AC977A",
"K$	c #A48F72",
"L$	c #AB987A",
"M$	c #9E8D71",
"N$	c #8C7B61",
"O$	c #918168",
"P$	c #817359",
"Q$	c #7A6E56",
"R$	c #736751",
"S$	c #857A66",
"T$	c #BDA583",
"U$	c #AD9676",
"V$	c #A69174",
"W$	c #9E8A71",
"X$	c #8D806D",
"Y$	c #867B67",
"Z$	c #A99273",
"`$	c #9F8869",
" %	c #97866C",
".%	c #817158",
"+%	c #887962",
"@%	c #796D57",
"#%	c #80755F",
"$%	c #827763",
"%%	c #B39C7C",
"&%	c #A79070",
"*%	c #A58E6F",
"=%	c #A39179",
"-%	c #887966",
";%	c #928574",
">%	c #8C7F6E",
",%	c #908571",
"'%	c #A7997C",
")%	c #AD9879",
"!%	c #A68D6E",
"~%	c #A68F70",
"{%	c #968164",
"]%	c #8C785D",
"^%	c #88775D",
"/%	c #74644B",
"(%	c #81755D",
"_%	c #766B55",
":%	c #807863",
"<%	c #827A65",
"[%	c #A18E70",
"}%	c #9A866B",
"|%	c #928167",
"1%	c #93836C",
"2%	c #8D7E69",
"3%	c #857865",
"4%	c #928773",
"5%	c #8E836D",
"6%	c #A2967E",
"7%	c #A2967C",
"8%	c #B1A68A",
"9%	c #B8A98A",
"0%	c #C3AF8E",
"a%	c #CBB391",
"b%	c #C3AA8B",
"c%	c #AF9878",
"d%	c #86765D",
"e%	c #75664F",
"f%	c #8C806A",
"g%	c #817660",
"h%	c #847C67",
"i%	c #7D7560",
"j%	c #7E7661",
"k%	c #97876E",
"l%	c #96886E",
"m%	c #90846E",
"n%	c #95866F",
"o%	c #A7977D",
"p%	c #BDAC90",
"q%	c #C0AD8F",
"r%	c #A89577",
"s%	c #95846A",
"t%	c #908067",
"u%	c #7B6C55",
"v%	c #82735C",
"w%	c #7B6F59",
"x%	c #7E725C",
"y%	c #827761",
"z%	c #91856F",
"A%	c #847862",
"B%	c #9C8D76",
"C%	c #9C8C72",
"D%	c #B29E85",
"E%	c #BCA88D",
"F%	c #C8B396",
"G%	c #C9B495",
"H%	c #C3AA8C",
"I%	c #B19A7A",
"J%	c #A58D71",
"K%	c #A28F71",
"L%	c #99886E",
"M%	c #8F8167",
"N%	c #857661",
"O%	c #6D614B",
"P%	c #7D715B",
"Q%	c #7F735D",
"R%	c #7C705A",
"S%	c #908370",
"  . + @ # $ % & * = - ; > , ' ) ! ~ { ] ^ / ( _ : < [ } | 1 2 3 4 5 ",
"6 7 8 9 0 a b c d = e f g h i j k l m n o p q r : s t u v w x y z A ",
"B C D E F G H I J K L M N O P Q R S T U V W X Y Z `  ...+.@.#.$.%.&.",
"*.9 =.-.;.>.,.'.).!.~.{.].^./././.(._.:./ <.[.}.|.1.2.3.4.5.y 6.7.8.",
"9.0.a.b.c.d.e.f.g.h.i.j././.k.l.m.k././.n.o.p.q.r.s.t.u.v.w.x.y.z.A.",
"B.C.H D.E.F.G.H.I.J.K./.L.k.l.M.M.l.k.L./.N.O.P.Q.R.# S.T.U.V.W.X.Y.",
"Z.`. +.+y.++@+#+$+, /.L.k.%+%+%+%+%+%+k.L./.&+[.*+0.@.=+-+6.;+>+,+'+",
")+!+~+{+]+^+#+, /+#+/.L.%+%+%+%+%+%+%+%+L./.(+_+:+4.<+-+[+}+|+1+2+3+",
"4+5+6+7+g 8+9+0+a+b+/.%+%+%+%+%+%+%+%+%+%+/.c+d+e+f+g+h+i+].j+k+l+m+",
"n+o+p+|+q+P j r+s+t+/.%+%+M.M.u+u+M.M.%+%+/.v+w+x+y+z+A+B+].C+D+E+m+",
"F+G+H+I+J+K+P h L+u+%+u+M+M.%+M+M+%+M.M+u+%+u+N+O+P+A+]+Q+1+R+S+Y.T+",
"U+X.V+R+1+S+g W+u+(.%+M+M+M.%+M+M+%+M.M+M+%+(.u+X+Y+Z+`+ @R+.@+@@@#@",
"E+$@%@&@I+*@7+=@u+(.%+%+M+u+M+M+M+M+u+M+%+%+(.u+-@;@L+>@,@K+'@+@)@!@",
"~@{@]@^@/@(@_@:@<@u+%+M+%+%+u+u+u+u+%+%+M+%+u+[@}@|@1@2@3@K+4@V+5@6@",
"7@8@9@0@5@a@b@c@`.d@(.M+%+%+%+%+%+%+%+%+M+(.e@f@g@h@K+i@j@K+k@l@m@n@",
"o@p@q@I+f r@s@t@u@0.v@(.M+%+%+%+%+%+%+M+(.w@;+x@y@z@A@B@C@D@+@E@F@G@",
"H@I@J@K@L@M@N@O@C (.(.(.(.u+u+u+u+u+u+(.(.(.(.l@R+P@Q@k@R@S@*@T@U@V@",
"W@X@Y@y.Z@`@ #.#(.M.M.(.(.(.(.(.(.(.(.(.(.M.M.(.4@&@+#@#/@##M $#M@%#",
"x@&#*#=#-#;#>#,#(.M.M.(.M.(.'#L.L.'#(.M.(.M.M.(.E@S@)#f !#{+~#{#]#^#",
"/#(#_#y+:#<#[#}#(.M.M.(.M.(.|#/./.|#(.M.(.M.M.(.1#!#2#3#4#5#6# +7#8#",
"9#0#x+a#b#c#,#d#(.M.(.M.(.|#|#|#|#|#|#(.M.(.M.(.f e#f#g#,.h#i#j#k#j#",
"l#m#n#o#p#q#r#s#t#(.(.(.M.M.|#|#|#|#M.M.(.(.(.i+u#v#w#w.k#V x#G y#<+",
"z#A#B#C#D#D#8 C#E#F#G#G#M.M.|#|#|#|#M.M.G#G#=@H#I#x.J#K#L#M#N#n#O#T.",
"P#Q#R#S#T#U#V#W#X#Y#G#'#|#|#|#|#|#|#|#|#'#G#z Z#`# $.$+$w+=.@$#$$$w.",
"%$&$*$=$N.R#-$;$>$+$G#'#|#|#|#|#|#|#|#|#'#G#,$'$j#)$!$N@w+=.~${$]$$.",
"^$/$($_$S#v+:$<$[$#.J#G#'#|#|#'#'#|#|#'#G#}$|$y#1$2$3$N@l#4$5$6$7$8$",
"9$9$0$a$b$c$[$d$w.e$f$G#'#'#'#G#G#'#'#'#G#>.g$h$w i$h$V j$%#k$l$$#W.",
"m$n$o$p$q$L#5.U@$.(#(#r$G#G#G#G#G#G#G#G#;.s$.$t$u$v$w$x$ $y$z$A$T@B$",
"C$D$E$<.F$ $G${+4#H$;+%+(.(.(.%+%+(.(.(.%+I$J$K$L$-.M$N$O$P$Q$R$K@S$",
"T$U$A#V$W$`#4#2#X$Y$%+M+(.(.(.%+%+(.(.(.M+%+Z$`$#$x# %.%+%@%#%x@$%S$",
"%%&%*%V =%5#-%;%>%,%%+%+%+%+%+'%)%%+%+%+%+%+!%~%{%]%^%/%(%_%:%<%8.!@",
"V$[%}%|%1%2%3%A ##&.4%5%6%7%8%9%0%a%b%U$c%%%d+q$j$N$d%e%f%g%h%i%j%<%",
"k%l%V.I#}+W.p+m%f.n%v#h+o%2$p%q%q#(+Z$~$r%G d$s%t%u%v%@%w%x%y%h.i.>+",
"z%z%u#!.S$$%A%f.[+B%'$C%D%E%F%G%H%I%J%K%H L%_#M%N%O%B$P%Q%R%}+m%S%2#"};
