/* XPM */
static char * mario_w_xpm[] = {
"34 34 643 2",
"  	c #97835E",
". 	c #917D58",
"+ 	c #A58E6E",
"@ 	c #AC9575",
"# 	c #AD9579",
"$ 	c #BCA48A",
"% 	c #B8A088",
"& 	c #A58F78",
"* 	c #A7907E",
"= 	c #A89682",
"- 	c #91806E",
"; 	c #796C59",
"> 	c #79715C",
", 	c #746F59",
"' 	c #69644E",
") 	c #67654E",
"! 	c #817C66",
"~ 	c #847E66",
"{ 	c #89816A",
"] 	c #85795F",
"^ 	c #817056",
"/ 	c #937E61",
"( 	c #A78D72",
"_ 	c #A78C6F",
": 	c #B19476",
"< 	c #BA9D7F",
"[ 	c #BCA184",
"} 	c #C2A98B",
"| 	c #CBB399",
"1 	c #BEAA8F",
"2 	c #AC987F",
"3 	c #A4947B",
"4 	c #9D8C78",
"5 	c #9A8B78",
"6 	c #9C8865",
"7 	c #AA9673",
"8 	c #C4AD8D",
"9 	c #B49D7E",
"0 	c #967E62",
"a 	c #968166",
"b 	c #A69078",
"c 	c #B49E87",
"d 	c #A38E7B",
"e 	c #9B8C79",
"f 	c #897C69",
"g 	c #817964",
"h 	c #7B755F",
"i 	c #75705A",
"j 	c #7A755F",
"k 	c #89846E",
"l 	c #88826A",
"m 	c #7D735A",
"n 	c #85775D",
"o 	c #9C8B6F",
"p 	c #998467",
"q 	c #947B5D",
"r 	c #A98E71",
"s 	c #C6A98B",
"t 	c #C9AE91",
"u 	c #BCA385",
"v 	c #B8A086",
"w 	c #B6A287",
"x 	c #AB9A80",
"y 	c #9E8E75",
"z 	c #978873",
"A 	c #948774",
"B 	c #B7A080",
"C 	c #B59E7E",
"D 	c #B4A07F",
"E 	c #A59071",
"F 	c #9D886B",
"G 	c #A28E73",
"H 	c #A28E75",
"I 	c #A4927A",
"J 	c #9F8E7A",
"K 	c #9A8B76",
"L 	c #8F806D",
"M 	c #807360",
"N 	c #756D58",
"O 	c #756F59",
"P 	c #7C7660",
"Q 	c #885818",
"R 	c #500000",
"S 	c #96866C",
"T 	c #A79378",
"U 	c #9F876B",
"V 	c #A38A6C",
"W 	c #C6AB8D",
"X 	c #C0A385",
"Y 	c #CBAE90",
"Z 	c #CAAF92",
"` 	c #B8A182",
" .	c #AB967B",
"..	c #AF9B80",
"+.	c #A9987E",
"@.	c #988871",
"#.	c #968A74",
"$.	c #948975",
"%.	c #B69F80",
"&.	c #B09B7E",
"*.	c #A69375",
"=.	c #A89479",
"-.	c #A8977D",
";.	c #9C8C73",
">.	c #9C8C75",
",.	c #998A75",
"'.	c #877B65",
").	c #7C6F5C",
"!.	c #766B57",
"~.	c #746955",
"{.	c #B02860",
"].	c #A28B6C",
"^.	c #BFA687",
"/.	c #CEB395",
"(.	c #D2B597",
"_.	c #BCA183",
":.	c #B59C7E",
"<.	c #B69E82",
"[.	c #AE997E",
"}.	c #A5947A",
"|.	c #91826B",
"1.	c #887D69",
"2.	c #857D68",
"3.	c #B49C80",
"4.	c #B39B7F",
"5.	c #B29D82",
"6.	c #AA967D",
"7.	c #A6967C",
"8.	c #A19379",
"9.	c #8F836B",
"0.	c #8D816B",
"a.	c #847963",
"b.	c #7D725E",
"c.	c #7E735F",
"d.	c #847965",
"e.	c #F84070",
"f.	c #CBB092",
"g.	c #C3A88A",
"h.	c #CCB193",
"i.	c #AF9476",
"j.	c #A78E70",
"k.	c #AF9A7D",
"l.	c #AB977E",
"m.	c #9D8B73",
"n.	c #94846B",
"o.	c #887C64",
"p.	c #877F6A",
"q.	c #857E6B",
"r.	c #B9A189",
"s.	c #A8927A",
"t.	c #9C8A72",
"u.	c #9F9177",
"v.	c #9D9179",
"w.	c #897E68",
"x.	c #7A725B",
"y.	c #6D6550",
"z.	c #746E58",
"A.	c #7C745F",
"B.	c #C7AC8E",
"C.	c #B99E80",
"D.	c #B09779",
"E.	c #AA957A",
"F.	c #A08E76",
"G.	c #978770",
"H.	c #8F8069",
"I.	c #857963",
"J.	c #776F5C",
"K.	c #746D5A",
"L.	c #A7917A",
"M.	c #9A846D",
"N.	c #9B8971",
"O.	c #95856E",
"P.	c #867E67",
"Q.	c #817B63",
"R.	c #7D7862",
"S.	c #66614B",
"T.	c #78725A",
"U.	c #AB9274",
"V.	c #A19076",
"W.	c #998970",
"X.	c #867A64",
"Y.	c #7F7460",
"Z.	c #79725F",
"`.	c #76715E",
" +	c #A58F7A",
".+	c #8F7A65",
"++	c #908069",
"@+	c #8C7D68",
"#+	c #7D725C",
"$+	c #7F7961",
"%+	c #6A6851",
"&+	c #7E765F",
"*+	c #AD9677",
"=+	c #A78F73",
"-+	c #A49379",
";+	c #968770",
">+	c #887C66",
",+	c #786D59",
"'+	c #746C59",
")+	c #7B7462",
"!+	c #797461",
"~+	c #A48F7C",
"{+	c #8A7864",
"]+	c #8A7B66",
"^+	c #887B68",
"/+	c #7D7761",
"(+	c #716C56",
"_+	c #74725B",
":+	c #827D67",
"<+	c #7E7963",
"[+	c #948C75",
"}+	c #A89172",
"|+	c #9C896B",
"1+	c #98876B",
"2+	c #99896F",
"3+	c #92846A",
"4+	c #80745E",
"5+	c #706551",
"6+	c #6A624F",
"7+	c #7A7361",
"8+	c #75705D",
"9+	c #988775",
"0+	c #8A7B68",
"a+	c #877A67",
"b+	c #716954",
"c+	c #7B7660",
"d+	c #77725C",
"e+	c #837D65",
"f+	c #000000",
"g+	c #968569",
"h+	c #95856B",
"i+	c #94866C",
"j+	c #8A7E66",
"k+	c #796E5A",
"l+	c #726A57",
"m+	c #6E6653",
"n+	c #766F5D",
"o+	c #807362",
"p+	c #7E7160",
"q+	c #857A68",
"r+	c #7C7461",
"s+	c #756E5B",
"t+	c #7C7562",
"u+	c #787059",
"v+	c #F8D0C0",
"w+	c #8E8066",
"x+	c #726753",
"y+	c #7A725F",
"z+	c #756D5A",
"A+	c #78715E",
"B+	c #807865",
"C+	c #79715E",
"D+	c #8E866F",
"E+	c #867A62",
"F+	c #F87068",
"G+	c #877B63",
"H+	c #7F745E",
"I+	c #706853",
"J+	c #6C6451",
"K+	c #837B68",
"L+	c #7D7562",
"M+	c #7F7764",
"N+	c #827B68",
"O+	c #736C5A",
"P+	c #78715F",
"Q+	c #807766",
"R+	c #7C715F",
"S+	c #8E826C",
"T+	c #9F8D75",
"U+	c #8A8067",
"V+	c #827A63",
"W+	c #6B654F",
"X+	c #6C6552",
"Y+	c #857C6B",
"Z+	c #877F6C",
"`+	c #89816C",
" @	c #63604D",
".@	c #736E5B",
"+@	c #7D7865",
"@@	c #857E6C",
"#@	c #897E6C",
"$@	c #8C7F6C",
"%@	c #90816E",
"&@	c #807059",
"*@	c #94826A",
"=@	c #A18D74",
"-@	c #81775E",
";@	c #857D66",
">@	c #7E7860",
",@	c #78725C",
"'@	c #726C56",
")@	c #726B58",
"!@	c #827968",
"~@	c #807563",
"{@	c #837864",
"]@	c #757460",
"^@	c #797864",
"/@	c #746F5C",
"(@	c #77705E",
"_@	c #91826F",
":@	c #A08F7D",
"<@	c #947F6A",
"[@	c #A68E74",
"}@	c #BFA688",
"|@	c #7F735B",
"1@	c #796E58",
"2@	c #776F58",
"3@	c #77715B",
"4@	c #7D7864",
"5@	c #7A7360",
"6@	c #7E7564",
"7@	c #7A6F5D",
"8@	c #7A6D5C",
"9@	c #827562",
"0@	c #82816D",
"a@	c #797663",
"b@	c #6D6854",
"c@	c #92836E",
"d@	c #A3917B",
"e@	c #9F8971",
"f@	c #9E866C",
"g@	c #CEB597",
"h@	c #817662",
"i@	c #68604B",
"j@	c #6E6754",
"k@	c #7F7865",
"l@	c #87806D",
"m@	c #817A67",
"n@	c #7E7663",
"o@	c #7D7260",
"p@	c #83745F",
"q@	c #8F806B",
"r@	c #8A8571",
"s@	c #766F5C",
"t@	c #746C57",
"u@	c #837862",
"v@	c #8B7D63",
"w@	c #938369",
"x@	c #A49173",
"y@	c #AE997A",
"z@	c #CFB795",
"A@	c #203088",
"B@	c #716857",
"C@	c #79705F",
"D@	c #817966",
"E@	c #867B69",
"F@	c #776B55",
"G@	c #88785F",
"H@	c #8C7C62",
"I@	c #89816E",
"J@	c #8A826D",
"K@	c #867B65",
"L@	c #97876D",
"M@	c #9E8D6F",
"N@	c #AA9675",
"O@	c #BDA684",
"P@	c #C6AE8A",
"Q@	c #408098",
"R@	c #877E6D",
"S@	c #887D6B",
"T@	c #8A7D6A",
"U@	c #84755E",
"V@	c #958468",
"W@	c #958973",
"X@	c #90846C",
"Y@	c #8D7F65",
"Z@	c #A09174",
"`@	c #A89877",
" #	c #B09C7B",
".#	c #C9B290",
"+#	c #D2BA96",
"@#	c #80D8C8",
"##	c #8D8270",
"$#	c #8B7E6B",
"%#	c #847560",
"&#	c #92826B",
"*#	c #A7967C",
"=#	c #A59478",
"-#	c #81725B",
";#	c #90816A",
">#	c #928269",
",#	c #A9987A",
"'#	c #B4A181",
")#	c #BBA786",
"!#	c #CDB694",
"~#	c #D7BF9B",
"{#	c #CCB490",
"]#	c #7B705E",
"^#	c #918471",
"/#	c #8B7C67",
"(#	c #91826D",
"_#	c #91816A",
":#	c #897962",
"<#	c #A6957B",
"[#	c #A29175",
"}#	c #8E7E64",
"|#	c #8B7B61",
"1#	c #AA9779",
"2#	c #B7A484",
"3#	c #C0AC8B",
"4#	c #CCB593",
"5#	c #C5AD8B",
"6#	c #C0A886",
"7#	c #B9A081",
"8#	c #978B75",
"9#	c #9D8E79",
"0#	c #96866F",
"a#	c #9C8B71",
"b#	c #918066",
"c#	c #9E8D73",
"d#	c #A39278",
"e#	c #9D8A6C",
"f#	c #948163",
"g#	c #A38E71",
"h#	c #BAA586",
"i#	c #C2AE8D",
"j#	c #C8B191",
"k#	c #CBB492",
"l#	c #C5AE8C",
"m#	c #B49D7B",
"n#	c #B09979",
"o#	c #8B7F69",
"p#	c #988972",
"q#	c #A1917A",
"r#	c #9C886D",
"s#	c #AA997F",
"t#	c #9E8768",
"u#	c #A79071",
"v#	c #B39C7D",
"w#	c #C1AA8A",
"x#	c #CAB393",
"y#	c #BDA686",
"z#	c #AB9677",
"A#	c #A89374",
"B#	c #897A65",
"C#	c #8A7B64",
"D#	c #A29177",
"E#	c #A49075",
"F#	c #A69277",
"G#	c #AD987B",
"H#	c #A59073",
"I#	c #A9957C",
"J#	c #997E60",
"K#	c #B79E7F",
"L#	c #C0A788",
"M#	c #C2A98A",
"N#	c #D0B798",
"O#	c #CDB495",
"P#	c #BFA888",
"Q#	c #C1AC8D",
"R#	c #C0AB8C",
"S#	c #9F8C6E",
"T#	c #958264",
"U#	c #94856E",
"V#	c #93836A",
"W#	c #9A896F",
"X#	c #AE9A7F",
"Y#	c #AD997E",
"Z#	c #AB9679",
"`#	c #AB9475",
" $	c #A28D70",
".$	c #A8947B",
"+$	c #BA9D7D",
"@$	c #D2B897",
"#$	c #C6AC8B",
"$$	c #C8AE8D",
"%$	c #CBB293",
"&$	c #C1AA8B",
"*$	c #B29D80",
"=$	c #B8A386",
"-$	c #95846A",
";$	c #9A8B74",
">$	c #A29279",
",$	c #A69579",
"'$	c #A59176",
")$	c #A89376",
"!$	c #A38F74",
"~$	c #96846C",
"{$	c #D1B492",
"]$	c #D6BC99",
"^$	c #C3A988",
"/$	c #B0997A",
"($	c #B49F82",
"_$	c #AC987D",
":$	c #A9957A",
"<$	c #A8987F",
"[$	c #A8977B",
"}$	c #B1A084",
"|$	c #AF9C7E",
"1$	c #9B886A",
"2$	c #9A8568",
"3$	c #9B876C",
"4$	c #897960",
"5$	c #8C7D66",
"6$	c #D1B794",
"7$	c #C4AA89",
"8$	c #C5AC8D",
"9$	c #BAA384",
"0$	c #A99477",
"a$	c #98876D",
"b$	c #A09077",
"c$	c #9F8F76",
"d$	c #8C7E64",
"e$	c #AE9D83",
"f$	c #B8A489",
"g$	c #BCA98B",
"h$	c #9F8B70",
"i$	c #948065",
"j$	c #948369",
"k$	c #BFA582",
"l$	c #C3AB89",
"m$	c #BCA482",
"n$	c #B49D7D",
"o$	c #A79275",
"p$	c #8B7F67",
"q$	c #B5A284",
"r$	c #B19E80",
"s$	c #B09D7F",
"t$	c #AA967B",
"u$	c #99886C",
"v$	c #8D7D63",
"w$	c #85755C",
"x$	c #7D6F55",
"y$	c #7A6E58",
"z$	c #BAA280",
"A$	c #B79F7D",
"B$	c #AE9576",
"C$	c #968267",
"D$	c #9F8F78",
"E$	c #837761",
"F$	c #A48F72",
"G$	c #AB987A",
"H$	c #9E8D71",
"I$	c #8C7B61",
"J$	c #918168",
"K$	c #817359",
"L$	c #7A6E56",
"M$	c #736751",
"N$	c #857A66",
"O$	c #BDA583",
"P$	c #AD9676",
"Q$	c #A69174",
"R$	c #9E8A71",
"S$	c #8D806D",
"T$	c #867B67",
"U$	c #8B806C",
"V$	c #A59274",
"W$	c #B09B7C",
"X$	c #9F8869",
"Y$	c #97866C",
"Z$	c #817158",
"`$	c #887962",
" %	c #796D57",
".%	c #80755F",
"+%	c #827763",
"@%	c #B39C7C",
"#%	c #A79070",
"$%	c #A58E6F",
"%%	c #A39179",
"&%	c #887966",
"*%	c #928574",
"=%	c #8C7F6E",
"-%	c #908571",
";%	c #928773",
">%	c #8F8770",
",%	c #988E75",
"'%	c #8E8469",
")%	c #9D9477",
"!%	c #A7997C",
"~%	c #AD9879",
"{%	c #BEA787",
"]%	c #C6AD8E",
"^%	c #B9A17F",
"/%	c #B69D7E",
"(%	c #B49B7C",
"_%	c #A68D6E",
":%	c #A68F70",
"<%	c #968164",
"[%	c #8C785D",
"}%	c #88775D",
"|%	c #74644B",
"1%	c #81755D",
"2%	c #766B55",
"3%	c #807863",
"4%	c #827A65",
"5%	c #A18E70",
"6%	c #9A866B",
"7%	c #928167",
"8%	c #93836C",
"9%	c #8D7E69",
"0%	c #857865",
"a%	c #8E836D",
"b%	c #A2967E",
"c%	c #A2967C",
"d%	c #B1A68A",
"e%	c #B8A98A",
"f%	c #C3AF8E",
"g%	c #CBB391",
"h%	c #C3AA8B",
"i%	c #AF9878",
"j%	c #86765D",
"k%	c #75664F",
"l%	c #8C806A",
"m%	c #817660",
"n%	c #847C67",
"o%	c #7D7560",
"p%	c #7E7661",
"q%	c #97876E",
"r%	c #96886E",
"s%	c #90846E",
"t%	c #95866F",
"u%	c #A7977D",
"v%	c #BDAC90",
"w%	c #C0AD8F",
"x%	c #B89F80",
"y%	c #A99273",
"z%	c #A89577",
"A%	c #908067",
"B%	c #7B6C55",
"C%	c #82735C",
"D%	c #7B6F59",
"E%	c #7E725C",
"F%	c #827761",
"G%	c #91856F",
"H%	c #847862",
"I%	c #9C8D76",
"J%	c #9C8C72",
"K%	c #B29E85",
"L%	c #BCA88D",
"M%	c #C8B396",
"N%	c #C9B495",
"O%	c #C3AA8C",
"P%	c #B19A7A",
"Q%	c #A58D71",
"R%	c #A28F71",
"S%	c #99886E",
"T%	c #8F8167",
"U%	c #857661",
"V%	c #6D614B",
"W%	c #7D715B",
"X%	c #7F735D",
"Y%	c #7C705A",
"Z%	c #908370",
"  . + @ # $ % & * = - ; > , ' ) ! ~ { ] ^ / ( _ : < [ } | 1 2 3 4 5 ",
"6 7 8 9 0 a b c d = e f g h i j k l m n o p q r : s t u v w x y z A ",
"B C D E F G H I J K L M N O P Q R R R S T U V W X Y Z `  ...+.@.#.$.",
"%.9 &.*.=.-.;.>.,.'.).!.~.R R {.{.{.{.R R ].^./.(._.:.<.[.}.y |.1.2.",
"3.4.5.6.7.8.9.0.a.b.c.d.R {.e.e.e.e.e.e.{.R f.g.h.i.j.k.l.m.n.o.p.q.",
"r.s.H t.u.v.w.x.y.z.A.R {.e.e.e.e.e.e.e.e.{.R B.C.D.# E.F.G.H.I.J.K.",
"L.M.N.O.o.P.Q.R.S., T.R {.e.e.e.e.e.e.e.e.{.R ^.U.4...V.W.|.X.Y.Z.`.",
" +.+++@+#+$+R., %+R.&+R {.e.e.e.e.e.e.e.e.{.R *+=+[.-+W.;+>+,+'+)+!+",
"~+{+]+^+g /+(+_+:+<+[+R {.e.e.e.e.e.e.e.e.{.R }+|+1+2+3+4+~.5+6+7+8+",
"9+0+a+,+b+P j c+d+e+Q f+R {.e.e.e.e.e.e.{.R f+Q g+h+i+j+k+~.l+m+n+8+",
"o+p+q+r+s+t+P h u+Q v+f+R R {.{.{.{.{.{.R R f+v+Q w+j+#+x+'+y+z+K.A+",
"B+J.C+y+'+z+g D+E+Q F+f+f+f+R R R R R R f+f+f+F+Q G+H+I+J+y+K+L+M+N+",
"n+O+P+Q+r+R+^+S+++T+Q f+f+f+f+f+f+f+f+f+f+f+f+Q U+V+u+W+X+t+Y+L+Z+`+",
" @.@+@@@#@$@%@&@*@=@ .Q v+f+f+f+f+f+f+f+f+v+Q -@;@>@,@'@)@t+!@C+~@{@",
"]@^@/@(@~@_@:@<@M.[@3.}@Q v+f+f+f+f+f+f+v+Q |@1@2@3@t+4@5@t+6@7@8@9@",
"0@a@b@r+f c@d@e@f@4.g@Q Q Q F+f+f+f+f+F+Q Q Q h@i@j@k@l@m@n@L+o@p@q@",
"r@s@t@u@v@w@x@y@C z@Q R e.e.A@A@e.e.A@A@e.e.R Q y+B@C@6@D@E@R+F@G@H@",
"I@J@K@o.L@M@N@O@P@Q R e.e.{.Q@Q@Q@Q@Q@Q@e.e.e.R Q Q+R@S@#@T@M U@w@V@",
"h@W@X@Y@Z@`@ #.#+#Q R e.{.{.Q@@#@#@#@#Q@{.{.e.R Q E@##f $#@+%#&#*#=#",
"-#;#>#h+,#'#)#!#~#{#R {.{.Q@@#@#A@A@@#@#Q@{.{.Q ]#$#^#/#(#_#:#N.<#[#",
"}#|#g+1#2#3#.#4#5#6#7#A@Q@@#@#@#@#@#@#@#@#Q@A@9@f 8#9#0#;.a#b#c#d#c#",
"e#f#g#h#i#j#k#l#m#n#n#A@Q@Q@Q@Q@@#@#Q@Q@Q@Q@A@4+o#p#q#m.d#T r#G s#-+",
"t#u#v#w#x#x#8 w#y#z#A#A@Q@@#@#Q@@#@#Q@@#@#Q@A@B#C#n.D#E#F#G#H#g#I#F.",
"J#K#L#M#N#O#P#Q#R#S#T#A@Q@@#@#Q@@#@#Q@@#@#Q@A@U#V#W#X#Y#Z#&.`# $.$m.",
"+$@$#$$$%$L#&$*$=$Y#r#-$A@Q@Q@Q@Q@@#Q@Q@Q@A@;$>$c#,$'$x@Z#&.)$!$~$@.",
"{$]$^$5#M#/$($_$:$+.D#S A@Q@Q@Q@A@A@Q@Q@Q@A@<$s#[$}$|$x@e#1$2$3$4$5$",
"6$6$7$8$9$0$:$a$m.b$c$3+d$A@A@A@A@A@A@A@A@-.e$f$w g$f$T h$V@i$j$U@I.",
"k$l$m$n$o$F#}.G@@.;#;#p$f+Q Q Q f+f+Q Q Q f+X#q$r$s$t$u$W#v$w$x$F@y$",
"z$A$B$].C$W#D$@+(#E$X.f+Q Q Q Q f+f+Q Q Q Q f+F$G$*.H$I$J$K$L$M$u@N$",
"O$P$u#Q$R$V#(#^#S$T$U$f+f+f+f+f+V$W$f+f+f+f+f+X$ $r#Y$Z$`$ %.%h@+%N$",
"@%#%$%T %%_#&%*%=%-%;%>%,%'%)%!%~%{%]%^%/%(%_%:%<%[%}%|%1%2%3%4%2.`+",
"Q$5%6%7%8%9%0%A T@$.;%a%b%c%d%e%f%g%h%P$i%@%}+o$h$I$j%k%l%m%n%o%p%4%",
"q%r%H.C#>+I.a+s%0.t%p#3+u%}$v%w%j#x%y%)$z%G a$-$A%B%C% %D%E%F%b.c.Y.",
"G%G%o#'.N$+%H%0.;+I%>$J%K%L%M%N%O%P%Q%R%H S%>#T%U%V%y$W%X%Y%>+s%Z%^#"};
