/* XPM */
static char * mario_s_xpm[] = {
"34 34 27 1",
" 	c #C0D470",
".	c #500000",
"+	c #885818",
"@	c #F84070",
"#	c #D8A038",
"$	c #F8D870",
"%	c #B02860",
"&	c #F8F8F8",
"*	c #000000",
"=	c #F87068",
"-	c #F8D0C0",
";	c #408098",
">	c #80D8C8",
",	c #203088",
"'	c #D0DE76",
")	c #CFDE75",
"!	c #D2E077",
"~	c #D1DF77",
"{	c #C4D772",
"]	c #C2D571",
"^	c #CBDB74",
"/	c #CADB74",
"(	c #C1D570",
"_	c #D1DF76",
":	c #C1D470",
"<	c #C6D872",
"[	c #CEDD75",
"                                  ",
"                                  ",
"                                  ",
"              ...+                ",
"            ..@#$@..              ",
"           .%@#&&#@%.             ",
"          .%@******@%.            ",
"          .%********%.            ",
"          .**********.            ",
"          .**&&==&&**.            ",
"         =*=-&*--*&-=*=           ",
"        =+*--&*--*&--*+=          ",
"        =+**-=----=-**+=          ",
"         =*-**====**-*=           ",
"          +-********-+            ",
"           +-******-+             ",
"         ++++======++++           ",
"        +&&++++++++++&&+          ",
"        +&&+&+;%%;+&+&&+          ",
"        +&&+&+>..>+&+&&+          ",
"        +&+&+>>>>>>+&+&+          ",
"         +++&&>>>>&&+++           ",
"          ,,&&>>>>&&,,            ",
"          ,;>>>>>>>>;,            ",
"          ,;>>>>>>>>;,            ",
"           ,;>>;;>>;,'''''')      ",
"           ,;;;,,;;;,!!!!!!~{]    ",
"            ,,,,,,,,!!!!!!!!!^    ",
"           *+++**+++*!!!!!!!!^    ",
"          *-+++**+++-*!!!!!!~/    ",
"          *****(/*****!!!!!_(:    ",
"                <^^^^^^^^^^^      ",
"                                  ",
"      <[[[[[[]                    "};
