/* XPM */
static char * mario_d_xpm[] = {
"34 34 666 2",
"  	c #97835E",
". 	c #917D58",
"+ 	c #A58E6E",
"@ 	c #AC9575",
"# 	c #AD9579",
"$ 	c #BCA48A",
"% 	c #B8A088",
"& 	c #A58F78",
"* 	c #A7907E",
"= 	c #A89682",
"- 	c #91806E",
"; 	c #796C59",
"> 	c #79715C",
", 	c #746F59",
"' 	c #69644E",
") 	c #67654E",
"! 	c #817C66",
"~ 	c #847E66",
"{ 	c #89816A",
"] 	c #85795F",
"^ 	c #817056",
"/ 	c #937E61",
"( 	c #A78D72",
"_ 	c #A78C6F",
": 	c #B19476",
"< 	c #BA9D7F",
"[ 	c #BCA184",
"} 	c #C2A98B",
"| 	c #CBB399",
"1 	c #BEAA8F",
"2 	c #AC987F",
"3 	c #A4947B",
"4 	c #9D8C78",
"5 	c #9A8B78",
"6 	c #9C8865",
"7 	c #AA9673",
"8 	c #C4AD8D",
"9 	c #B49D7E",
"0 	c #967E62",
"a 	c #968166",
"b 	c #A69078",
"c 	c #B49E87",
"d 	c #A38E7B",
"e 	c #9B8C79",
"f 	c #897C69",
"g 	c #817964",
"h 	c #7B755F",
"i 	c #75705A",
"j 	c #7A755F",
"k 	c #89846E",
"l 	c #88826A",
"m 	c #7D735A",
"n 	c #85775D",
"o 	c #9C8B6F",
"p 	c #998467",
"q 	c #947B5D",
"r 	c #A98E71",
"s 	c #C6A98B",
"t 	c #C9AE91",
"u 	c #BCA385",
"v 	c #B8A086",
"w 	c #B6A287",
"x 	c #AB9A80",
"y 	c #9E8E75",
"z 	c #978873",
"A 	c #948774",
"B 	c #B7A080",
"C 	c #B59E7E",
"D 	c #B4A07F",
"E 	c #A59071",
"F 	c #9D886B",
"G 	c #A28E73",
"H 	c #A28E75",
"I 	c #A4927A",
"J 	c #9F8E7A",
"K 	c #9A8B76",
"L 	c #8F806D",
"M 	c #807360",
"N 	c #756D58",
"O 	c #756F59",
"P 	c #7C7660",
"Q 	c #857F69",
"R 	c #868068",
"S 	c #8C856B",
"T 	c #8B7F65",
"U 	c #96866C",
"V 	c #A79378",
"W 	c #9F876B",
"X 	c #A38A6C",
"Y 	c #C6AB8D",
"Z 	c #C0A385",
"` 	c #CBAE90",
" .	c #CAAF92",
"..	c #B8A182",
"+.	c #AB967B",
"@.	c #AF9B80",
"#.	c #A9987E",
"$.	c #988871",
"%.	c #968A74",
"&.	c #948975",
"*.	c #B69F80",
"=.	c #B09B7E",
"-.	c #A69375",
";.	c #A89479",
">.	c #A8977D",
",.	c #9C8C73",
"'.	c #9C8C75",
").	c #998A75",
"!.	c #877B65",
"~.	c #7C6F5C",
"{.	c #766B57",
"].	c #746955",
"^.	c #776F5A",
"/.	c #7F7762",
"(.	c #817962",
"_.	c #7F755C",
":.	c #877B61",
"<.	c #97896E",
"[.	c #9A896D",
"}.	c #A28B6C",
"|.	c #BFA687",
"1.	c #CEB395",
"2.	c #D2B597",
"3.	c #BCA183",
"4.	c #B59C7E",
"5.	c #B69E82",
"6.	c #AE997E",
"7.	c #A5947A",
"8.	c #91826B",
"9.	c #887D69",
"0.	c #857D68",
"a.	c #B49C80",
"b.	c #B39B7F",
"c.	c #B29D82",
"d.	c #AA967D",
"e.	c #A6967C",
"f.	c #A19379",
"g.	c #8F836B",
"h.	c #8D816B",
"i.	c #847963",
"j.	c #7D725E",
"k.	c #7E735F",
"l.	c #847965",
"m.	c #857A66",
"n.	c #877A67",
"o.	c #83775F",
"p.	c #500000",
"q.	c #BAA182",
"r.	c #CBB092",
"s.	c #C3A88A",
"t.	c #CCB193",
"u.	c #AF9476",
"v.	c #A78E70",
"w.	c #AF9A7D",
"x.	c #AB977E",
"y.	c #9D8B73",
"z.	c #94846B",
"A.	c #887C64",
"B.	c #877F6A",
"C.	c #857E6B",
"D.	c #B9A189",
"E.	c #A8927A",
"F.	c #9C8A72",
"G.	c #9F9177",
"H.	c #9D9179",
"I.	c #897E68",
"J.	c #7A725B",
"K.	c #6D6550",
"L.	c #746E58",
"M.	c #7C745F",
"N.	c #837864",
"O.	c #867966",
"P.	c #8A7B66",
"Q.	c #F84070",
"R.	c #F8D870",
"S.	c #C1A688",
"T.	c #C7AC8E",
"U.	c #B99E80",
"V.	c #B09779",
"W.	c #AA957A",
"X.	c #A08E76",
"Y.	c #978770",
"Z.	c #8F8069",
"`.	c #857963",
" +	c #776F5C",
".+	c #746D5A",
"++	c #A7917A",
"@+	c #9A846D",
"#+	c #9B8971",
"$+	c #95856E",
"%+	c #867E67",
"&+	c #817B63",
"*+	c #7D7862",
"=+	c #66614B",
"-+	c #78725A",
";+	c #796E58",
">+	c #867762",
",+	c #B02860",
"'+	c #D8A038",
")+	c #F8F8F8",
"!+	c #B39A7B",
"~+	c #AB9274",
"{+	c #A19076",
"]+	c #998970",
"^+	c #867A64",
"/+	c #7F7460",
"(+	c #79725F",
"_+	c #76715E",
":+	c #A58F7A",
"<+	c #8F7A65",
"[+	c #908069",
"}+	c #8C7D68",
"|+	c #7D725C",
"1+	c #7F7961",
"2+	c #6A6851",
"3+	c #7E765F",
"4+	c #817660",
"5+	c #000000",
"6+	c #AD9677",
"7+	c #A78F73",
"8+	c #A49379",
"9+	c #968770",
"0+	c #887C66",
"a+	c #786D59",
"b+	c #746C59",
"c+	c #7B7462",
"d+	c #797461",
"e+	c #A48F7C",
"f+	c #8A7864",
"g+	c #887B68",
"h+	c #7D7761",
"i+	c #716C56",
"j+	c #74725B",
"k+	c #827D67",
"l+	c #7E7963",
"m+	c #948C75",
"n+	c #9C896B",
"o+	c #98876B",
"p+	c #99896F",
"q+	c #92846A",
"r+	c #80745E",
"s+	c #706551",
"t+	c #6A624F",
"u+	c #7A7361",
"v+	c #75705D",
"w+	c #988775",
"x+	c #8A7B68",
"y+	c #716954",
"z+	c #7B7660",
"A+	c #77725C",
"B+	c #837D65",
"C+	c #968569",
"D+	c #95856B",
"E+	c #94866C",
"F+	c #8A7E66",
"G+	c #796E5A",
"H+	c #726A57",
"I+	c #6E6653",
"J+	c #766F5D",
"K+	c #807362",
"L+	c #7E7160",
"M+	c #857A68",
"N+	c #7C7461",
"O+	c #756E5B",
"P+	c #7C7562",
"Q+	c #787059",
"R+	c #877D64",
"S+	c #F87068",
"T+	c #AE9D81",
"U+	c #8F7F65",
"V+	c #8E8066",
"W+	c #726753",
"X+	c #7A725F",
"Y+	c #756D5A",
"Z+	c #78715E",
"`+	c #807865",
" @	c #79715E",
".@	c #8E866F",
"+@	c #867A62",
"@@	c #F8D0C0",
"#@	c #AB9679",
"$@	c #AC9B7F",
"%@	c #9D8D73",
"&@	c #8C7E64",
"*@	c #877B63",
"=@	c #7F745E",
"-@	c #706853",
";@	c #6C6451",
">@	c #837B68",
",@	c #7D7562",
"'@	c #7F7764",
")@	c #827B68",
"!@	c #736C5A",
"~@	c #78715F",
"{@	c #807766",
"]@	c #7C715F",
"^@	c #8E826C",
"/@	c #885818",
"(@	c #8A8067",
"_@	c #827A63",
":@	c #6B654F",
"<@	c #6C6552",
"[@	c #857C6B",
"}@	c #877F6C",
"|@	c #89816C",
"1@	c #63604D",
"2@	c #736E5B",
"3@	c #7D7865",
"4@	c #857E6C",
"5@	c #897E6C",
"6@	c #8C7F6C",
"7@	c #90816E",
"8@	c #807059",
"9@	c #94826A",
"0@	c #81775E",
"a@	c #857D66",
"b@	c #7E7860",
"c@	c #78725C",
"d@	c #726C56",
"e@	c #726B58",
"f@	c #827968",
"g@	c #807563",
"h@	c #757460",
"i@	c #797864",
"j@	c #746F5C",
"k@	c #77705E",
"l@	c #91826F",
"m@	c #A08F7D",
"n@	c #947F6A",
"o@	c #A68E74",
"p@	c #776F58",
"q@	c #77715B",
"r@	c #7D7864",
"s@	c #7A7360",
"t@	c #7E7564",
"u@	c #7A6F5D",
"v@	c #7A6D5C",
"w@	c #827562",
"x@	c #82816D",
"y@	c #797663",
"z@	c #6D6854",
"A@	c #92836E",
"B@	c #A3917B",
"C@	c #9F8971",
"D@	c #9E866C",
"E@	c #68604B",
"F@	c #6E6754",
"G@	c #7F7865",
"H@	c #87806D",
"I@	c #817A67",
"J@	c #7E7663",
"K@	c #7D7260",
"L@	c #83745F",
"M@	c #8F806B",
"N@	c #8A8571",
"O@	c #766F5C",
"P@	c #746C57",
"Q@	c #837862",
"R@	c #8B7D63",
"S@	c #938369",
"T@	c #A49173",
"U@	c #AE997A",
"V@	c #CFB795",
"W@	c #D3B998",
"X@	c #716857",
"Y@	c #79705F",
"Z@	c #817966",
"`@	c #867B69",
" #	c #776B55",
".#	c #88785F",
"+#	c #8C7C62",
"@#	c #89816E",
"##	c #8A826D",
"$#	c #867B65",
"%#	c #97876D",
"&#	c #9E8D6F",
"*#	c #AA9675",
"=#	c #BDA684",
"-#	c #C6AE8A",
";#	c #D1B995",
">#	c #D0B693",
",#	c #C9AF8E",
"'#	c #756A58",
")#	c #7B705E",
"!#	c #877E6D",
"~#	c #887D6B",
"{#	c #8A7D6A",
"]#	c #84755E",
"^#	c #958468",
"/#	c #817662",
"(#	c #958973",
"_#	c #90846C",
":#	c #8D7F65",
"<#	c #A09174",
"[#	c #A89877",
"}#	c #B09C7B",
"|#	c #C9B290",
"1#	c #D2BA96",
"2#	c #CDB591",
"3#	c #C4AA89",
"4#	c #C1A786",
"5#	c #C2A98A",
"6#	c #847764",
"7#	c #736856",
"8#	c #8D8270",
"9#	c #8B7E6B",
"0#	c #847560",
"a#	c #92826B",
"b#	c #A7967C",
"c#	c #A59478",
"d#	c #81725B",
"e#	c #90816A",
"f#	c #928269",
"g#	c #A9987A",
"h#	c #B4A181",
"i#	c #BBA786",
"j#	c #CDB694",
"k#	c #D7BF9B",
"l#	c #CCB490",
"m#	c #BFA785",
"n#	c #766B59",
"o#	c #847967",
"p#	c #918471",
"q#	c #8B7C67",
"r#	c #91826D",
"s#	c #91816A",
"t#	c #897962",
"u#	c #A6957B",
"v#	c #A29175",
"w#	c #8E7E64",
"x#	c #8B7B61",
"y#	c #AA9779",
"z#	c #B7A484",
"A#	c #C0AC8B",
"B#	c #CCB593",
"C#	c #C5AD8B",
"D#	c #C0A886",
"E#	c #B9A081",
"F#	c #978B75",
"G#	c #9D8E79",
"H#	c #96866F",
"I#	c #9C8B71",
"J#	c #918066",
"K#	c #9E8D73",
"L#	c #A39278",
"M#	c #9D8A6C",
"N#	c #948163",
"O#	c #A38E71",
"P#	c #BAA586",
"Q#	c #C2AE8D",
"R#	c #C8B191",
"S#	c #CBB492",
"T#	c #C5AE8C",
"U#	c #B49D7B",
"V#	c #B09979",
"W#	c #8B7F69",
"X#	c #988972",
"Y#	c #A1917A",
"Z#	c #9C886D",
"`#	c #AA997F",
" $	c #9E8768",
".$	c #A79071",
"+$	c #B39C7D",
"@$	c #C1AA8A",
"#$	c #CAB393",
"$$	c #BDA686",
"%$	c #AB9677",
"&$	c #A89374",
"*$	c #203088",
"=$	c #897A65",
"-$	c #8A7B64",
";$	c #A29177",
">$	c #A49075",
",$	c #A69277",
"'$	c #AD987B",
")$	c #A59073",
"!$	c #A9957C",
"~$	c #997E60",
"{$	c #B79E7F",
"]$	c #C0A788",
"^$	c #D0B798",
"/$	c #CDB495",
"($	c #BFA888",
"_$	c #C1AC8D",
":$	c #C0AB8C",
"<$	c #9F8C6E",
"[$	c #958264",
"}$	c #94856E",
"|$	c #93836A",
"1$	c #9A896F",
"2$	c #AE9A7F",
"3$	c #AD997E",
"4$	c #AB9475",
"5$	c #A28D70",
"6$	c #A8947B",
"7$	c #BA9D7D",
"8$	c #D2B897",
"9$	c #C6AC8B",
"0$	c #C8AE8D",
"a$	c #CBB293",
"b$	c #C1AA8B",
"c$	c #B29D80",
"d$	c #B8A386",
"e$	c #408098",
"f$	c #80D8C8",
"g$	c #9A8B74",
"h$	c #A29279",
"i$	c #A69579",
"j$	c #A59176",
"k$	c #A89376",
"l$	c #A38F74",
"m$	c #96846C",
"n$	c #D1B492",
"o$	c #D6BC99",
"p$	c #C3A988",
"q$	c #B0997A",
"r$	c #B49F82",
"s$	c #AC987D",
"t$	c #A9957A",
"u$	c #A8987F",
"v$	c #A8977B",
"w$	c #B1A084",
"x$	c #AF9C7E",
"y$	c #9B886A",
"z$	c #9A8568",
"A$	c #9B876C",
"B$	c #897960",
"C$	c #8C7D66",
"D$	c #D1B794",
"E$	c #C5AC8D",
"F$	c #BAA384",
"G$	c #A99477",
"H$	c #98876D",
"I$	c #A09077",
"J$	c #9F8F76",
"K$	c #AE9D83",
"L$	c #B8A489",
"M$	c #BCA98B",
"N$	c #9F8B70",
"O$	c #948065",
"P$	c #948369",
"Q$	c #BFA582",
"R$	c #C3AB89",
"S$	c #BCA482",
"T$	c #B49D7D",
"U$	c #A79275",
"V$	c #8B7F67",
"W$	c #AC997B",
"X$	c #B5A284",
"Y$	c #B19E80",
"Z$	c #B09D7F",
"`$	c #AA967B",
" %	c #99886C",
".%	c #8D7D63",
"+%	c #85755C",
"@%	c #7D6F55",
"#%	c #7A6E58",
"$%	c #BAA280",
"%%	c #B79F7D",
"&%	c #AE9576",
"*%	c #968267",
"=%	c #9F8F78",
"-%	c #837761",
";%	c #8D836A",
">%	c #92886D",
",%	c #BAA588",
"'%	c #BDA889",
")%	c #AC977A",
"!%	c #A48F72",
"~%	c #AB987A",
"{%	c #9E8D71",
"]%	c #8C7B61",
"^%	c #918168",
"/%	c #817359",
"(%	c #7A6E56",
"_%	c #736751",
":%	c #BDA583",
"<%	c #AD9676",
"[%	c #A69174",
"}%	c #9E8A71",
"|%	c #8D806D",
"1%	c #867B67",
"2%	c #8B806C",
"3%	c #928771",
"4%	c #958B72",
"5%	c #BFA889",
"6%	c #A99273",
"7%	c #9F8869",
"8%	c #97866C",
"9%	c #817158",
"0%	c #887962",
"a%	c #796D57",
"b%	c #80755F",
"c%	c #827763",
"d%	c #B39C7C",
"e%	c #A79070",
"f%	c #A58E6F",
"g%	c #A39179",
"h%	c #887966",
"i%	c #928574",
"j%	c #8C7F6E",
"k%	c #908571",
"l%	c #928773",
"m%	c #8F8770",
"n%	c #988E75",
"o%	c #A68D6E",
"p%	c #A68F70",
"q%	c #968164",
"r%	c #8C785D",
"s%	c #88775D",
"t%	c #74644B",
"u%	c #81755D",
"v%	c #766B55",
"w%	c #807863",
"x%	c #827A65",
"y%	c #A18E70",
"z%	c #9A866B",
"A%	c #928167",
"B%	c #93836C",
"C%	c #8D7E69",
"D%	c #857865",
"E%	c #8E836D",
"F%	c #A2967E",
"G%	c #A89172",
"H%	c #86765D",
"I%	c #75664F",
"J%	c #8C806A",
"K%	c #847C67",
"L%	c #7D7560",
"M%	c #7E7661",
"N%	c #97876E",
"O%	c #96886E",
"P%	c #90846E",
"Q%	c #95866F",
"R%	c #A7977D",
"S%	c #BDAC90",
"T%	c #C0AD8F",
"U%	c #B89F80",
"V%	c #A89577",
"W%	c #95846A",
"X%	c #908067",
"Y%	c #7B6C55",
"Z%	c #82735C",
"`%	c #7B6F59",
" &	c #7E725C",
".&	c #827761",
"+&	c #91856F",
"@&	c #847862",
"#&	c #9C8D76",
"$&	c #9C8C72",
"%&	c #B29E85",
"&&	c #BCA88D",
"*&	c #C8B396",
"=&	c #C9B495",
"-&	c #C3AA8C",
";&	c #B19A7A",
">&	c #A58D71",
",&	c #A28F71",
"'&	c #99886E",
")&	c #8F8167",
"!&	c #857661",
"~&	c #6D614B",
"{&	c #7D715B",
"]&	c #7F735D",
"^&	c #7C705A",
"/&	c #908370",
"  . + @ # $ % & * = - ; > , ' ) ! ~ { ] ^ / ( _ : < [ } | 1 2 3 4 5 ",
"6 7 8 9 0 a b c d = e f g h i j k l m n o p q r : s t u v w x y z A ",
"B C D E F G H I J K L M N O P Q R S T U V W X Y Z `  ...+.@.#.$.%.&.",
"*.9 =.-.;.>.,.'.).!.~.{.].^./.(._.:.<.[./ }.|.1.2.3.4.5.6.7.y 8.9.0.",
"a.b.c.d.e.f.g.h.i.j.k.l.m.n.!.o.p.p.p.p.p.q.r.s.t.u.v.w.x.y.z.A.B.C.",
"D.E.H F.G.H.I.J.K.L.M.N.O.P.p.p.Q.Q.R.Q.Q.p.S.T.U.V.# W.X.Y.Z.`. +.+",
"++@+#+$+A.%+&+*+=+, -+;+>+p.Q.Q.,+'+R.)+,+p.!+|.~+b.@.{+]+8.^+/+(+_+",
":+<+[+}+|+1+*+, 2+*+3+4+p.Q.,+,+5+5+5+5+5+5+5+6+7+6.8+]+9+0+a+b+c+d+",
"e+f+P.g+g h+i+j+k+l+m+p.Q.,+5+5+5+5+5+5+5+5+5+5+n+o+p+q+r+].s+t+u+v+",
"w+x+n.a+y+P j z+A+B+p.,+,+5+5+5+5+5+5+5+5+5+5+5+C+D+E+F+G+].H+I+J+v+",
"K+L+M+N+O+P+P h Q+R+p.,+,+5+5+S+)+)+S+)+)+5+5+T+U+V+F+|+W+b+X+Y+.+Z+",
"`+ + @X+b+Y+g .@+@q+S+@@5+5+S+S+)+5+@@5+)+#@$@%@&@*@=@-@;@X+>@,@'@)@",
"J+!@~@{@N+]@g+^@[+S+/@@@5+5+S+@@)+5+@@5+)+@@/@T (@_@Q+:@<@P+[@,@}@|@",
"1@2@3@4@5@6@7@8@9@S+/@S+5+5+5+@@@@S+S+@@@@@@/@0@a@b@c@d@e@P+f@ @g@N.",
"h@i@j@k@g@l@m@n@@+o@S+S+S+5+@@@@5+/@S+S+S+S+/@;+p@q@P+r@s@P+t@u@v@w@",
"x@y@z@N+f A@B@C@D@b.5+5+S+S+S+5+5+5+5+5+5+5+5+5+E@F@G@H@I@J@,@K@L@M@",
"N@O@P@Q@R@S@T@U@C V@W@5+5+S+S+@@@@5+5+5+5+5+5+u@X+X@Y@t@Z@`@]@ #.#+#",
"@###$#A.%#&#*#=#-#;#>#,#5+/@S+S+S+S+S+S+S+/@'#)#f@{@!#~#5@{#M ]#S@^#",
"/#(#_#:#<#[#}#|#1#2#3#4#5#p.,+,+p.p./@/@/@6#7#g@K@`@8#f 9#}+0#a#b#c#",
"d#e#f#D+g#h#i#j#k#l#m#q.p.Q.Q.p.,+/@)+)+)+/@n#o#)#9#p#q#r#s#t##+u#v#",
"w#x#C+y#z#A#|#B#C#D#E#p.,+Q.Q.Q./@)+)+)+)+)+/@w@f F#G#H#,.I#J#K#L#K#",
"M#N#O#P#Q#R#S#T#U#V#V#p.,+,+Q.Q./@)+)+)+)+)+/@r+W#X#Y#y.L#V Z#G `#8+",
" $.$+$@$#$#$8 @$$$%$&$*$p.,+,+Q.,+/@)+)+)+/@^@=$-$z.;$>$,$'$)$O#!$X.",
"~${$]$5#^$/$($_$:$<$[$*$*$p.,+,+p.p./@/@/@)+z }$|$1$2$3$#@=.4$5$6$y.",
"7$8$9$0$a$]$b$c$d$3$Z#*$e$*$p.p.p.f$f$f$e$*$g$h$K#i$j$T@#@=.k$l$m$$.",
"n$o$p$C#5#q$r$s$t$#.;$*$e$e$e$f$f$f$f$f$e$*$u$`#v$w$x$T@M#y$z$A$B$C$",
"D$D$3#E$F$G$t$H$y.I$J$q+*$e$e$e$f$f$*$e$*$>.K$L$w M$L$V N$^#O$P$]#`.",
"Q$R$S$T$U$,$7..#$.e#e#V$*$e$e$e$e$e$*$e$*$W$2$X$Y$Z$`$ %1$.%+%@% ##%",
"$%%%&%}.*%1$=%}+r#-%^+;%>%*$*$*$*$*$*$*$,%'%)%!%~%-.{%]%^%/%(%_%Q@m.",
":%<%.$[%}%|$r#p#|%1%2%3%4%/@/@/@/@/@5+/@5+5%6%7%5$Z#8%9%0%a%b%/#c%m.",
"d%e%f%V g%s#h%i%j%k%l%m%n%5+/@/@/@/@R.5+R.5+o%p%q%r%s%t%u%v%w%x%0.|@",
"[%y%z%A%B%C%D%A {#&.l%E%F%5+5+5+5+5+5+5+5+5+G%U$N$]%H%I%J%4+K%L%M%x%",
"N%O%Z.-$0+`.n.P%h.Q%X#q+R%w$S%T%R#U%6%k$V%G H$W%X%Y%Z%a%`% &.&j.k./+",
"+&+&W#!.m.c%@&h.9+#&h$$&%&&&*&=&-&;&>&,&H '&f#)&!&~&#%{&]&^&0+P%/&p#"};
