/* XPM */
static char * wall_xpm[] = {
"34 34 1012 2",
"  	c #A98168",
". 	c #A37B62",
"+ 	c #9E795F",
"@ 	c #9A755B",
"# 	c #9B785C",
"$ 	c #9D7B5F",
"% 	c #947558",
"& 	c #907154",
"* 	c #907258",
"= 	c #8B7156",
"- 	c #8D785B",
"; 	c #847355",
"> 	c #887459",
", 	c #887056",
"' 	c #8F735B",
") 	c #8F6F5A",
"! 	c #947560",
"~ 	c #9B7C67",
"{ 	c #90705B",
"] 	c #8D6A56",
"^ 	c #95725E",
"/ 	c #957560",
"( 	c #90745E",
"_ 	c #937762",
": 	c #826953",
"< 	c #948068",
"[ 	c #DECEB5",
"} 	c #CDBDA4",
"| 	c #907A63",
"1 	c #9A7E69",
"2 	c #967562",
"3 	c #A27E6E",
"4 	c #A88474",
"5 	c #927E66",
"6 	c #8B775F",
"7 	c #8E7861",
"8 	c #917B63",
"9 	c #947C64",
"0 	c #907860",
"a 	c #8A7059",
"b 	c #8B7158",
"c 	c #876F53",
"d 	c #857053",
"e 	c #847153",
"f 	c #7C6B4F",
"g 	c #847357",
"h 	c #87765A",
"i 	c #8B775E",
"j 	c #847057",
"k 	c #87775D",
"l 	c #837359",
"m 	c #99836B",
"n 	c #836D55",
"o 	c #867259",
"p 	c #85745A",
"q 	c #7F6D55",
"r 	c #827259",
"s 	c #9D9378",
"t 	c #CAC3A7",
"u 	c #BBB498",
"v 	c #998D73",
"w 	c #9D8B73",
"x 	c #957F68",
"y 	c #937D68",
"z 	c #99836E",
"A 	c #B1AF9A",
"B 	c #ACA791",
"C 	c #ACA690",
"D 	c #AAA28D",
"E 	c #AB9F89",
"F 	c #AD9C88",
"G 	c #AC9A86",
"H 	c #B19F8B",
"I 	c #B5AC8B",
"J 	c #BAB190",
"K 	c #B8AF90",
"L 	c #B0A788",
"M 	c #B5AF8F",
"N 	c #B4B192",
"O 	c #B4B595",
"P 	c #B3B796",
"Q 	c #C0BFA0",
"R 	c #BAB798",
"S 	c #C2BB9E",
"T 	c #D0C5A9",
"U 	c #CBBDA2",
"V 	c #C6B89D",
"W 	c #C7BCA0",
"X 	c #BFB498",
"Y 	c #B3A78D",
"Z 	c #ADA68A",
"` 	c #BAB699",
" .	c #C2C1A3",
"..	c #BEBD9F",
"+.	c #C1BC9F",
"@.	c #C4B89E",
"#.	c #BDAF95",
"$.	c #B9AD95",
"%.	c #C0B49C",
"&.	c #948E78",
"*.	c #938B76",
"=.	c #8D826E",
"-.	c #8F836D",
";.	c #9A8B76",
">.	c #9C8B77",
",.	c #9D8C78",
"'.	c #958868",
").	c #9C8B6F",
"!.	c #9F8B70",
"~.	c #A18D72",
"{.	c #A5947A",
"].	c #9B9275",
"^.	c #979475",
"/.	c #9EA281",
"(.	c #AAA98A",
"_.	c #9D9A7B",
":.	c #938C6F",
"<.	c #96886D",
"[.	c #99896F",
"}.	c #A19076",
"|.	c #A49379",
"1.	c #9C8B71",
"2.	c #97876E",
"3.	c #94866C",
"4.	c #988C72",
"5.	c #92886D",
"6.	c #8B8166",
"7.	c #918369",
"8.	c #918168",
"9.	c #96846C",
"0.	c #9B8C75",
"a.	c #A2937C",
"b.	c #826C57",
"c.	c #816B56",
"d.	c #816B54",
"e.	c #79654D",
"f.	c #7C6A52",
"g.	c #78674D",
"h.	c #75644A",
"i.	c #84644D",
"j.	c #88654F",
"k.	c #8A6650",
"l.	c #8E6956",
"m.	c #8B6854",
"n.	c #826650",
"o.	c #917D64",
"p.	c #B6A68D",
"q.	c #BEB397",
"r.	c #9A8C71",
"s.	c #86755B",
"t.	c #8A745C",
"u.	c #8D735C",
"v.	c #8B6F59",
"w.	c #8C705A",
"x.	c #8D715B",
"y.	c #917661",
"z.	c #8F7660",
"A.	c #8D745E",
"B.	c #886F59",
"C.	c #846954",
"D.	c #836752",
"E.	c #876B56",
"F.	c #7B6550",
"G.	c #836D58",
"H.	c #9E826C",
"I.	c #927660",
"J.	c #8C725B",
"K.	c #897159",
"L.	c #877257",
"M.	c #867257",
"N.	c #877358",
"O.	c #8E7D61",
"P.	c #9A896D",
"Q.	c #99856A",
"R.	c #937F66",
"S.	c #968269",
"T.	c #907F65",
"U.	c #93856A",
"V.	c #ACA287",
"W.	c #D5CEB2",
"X.	c #E7D7BD",
"Y.	c #AB9A80",
"Z.	c #8F7961",
"`.	c #937962",
" +	c #937761",
".+	c #977B65",
"++	c #9D816B",
"@+	c #997E69",
"#+	c #987C67",
"$+	c #90745F",
"%+	c #8E725D",
"&+	c #917560",
"*+	c #92735F",
"=+	c #91725E",
"-+	c #917864",
";+	c #99806C",
">+	c #B4A58E",
",+	c #A89A80",
"'+	c #A7977E",
")+	c #A8987F",
"!+	c #A6967C",
"~+	c #A9997F",
"{+	c #B7A78D",
"]+	c #C6C1A1",
"^+	c #C4C1A2",
"/+	c #BFBE9F",
"(+	c #C7C8A8",
"_+	c #C9CAAA",
":+	c #D0D1B2",
"<+	c #D0CFB1",
"[+	c #D6D2B5",
"}+	c #DCD3B6",
"|+	c #B7A98E",
"1+	c #B9A98F",
"2+	c #BAA98F",
"3+	c #C0B096",
"4+	c #BDAF94",
"5+	c #B3A58A",
"6+	c #B4A48B",
"7+	c #B7A78E",
"8+	c #B8A68E",
"9+	c #B5A38B",
"0+	c #B39F87",
"a+	c #B2A088",
"b+	c #AA9B84",
"c+	c #B3A48D",
"d+	c #B9BBA3",
"e+	c #BFBFA5",
"f+	c #BDB9A0",
"g+	c #B2AC94",
"h+	c #A59B82",
"i+	c #988C74",
"j+	c #968A72",
"k+	c #A28C74",
"l+	c #B1A086",
"m+	c #B8AA8F",
"n+	c #B5AC8F",
"o+	c #AB9F85",
"p+	c #B2A289",
"q+	c #AD9981",
"r+	c #A78E78",
"s+	c #A6A586",
"t+	c #A9A889",
"u+	c #B0AD8E",
"v+	c #A8A385",
"w+	c #A39E80",
"x+	c #A7A485",
"y+	c #ABAC8C",
"z+	c #B7B898",
"A+	c #BCBB9D",
"B+	c #B3AF92",
"C+	c #B1AC8F",
"D+	c #AEA78B",
"E+	c #AFA88C",
"F+	c #ACA78A",
"G+	c #ABAA8E",
"H+	c #B5B498",
"I+	c #958A78",
"J+	c #ADA791",
"K+	c #C5BFA7",
"L+	c #978871",
"M+	c #8F745F",
"N+	c #987C64",
"O+	c #917E60",
"P+	c #927A5E",
"Q+	c #8C7B5F",
"R+	c #A19376",
"S+	c #BFAF95",
"T+	c #8C715C",
"U+	c #917862",
"V+	c #8E7964",
"W+	c #94765E",
"X+	c #997964",
"Y+	c #987561",
"Z+	c #9C7966",
"`+	c #9C7D69",
" @	c #9E8571",
".@	c #8D7D66",
"+@	c #B4A892",
"@@	c #998D77",
"#@	c #7C6A56",
"$@	c #8A6F5C",
"%@	c #91705D",
"&@	c #926D5A",
"*@	c #926F59",
"=@	c #8A7055",
"-@	c #928167",
";@	c #8A7E68",
">@	c #B5AE94",
",@	c #D2C8AD",
"'@	c #A29177",
")@	c #997D65",
"!@	c #99775E",
"~@	c #997B5F",
"{@	c #9E8567",
"]@	c #9C7E66",
"^@	c #927D62",
"/@	c #B4A588",
"(@	c #CEBEA4",
"_@	c #9E866E",
":@	c #9D7E6A",
"<@	c #977B66",
"[@	c #9A765C",
"}@	c #9C775D",
"|@	c #A07761",
"1@	c #A07A63",
"2@	c #A07D67",
"3@	c #A48870",
"4@	c #A08C73",
"5@	c #DACAB0",
"6@	c #A9957D",
"7@	c #8A715B",
"8@	c #92725D",
"9@	c #98725D",
"0@	c #986F59",
"a@	c #997158",
"b@	c #98745A",
"c@	c #917255",
"d@	c #8F6D54",
"e@	c #90785C",
"f@	c #867F65",
"g@	c #C5BEA2",
"h@	c #D6CBAF",
"i@	c #9B8A6E",
"j@	c #967B60",
"k@	c #A28065",
"l@	c #98795D",
"m@	c #997E60",
"n@	c #A1816A",
"o@	c #998167",
"p@	c #BEB093",
"q@	c #907A62",
"r@	c #947360",
"s@	c #9B7664",
"t@	c #9C7765",
"u@	c #9B765B",
"v@	c #9D755B",
"w@	c #9E765C",
"x@	c #A0785F",
"y@	c #977C5F",
"z@	c #978466",
"A@	c #D3C4A5",
"B@	c #A89078",
"C@	c #8A6E56",
"D@	c #99735C",
"E@	c #9C735D",
"F@	c #9C745B",
"G@	c #9A775B",
"H@	c #967458",
"I@	c #977258",
"J@	c #967B5E",
"K@	c #858168",
"L@	c #C4BEA6",
"M@	c #D4CAB1",
"N@	c #9F8F78",
"O@	c #8D7760",
"P@	c #957B64",
"Q@	c #92785F",
"R@	c #9A8268",
"S@	c #9D7E69",
"T@	c #9B876E",
"U@	c #BEB598",
"V@	c #CAC3A6",
"W@	c #9C8C72",
"X@	c #997F68",
"Y@	c #977762",
"Z@	c #91715C",
"`@	c #957B60",
" #	c #92775C",
".#	c #8B7055",
"+#	c #977B63",
"@#	c #A1896F",
"##	c #9E8D71",
"$#	c #948B6C",
"%#	c #B1AC8C",
"&#	c #9F8F76",
"*#	c #87735B",
"=#	c #8B725C",
"-#	c #8E725C",
";#	c #8C7058",
">#	c #8E745B",
",#	c #8D735A",
"'#	c #8F705B",
")#	c #8F7B62",
"!#	c #AEAD99",
"~#	c #CBC6B3",
"{#	c #D9CEBC",
"]#	c #C7B7A7",
"^#	c #B1A28F",
"/#	c #A59482",
"(#	c #A69581",
"_#	c #A99783",
":#	c #B69E86",
"<#	c #B4A68B",
"[#	c #BEBB9C",
"}#	c #D3D0B1",
"|#	c #C6BDA0",
"1#	c #C4B399",
"2#	c #BCA68E",
"3#	c #B49E86",
"4#	c #ABA38C",
"5#	c #ADA28C",
"6#	c #A49882",
"7#	c #B2A38C",
"8#	c #BCB098",
"9#	c #B8B298",
"0#	c #B5B599",
"a#	c #BABFA1",
"b#	c #B9B19C",
"c#	c #A59D88",
"d#	c #A79A87",
"e#	c #A69784",
"f#	c #A49580",
"g#	c #A3947F",
"h#	c #AB9C87",
"i#	c #AE9F8A",
"j#	c #AC9988",
"k#	c #AFA792",
"l#	c #C1BAA8",
"m#	c #BFB2A2",
"n#	c #C3B1A3",
"o#	c #C7B4A5",
"p#	c #BDAD9D",
"q#	c #B5AA98",
"r#	c #C3B6A3",
"s#	c #A79885",
"t#	c #B19B84",
"u#	c #AD9D84",
"v#	c #9F987C",
"w#	c #ACA588",
"x#	c #B7A88B",
"y#	c #CCC3A4",
"z#	c #CECDB8",
"A#	c #C1BFAA",
"B#	c #B3AB98",
"C#	c #B8AD99",
"D#	c #B9AE9A",
"E#	c #B4AC97",
"F#	c #B8B49B",
"G#	c #B6B69C",
"H#	c #BDB29E",
"I#	c #B4A995",
"J#	c #B7AC98",
"K#	c #B6A996",
"L#	c #B5A895",
"M#	c #B2A592",
"N#	c #B9AC99",
"O#	c #C0AF9F",
"P#	c #C5BEAB",
"Q#	c #8D7865",
"R#	c #8D725F",
"S#	c #906F5E",
"T#	c #8E715F",
"U#	c #86715C",
"V#	c #8F8069",
"W#	c #BBAC95",
"X#	c #8B7963",
"Y#	c #866D57",
"Z#	c #7F6B53",
"`#	c #856D55",
" $	c #867156",
".$	c #93886A",
"+$	c #B9B695",
"@$	c #C2BCA6",
"#$	c #938874",
"$$	c #84735F",
"%$	c #8E7765",
"&$	c #957A67",
"*$	c #947B67",
"=$	c #917B64",
"-$	c #907C64",
";$	c #927762",
">$	c #907560",
",$	c #937A64",
"'$	c #907761",
")$	c #8C715E",
"!$	c #8E7360",
"~$	c #896C5A",
"{$	c #907361",
"]$	c #92806A",
"^$	c #9B7B64",
"/$	c #97715C",
"($	c #966956",
"_$	c #916B56",
":$	c #8D7159",
"<$	c #978368",
"[$	c #CFBBA0",
"}$	c #957D63",
"|$	c #957161",
"1$	c #8E6D5A",
"2$	c #93705C",
"3$	c #916E5A",
"4$	c #91755D",
"5$	c #9C8E71",
"6$	c #C9C9A5",
"7$	c #C5B39D",
"8$	c #8B755E",
"9$	c #90715D",
"0$	c #9F7A67",
"a$	c #9E7563",
"b$	c #9D725F",
"c$	c #9D7460",
"d$	c #B08771",
"e$	c #A1775F",
"f$	c #A0765E",
"g$	c #9E765D",
"h$	c #97715A",
"i$	c #A27764",
"j$	c #9C715E",
"k$	c #9C7C65",
"l$	c #A07467",
"m$	c #92685A",
"n$	c #936E5E",
"o$	c #8E6F5D",
"p$	c #836855",
"q$	c #947F6A",
"r$	c #BFAF98",
"s$	c #8E7F68",
"t$	c #936D5A",
"u$	c #94715D",
"v$	c #93735E",
"w$	c #936E5B",
"x$	c #976E5C",
"y$	c #946E5B",
"z$	c #A68A74",
"A$	c #DBC7AE",
"B$	c #C8B398",
"C$	c #8D755B",
"D$	c #947860",
"E$	c #937960",
"F$	c #8D7C60",
"G$	c #977460",
"H$	c #96705D",
"I$	c #A07A65",
"J$	c #9B7761",
"K$	c #9A785F",
"L$	c #95775D",
"M$	c #8E7557",
"N$	c #95735A",
"O$	c #9C7A61",
"P$	c #917462",
"Q$	c #8C6F5D",
"R$	c #8A715D",
"S$	c #7F6A55",
"T$	c #85755E",
"U$	c #C0B69D",
"V$	c #958E74",
"W$	c #8B735B",
"X$	c #89755C",
"Y$	c #89785E",
"Z$	c #8C765E",
"`$	c #90765F",
" %	c #8D755D",
".%	c #98886E",
"+%	c #BCB799",
"@%	c #B5A58B",
"#%	c #8C7B61",
"$%	c #8E7860",
"%%	c #917961",
"&%	c #8F755E",
"*%	c #8E765E",
"=%	c #907C63",
"-%	c #8A795F",
";%	c #95705D",
">%	c #87725D",
",%	c #8F7A65",
"'%	c #9C8D78",
")%	c #968772",
"!%	c #9D917B",
"~%	c #A59A84",
"{%	c #ADA58E",
"]%	c #A6A088",
"^%	c #ADA78F",
"/%	c #A5A188",
"(%	c #AFA488",
"_%	c #A9A285",
":%	c #AAA386",
"<%	c #ABA084",
"[%	c #ABA889",
"}%	c #BBC19F",
"|%	c #BDBC9D",
"1%	c #B3AC8F",
"2%	c #B2A98C",
"3%	c #AC9E83",
"4%	c #A89A7F",
"5%	c #A4997D",
"6%	c #A99177",
"7%	c #AD957D",
"8%	c #AB957D",
"9%	c #A18B74",
"0%	c #9F8972",
"a%	c #9D8873",
"b%	c #9D8875",
"c%	c #9F8A77",
"d%	c #A39787",
"e%	c #A09484",
"f%	c #ABA08A",
"g%	c #AA9F89",
"h%	c #ACA48D",
"i%	c #A19982",
"j%	c #9C947D",
"k%	c #948F71",
"l%	c #979073",
"m%	c #9E9377",
"n%	c #9E9075",
"o%	c #989174",
"p%	c #999879",
"q%	c #99A07F",
"r%	c #A1A686",
"s%	c #A7AA8B",
"t%	c #ADAC8E",
"u%	c #AAA689",
"v%	c #A9A286",
"w%	c #B1AA8E",
"x%	c #ADA388",
"y%	c #AFA486",
"z%	c #B2A98A",
"A%	c #AEA98B",
"B%	c #ACA88D",
"C%	c #BEBAA1",
"D%	c #B7B19B",
"E%	c #A69E8B",
"F%	c #A39886",
"G%	c #A89B8B",
"H%	c #AB9E8E",
"I%	c #9B8975",
"J%	c #917F6B",
"K%	c #85735F",
"L%	c #8A7864",
"M%	c #887662",
"N%	c #877159",
"O%	c #7D6C52",
"P%	c #817056",
"Q%	c #927861",
"R%	c #88775D",
"S%	c #80795D",
"T%	c #898266",
"U%	c #92866C",
"V%	c #8D7D64",
"W%	c #8A765E",
"X%	c #8E755F",
"Y%	c #928165",
"Z%	c #877D62",
"`%	c #8E886E",
" &	c #A49E86",
".&	c #9A8F7B",
"+&	c #8D7C6C",
"@&	c #947E71",
"#&	c #967B68",
"$&	c #9C816E",
"%&	c #9A7D6B",
"&&	c #8F7461",
"*&	c #907562",
"=&	c #8C735F",
"-&	c #9D7764",
";&	c #93745F",
">&	c #977863",
",&	c #9F7C68",
"'&	c #9E7E69",
")&	c #9C7B6A",
"!&	c #9E7F6D",
"~&	c #9B7C6A",
"{&	c #A18270",
"]&	c #9B7A69",
"^&	c #9C7767",
"/&	c #A2786A",
"(&	c #987360",
"_&	c #9E7F6B",
":&	c #9C866F",
"<&	c #BDAB95",
"[&	c #9F8574",
"}&	c #957165",
"|&	c #A0756C",
"1&	c #A07C66",
"2&	c #A37F69",
"3&	c #A3806D",
"4&	c #9B7865",
"5&	c #987764",
"6&	c #8C705B",
"7&	c #8E735E",
"8&	c #997662",
"9&	c #857158",
"0&	c #88745B",
"a&	c #977D66",
"b&	c #9C7D68",
"c&	c #997D67",
"d&	c #9E7A6A",
"e&	c #977A68",
"f&	c #9D806E",
"g&	c #957866",
"h&	c #9A7B69",
"i&	c #9C7868",
"j&	c #987363",
"k&	c #9C7262",
"l&	c #CFBFA6",
"m&	c #BDAB93",
"n&	c #9A7F6A",
"o&	c #997261",
"p&	c #A07062",
"q&	c #9B7862",
"r&	c #A5826C",
"s&	c #A7826F",
"t&	c #96735F",
"u&	c #92735E",
"v&	c #947862",
"w&	c #8B715A",
"x&	c #7E7357",
"y&	c #82775B",
"z&	c #977F67",
"A&	c #988068",
"B&	c #927D6A",
"C&	c #8F7E6A",
"D&	c #8E826C",
"E&	c #918670",
"F&	c #877C66",
"G&	c #8A7B66",
"H&	c #83715D",
"I&	c #997C6A",
"J&	c #87715C",
"K&	c #8D8368",
"L&	c #DCD8BB",
"M&	c #8D7F64",
"N&	c #987E65",
"O&	c #9C826B",
"P&	c #9E846D",
"Q&	c #B3A389",
"R&	c #B6A68C",
"S&	c #AF9F85",
"T&	c #AE9E84",
"U&	c #A4967B",
"V&	c #A5977C",
"W&	c #AA9C81",
"X&	c #B1A084",
"Y&	c #AE9F82",
"Z&	c #B2A487",
"`&	c #B0A589",
" *	c #B0A287",
".*	c #BAA890",
"+*	c #C1AD95",
"@*	c #BDB39A",
"#*	c #BBAB94",
"$*	c #B8A690",
"%*	c #B0A089",
"&*	c #A89E85",
"**	c #9F9E82",
"=*	c #9B9E81",
"-*	c #A49689",
";*	c #ADA493",
">*	c #ABA895",
",*	c #A9AB95",
"'*	c #A2A48C",
")*	c #9E9E84",
"!*	c #A9A58A",
"~*	c #ACA58B",
"{*	c #B1A58B",
"]*	c #B0A48A",
"^*	c #AE9D83",
"/*	c #A8987E",
"(*	c #A3957A",
"_*	c #9D9276",
":*	c #A1987B",
"<*	c #B7B294",
"[*	c #C2BFA0",
"}*	c #928F70",
"|*	c #95876A",
"1*	c #8E8063",
"2*	c #95876C",
"3*	c #A09277",
"4*	c #9B8F75",
"5*	c #A2967C",
"6*	c #BCB096",
"7*	c #A8977D",
"8*	c #AD977F",
"9*	c #988D71",
"0*	c #957F67",
"a*	c #A08F75",
"b*	c #A7977D",
"c*	c #A7987B",
"d*	c #A49377",
"e*	c #A7967A",
"f*	c #AB987A",
"g*	c #A99982",
"h*	c #A3836C",
"i*	c #9B7D65",
"j*	c #967C63",
"k*	c #8C775C",
"l*	c #857659",
"m*	c #A39A7B",
"n*	c #B8B393",
"o*	c #787554",
"p*	c #87735A",
"q*	c #856F57",
"r*	c #8E745D",
"s*	c #86725A",
"t*	c #8C7E64",
"u*	c #B4AA8F",
"v*	c #A99676",
"w*	c #9B8465",
"x*	c #A18669",
"y*	c #A5866A",
"z*	c #A5876B",
"A*	c #9A8163",
"B*	c #9F8869",
"C*	c #A68562",
"D*	c #A58360",
"E*	c #A98565",
"F*	c #AC8566",
"G*	c #A88162",
"H*	c #A07B5E",
"I*	c #9B785A",
"J*	c #9E7D5E",
"K*	c #9C7C63",
"L*	c #A7876E",
"M*	c #BC8777",
"N*	c #B3806F",
"O*	c #AF826F",
"P*	c #A6806B",
"Q*	c #95775F",
"R*	c #AA957A",
"S*	c #C7B89B",
"T*	c #8F8164",
"U*	c #886C56",
"V*	c #9B7463",
"W*	c #956B5B",
"X*	c #916C5A",
"Y*	c #94826C",
"Z*	c #CDC1A9",
"`*	c #BBA482",
" =	c #A78D6C",
".=	c #AB8C6D",
"+=	c #AF8C6E",
"@=	c #B08B6E",
"#=	c #B18C6F",
"$=	c #A78265",
"%=	c #AD8A6C",
"&=	c #AD8B65",
"*=	c #AC8662",
"==	c #B28564",
"-=	c #B28163",
";=	c #AF7D62",
">=	c #AC7E64",
",=	c #A77E62",
"'=	c #AB866B",
")=	c #AE8162",
"!=	c #B58869",
"~=	c #BB8676",
"{=	c #AC7B6A",
"]=	c #A77C69",
"^=	c #9F7B65",
"/=	c #90745C",
"(=	c #AB977C",
"_=	c #C5B699",
":=	c #84795B",
"<=	c #89705A",
"[=	c #927160",
"}=	c #8D705E",
"|=	c #806B56",
"1=	c #8C816B",
"2=	c #C9C5AC",
"3=	c #B9A282",
"4=	c #A58C6D",
"5=	c #A98C6E",
"6=	c #AA8B6E",
"7=	c #AF8C70",
"8=	c #B18C71",
"9=	c #A98469",
"0=	c #AE896E",
"a=	c #A8906C",
"b=	c #A68969",
"c=	c #A78466",
"d=	c #A67E64",
"e=	c #A77D65",
"f=	c #A77E68",
"g=	c #A27F69",
"h=	c #A17C62",
"i=	c #A88369",
"j=	c #B29680",
"k=	c #A98F78",
"l=	c #9A896F",
"m=	c #B1AC8E",
"n=	c #B9B899",
"o=	c #8D8E6E",
"p=	c #8F8B70",
"q=	c #918B71",
"r=	c #968C73",
"s=	c #988E75",
"t=	c #9A927B",
"u=	c #959178",
"v=	c #9C9F84",
"w=	c #BEC4A8",
"x=	c #B5A488",
"y=	c #A9987C",
"z=	c #AF9A7F",
"A=	c #B29A80",
"B=	c #B49A81",
"C=	c #B2967E",
"D=	c #B3977F",
"E=	c #9D8F74",
"F=	c #958168",
"G=	c #9A846C",
"H=	c #A38A74",
"I=	c #A9937C",
"J=	c #A7917A",
"K=	c #9B8A7A",
"L=	c #A69585",
"M=	c #BBAF95",
"N=	c #B8AE93",
"O=	c #B5AE92",
"P=	c #B2AD90",
"Q=	c #BEBA9D",
"R=	c #BEBFA0",
"S=	c #BCBD9E",
"T=	c #B3B697",
"U=	c #BEBA9F",
"V=	c #C6C2A7",
"W=	c #C4C0A5",
"X=	c #C0BEA5",
"Y=	c #C2C0A7",
"Z=	c #C6C6AE",
"`=	c #CABFA9",
" -	c #CEC3AD",
".-	c #CDC2AC",
"+-	c #CDC1AB",
"@-	c #D1C2AD",
"#-	c #CCBBA7",
"$-	c #CBC5AD",
"%-	c #C9C3AB",
"&-	c #BFBBA0",
"*-	c #C8C4A9",
"=-	c #C6C0A6",
"--	c #BAAE94",
";-	c #BAAA91",
">-	c #B1AA98",
",-	c #B9B2A0",
"'-	c #8F856C",
")-	c #877D64",
"!-	c #8D866C",
"~-	c #888167",
"{-	c #817A60",
"]-	c #7D775D",
"^-	c #797359",
"/-	c #7E6E57",
"(-	c #83745D",
"_-	c #80745E",
":-	c #867B65",
"<-	c #887966",
"[-	c #907F6D",
"}-	c #877463",
"|-	c #7E7965",
"1-	c #88836F",
"2-	c #898772",
"3-	c #918F7A",
"4-	c #93917C",
"5-	c #94927D",
"6-	c #9E9985",
"7-	c #968F7C",
"8-	c #A09E87",
"9-	c #A9A991",
"0-	c #A8AC91",
"a-	c #BBC2A3",
"b-	c #B0B595",
"c-	c #8F8E6F",
"d-	c #918A6D",
"e-	c #918668",
"f-	c #8B8265",
"g-	c #8A8164",
"h-	c #997A65",
"i-	c #91725D",
"j-	c #886853",
"k-	c #886954",
"l-	c #836952",
"m-	c #826A52",
"n-	c #816B53",
"o-	c #7E6850",
"p-	c #7E664E",
"q-	c #816951",
"r-	c #84694C",
"s-	c #886F51",
"t-	c #877051",
"u-	c #856E4F",
"v-	c #887151",
"w-	c #897051",
"x-	c #8C6F51",
"y-	c #8E6F52",
"z-	c #8D6E59",
"A-	c #7C745F",
"B-	c #CCC5AB",
"C-	c #C2B396",
"D-	c #8F7658",
"E-	c #97745E",
"F-	c #987562",
"G-	c #97735B",
"H-	c #9C7860",
"I-	c #A98A75",
"J-	c #A0816C",
"K-	c #9F806B",
"L-	c #9A7B66",
"M-	c #9D7D68",
"N-	c #8D775F",
"O-	c #8B755D",
"P-	c #8F775F",
"Q-	c #937664",
"R-	c #927965",
"S-	c #8E7561",
"T-	c #957662",
"U-	c #967762",
"V-	c #968E79",
"W-	c #D8D1B7",
"X-	c #CBBC9F",
"Y-	c #A08769",
"Z-	c #A47E71",
"`-	c #A98376",
"  . + @ # $ % & * = - ; > , ' ) ! ~ { ] ^ / ! ( _ : < [ } | 1 2 3 4 ",
"5 6 7 8 9 0 a b c d e f g h i j k l i m 8 n o p q r s t u v w x y z ",
"A B C D E F G H I J K L M N O P Q R S T U V W X Y Z `  ...+.@.#.$.%.",
"&.&.*.=.-.;.>.,.'.).!.~.{.].^./.(._.:.<.[.}.|.1.2.3.4.5.6.7.8.9.0.a.",
"b.c.d.e.e.f.g.h.i.j.k.l.m.n.o.p.q.r.s.t.u.v.w.x.y.z.z.A.B.C.D.E.F.G.",
"H.I.J.K.L.M.N.O.P.Q.R.S.T.U.V.W.X.Y.Z.`. +.+++++@+#+$+%+&+*+*+=+-+;+",
">+,+'+)+'+!+~+{+]+^+/+(+_+:+<+[+}+q.|+1+2+3+4+5+6+7+8+9+0+0+a+9+b+c+",
"d+d+e+f+g+h+i+j+k+l+m+n+o+p+q+r+s+t+u+v+w+x+y+z+A+B+C+D+D+E+F+C+G+H+",
"I+J+K+L+M+{ N+O+P+Q+R+S+9 T+U+V+W+X+Y+Z+`+ @.@+@@@#@$@%@&@*@* =@x.-@",
";@>@,@'@)@!@~@{@]@^@/@(@_@:@:@<@[@}@|@1@2@3@4@5@6@7@8@9@0@a@b@c@d@e@",
"f@g@h@i@j@k@l@m@n@o@p@U q@r@s@t@u@v@w@x@[@y@z@A@B@C@*@D@E@F@G@H@I@J@",
"K@L@M@N@O@P@Q@R@S@T@U@V@W@X@Y@Z@`@ #.#+#@###$#%#&#*#=#-#-#;#>#,#'#)#",
"!#~#{#]#^#/#(#_#:#<#[#}#|#1#2#3#4#5#6#7#8#9#0#a#b#c#d#e#f#g#h#i#j#k#",
"l#m#n#o#p#q#r#s#t#u#v#w#5+x#p@y#z#A#B#C#D#E#F#G#H#I#J#K#L#M#N#N#O#P#",
"Q#R#S#T#U#V#W#X#E.Y#Z#n `# $.$+$@$#$$$%$&$*$=$-$;$>$,$'$z.)$!$~${$]$",
"^$/$($_$:$<$[$}$|$1$=+2$3$4$5$6$7$8$9$0$a$b$c$d$e$f$g$h$E@E@i$j$j$k$",
"l$m$n$o$p$q$r$s$t$u$v$w$x$y$z$A$B$C$;#W+D$E$^@F$u$G$H$I$J$K$L$M$N$O$",
"P$Q$R$S$T$a.U$V$W$X$Y$Z$`$ %.%+%@%#%$%%%&%*%=%-%2$2$&@;%;%/ ! -#>%,%",
"'%)%!%~%{%]%^%/%(%_%v+:%(%<%[%}%|%u+1%2%3%4%<%5%6%7%8%9%0%a%b%c%d%e%",
"f%~%5#g%h%i%j%i%!+].k%l%m%n%o%p%q%r%s%t%u%v%w%x%y%z%A%B%C%D%E%F%G%H%",
"I%J%J%K%L%J%L%M% +N%O%P%*%Q%$%R%S%T%6.U%V%W%=$X%Y%U.Z%`% &.&+&@&#&$&",
"%&Q$&&!$!$*&R$=&-&;&`#K.>&,&'&.+)&!&~&{&]&^&/&l$(&_&:&<&<&[&}&|&1&2&",
"3&4&5&*+6&&+7&y.8&`.9&0&a&b&S@c&d&)&e&f&g&h&i&j&k&%@=$l&m&n&o&p&q&r&",
"s&0$t&u&v&a&*%W$w&-%x&y&-@z&A&S.B&C&D&E&F&-.G&H&I&J&K&L&N M&N&1&O&P&",
"Q&R&S&T&5+U&V&W&X&Y&Z&`&<% *.*+*@*$.#*$*%*&***=*-*;*>*,*'*)*!*~*{*]*",
"^*/*(*_*:*<*[*}*|*1*2*n%3*4*5*6* *7*8*7%B@}.9*l%0*T@a*b*c*d*e*f*g*%*",
"h*i*j*k*l*m*n*o*p*q*&%r*A.s*t*u*v*w*x*y*y*z*A*B*C*D*E*F*G*H*I*J*K*L*",
"M*N*O*P*Q*R*S*T*U*{ V*W*X*~$Y*Z*`* =.=+=@=#=$=%=&=*===-=;=>=,='=)=!=",
"~={=]=^=/=(=_=:=*#<=*+[=}=|=1=2=3=4=5=6=7=8=9=0=a=b=c=d=e=f=g=n@h=i=",
"j=k=k+l=m%m=n=o=p=q=r=s=t=u=v=w=x=y=(=z=A=B=C=D=E=[.F=G=H=r+I=J=K=L=",
"M=N=O=P=Q=R=S=T=U=V=W=X=X=Y=Z=Z=`=`=`= -.-+-@-#-$-%-&-*-=-N=--;->-,-",
"'-)-!-~-f@{-]-^-/-(-_-F&:-<-[-}-|-1-2-3-4-5-6-7-8-9-0-a-b-c-d-e-f-g-",
"h-u&;&i-/ 8@{ j-j-k-l-m-n-o-p-q-r-s-t-u-v-w-x-y-z-|=A-B-C-D-E-F-G-H-",
"I-J-K-L-M-X+X+Z@v$u&r* %N-O-W$P-Q-&$R-S-'$;$T-5&U-V+V-W-X-Y-2@3&Z-`-"};
